<?xml version="1.0" standalone="no"?>
<!DOCTYPE svg PUBLIC "-//W3C//DTD SVG 1.1//EN" "http://www.w3.org/Graphics/SVG/1.1/DTD/svg11.dtd" >
<svg xmlns="http://www.w3.org/2000/svg" xmlns:xlink="http://www.w3.org/1999/xlink" version="1.1">
<metadata></metadata>
<defs>
<font id="azoft_sansitalic" horiz-adv-x="1257" >
<font-face units-per-em="2048" ascent="1536" descent="-512" />
<missing-glyph horiz-adv-x="829" />
<glyph horiz-adv-x="0" />
<glyph horiz-adv-x="682" />
<glyph unicode=" "  horiz-adv-x="829" />
<glyph unicode="&#x09;" horiz-adv-x="829" />
<glyph unicode="&#xa0;" horiz-adv-x="829" />
<glyph unicode="!" horiz-adv-x="281" d="M73 0l17 122h129l-17 -122h-129zM146 277l38 573l33 228h141l-33 -228q-11 -54 -28.5 -139.5t-30.5 -148t-29.5 -142t-30.5 -143.5h-60z" />
<glyph unicode="&#x22;" horiz-adv-x="623" d="M242 918l24 160h127l-23 -163l-61 -197h-57q-1 14 -5 86.5t-5 113.5zM506 918l23 160h128l-24 -160l-64 -200h-55z" />
<glyph unicode="#" horiz-adv-x="910" d="M81 304l12 79h156l109 310h-222l11 80h239q21 58 62 174t53 150h83l-116 -324h287q21 58 61.5 174t52.5 150h84l-115 -324h140l-11 -80h-156l-108 -310h221l-12 -79h-239l-112 -323h-86l114 323h-284l-112 -323h-87l114 323h-139zM332 383h285l111 310h-285z" />
<glyph unicode="$" horiz-adv-x="1034" d="M84 63q59 84 65 91q49 -23 137 -45t195 -30l58 410q-46 10 -79.5 18t-67.5 18t-57 20.5t-45 24t-35.5 29.5t-24 35.5t-14.5 43.5t-4 53t5 64q13 89 72.5 154.5t144.5 98t188 35.5l24 163h90l-22 -163q107 -4 201.5 -20t148.5 -42l-69 -89q-53 19 -133.5 36.5t-161.5 20.5 l-56 -402q73 -14 117.5 -25t100 -33.5t84 -51t46 -75.5t10.5 -109q-10 -72 -37 -126.5t-65 -88.5t-93 -55.5t-114 -30.5t-134 -11l-23 -158h-91l23 161q-111 6 -219.5 27.5t-164.5 51.5zM325 735.5q-2 -20.5 5 -40t13.5 -28t33.5 -19t48.5 -16t74.5 -17.5q10 -2 14 -3 q31 -7 42 -9l53 386q-129 -6 -196 -51t-81 -145q-5 -37 -7 -57.5zM573 78q35 0 56.5 0.5t51 2.5t47.5 6t40 11.5t36 18t29.5 26t25 36t18 47.5t12.5 61q4 22 3.5 39.5t-1.5 31.5t-9 25.5t-14 19.5t-22.5 15.5t-28 12.5t-38 11t-44 10t-53.5 11l-53 10z" />
<glyph unicode="%" horiz-adv-x="1350" d="M192 730.5q-2 39.5 7 90.5q10 70 28.5 120.5t40.5 80t53.5 47t61 23t68.5 5.5q27 0 48.5 -3t43.5 -10t37 -20t29 -33.5t18.5 -50t6.5 -69t-7 -90.5q-8 -58 -21.5 -103t-32.5 -75t-40 -50t-48 -30.5t-52.5 -14.5t-57.5 -4q-27 0 -48.5 3t-43.5 10.5t-37 20.5t-28.5 34 t-18.5 50t-7 68.5zM286 748.5q-1 -31.5 0.5 -52t9.5 -35t15 -22t21.5 -11t24 -4t28.5 -0.5q18 0 27.5 0.5t25 4t24.5 11t21 22t19.5 35t15.5 52t14 72.5q5 33 6.5 59t1.5 45t-4 34t-7.5 24.5t-12.5 16t-15 10t-18.5 5t-19.5 2t-22 0.5q-17 0 -25 -0.5t-22.5 -2.5t-22 -7.5 t-19 -14t-18.5 -23t-15 -35t-14.5 -49t-11.5 -64.5q-6 -41 -7 -72.5zM296 -40l777 1137h127l-776 -1137h-128zM860 146.5q0 40.5 8 90.5q8 59 21.5 103.5t32.5 74.5t40 49.5t48 30t52 14.5t57 4q28 0 49 -3t43.5 -10t37 -20t28.5 -34t18.5 -50t6.5 -68.5t-7 -90.5 q-10 -69 -28.5 -120t-41 -80.5t-54 -47t-61.5 -23.5t-68 -6q-27 0 -48.5 3t-43.5 10.5t-37.5 20.5t-28 34t-18.5 49.5t-6 69zM955 164.5q-1 -31.5 0.5 -52.5t9.5 -35t14.5 -21.5t21 -11t24 -4t28.5 -0.5q18 0 28 0.5t25.5 4t24.5 11t21 22t19.5 35t15.5 52t14 72.5 q5 32 6 58.5t1 45.5t-4.5 34t-8 24.5t-12.5 16.5t-15 10t-18.5 5t-19.5 2h-22q-17 0 -25 -0.5t-22.5 -2.5t-22 -7t-18.5 -14t-18 -23.5t-15 -35t-14 -49t-11 -64.5q-6 -41 -7 -72.5z" />
<glyph unicode="&#x26;" horiz-adv-x="1141" d="M149 293q5 35 18.5 66t31.5 55.5t47.5 49.5t56.5 43t69 40t75 37.5t84 37.5q-74 99 -100.5 151t-20.5 96q7 52 25 89t53.5 67t96 45.5t146.5 15.5q78 0 130 -15t76.5 -43.5t32 -64t0.5 -83.5q-4 -32 -14.5 -59.5t-31 -51t-40 -41.5t-54.5 -39.5t-62.5 -36t-75.5 -38.5 l194 -289q52 81 86 166q25 -4 63.5 -13.5t50.5 -11.5q-52 -123 -133 -229q67 -105 152 -171q-27 -26 -90 -86q-51 34 -151 161l-14 -13q-167 -147 -342 -147q-76 0 -121.5 3.5t-103 20.5t-86.5 48.5t-44.5 92t-3.5 147.5zM266 215.5q1 -37.5 9.5 -62t22.5 -41.5t33.5 -25 t43.5 -12.5t51 -4t56 0.5h40q45 0 97 20t101.5 56t85.5 81l-230 329q-37 -19 -85 -42.5t-73 -36t-55 -31.5t-45.5 -36.5t-28 -45t-17.5 -63.5q-7 -49 -6 -86.5zM526 885q-6 -47 58 -128l60 -78l16 8q34 17 49.5 24.5t39.5 20.5t33.5 20t24.5 19t20.5 21t13 22.5t11 28 t6.5 33.5q5 32 1 56.5t-19 41t-46.5 25t-81.5 8.5q-66 0 -106 -15t-57 -40.5t-23 -66.5z" />
<glyph unicode="'" horiz-adv-x="318" d="M220 912l24 166h128l-24 -166q-10 -31 -29 -95.5t-31 -98.5h-62z" />
<glyph unicode="(" horiz-adv-x="391" d="M65.5 154.5q0.5 46.5 4 105.5t13.5 125q9 66 21.5 124.5t25.5 105t32.5 92t34.5 77.5t41.5 69.5t43.5 60t49 57t50.5 53t55.5 54.5l6.5 6.5l6 6l6.5 6.5l40 -33q-18 -22 -49 -59q-37 -44 -53.5 -64t-43 -55t-37.5 -56t-28.5 -58t-26.5 -69.5t-21 -82.5t-21.5 -105.5 t-19.5 -129.5t-16.5 -129.5t-8.5 -105t-2.5 -82.5t7 -69.5t12.5 -57.5t21.5 -55.5t27 -55t35.5 -63.5q21 -38 33 -60l-48 -33q-4 5 -13 16l-40.5 55.5t-36 53t-33.5 57t-27 60t-22 69.5t-13 77.5t-6.5 92z" />
<glyph unicode=")" horiz-adv-x="391" d="M3 -293q18 21 49 58q37 44 53.5 64t42.5 55t37.5 56t29 57.5t26 69.5t21 82.5t21.5 105t19.5 130t17 130.5t8 105.5l2.5 82.5t-6.5 70t-13 58t-21.5 56t-27 55t-36 65q-20 36 -32 57l47 33l9 -12l37.5 -51t34 -48t31.5 -51t26 -52.5t23 -59.5t16 -64.5t11 -75.5t2.5 -85 t-4 -100t-12.5 -113q-10 -67 -22.5 -125.5t-25 -105.5t-32.5 -92.5t-35 -77.5t-41.5 -69t-43.5 -59.5t-49.5 -57.5t-51 -53.5t-56.5 -54.5q-11 -11 -17 -16z" />
<glyph unicode="*" horiz-adv-x="575" d="M158 874l49 101q124 -47 166 -71q2 94 12 182h109q-14 -87 -44 -180q60 26 164 63l27 8l21 -103q-82 -26 -199 -43q47 -46 111 -136l-98 -63q-41 74 -82 158q-62 -92 -123 -155l-80 58q75 80 148 138q-118 25 -181 43z" />
<glyph unicode="+" horiz-adv-x="734" d="M70 486l13 93h313l42 301h101l-42 -301h318l-14 -93h-317l-43 -307h-101l43 307h-313z" />
<glyph unicode="," horiz-adv-x="306" d="M75 -189q45 23 71 66t43 123h-83l17 122h127l-19 -138q-19 -143 -138 -201z" />
<glyph unicode="-" horiz-adv-x="671" d="M177 334l16 104h404l-15 -104h-405z" />
<glyph unicode="." horiz-adv-x="405" d="M131 0l16 122h128l-17 -122h-127z" />
<glyph unicode="/" horiz-adv-x="447" d="M-2 -19l483 1116h119l-481 -1116h-121z" />
<glyph unicode="0" horiz-adv-x="1043" d="M155 352.5q0 80.5 14 181.5q14 100 37 180.5t51 138t65 99.5t74.5 67.5t85.5 40.5t92.5 20.5t98.5 5.5q42 0 77 -3t70.5 -11.5t63.5 -22.5t54.5 -36t44.5 -52t32 -71.5t19 -93t3 -118t-13 -144.5q-14 -101 -37 -181.5t-51 -137.5t-65.5 -99t-75.5 -67.5t-85.5 -41 t-92.5 -21t-99 -5.5q-55 0 -98 5.5t-86 21t-74 41t-56 67.5t-37 99t-12 137.5zM275 291.5q1 -45.5 11.5 -80t20 -57.5t32 -38.5t38 -23.5t47 -12t50.5 -4.5t57 -0.5q37 0 56 0.5t51.5 4.5t50.5 12t44.5 23.5t43 38.5t37 57.5t34.5 79.5t28 106.5t24.5 136.5t14 136t2 106.5 t-12.5 80t-21 57.5t-32 38.5t-38 23.5t-47 12.5t-50 5t-56 0.5t-56.5 -0.5t-52 -5t-50.5 -12.5t-44.5 -23.5t-42.5 -38.5t-36.5 -57.5t-34 -80t-27.5 -106.5t-24.5 -136t-14 -136t-2.5 -106.5z" />
<glyph unicode="1" horiz-adv-x="696" d="M51 0l14 95h253l123 874l-210 -54l-12 90l360 93l-141 -1003h259l-13 -95h-633z" />
<glyph unicode="2" horiz-adv-x="895" d="M88 0l38 277q7 47 23 85.5t36.5 65t52 48.5t60 35.5t70.5 26t73.5 19t78.5 17t77 18.5h1q30 8 44.5 12t37.5 11t33 11t27 11.5t23.5 14.5t17.5 17t16 21t11 25.5t10 31.5t7 38q16 110 -37.5 158t-176.5 48q-74 0 -173 -20t-145 -39l-29 89q38 20 106 35t138.5 22t135.5 7 q27 0 51 -1.5t50 -5t47 -9t43 -14.5t38 -21.5t32 -29.5t24.5 -38.5t16 -48t6.5 -59t-5 -71.5q-5 -36 -12 -65.5t-19.5 -54.5t-22.5 -43.5t-32 -36t-36 -29.5t-46.5 -24.5t-52.5 -20t-64 -19t-70.5 -17.5t-82.5 -19q-16 -3 -25 -5q-38 -9 -58.5 -14t-48 -13.5t-42 -17 t-31.5 -21.5t-26 -29t-17 -37.5t-12 -49.5l-23 -175h625l-13 -96h-750z" />
<glyph unicode="3" horiz-adv-x="905" d="M60 46l57 88q40 -18 132.5 -38t166.5 -20q42 0 68.5 1t59 5t52.5 12t41.5 21.5t34.5 34t24 50t16 67.5q21 149 -43 192q-39 26 -150 28q-11 0 -30 1h-220l13 94h221q38 1 63.5 2.5t55 6.5t49 14t39.5 25t33 38.5t23.5 55t16.5 74.5q6 27 4 50t-5 41t-13 32t-20.5 24.5 t-28 18t-34.5 12.5t-41 8t-47.5 4t-53.5 1q-74 0 -171 -19.5t-144 -38.5l-31 87q54 30 166.5 47.5t214.5 17.5q99 0 163 -12t108 -43t58 -86t2 -139q-7 -49 -19.5 -87.5t-27.5 -65.5t-36 -49.5t-42 -37t-50 -29.5q20 -12 35 -24t29.5 -28t23 -36t14 -45.5t5.5 -59t-6 -74.5 q-12 -84 -41.5 -139.5t-82 -88t-121 -45.5t-167.5 -13q-101 0 -208.5 17.5t-155.5 47.5z" />
<glyph unicode="4" horiz-adv-x="872" d="M38 219l15 111l529 735h133l-539 -750h453l39 284h120l-40 -284h140l-14 -96h-139l-30 -219h-119l30 219h-578z" />
<glyph unicode="5" horiz-adv-x="870" d="M83 46l58 88q40 -18 132 -38t167 -20q67 0 113.5 9t85 33t61.5 68t33 111q6 40 6.5 72.5t-5 57.5t-14 44t-23.5 32t-32 22t-41 14t-48 7t-55 2q-51 0 -84 -2.5t-63.5 -11.5t-47.5 -25l-122 17l76 539h635l-13 -96h-511l-49 -353q77 26 192 26q372 0 324 -345 q-24 -168 -121.5 -242t-288.5 -74q-102 0 -210 17.5t-155 47.5z" />
<glyph unicode="6" horiz-adv-x="951" d="M155.5 353q1.5 80 15.5 181q12 88 29.5 160.5t40 127.5t47.5 96.5t57 70.5t64.5 48.5t72.5 30t79 14.5t86 4q100 0 197.5 -16.5t144.5 -47.5l-57 -88q-41 19 -132.5 38.5t-166.5 19.5q-32 0 -47.5 -0.5t-43 -2.5t-41.5 -7.5t-36.5 -15.5t-35 -25t-30.5 -37t-29.5 -52.5 t-25 -69t-24 -89t-19.5 -111.5q91 62 283 62q41 0 74.5 -2t66.5 -7.5t58.5 -14.5t48 -23t38.5 -32.5t28 -43.5t17.5 -56.5t5 -70.5t-6.5 -85q-13 -93 -45 -156.5t-86 -101t-124.5 -54t-167.5 -16.5q-55 0 -96.5 5.5t-82.5 21t-68.5 41t-49.5 67.5t-31 99.5t-7.5 137.5z M274 335q-1 -42 1.5 -76.5t8.5 -60t15.5 -45.5t21.5 -33t27 -21.5t32.5 -13t37.5 -7t41.5 -2.5h45.5h5q42 1 62.5 1.5t53 5t48.5 13.5t38 25.5t34 41t23.5 61t18.5 85.5q5 38 5 69t-3.5 54.5t-13 41.5t-19.5 30.5t-28 21t-32.5 13t-38.5 7t-41.5 3t-45.5 0.5q-35 0 -57.5 -1 t-53 -5.5t-51 -12.5t-44.5 -24t-39.5 -38.5t-29.5 -56t-22 -76.5z" />
<glyph unicode="7" horiz-adv-x="754" d="M151 969l13 96h721l-14 -96l-570 -969h-130l573 969h-593z" />
<glyph unicode="8" horiz-adv-x="959" d="M144 267q7 49 19 87.5t27 65.5t36 48.5t42 36t50 29.5q-20 12 -34.5 24t-28.5 28.5t-22.5 36.5t-13.5 46t-4 59.5t7 74.5q8 56 23 99t40 74t56.5 51.5t75.5 33t94 17.5t116 5h28q94 -1 154.5 -14.5t101 -45t53.5 -85.5t2 -135q-13 -80 -38 -133.5t-55.5 -82t-79.5 -53.5 q20 -12 35 -24t29 -28t22 -36t13.5 -45.5t5 -59t-6.5 -74.5q-12 -84 -41 -139.5t-81 -88t-120 -45.5t-166 -13h-29q-93 2 -154 15.5t-101.5 46t-53.5 87.5t-1 137zM265.5 203q4.5 -28 8.5 -48t20 -34t30.5 -22.5t40.5 -13.5t50.5 -6.5t59.5 -2.5h33h3q79 0 130 17.5t83 60 t42 113.5q6 38 6.5 68t-5 52.5t-13 38.5t-22.5 27t-29.5 17.5t-38 10t-43 5t-50.5 2.5h-44q-31 -1 -51 -2.5t-45 -5t-41 -10t-34.5 -17.5t-30.5 -27t-23.5 -38.5t-19.5 -52.5t-13 -68q-8 -36 -3.5 -64zM342 746q-1 -24 1 -43t6.5 -34.5t13 -27t18 -20.5t23 -15.5t27.5 -11 t32.5 -7t36.5 -3.5t41 -2h43q47 1 78.5 5.5t63.5 17.5t52 36t36 62t24 95q8 58 -2 95.5t-40 58t-69 28.5t-100 9q-53 -1 -90 -5t-72 -16t-57 -33t-38 -55t-23 -82q-4 -28 -5 -52z" />
<glyph unicode="9" horiz-adv-x="950" d="M126 46l58 88q40 -18 132 -38t167 -20q53 0 78 2t65 13t61 36t47 69t44.5 115t34.5 170q-33 -21 -77 -34t-92.5 -18t-112.5 -5q-50 0 -88.5 3t-74.5 10t-62.5 19t-48.5 30.5t-35 43.5t-20.5 58.5t-7 76t7.5 95.5q11 74 34 129t57.5 93t84.5 61t110 33t137 10 q55 0 96.5 -5.5t82 -20.5t68.5 -40.5t50 -67.5t31 -99.5t7.5 -137.5t-15.5 -181t-35.5 -181t-46.5 -137.5t-59 -99.5t-68.5 -67.5t-79.5 -41t-88.5 -21t-97.5 -5.5q-99 0 -197 17.5t-147 47.5zM322.5 690q-0.5 -31 2 -54.5t11 -41.5t17.5 -30.5t26.5 -20.5t32 -13t39 -7.5 t44 -3t49.5 -0.5q27 0 44 0.5t40.5 2t38.5 4.5t34.5 8.5t32.5 13.5t28 19.5t25.5 27.5t21 35.5t18 45t12.5 55.5q2 43 -0.5 78t-8 61t-14.5 45.5t-21.5 32.5t-27 22t-32 13.5t-37 6.5t-41 2h-45.5h-5q-43 0 -63 -1t-53 -5.5t-49 -13t-38 -25t-33.5 -41.5t-23 -61.5 t-18.5 -84.5q-6 -39 -6.5 -70z" />
<glyph unicode=":" horiz-adv-x="389" d="M126 0l17 122h128l-17 -122h-128zM217 650l17 123h127l-16 -123h-128z" />
<glyph unicode=";" horiz-adv-x="217" d="M2 -189q45 23 71 66t43 123h-83l16 122h128l-19 -138q-19 -143 -138 -201zM125 650l16 123h128l-17 -123h-127z" />
<glyph unicode="&#x3c;" horiz-adv-x="865" d="M66 481l15 105l777 294l-14 -95l-675 -251q77 -33 288.5 -121t315.5 -133l-13 -101z" />
<glyph unicode="=" horiz-adv-x="993" d="M174 318l13 92h732l-13 -92h-732zM222 655l14 93h731l-13 -93h-732z" />
<glyph unicode="&#x3e;" horiz-adv-x="865" d="M156 179l13 101l673 254l-601 251l13 95l693 -296l-15 -103z" />
<glyph unicode="?" horiz-adv-x="847" d="M169 1021q70 30 190 47t243 17q81 0 148.5 -18.5t116.5 -53.5t72 -91.5t14 -126.5q-10 -72 -33 -120t-66 -81t-98.5 -52.5t-143.5 -36.5l-51 -10.5t-43 -9.5t-38.5 -10.5t-31 -11t-26.5 -13t-20.5 -16t-18 -20t-12 -24t-10 -29.5t-6.5 -36l-12 -83h-128l14 90 q8 56 32.5 99.5t56.5 71.5t81.5 50t94.5 34.5t108 24.5q5 1 14 3q57 12 80.5 17t54 16t39.5 19.5t21.5 28t16.5 40t10 57.5q14 109 -53 153.5t-221 44.5q-63 0 -136.5 -10.5t-126 -23t-90.5 -25.5zM182 0l17 122h127l-16 -122h-128z" />
<glyph unicode="@" horiz-adv-x="1648" d="M170.5 168q-6.5 92 10.5 196q49 346 256.5 540t544.5 194q77 0 145.5 -10.5t133 -33.5t115 -60t91.5 -89t63 -121t30 -156t-9 -193q-5 -40 -13 -77t-21.5 -80t-30 -79t-42 -70t-55 -58t-70 -38t-86.5 -14q-44 0 -70.5 13t-38.5 41t-13 74q-112 -141 -350 -141 q-73 0 -127.5 13.5t-96 43t-58 82t-6.5 126.5q11 74 43 126t83.5 81t113.5 41.5t142 12.5h288q4 43 4.5 77t-1.5 61.5t-9.5 48t-16.5 36t-25 25.5t-32.5 17t-41.5 10.5t-49.5 4.5t-59.5 1q-117 0 -275 -50l-34 70q131 56 326 56q57 0 99 -4.5t80 -15.5t62.5 -31t43 -50 t26 -72t7 -98t-10.5 -129q0 -3 -1 -8.5t-3 -18t-5 -32t-8.5 -58.5t-12.5 -90q-12 -77 -6.5 -119.5t21 -57.5t47.5 -15t60 15t47.5 37.5t36 60t26.5 71t19 83.5t14 85t10 85q9 79 -5 148.5t-48 123.5t-84.5 97t-113.5 71t-135.5 42.5t-150.5 14.5q-142 0 -260.5 -48 t-203.5 -135t-140 -207t-76 -267q-44 -307 97 -461.5t445 -154.5q202 0 356.5 62.5t247.5 164.5l35 -74q-110 -106 -279.5 -168t-382.5 -62q-122 0 -220.5 22t-168.5 64t-119.5 102.5t-73.5 137t-30.5 168.5zM561 215.5q0 -24.5 8 -43t16.5 -32.5t24.5 -24t32 -16.5 t38 -10.5t43 -5t47 -1q58 0 104.5 7.5t81.5 20.5t61 37t44.5 51.5t32 69t22.5 84t17 101.5h-291q-40 0 -70 -2t-61.5 -8.5t-54 -19.5t-42.5 -32.5t-32 -50t-18 -70.5q-3 -31 -3 -55.5z" />
<glyph unicode="A" horiz-adv-x="1089" d="M46 0l576 1065h143l277 -1065h-123l-88 334h-483l-179 -334h-123zM394 418h415l-91 347l-34 201h-11l-91 -201z" />
<glyph unicode="B" horiz-adv-x="1119" d="M131 0l149 1065h456q55 0 97.5 -2t80.5 -6t66 -11.5t52 -18.5t39 -26.5t26 -35t15 -45.5t3 -56.5t-5 -68.5q-7 -50 -18 -87t-25 -63.5t-34.5 -47t-42 -34.5t-53.5 -29q23 -13 39 -23.5t31.5 -26t24.5 -34.5t15 -43.5t5.5 -57.5t-5.5 -74q-10 -69 -30 -115.5t-52 -78.5 t-85.5 -49.5t-120 -24.5t-165.5 -7h-463zM264 95h347h5h72t58.5 2.5t51.5 7t39.5 13t33.5 21.5t23 32t20 44.5t12 59.5q5 36 5.5 63t-0.5 48.5t-10.5 37t-16 26.5t-26 18t-31.5 11t-42 5.5t-48 2t-58 1.5h-14h-367zM332 582h366q35 1 55.5 1.5t46.5 2t41.5 4.5t34.5 8.5 t30 13.5t24 19.5t20.5 26t15 34.5t12.5 44t9 54q4 28 4 50t-3 39.5t-11.5 31t-19 23t-28.5 16t-36.5 11t-46.5 6.5t-54.5 2.5t-64.5 0.5h-341z" />
<glyph unicode="C" horiz-adv-x="1078" d="M154 374q0 72 14 158q13 99 37 178.5t55.5 137t74 100t89 69t106 42t119 21.5t133.5 6q234 0 363 -65l-69 -89q-164 60 -305 60q-39 0 -70 -1.5t-66.5 -5.5t-63 -12.5t-57 -21t-52.5 -31.5t-46.5 -44t-41.5 -59t-34.5 -75.5t-28.5 -94t-21 -115.5q-10 -70 -12 -128v-25 q0 -42 4 -76q5 -44 19.5 -78.5t31.5 -58.5t44 -41t53.5 -27t64 -16t70.5 -7.5t77 -1.5q138 0 340 66l43 -88q-75 -33 -181 -53t-219 -20q-64 0 -115.5 4.5t-102 16t-87.5 31t-70 49t-53 71.5q-19 44 -31 98q-11 52 -12 120v6z" />
<glyph unicode="D" horiz-adv-x="1142" d="M131 0l149 1065h382q58 0 103.5 -2.5t93 -9.5t82.5 -19.5t68.5 -33t55.5 -48.5t39.5 -67.5t24.5 -89.5q6 -44 6 -98v-16q-1 -64 -12 -142t-27 -143t-36 -116t-46.5 -91t-55 -69.5t-66 -50.5t-75 -34.5t-86 -21t-95.5 -10.5t-107 -3h-398zM264 96h262q62 0 106.5 3t89 11 t75 22t60.5 37.5t50 56t38.5 78t31.5 104t23 133.5q9 63 12 115q1 18 1 34q1 32 -3 58q-6 40 -13.5 71.5t-26 54.5t-34.5 39.5t-45 27t-51 16.5t-60 9t-64 3.5t-70 0.5h-260z" />
<glyph unicode="E" horiz-adv-x="938" d="M131 0l149 1065h796l-29 -95h-661l-52 -371h535l-13 -94h-536l-56 -409h676l-30 -96h-779z" />
<glyph unicode="F" horiz-adv-x="872" d="M131 0l149 1065h742l-30 -95h-607l-53 -371h539l-13 -96h-540l-69 -503h-118z" />
<glyph unicode="G" horiz-adv-x="1114" d="M154 380q1 71 14 159q14 100 38 178.5t55 135.5t74 98.5t89 67.5t106 41t118.5 20.5t133.5 5.5q231 0 371 -69l-68 -88q-174 63 -314 63q-51 0 -87.5 -2t-80 -9t-75 -20.5t-65.5 -35.5t-58.5 -56t-47.5 -79.5t-39.5 -108t-27.5 -140.5q-10 -76 -14 -135q-1 -22 -1 -43 q0 -33 3 -63q6 -47 17.5 -81t34.5 -59t51 -40.5t70 -25t88 -13t108 -3.5q73 0 160.5 19t139.5 44l52 364h-340l29 94h437l-74 -524q-73 -39 -198 -65t-244 -26q-66 0 -118 4.5t-101.5 15.5t-85 30.5t-66.5 49t-48.5 71.5t-27.5 97q-9 49 -9 109q0 9 1 19z" />
<glyph unicode="H" horiz-adv-x="1129" d="M131 0l149 1065h119l-64 -449h631l63 449h117l-149 -1065h-118l72 518h-631l-71 -518h-118z" />
<glyph unicode="I" horiz-adv-x="399" d="M131 0l149 1065h120l-150 -1065h-119z" />
<glyph unicode="J" horiz-adv-x="533" d="M0 -8l20 87q42 0 65 0.5t55 3t49 7t39.5 13t34.5 21.5t26.5 31t23 42.5t16 56.5t13.5 72l104 739h118l-103 -731q-11 -74 -26.5 -127t-42 -91.5t-59.5 -62t-84 -37.5t-108.5 -19t-140.5 -5z" />
<glyph unicode="K" horiz-adv-x="1119" d="M131 0l149 1065h119l-69 -486h267l425 486h156q-46 -50 -218 -240.5t-265 -292.5q45 -71 158.5 -253.5t175.5 -278.5h-157l-288 484h-267l-68 -484h-118z" />
<glyph unicode="L" horiz-adv-x="882" d="M131 0l149 1065h119l-137 -969h634l-30 -96h-735z" />
<glyph unicode="M" horiz-adv-x="1418" d="M131 0l149 1065h179l221 -766l42 -201l98 201l436 766h179l-150 -1065h-112l129 932h-4l-525 -932h-129l-266 932h-5l-129 -932h-113z" />
<glyph unicode="N" horiz-adv-x="1135" d="M131 0l149 1065h133l502 -899l127 899h111l-149 -1065h-132l-502 902l-126 -902h-113z" />
<glyph unicode="O" d="M158 389q0 66 11 145q14 100 40 180.5t59 138t77.5 99.5t91.5 67.5t106 40.5t114.5 20.5t124.5 5.5q52 0 95.5 -3t88.5 -11.5t80.5 -22.5t69 -36t57 -52t41.5 -71q20 -42 28 -94q8 -49 8 -110v-8q0 -66 -12 -144q-15 -101 -40.5 -181.5t-58.5 -137.5t-78 -99t-91.5 -67.5 t-105.5 -41t-114.5 -21t-124.5 -5.5q-52 0 -95.5 3.5t-88.5 11.5t-80.5 22t-69 36.5t-57.5 52.5t-42.5 71.5t-26.5 93.5q-8 48 -8 109q1 4 1 8zM279 410q-1 -18 -1 -35q0 -36 4 -65q6 -43 14 -77t27.5 -58.5t35 -42t46 -28t50.5 -17t58 -9t60.5 -3t64.5 -0.5q47 0 71.5 0.5 t67 4.5t66.5 12t60 23.5t57.5 38.5t48.5 57.5t44.5 79.5t34 106.5t27.5 136.5q11 84 13 151v14q0 58 -12 100q-12 47 -26.5 81.5t-46 55t-55.5 33t-69 18t-72.5 6.5t-78.5 1q-47 0 -72 -0.5t-67.5 -5t-67 -12.5t-60 -23.5t-57 -38.5t-48 -57.5t-44 -80t-34 -106.5 t-26.5 -136q-10 -68 -13 -124z" />
<glyph unicode="P" horiz-adv-x="986" d="M131 0l149 1065h430q62 0 108 -2.5t88 -9.5t70 -19t51 -30.5t35 -43.5t18 -60q5 -28 5 -62q1 -8 1 -16q-2 -43 -10 -99q-10 -74 -26 -126.5t-42.5 -91t-59 -62t-84 -37t-109 -18.5t-141.5 -5h-310l-54 -383h-119zM317 478h313q37 0 59.5 0.5t51 2t45.5 5t38 10t33.5 15.5 t27 22.5t23 30.5t17.5 40t15 51t11 63l2 10q6 44 7.5 77.5t-4.5 58.5t-13.5 43t-26 29.5t-35.5 18.5t-49 10.5t-59.5 4t-72.5 0.5h-314z" />
<glyph unicode="Q" horiz-adv-x="1270" d="M139 390q1 66 12 144q14 100 39.5 180.5t58.5 138t78 99.5t91.5 67.5t106 40.5t115 20.5t123.5 5.5q59 0 107 -4t98.5 -15t86.5 -29.5t72 -48t55 -71t36 -96.5q13 -47 13 -106v-22q-3 -71 -12 -160q-15 -104 -41.5 -186.5t-63.5 -140.5t-80.5 -99.5t-98.5 -66.5t-110 -38 t-122 -18q32 -9 74 -25.5t72.5 -29.5t66.5 -23t64 -10q44 0 97 22.5t101 58.5l-13 -95q-98 -77 -212 -77q-46 0 -98 15.5t-90.5 34.5t-88.5 35t-94 16q-51 0 -96 -17t-108 -64l13 93q48 46 117 66q-48 4 -88.5 12t-79.5 22.5t-69 36.5t-56 52t-42.5 71.5t-25.5 92.5 q-8 47 -8 105v13zM261 410q-1 -18 -1 -35q0 -36 4 -65q7 -43 14.5 -77t27.5 -58.5t35 -42t45.5 -28t50.5 -17t58 -9t60.5 -3t64.5 -0.5q47 0 71.5 0.5t67 4.5t66.5 12t60 23.5t57.5 38.5t48.5 57.5t44.5 79.5t34 106.5t27.5 136.5q12 84 13 151v10q0 60 -12 104 q-12 47 -26 81.5t-46 55t-56 33t-69 18t-72 6.5t-79 1q-47 0 -72 -0.5t-67.5 -5t-66.5 -12.5t-59.5 -23.5t-57.5 -38.5t-48.5 -57.5t-44 -80t-34 -106.5t-26.5 -136q-10 -68 -13 -124z" />
<glyph unicode="R" horiz-adv-x="1109" d="M131 0l149 1065h432q62 0 108 -2.5t87.5 -9.5t70 -19t51 -30.5t35 -43.5t18.5 -60q5 -28 6 -62v-16q-2 -43 -10 -99q-17 -117 -50.5 -185t-90.5 -102t-152 -46l240 -390h-151l-228 383h-342l-54 -383h-119zM317 478h315q39 0 64.5 0.5t55.5 3.5t48.5 8t39.5 13.5 t34.5 21.5t27 31t22.5 42.5t17 55t13 69.5q6 46 7.5 80.5t-4.5 60.5t-13 44t-26.5 30t-35.5 18.5t-49.5 9.5t-58.5 3.5t-73 0.5h-315z" />
<glyph unicode="S" horiz-adv-x="1034" d="M84 63q59 84 65 91q37 -16 89 -32t141.5 -30t179.5 -14q50 0 76 0.5t64.5 4.5t58.5 12t46 22.5t40 37t26.5 55.5t18.5 77q4 22 3.5 39.5t-1.5 31.5t-9 25.5t-14 19.5t-22.5 15.5t-28 12.5t-38 11t-44 10t-53.5 11q-10 1 -31 5q-66 13 -96.5 19t-81.5 17.5t-73 18.5 t-57.5 20t-49.5 24.5t-35 28.5t-27 36t-13.5 44t-6.5 54t6 65q13 93 76 160t154 98.5t200 31.5q79 0 157 -7t148.5 -22t111.5 -35l-69 -89q-57 21 -151.5 40t-184.5 19q-155 0 -233.5 -44.5t-93.5 -153.5q-5 -37 -7 -57.5t5 -40t13.5 -28t33.5 -19t48.5 -16t74.5 -17.5 q10 -2 14 -3l108 -21q52 -10 78 -15.5t72 -16.5t70 -21.5t57.5 -27t50 -36.5t32.5 -46q17 -26 21 -60q2 -15 1 -32q0 -20 -2 -43q-10 -75 -38.5 -130.5t-69 -90t-99 -55t-121 -28.5t-143.5 -8q-116 0 -247.5 24t-199.5 58z" />
<glyph unicode="T" horiz-adv-x="900" d="M147 970l30 95h878l-30 -95h-381l-136 -970h-120l136 970h-377z" />
<glyph unicode="U" horiz-adv-x="1137" d="M174 180q-9 47 -9 105q0 72 14 163l88 617h118l-86 -615q-14 -86 -14 -151q1 -37 5 -65q12 -82 78.5 -119t212.5 -37q55 0 99.5 4.5t79.5 16t61.5 26t47.5 39t35 50.5t25.5 65t19 77.5t15.5 93.5l86 615h118l-88 -617q-13 -88 -28 -150.5t-41 -118t-62 -90t-89.5 -60.5 t-125 -37t-167.5 -11q-189 0 -281 47.5t-112 151.5z" />
<glyph unicode="V" horiz-adv-x="1086" d="M184 1065h123l199 -764l35 -201h10l91 201l415 764h122l-576 -1065h-142z" />
<glyph unicode="W" horiz-adv-x="1505" d="M220 1065h123l118 -965h10l371 965h115l118 -965h10l371 965h127l-447 -1065h-141l-121 883l-352 -883h-140z" />
<glyph unicode="X" horiz-adv-x="1154" d="M81 0l511 557q-242 401 -308 508h137l166 -274q12 -19 25 -42.5t21 -39.5t19.5 -40.5t15.5 -33.5q55 69 128 145l266 285h124l-463 -501q13 -21 145.5 -238t198.5 -326h-146l-231 385v-2l-49 97q-68 -87 -85 -103l-334 -377h-141z" />
<glyph unicode="Y" horiz-adv-x="1024" d="M171 1065h142q31 -55 88.5 -165t84.5 -159q36 -65 103 -210q90 124 169 217q44 54 266 317h130l-525 -611l-64 -454h-119l63 454q-44 81 -160 290.5t-178 320.5z" />
<glyph unicode="Z" horiz-adv-x="970" d="M46 0l16 111l848 859h-695l30 95h805l-15 -104l-858 -865h757l-30 -96h-858z" />
<glyph unicode="[" horiz-adv-x="410" d="M86 -309l219 1553h281l-29 -78h-155l-196 -1397h172l-28 -78h-264z" />
<glyph unicode="\" horiz-adv-x="447" d="M152 1097h120l173 -1116h-123z" />
<glyph unicode="]" horiz-adv-x="419" d="M-43 -309l28 78h154l196 1397h-172l28 78h263l-218 -1553h-279z" />
<glyph unicode="^" horiz-adv-x="827" d="M151 829l390 417h96l272 -417h-110l-223 322l-310 -322h-115z" />
<glyph unicode="_" horiz-adv-x="1173" d="M86 -309l10 64h911l-10 -64h-911z" />
<glyph unicode="`" horiz-adv-x="281" d="M156 1085h143l62 -178h-74z" />
<glyph unicode="a" horiz-adv-x="1165" d="M123 312q11 76 39.5 133t70 94t99 60t122 32.5t143.5 9.5h362q6 62 7 109v12q0 40 -6 72q-6 36 -15.5 61.5t-29.5 43.5t-41.5 28t-57 16t-70 7.5t-86.5 1.5q-142 0 -334 -63l-41 88q73 32 175.5 50.5t216.5 18.5q71 0 123 -4t98.5 -15t77.5 -29.5t55.5 -48.5t36.5 -70 q14 -40 18 -96q2 -28 2 -59.5t-2 -65.5q-4 -69 -18 -159l-3 -26l-27 -187q-8 -65 -8 -110q0 -40 6 -64q14 -50 69 -64l-32 -90q-81 11 -115.5 48.5t-36.5 117.5q-145 -180 -416 -180q-80 0 -141.5 9t-113 32t-82.5 60q-32 37 -44 94q-7 30 -6 66q0 32 5 67zM236 312 q-5 -32 -5 -59q0 -37 9 -65q15 -48 58 -70.5t93 -30.5t128 -8q67 0 121 10.5t94.5 29t72 49t53 66t38.5 86t27.5 101.5t19.5 120l2 3h-363q-62 0 -105.5 -4t-88.5 -18t-73.5 -38.5t-50.5 -67.5t-30 -104z" />
<glyph unicode="b" horiz-adv-x="1119" d="M131 0l149 1065h456q55 0 97.5 -2t80.5 -6t66 -11.5t52 -18.5t39 -26.5t26 -35t15 -45.5t3 -56.5t-5 -68.5q-7 -50 -18 -87t-25 -63.5t-34.5 -47t-42 -34.5t-53.5 -29q23 -13 39 -23.5t31.5 -26t24.5 -34.5t15 -43.5t5.5 -57.5t-5.5 -74q-10 -69 -30 -115.5t-52 -78.5 t-85.5 -49.5t-120 -24.5t-165.5 -7h-463zM264 95h347h5h72t58.5 2.5t51.5 7t39.5 13t33.5 21.5t23 32t20 44.5t12 59.5q5 36 5.5 63t-0.5 48.5t-10.5 37t-16 26.5t-26 18t-31.5 11t-42 5.5t-48 2t-58 1.5h-14h-367zM332 582h366q35 1 55.5 1.5t46.5 2t41.5 4.5t34.5 8.5 t30 13.5t24 19.5t20.5 26t15 34.5t12.5 44t9 54q4 28 4 50t-3 39.5t-11.5 31t-19 23t-28.5 16t-36.5 11t-46.5 6.5t-54.5 2.5t-64.5 0.5h-341z" />
<glyph unicode="c" horiz-adv-x="1078" d="M154 374q0 72 14 158q13 99 37 178.5t55.5 137t74 100t89 69t106 42t119 21.5t133.5 6q234 0 363 -65l-69 -89q-164 60 -305 60q-39 0 -70 -1.5t-66.5 -5.5t-63 -12.5t-57 -21t-52.5 -31.5t-46.5 -44t-41.5 -59t-34.5 -75.5t-28.5 -94t-21 -115.5q-10 -70 -12 -128v-25 q0 -42 4 -76q5 -44 19.5 -78.5t31.5 -58.5t44 -41t53.5 -27t64 -16t70.5 -7.5t77 -1.5q138 0 340 66l43 -88q-75 -33 -181 -53t-219 -20q-64 0 -115.5 4.5t-102 16t-87.5 31t-70 49t-53 71.5q-19 44 -31 98q-11 52 -12 120v6z" />
<glyph unicode="d" horiz-adv-x="1142" d="M131 0l149 1065h382q58 0 103.5 -2.5t93 -9.5t82.5 -19.5t68.5 -33t55.5 -48.5t39.5 -67.5t24.5 -89.5q6 -44 6 -98v-16q-1 -64 -12 -142t-27 -143t-36 -116t-46.5 -91t-55 -69.5t-66 -50.5t-75 -34.5t-86 -21t-95.5 -10.5t-107 -3h-398zM264 96h262q62 0 106.5 3t89 11 t75 22t60.5 37.5t50 56t38.5 78t31.5 104t23 133.5q9 63 12 115q1 18 1 34q1 32 -3 58q-6 40 -13.5 71.5t-26 54.5t-34.5 39.5t-45 27t-51 16.5t-60 9t-64 3.5t-70 0.5h-260z" />
<glyph unicode="e" horiz-adv-x="1167" d="M155 364q1 70 13 155q14 101 38.5 182t55 139.5t72 102t86 71t100.5 44t111 22.5t122 6q62 0 112 -5t96 -17.5t80.5 -33t63 -50.5t45.5 -72q18 -42 28 -94q8 -45 8 -101v-19q-2 -68 -13 -148l-7 -43h-878q-6 -55 -8 -101q-1 -23 -1.5 -43.5t1.5 -40.5q2 -39 9 -69t20 -55 t29 -43t40 -32t51 -22.5t62.5 -14t73.5 -7.5t85 -2q126 0 346 73q3 1 5 1.5t4.5 1.5t4.5 2l43 -88q-78 -34 -204 -59.5t-237 -25.5q-65 0 -116.5 4.5t-100.5 15.5t-85.5 30.5t-67 48.5t-48.5 70q-20 41 -30 95q-10 49 -9 111v11zM304 599h749q5 51 6 94v17q0 33 -3 61 q-4 35 -11 63.5t-19.5 51t-27.5 39t-36.5 28.5t-44 20t-52 12.5t-59 6.5t-66.5 2q-40 0 -67 -1t-62 -5.5t-60 -12.5t-54 -22t-50.5 -34.5t-44 -50t-39.5 -68t-32.5 -89.5t-26.5 -112z" />
<glyph unicode="f" horiz-adv-x="872" d="M131 0l149 1065h742l-30 -95h-607l-53 -371h539l-13 -96h-540l-69 -503h-118z" />
<glyph unicode="g" horiz-adv-x="1114" d="M154 380q1 71 14 159q14 100 38 178.5t55 135.5t74 98.5t89 67.5t106 41t118.5 20.5t133.5 5.5q231 0 371 -69l-68 -88q-174 63 -314 63q-51 0 -87.5 -2t-80 -9t-75 -20.5t-65.5 -35.5t-58.5 -56t-47.5 -79.5t-39.5 -108t-27.5 -140.5q-10 -76 -14 -135q-1 -22 -1 -43 q0 -33 3 -63q6 -47 17.5 -81t34.5 -59t51 -40.5t70 -25t88 -13t108 -3.5q73 0 160.5 19t139.5 44l52 364h-340l29 94h437l-74 -524q-73 -39 -198 -65t-244 -26q-66 0 -118 4.5t-101.5 15.5t-85 30.5t-66.5 49t-48.5 71.5t-27.5 97q-9 49 -9 109q0 9 1 19z" />
<glyph unicode="h" horiz-adv-x="1129" d="M131 0l149 1065h119l-64 -449h631l63 449h117l-149 -1065h-118l72 518h-631l-71 -518h-118z" />
<glyph unicode="i" horiz-adv-x="399" d="M131 0l149 1065h120l-150 -1065h-119z" />
<glyph unicode="j" horiz-adv-x="533" d="M0 -8l20 87q42 0 65 0.5t55 3t49 7t39.5 13t34.5 21.5t26.5 31t23 42.5t16 56.5t13.5 72l104 739h118l-103 -731q-11 -74 -26.5 -127t-42 -91.5t-59.5 -62t-84 -37.5t-108.5 -19t-140.5 -5z" />
<glyph unicode="k" horiz-adv-x="1127" d="M122 0l149 1065h117l-68 -486h262l439 486h147q-45 -50 -217 -240.5t-266 -292.5l191 -308q30 -49 55 -78t47 -42t44.5 -16t47.5 0l-30 -88q-28 -4 -53 -4t-47 4q-44 9 -87 48.5t-93 122.5l-191 313h-262l-68 -484h-117z" />
<glyph unicode="l" horiz-adv-x="882" d="M131 0l149 1065h119l-137 -969h634l-30 -96h-735z" />
<glyph unicode="m" horiz-adv-x="1418" d="M131 0l149 1065h179l221 -766l42 -201l98 201l436 766h179l-150 -1065h-112l129 932h-4l-525 -932h-129l-266 932h-5l-129 -932h-113z" />
<glyph unicode="n" horiz-adv-x="1135" d="M131 0l149 1065h133l502 -899l127 899h111l-149 -1065h-132l-502 902l-126 -902h-113z" />
<glyph unicode="o" d="M158 389q0 66 11 145q14 100 40 180.5t59 138t77.5 99.5t91.5 67.5t106 40.5t114.5 20.5t124.5 5.5q52 0 95.5 -3t88.5 -11.5t80.5 -22.5t69 -36t57 -52t41.5 -71q20 -42 28 -94q8 -49 8 -110v-8q0 -66 -12 -144q-15 -101 -40.5 -181.5t-58.5 -137.5t-78 -99t-91.5 -67.5 t-105.5 -41t-114.5 -21t-124.5 -5.5q-52 0 -95.5 3.5t-88.5 11.5t-80.5 22t-69 36.5t-57.5 52.5t-42.5 71.5t-26.5 93.5q-8 48 -8 109q1 4 1 8zM279 410q-1 -18 -1 -35q0 -36 4 -65q6 -43 14 -77t27.5 -58.5t35 -42t46 -28t50.5 -17t58 -9t60.5 -3t64.5 -0.5q47 0 71.5 0.5 t67 4.5t66.5 12t60 23.5t57.5 38.5t48.5 57.5t44.5 79.5t34 106.5t27.5 136.5q11 84 13 151v14q0 58 -12 100q-12 47 -26.5 81.5t-46 55t-55.5 33t-69 18t-72.5 6.5t-78.5 1q-47 0 -72 -0.5t-67.5 -5t-67 -12.5t-60 -23.5t-57 -38.5t-48 -57.5t-44 -80t-34 -106.5 t-26.5 -136q-10 -68 -13 -124z" />
<glyph unicode="p" horiz-adv-x="986" d="M131 0l149 1065h430q62 0 108 -2.5t88 -9.5t70 -19t51 -30.5t35 -43.5t18 -60q6 -28 6 -62v-16q-2 -43 -10 -99q-10 -74 -26 -126.5t-42.5 -91t-59 -62t-84 -37t-109 -18.5t-141.5 -5h-310l-54 -383h-119zM317 478h313q37 0 59.5 0.5t51 2t45.5 5t38 10t33.5 15.5 t27 22.5t23 30.5t17.5 40t15 51t11 63l2 10q6 44 7.5 77.5t-4.5 58.5t-13.5 43t-26 29.5t-35.5 18.5t-49 10.5t-59.5 4t-72.5 0.5h-314z" />
<glyph unicode="q" horiz-adv-x="1249" d="M139 390q1 66 12 144q14 100 39.5 180.5t58.5 138t78 99.5t91.5 67.5t106 40.5t115 20.5t123.5 5.5q59 0 107 -4t98.5 -15t86.5 -29.5t72 -48t55 -71t36 -96.5q13 -47 13 -106v-22q-3 -71 -12 -160q-15 -104 -41.5 -186.5t-63.5 -140.5t-80.5 -99.5t-98.5 -66.5t-110 -38 t-122 -18q32 -9 74 -25.5t72.5 -29.5t66.5 -23t64 -10q44 0 97 22.5t101 58.5l-13 -95q-98 -77 -212 -77q-46 0 -98 15.5t-90.5 34.5t-88.5 35t-94 16q-51 0 -96 -17t-108 -64l13 93q48 46 117 66q-48 4 -88.5 12t-79.5 22.5t-69 36.5t-56 52t-42.5 71.5t-25.5 92.5 q-8 47 -8 105v13zM261 410q-1 -18 -1 -35q0 -36 4 -65q7 -43 14.5 -77t27.5 -58.5t35 -42t45.5 -28t50.5 -17t58 -9t60.5 -3t64.5 -0.5q47 0 71.5 0.5t67 4.5t66.5 12t60 23.5t57.5 38.5t48.5 57.5t44.5 79.5t34 106.5t27.5 136.5q12 84 13 151v10q0 60 -12 104 q-12 47 -26 81.5t-46 55t-56 33t-69 18t-72 6.5t-79 1q-47 0 -72 -0.5t-67.5 -5t-66.5 -12.5t-59.5 -23.5t-57.5 -38.5t-48.5 -57.5t-44 -80t-34 -106.5t-26.5 -136q-10 -68 -13 -124z" />
<glyph unicode="r" horiz-adv-x="1129" d="M123 0l149 1065h429q56 0 98 -2t80.5 -7t66.5 -14.5t52 -23t38.5 -33t25 -44t13.5 -57.5q2 -22 2 -47q-1 -12 -1 -25q-2 -39 -8 -89q-16 -117 -50 -185t-91.5 -102t-152.5 -46l103 -166q31 -49 56 -78t47 -42t44.5 -16t47.5 0l-30 -88q-28 -4 -54 -4t-48 4 q-44 9 -86.5 48.5t-92.5 122.5l-126 212h-29h-310l-54 -383h-119zM309 478h313q40 0 65.5 0.5t55.5 3.5t48.5 8t39.5 13.5t34 21.5t26.5 31t22.5 42.5t16.5 55t13.5 69.5q6 46 7.5 80.5t-4.5 60.5t-13 44t-26.5 30t-35 18.5t-49 9.5t-59 3.5t-72.5 0.5h-314z" />
<glyph unicode="s" horiz-adv-x="1034" d="M84 63q59 84 65 91q37 -16 89 -32t141.5 -30t179.5 -14q50 0 76 0.5t64.5 4.5t58.5 12t46 22.5t40 37t26.5 55.5t18.5 77q4 22 3.5 39.5t-1.5 31.5t-9 25.5t-14 19.5t-22.5 15.5t-28 12.5t-38 11t-44 10t-53.5 11q-10 1 -31 5q-66 13 -96.5 19t-81.5 17.5t-73 18.5 t-57.5 20t-49.5 24.5t-35 28.5t-27 36t-13.5 44t-6.5 54t6 65q13 93 76 160t154 98.5t200 31.5q79 0 157 -7t148.5 -22t111.5 -35l-69 -89q-57 21 -151.5 40t-184.5 19q-155 0 -233.5 -44.5t-93.5 -153.5q-5 -37 -7 -57.5t5 -40t13.5 -28t33.5 -19t48.5 -16t74.5 -17.5 q10 -2 14 -3l108 -21q52 -10 78 -15.5t72 -16.5t70 -21.5t57.5 -27t50 -36.5t32.5 -46q17 -26 21 -60q2 -15 1 -32q0 -20 -2 -43q-10 -75 -38.5 -130.5t-69 -90t-99 -55t-121 -28.5t-143.5 -8q-116 0 -247.5 24t-199.5 58z" />
<glyph unicode="t" horiz-adv-x="900" d="M147 970l30 95h878l-30 -95h-381l-136 -970h-120l136 970h-377z" />
<glyph unicode="u" horiz-adv-x="1108" d="M174 180q-9 47 -9 105q0 72 14 163l88 617h118l-86 -615q-14 -86 -14 -151q1 -37 5 -65q12 -82 78.5 -119t212.5 -37q55 0 99.5 4.5t79.5 16t61.5 26t47.5 39t35 50.5t25.5 65t19 77.5t15.5 93.5l86 615h118l-88 -617q-13 -88 -28 -150.5t-41 -118t-62 -90t-89.5 -60.5 t-125 -37t-167.5 -11q-189 0 -281 47.5t-112 151.5z" />
<glyph unicode="v" horiz-adv-x="1086" d="M184 1065h123l199 -764l35 -201h10l91 201l415 764h122l-576 -1065h-142z" />
<glyph unicode="w" horiz-adv-x="1505" d="M220 1065h123l118 -965h10l371 965h115l118 -965h10l371 965h127l-447 -1065h-141l-121 883l-352 -883h-140z" />
<glyph unicode="x" horiz-adv-x="1154" d="M81 0l511 557q-242 401 -308 508h137l166 -274q12 -19 25 -42.5t21 -39.5t19.5 -40.5t15.5 -33.5q55 69 128 145l266 285h124l-463 -501q13 -21 145.5 -238t198.5 -326h-146l-231 385v-2l-49 97q-68 -87 -85 -103l-334 -377h-141z" />
<glyph unicode="y" horiz-adv-x="1024" d="M171 1065h142q31 -55 88.5 -165t84.5 -159q36 -65 103 -210q90 124 169 217q44 54 266 317h130l-525 -611l-64 -454h-119l63 454q-44 81 -160 290.5t-178 320.5z" />
<glyph unicode="z" horiz-adv-x="970" d="M46 0l16 111l848 859h-695l30 95h805l-15 -104l-858 -865h757l-30 -96h-858z" />
<glyph unicode="{" horiz-adv-x="467" d="M49 340l14 89q52 6 86 25t57.5 58.5t37 91.5t25.5 136q19 135 41.5 203.5t56 100.5t94.5 46q25 7 93 7h27l-12 -85h-8q-47 0 -74.5 -6.5t-49 -25t-33.5 -52t-19 -89.5q-24 -170 -43 -247q-13 -44 -23.5 -67t-33 -48.5t-59 -46t-98.5 -47.5q57 -21 89 -46t49.5 -64 t16.5 -94t-11 -136q-1 -10 -4 -29q-20 -109 -17.5 -166t29 -74.5t105.5 -17.5h8l-11 -82h-27q-79 0 -106 8q-44 15 -68 48t-29 97q-2 36 15 200.5t15 183.5q-3 56 -38 90t-95 39z" />
<glyph unicode="|" horiz-adv-x="375" d="M84 -326l200 1423h91l-199 -1423h-92z" />
<glyph unicode="}" horiz-adv-x="468" d="M-3 -326l9 82h9q26 0 45.5 2t36 4t28.5 12t21 15.5t16.5 25.5l12 32t10 44.5t9 53.5t9.5 68q3 20 4 30q16 111 40.5 173t70.5 100.5t130 66.5q-55 27 -85.5 47.5t-46 46t-19.5 49t-4 66.5q-2 44 27 247q5 38 5.5 64.5t-4.5 46t-14 31.5t-26.5 19t-38 9.5t-51.5 2.5h-9 l12 85h26q69 0 93 -7q44 -10 67.5 -28t35 -58.5t8.5 -101.5t-17 -162q-16 -104 -12.5 -170.5t34 -99.5t97.5 -41l-13 -89q-59 -5 -103.5 -39t-66.5 -90q-5 -17 -33.5 -181.5t-42.5 -202.5q-23 -64 -56 -97t-80 -48q-31 -8 -109 -8h-25z" />
<glyph unicode="~" horiz-adv-x="976" d="M158 445l15 109q93 81 215 81q45 0 98 -13q29 -7 137.5 -48.5t139.5 -41.5q29 0 64 11t68.5 29t65.5 42l-17 -113q-97 -77 -213 -77q-48 0 -87 11q-14 4 -75 28.5t-119 43.5t-89 19q-34 0 -62 -6.5t-62.5 -24.5t-78.5 -50z" />
<glyph unicode="&#xa2;" horiz-adv-x="1078" d="M155 381.5q1 68.5 13 150.5q11 82 29 150.5t42.5 121.5t54 95t66 72t76 51t87.5 34.5t96 20t106 8.5l22 143h91l-20 -142q205 -5 327 -65l-69 -89q-144 53 -273 59l-127 -918q129 7 306 66l43 -88q-70 -31 -165.5 -50t-197.5 -21l-25 -176h-91l25 176q-57 2 -103.5 8.5 t-91 19.5t-78 34t-62 51.5t-46 72t-27 94.5t-8.5 121.5zM278 384.5q0 -65.5 9 -112.5t29.5 -81.5t45.5 -56t62 -35t74 -19t86 -7.5l128 918q-49 -2 -87.5 -8t-79 -19.5t-71.5 -35t-61.5 -56t-52.5 -81.5t-40.5 -112t-29.5 -147q-12 -82 -12 -147.5z" />
<glyph unicode="&#xa3;" horiz-adv-x="855" d="M57 84q86 45 145 123t75 183q5 54 -2 113h-152l11 76h128l-7 43q-10 79 -11.5 110.5t3.5 65.5q12 87 64 155t135 106t183 38q133 0 212 -67.5t85 -188.5l-108 -13q-5 57 -31.5 101t-70.5 68t-99 24q-95 0 -166 -59.5t-82 -143.5q-15 -94 13 -239h247l-12 -76h-234 q17 -57 13 -85q-18 -137 -222 -322q57 26 118 32t111.5 -3.5t106.5 -21t104 -20.5t102 -2t102 33q4 -20 11.5 -49t9.5 -42q-51 -26 -108 -33t-109.5 0.5t-108 20.5t-110 24.5t-107 15t-108.5 -11.5t-105 -52z" />
<glyph unicode="&#xa5;" horiz-adv-x="905" d="M103 247l10 71h330l20 141h-330l11 80h285l-248 526h116q19 -43 43.5 -93.5t44.5 -90.5t45 -91t45 -93q36 -90 51 -151q42 67 103 155l264 364h129l-397 -526h285l-11 -80h-326l-21 -141h327l-10 -71h-326l-34 -247h-109l33 247h-330z" />
<glyph unicode="&#xa8;" horiz-adv-x="677" d="M266 964l16 121h117l-17 -121h-116zM561 964l17 121h115l-16 -121h-116z" />
<glyph unicode="&#xa9;" d="M157.5 389q0.5 66 11.5 145q14 100 40 180.5t59 138t77.5 99.5t91.5 67.5t106 40.5t114.5 20.5t124.5 5.5q52 0 95.5 -3t88.5 -11.5t80.5 -22.5t69 -36t57 -52t42 -71.5t27 -93t8 -118t-11.5 -144.5q-15 -101 -40.5 -181.5t-58.5 -137.5t-78 -99t-91.5 -67.5t-105.5 -41 t-114.5 -21t-124.5 -5.5q-52 0 -95.5 3.5t-88.5 11.5t-80.5 22t-69 36.5t-57.5 52.5t-42.5 71.5t-26.5 93t-7.5 117.5zM216.5 400.5q-2.5 -60.5 6 -106.5t18.5 -83t33.5 -63t42 -44.5t53.5 -30t58.5 -18.5t66.5 -9.5t67.5 -3.5t70.5 -1q66 0 101 1.5t95 11t95 27t81.5 53.5 t75.5 87.5t55.5 130.5t41.5 182q11 80 10.5 146t-7.5 114t-28.5 85.5t-41 62t-55.5 41.5t-62 25.5t-72.5 13t-73.5 5t-77 0.5q-66 0 -101.5 -1.5t-95.5 -10.5t-95 -27t-81 -54t-74 -87.5t-54.5 -131t-40.5 -181.5q-10 -73 -12.5 -133.5zM395 428.5q1 43.5 8 97.5 q12 84 36 144t54.5 96t76.5 57t92.5 28t110.5 7q140 0 235 -50l-55 -77q-100 40 -188 40q-32 0 -54 -1.5t-48.5 -7t-44.5 -15.5t-37.5 -27.5t-33 -43.5t-24.5 -63t-18 -86q-7 -46 -8 -81.5t2.5 -62.5t14.5 -45.5t26 -31t39 -19t51.5 -9.5t66.5 -3q65 0 167 35l30 10l37 -76 q-35 -15 -76.5 -27t-91 -20t-93.5 -8q-40 0 -71.5 2.5t-61.5 9.5t-51.5 18.5t-40 29.5t-29 43.5t-16.5 59t-5 77z" />
<glyph unicode="&#xab;" horiz-adv-x="771" d="M93 383l287 329h74l-240 -329l146 -330h-73q-21 36 -89 152.5t-105 177.5zM403 383l282 329h81l-245 -329l152 -330h-81z" />
<glyph unicode="&#xad;" horiz-adv-x="671" d="M177 334l16 104h404l-15 -104h-405z" />
<glyph unicode="&#xae;" horiz-adv-x="1054" d="M194.5 666.5q0.5 53.5 9.5 116.5q12 81 33 146.5t47.5 111.5t63 80.5t74 55t85.5 33t93 17t100 4.5q42 0 77.5 -2.5t72 -9.5t65 -18t56 -29.5t47 -42.5t34 -58t21.5 -75.5t6.5 -95t-9.5 -117.5q-12 -81 -33 -146t-47.5 -111.5t-63 -80.5t-74 -55t-85.5 -33.5t-93 -17 t-100 -4.5q-42 0 -77.5 3t-71.5 9.5t-65 18t-56.5 29.5t-46.5 42.5t-34 58t-22 75.5t-6.5 95.5zM262 670q0 -51 5 -88t21 -66t30.5 -48t42.5 -32t48 -19.5t56.5 -10t57.5 -4t61 -0.5q50 0 77 1t73.5 8t73.5 21t63 41.5t58 67.5t42.5 101.5t32.5 140.5q8 62 8 113t-5.5 88.5 t-22 66.5t-31.5 48t-43 32t-48 19.5t-56 10t-56.5 4t-59.5 0.5q-51 0 -78.5 -1t-74 -8.5t-73.5 -21.5t-62.5 -41.5t-57.5 -67.5t-42 -101t-31 -141q-9 -62 -9 -113zM402 516l73 522h215q35 0 60.5 -1.5t47.5 -6.5t36 -13t24.5 -20.5t14.5 -31t4 -42.5t-5 -55 q-11 -80 -40.5 -118.5t-87.5 -49.5q2 -3 16 -24.5t22 -34.5q23 -41 42.5 -52.5t46.5 -1.5l8 -56q-45 -25 -68 -25q-30 0 -53 21.5t-53 72.5l-58 95h-138l-25 -179h-82zM519 765h135q25 0 39 0.5t30.5 4t25.5 10t18 18t14.5 28.5t8.5 42q2 18 2.5 32.5t-2 25t-5.5 18 t-11.5 12t-15 7.5t-20.5 4t-24.5 1.5t-29.5 0.5h-135z" />
<glyph unicode="&#xb4;" horiz-adv-x="288" d="M177 907l113 178h141q-28 -28 -56.5 -58.5t-59 -62.5t-54.5 -57h-84z" />
<glyph unicode="&#xb8;" horiz-adv-x="396" d="M0 -315l16 57h7q22 -3 50 -3q75 0 118 24q32 22 37 53q3 13 0 24.5t-12.5 20t-33 14.5t-60.5 8l42 101h68l-36 -80q68 -9 101 -35.5t28 -62.5q-7 -52 -68.5 -89t-160.5 -37q-53 0 -96 5z" />
<glyph unicode="&#xbb;" horiz-adv-x="771" d="M111 53l245 330l-152 329h80q38 -64 109.5 -189t79.5 -140l-282 -330h-80zM420 53l243 330q-60 135 -150 329h77q36 -57 101.5 -169.5t93.5 -159.5l-288 -330h-77z" />
<glyph unicode="&#x2c6;" horiz-adv-x="540" d="M182 907q32 33 86 89t85 89h133l126 -178h-115l-77 140l-118 -140h-120z" />
<glyph unicode="&#x2da;" horiz-adv-x="288" d="M182 999q9 65 39.5 87t82.5 22t75.5 -22t14.5 -87q-8 -67 -38 -89t-82 -22t-76.5 22t-15.5 89zM234.5 976.5q1.5 -9.5 1.5 -16t4.5 -11t7.5 -7t9.5 -3.5t11 -1.5t11.5 -0.5q14 0 21.5 1.5t17 7t15 18.5t8.5 35q3 12 1 21.5t-2 15.5t-5 10t-7.5 6.5t-9.5 3.5t-10.5 1 h-11.5q-14 0 -21 -1t-16.5 -6t-15 -17.5t-8.5 -33.5q-3 -13 -1.5 -22.5z" />
<glyph unicode="&#x2dc;" horiz-adv-x="689" d="M231 924q10 59 53 98q47 43 112 43q42 0 120 -40q49 -25 78 -25q32 0 51 14t34 53h68q-8 -33 -23.5 -59t-36 -44t-45.5 -27.5t-53 -9.5q-44 0 -118 42q-51 30 -81 30q-32 0 -61 -25q-21 -21 -27 -50h-71z" />
<glyph unicode="&#x400;" horiz-adv-x="966" d="M131 0l149 1065h796l-29 -95h-661l-52 -371h535l-13 -94h-536l-56 -409h676l-30 -96h-779zM557 1350h143l63 -177h-75z" />
<glyph unicode="&#x401;" horiz-adv-x="913" d="M92 0l149 1065h796l-13 -95h-677l-54 -371h636l-14 -94h-635l-56 -409h703l-13 -96h-822zM445 1200l16 120h117l-17 -120h-116zM740 1200l17 120h115l-16 -120h-116z" />
<glyph unicode="&#x402;" horiz-adv-x="1308" d="M164 970l30 95h878l-30 -95h-382l-41 -288h310q55 0 97 -2t81 -7t66.5 -14.5t51.5 -22.5t38.5 -32.5t25 -44t13.5 -57t1.5 -72t-8.5 -88.5v-10q-10 -74 -26 -126.5t-42.5 -91t-59.5 -62t-84 -37t-109 -18.5t-141 -5l30 94q61 0 93.5 1.5t70.5 9t56.5 22.5t38 42t30 67 t18.5 98l3 21q7 50 6.5 86.5t-5 62.5t-22 43t-34.5 27t-52 14.5t-64.5 5.5t-82.5 1h-313l-82 -587h-119l136 970h-377z" />
<glyph unicode="&#x403;" horiz-adv-x="805" d="M131 0l149 1065h676l-30 -95h-541l-136 -970h-118zM446 1143l113 177h141q-37 -36 -93 -95t-78 -82h-83z" />
<glyph unicode="&#x404;" horiz-adv-x="1078" d="M153.5 379.5q1.5 71.5 14.5 159.5q14 100 38 178.5t55 135.5t74 98.5t89 67.5t106 41t118.5 20.5t133.5 5.5q231 0 371 -69l-68 -88q-174 63 -314 63q-43 0 -74.5 -1.5t-69 -6t-65.5 -13t-59 -23t-54.5 -35t-47 -50t-41.5 -67.5t-33.5 -87.5t-25.5 -109.5h668l-13 -94 h-671q-8 -70 -9.5 -124t5 -97.5t19 -75t35.5 -55t51 -37.5t69.5 -23t86.5 -12t105 -3q32 0 67.5 4t61.5 9t61 14.5t51.5 15t48.5 16t37 12.5l43 -87q-78 -34 -187.5 -56t-220.5 -22q-66 0 -118 4.5t-101.5 15.5t-85 30.5t-66.5 49t-48.5 71.5t-27.5 97.5t-8.5 127z" />
<glyph unicode="&#x405;" horiz-adv-x="1034" d="M84 63q59 84 65 91q37 -16 89 -32t141.5 -30t179.5 -14q50 0 76 0.5t64.5 4.5t58.5 12t46 22.5t40 37t26.5 55.5t18.5 77q4 22 3.5 39.5t-1.5 31.5t-9 25.5t-14 19.5t-22.5 15.5t-28 12.5t-38 11t-44 10t-53.5 11q-10 1 -31 5q-66 13 -96.5 19t-81.5 17.5t-73 18.5 t-57.5 20t-49.5 24.5t-35 28.5t-27 36t-13.5 44t-6.5 54t6 65q13 93 76 160t154 98.5t200 31.5q79 0 157 -7t148.5 -22t111.5 -35l-69 -89q-57 21 -151.5 40t-184.5 19q-155 0 -233.5 -44.5t-93.5 -153.5q-5 -37 -7 -57.5t5 -40t13.5 -28t33.5 -19t48.5 -16t74.5 -17.5 q10 -2 14 -3l108 -21q52 -10 78 -15.5t72 -16.5t70 -21.5t57.5 -27t50 -36.5t33 -46.5t20.5 -60t-1 -74.5q-10 -75 -38.5 -130.5t-69 -90t-99 -55t-121 -28.5t-143.5 -8q-116 0 -247.5 24t-199.5 58z" />
<glyph unicode="&#x406;" horiz-adv-x="399" d="M131 0l149 1065h120l-150 -1065h-119z" />
<glyph unicode="&#x407;" horiz-adv-x="399" d="M131 0l149 1065h120l-150 -1065h-119zM154 1200l17 120h116l-16 -120h-117zM450 1200l16 120h116l-17 -120h-115z" />
<glyph unicode="&#x408;" horiz-adv-x="533" d="M0 -8l20 87q42 0 65 0.5t55 3t49 7t39.5 13t34.5 21.5t26.5 31t23 42.5t16 56.5t13.5 72l104 739h118l-103 -731q-11 -74 -26.5 -127t-42 -91.5t-59.5 -62t-84 -37.5t-108.5 -19t-140.5 -5z" />
<glyph unicode="&#x409;" horiz-adv-x="1852" d="M78 -11l22 87q27 0 44 0.5t39 3t35 7.5t29.5 13.5t27 21.5t23 31.5t21 43.5t17 57t16.5 72l137 739h733l-54 -383h310q55 0 97 -2t81 -7t66.5 -14.5t51.5 -22.5t38.5 -32.5t25 -44t13.5 -57t1.5 -72t-8.5 -88.5q-10 -74 -25.5 -126.5t-42 -91.5t-59 -62.5t-83.5 -37.5 t-109 -19t-142 -5h-429l134 967h-496l-121 -633q-14 -74 -30.5 -127t-40.5 -92t-52.5 -63t-70 -38.5t-88 -19.5t-111.5 -5zM1086 95h314q37 0 60 0.5t51 2.5t45 5.5t37.5 9.5t33 15.5t27 23t23 31t17.5 40t15 51t11 63.5l2 10q6 43 7.5 76.5t-4.5 59t-13.5 42.5t-26.5 29 t-36 18.5t-49.5 10t-59 4t-72.5 0.5h-314z" />
<glyph unicode="&#x40a;" horiz-adv-x="1776" d="M131 0l149 1065h119l-64 -449h631l63 449h119l-54 -383h310q62 0 108 -2.5t87.5 -9.5t69.5 -18.5t51 -30t35.5 -43.5t19 -60t5 -78t-9.5 -98q-10 -74 -25.5 -126.5t-42 -91.5t-59.5 -62.5t-84 -37.5t-109 -19t-141 -5h-430l72 518h-631l-71 -518h-118zM1012 95h313 q36 0 59 0.5t51 2.5t45.5 5.5t38 9.5t33 15.5t27 23t23.5 31t18 40t15 51t11 63.5l2 10q7 50 6.5 86.5t-5.5 62.5t-22.5 43t-34.5 27t-52 14.5t-64.5 5.5t-82.5 1h-313z" />
<glyph unicode="&#x40b;" horiz-adv-x="1317" d="M168 970l30 95h877l-30 -95h-382l-41 -288h310q63 0 108.5 -2.5t87.5 -9.5t70 -18.5t51 -30t35.5 -43.5t19 -60t5 -78t-9.5 -98l-47 -342h-124l48 347q7 50 6.5 86.5t-5 62.5t-22 43t-34.5 27t-52 14.5t-64.5 5.5t-81.5 1h-314l-82 -587h-119l136 970h-376z" />
<glyph unicode="&#x40c;" horiz-adv-x="1119" d="M131 0l149 1065h119l-69 -486h267l425 486h156q-46 -50 -218 -240.5t-265 -292.5q45 -71 158.5 -253.5t175.5 -278.5h-157l-288 484h-267l-68 -484h-118zM602 1143l113 177h141q-36 -36 -92 -95t-79 -82h-83z" />
<glyph unicode="&#x40d;" horiz-adv-x="1135" d="M131 0l149 1065h111l-125 -899l755 899h132l-149 -1065h-113l126 902l-755 -902h-131zM642 1350h143l63 -177h-75z" />
<glyph unicode="&#x40e;" horiz-adv-x="1049" d="M174 1065h123l287 -813l41 73l420 740h134l-434 -733q-16 -26 -46 -73q-39 -64 -57.5 -91.5t-51 -67t-58 -53.5t-68 -31t-93.5 -21.5t-122 -4.5l22 88q100 0 148.5 12t88.5 53zM343 1219l57 88q40 -19 132 -38.5t166 -19.5t171.5 19.5t143.5 38.5l34 -88 q-29 -15 -73.5 -27.5t-95 -20t-101.5 -12t-98 -5.5q-99 3 -196.5 20t-139.5 45z" />
<glyph unicode="&#x40f;" horiz-adv-x="1027" d="M81 0l150 1065h117l-136 -967h630l136 967h119l-150 -1065h-385l-41 -287l-98 -17l43 304h-385z" />
<glyph unicode="&#x410;" horiz-adv-x="1089" d="M46 0l576 1065h143l277 -1065h-123l-88 334h-483l-179 -334h-123zM394 418h415l-91 347l-34 201h-11l-91 -201z" />
<glyph unicode="&#x411;" horiz-adv-x="1036" d="M131 0l149 1065h793l-30 -95h-657l-41 -288h310q63 0 108.5 -2.5t87.5 -9.5t70 -18.5t51 -30t35.5 -43.5t19 -60t5 -78t-9.5 -98q-10 -74 -25.5 -127t-42 -91.5t-59.5 -62t-84 -37.5t-109 -19t-141 -5h-430zM264 95h314q36 0 59 0.5t51 2.5t45 5.5t37.5 9.5t33 15.5 t27 23t23 31t17.5 40t15 51t11 63.5l2 10q7 50 6.5 86.5t-5 62.5t-22 43t-34.5 27t-52 14.5t-64.5 5.5t-81.5 1h-314z" />
<glyph unicode="&#x412;" horiz-adv-x="1119" d="M131 0l149 1065h456q55 0 97.5 -2t80.5 -6t66 -11.5t52 -18.5t39 -26.5t26 -35t15 -45.5t3.5 -56.5t-5.5 -68.5q-7 -50 -18 -87t-25 -63.5t-34.5 -47t-42 -34.5t-53.5 -29q23 -13 39 -23.5t31.5 -26t24.5 -34.5t15 -43.5t5.5 -57.5t-5.5 -74q-10 -69 -30 -115.5 t-52 -78.5t-85.5 -49.5t-120 -24.5t-165.5 -7h-463zM264 95h347h5h72t58.5 2.5t51.5 7t39.5 13t33.5 21.5t23 32t20 44.5t12 59.5q5 36 5.5 63t-0.5 48.5t-10.5 37t-16 26.5t-26 18t-31.5 11t-42 5.5t-48 2t-58 1.5h-14h-367zM332 582h366q35 1 55.5 1.5t46.5 2t41.5 4.5 t34.5 8.5t30 13.5t24 19.5t20.5 26t15 34.5t12.5 44t9 54q4 28 4 50t-3 39.5t-11.5 31t-19 23t-28.5 16t-36.5 11t-46.5 6.5t-54.5 2.5t-64.5 0.5h-341z" />
<glyph unicode="&#x413;" horiz-adv-x="805" d="M131 0l149 1065h676l-30 -95h-541l-136 -970h-118z" />
<glyph unicode="&#x414;" horiz-adv-x="1173" d="M45 -179l39 277h38q49 15 82 77t57 185l129 705h733l-136 -967h96l-41 -287l-98 -17l30 206h-808l-23 -163zM271 98h598l122 869h-499l-112 -600q-39 -196 -109 -269z" />
<glyph unicode="&#x415;" horiz-adv-x="966" d="M131 0l149 1065h796l-29 -95h-661l-52 -371h535l-13 -94h-536l-56 -409h676l-30 -96h-779z" />
<glyph unicode="&#x416;" horiz-adv-x="1592" d="M100 0q474 523 482 532q-56 90 -151.5 269t-148.5 264h147l269 -486h130l68 486h117l-68 -486h130l405 486h147q-78 -86 -222.5 -264.5t-226.5 -268.5q45 -71 158.5 -253.5t174.5 -278.5h-148l-301 484h-130l-68 -484h-117l68 484h-130l-438 -484h-147z" />
<glyph unicode="&#x417;" horiz-adv-x="999" d="M58 46l68 88q54 -19 163.5 -38.5t201.5 -19.5q45 0 73 1t60.5 3.5t52 8t41 15t34 23.5t25 34t19.5 46t12 60q5 41 6.5 71.5t-5 54t-12.5 39t-25 26t-33.5 16.5t-47 9t-55 3.5l-67.5 1.5h-267l13 94h267q47 1 77 2.5t62 6.5t51.5 14.5t39 24.5t31 38.5t21 55t15.5 74.5 q3 25 4 45.5t-2 38t-8.5 31t-15 24.5t-21.5 19t-29 13.5t-35.5 9.5t-43.5 6t-50.5 3t-58.5 1q-92 0 -207.5 -19.5t-174.5 -38.5l-41 87q69 31 189.5 48t243.5 17q60 0 107 -3t88 -9.5t69.5 -17t52 -26t35.5 -37t20.5 -49t6.5 -62t-6 -76.5q-12 -81 -37.5 -134t-58 -81.5 t-85.5 -53.5q23 -12 39 -24t31 -28t24 -36t14.5 -45.5t5.5 -59t-6 -74.5q-10 -69 -29.5 -116.5t-52.5 -81t-86 -52.5t-121 -27.5t-165 -8.5q-123 0 -239 17t-178 48z" />
<glyph unicode="&#x418;" horiz-adv-x="1135" d="M131 0l149 1065h111l-125 -899l755 899h132l-149 -1065h-113l126 902l-755 -902h-131z" />
<glyph unicode="&#x419;" horiz-adv-x="1086" d="M106 0l149 1065h112l-126 -899l754 899h133l-150 -1065h-112l126 902l-755 -902h-131zM364 1219l56 88q24 -11 72.5 -24.5t112 -23.5t113.5 -10q75 0 172 19.5t144 38.5l33 -88q-55 -29 -162 -46t-207 -19q-98 3 -195 20t-139 45z" />
<glyph unicode="&#x41a;" horiz-adv-x="1119" d="M131 0l149 1065h119l-69 -486h267l425 486h156q-46 -50 -218 -240.5t-265 -292.5q45 -71 158.5 -253.5t175.5 -278.5h-157l-288 484h-267l-68 -484h-118z" />
<glyph unicode="&#x41b;" horiz-adv-x="1176" d="M48 -11l22 87q27 0 44 0.5t39 3t35 7.5t29.5 13.5t27 21.5t23 31.5t21 43.5t17 57t16.5 72l137 739h734l-150 -1065h-117l134 967h-498l-121 -633q-14 -74 -30.5 -127t-40.5 -92t-52.5 -63t-70 -38.5t-88 -19.5t-111.5 -5z" />
<glyph unicode="&#x41c;" horiz-adv-x="1418" d="M131 0l149 1065h179l221 -766l42 -201l98 201l436 766h179l-150 -1065h-112l129 932h-4l-525 -932h-129l-266 932h-5l-129 -932h-113z" />
<glyph unicode="&#x41d;" horiz-adv-x="1129" d="M131 0l149 1065h119l-64 -449h631l63 449h117l-149 -1065h-118l72 518h-631l-71 -518h-118z" />
<glyph unicode="&#x41e;" d="M157.5 389q0.5 66 11.5 145q14 100 40 180.5t59 138t77.5 99.5t91.5 67.5t106 40.5t114.5 20.5t124.5 5.5q52 0 95.5 -3t88.5 -11.5t80.5 -22.5t69 -36t57 -52t42 -71.5t27 -93t8 -118t-11.5 -144.5q-15 -101 -40.5 -181.5t-58.5 -137.5t-78 -99t-91.5 -67.5t-105.5 -41 t-114.5 -21t-124.5 -5.5q-52 0 -95.5 3.5t-88.5 11.5t-80.5 22t-69 36.5t-57.5 52.5t-42.5 71.5t-26.5 93t-7.5 117.5zM279 409.5q-3 -56.5 3.5 -99.5t14 -77t27 -58.5t35 -42t46 -28t50.5 -17t58 -9t60.5 -3t64.5 -0.5q47 0 71.5 0.5t67 4.5t66.5 12t60 23.5t57.5 38.5 t48.5 57.5t44.5 79.5t34 106.5t27.5 136.5q11 84 12.5 151t-11 114t-27 81.5t-46 55t-55.5 33t-69 18t-72.5 6.5t-78.5 1q-47 0 -72 -0.5t-67.5 -5t-67 -12.5t-60 -23.5t-57 -38.5t-48 -57.5t-44 -80t-34 -106.5t-26.5 -136q-10 -68 -13 -124.5z" />
<glyph unicode="&#x41f;" horiz-adv-x="1129" d="M131 0l149 1065h866l-149 -1065h-118l134 967h-630l-134 -967h-118z" />
<glyph unicode="&#x420;" horiz-adv-x="986" d="M131 0l149 1065h430q62 0 108 -2.5t88 -9.5t70 -19t51 -30.5t35 -43.5t18.5 -60t5 -78t-9.5 -99q-10 -74 -26 -126.5t-42.5 -91t-59 -62t-84 -37t-109 -18.5t-141.5 -5h-310l-54 -383h-119zM317 478h313q37 0 59.5 0.5t51 2t45.5 5t38 10t33.5 15.5t27 22.5t23 30.5 t17.5 40t15 51t11 63l2 10q6 44 7.5 77.5t-4.5 58.5t-13.5 43t-26 29.5t-35.5 18.5t-49 10.5t-59.5 4t-72.5 0.5h-314z" />
<glyph unicode="&#x421;" horiz-adv-x="1078" d="M154.5 373.5q0.5 71.5 13.5 158.5q13 99 37 178.5t55.5 137t74 100t89 69t106 42t119 21.5t133.5 6q234 0 363 -65l-69 -89q-164 60 -305 60q-39 0 -70 -1.5t-66.5 -5.5t-63 -12.5t-57 -21t-52.5 -31.5t-46.5 -44t-41.5 -59t-34.5 -75.5t-28.5 -94t-21 -115.5 q-10 -70 -11.5 -127.5t3.5 -101.5t19.5 -78.5t31.5 -58.5t44 -41t53.5 -27t64 -16t70.5 -7.5t77 -1.5q138 0 340 66l43 -88q-75 -33 -181 -53t-219 -20q-64 0 -115.5 4.5t-102 16t-87.5 31t-70 49t-53 72t-31.5 97t-11 126z" />
<glyph unicode="&#x422;" horiz-adv-x="900" d="M147 970l30 95h878l-30 -95h-381l-136 -970h-120l136 970h-377z" />
<glyph unicode="&#x423;" horiz-adv-x="1071" d="M194 1065h123l286 -813l43 73l419 740h135l-435 -733q-17 -26 -47 -74q-39 -64 -57.5 -91.5t-51 -66.5t-58 -53t-67.5 -31t-93 -21.5t-122 -4.5l21 88q101 0 149.5 12t87.5 53z" />
<glyph unicode="&#x424;" horiz-adv-x="1402" d="M107 390.5q1 64.5 12 141.5q14 99 38 177.5t54.5 134t73.5 95.5t88 64.5t105.5 38.5t118 18.5t133.5 4.5q41 0 61 -1l13 96h120l-14 -96q21 1 62 1q58 0 103.5 -2.5t92.5 -10.5t82.5 -21t68.5 -33.5t55.5 -49.5t39.5 -69t24.5 -90t6.5 -114.5t-12 -142.5 q-11 -77 -28 -141.5t-38 -115t-49.5 -90t-59 -68.5t-69.5 -50t-78 -33.5t-88 -20.5t-95.5 -10.5t-104.5 -2.5h-62l-14 -95h-120l15 95h-61q-58 0 -104 2.5t-93 10.5t-82.5 20.5t-69 33.5t-55.5 50t-39.5 68.5t-24.5 90t-6 115zM230.5 416.5q-2.5 -52.5 2.5 -93t13 -73 t25.5 -56t34 -41t44.5 -28.5t51 -17.5t59.5 -9.5t64.5 -4t70 -1q38 0 60 2l123 874q-20 1 -58 1q-61 0 -99.5 -2t-89 -11t-83 -26.5t-69 -49t-60 -78t-44.5 -114.5t-33 -157q-9 -63 -11.5 -115.5zM774 95q17 -2 57 -2q62 0 100 2t89 11t83 26t69 49t60.5 78.5t44.5 115 t34 157.5q10 78 11.5 140t-9.5 106.5t-25 77.5t-43 53.5t-55 33t-69.5 18.5t-77.5 7.5t-87 1.5q-40 0 -59 -1z" />
<glyph unicode="&#x425;" horiz-adv-x="1154" d="M81 0l511 557q-242 401 -308 508h137l166 -274q12 -19 25 -42.5t21 -39.5t19.5 -40.5t15.5 -33.5q55 69 128 145l266 285h124l-463 -501q13 -21 145.5 -238t198.5 -326h-146l-231 385v-2l-49 97q-68 -87 -85 -103l-334 -377h-141z" />
<glyph unicode="&#x426;" horiz-adv-x="1127" d="M62 0l149 1065h118l-136 -967h630l136 967h117l-136 -967h97l-42 -287l-98 -17l30 206h-865z" />
<glyph unicode="&#x427;" horiz-adv-x="993" d="M113 698l51 367h124l-52 -372q-2 -39 -4.5 -69t8.5 -53.5t20.5 -40.5t31.5 -28.5t41.5 -18.5t51 -11t59 -5t65.5 -1q121 0 191.5 16t114.5 61l74 522h119l-149 -1065h-119l58 418q-102 -48 -304 -48q-79 0 -140.5 9.5t-113 32.5t-82.5 60t-43.5 94t-1.5 132z" />
<glyph unicode="&#x428;" horiz-adv-x="1545" d="M131 0l149 1065h119l-137 -967h465l136 967h117l-136 -967h465l136 967h117l-149 -1065h-1282z" />
<glyph unicode="&#x429;" horiz-adv-x="1547" d="M58 0l149 1065h118l-136 -967h465l136 967h117l-136 -967h465l136 967h118l-136 -967h96l-41 -287l-98 -17l30 206h-1283z" />
<glyph unicode="&#x42a;" horiz-adv-x="1151" d="M193 970l29 95h327l-55 -383h310q63 0 108.5 -2.5t87.5 -9.5t70 -18.5t51 -30t35.5 -43.5t19 -60t5 -78t-9.5 -98q-10 -74 -25.5 -126.5t-42 -91.5t-59 -62.5t-84 -37.5t-109 -19t-141.5 -5h-430l136 970h-223zM413 95h314q36 0 59 0.5t51 2.5t45 5.5t37.5 9.5t33 15.5 t27 23t23 31t17.5 40t15.5 51t11.5 63.5l1 10q7 50 6.5 86.5t-5 62.5t-22 43t-34.5 27t-52 14.5t-64.5 5.5t-81.5 1h-314z" />
<glyph unicode="&#x42b;" horiz-adv-x="1389" d="M131 0l149 1065h120l-55 -383h310q63 0 108.5 -2.5t87.5 -9.5t70 -18.5t51 -30t35.5 -43.5t19 -60t5 -78t-9.5 -98q-10 -74 -25.5 -127t-42 -91.5t-59.5 -62t-84 -37.5t-109 -19t-141 -5h-430zM264 95h314q36 0 59 0.5t51 2.5t45 5.5t37.5 9.5t33 15.5t27 23t23 31 t17.5 40t15 51t11 63.5l2 10q7 50 6.5 86.5t-5 62.5t-22 43t-34.5 27t-52 14.5t-64.5 5.5t-81.5 1h-314zM1138 0l149 1065h120l-150 -1065h-119z" />
<glyph unicode="&#x42c;" horiz-adv-x="988" d="M131 0l149 1065h120l-55 -383h310q63 0 108.5 -2.5t87.5 -9.5t70 -18.5t51 -30t35.5 -43.5t19 -60t5 -78t-9.5 -98q-10 -74 -25.5 -127t-42 -91.5t-59.5 -62t-84 -37.5t-109 -19t-141 -5h-430zM264 95h314q36 0 59 0.5t51 2.5t45 5.5t37.5 9.5t33 15.5t27 23t23 31 t17.5 40t15 51t11 63.5l2 10q7 50 6.5 86.5t-5 62.5t-22 43t-34.5 27t-52 14.5t-64.5 5.5t-81.5 1h-314z" />
<glyph unicode="&#x42d;" horiz-adv-x="1078" d="M78 62l66 87q3 -1 33.5 -12.5t44.5 -16t47 -14.5t57.5 -15t58.5 -9t66 -4q81 0 138 6t109 23t86.5 46.5t64.5 77.5t49.5 114.5t33.5 159.5h-670l13 94h669q10 107 -3 181.5t-40 115.5t-81 63t-104 27.5t-130 5.5q-142 0 -334 -63l-41 88q156 69 391 69q65 0 116 -4 t101.5 -15t88 -30t70 -48t52.5 -70.5t32 -95.5t11.5 -125t-13.5 -159q-14 -100 -36.5 -179.5t-51.5 -138t-69.5 -100t-84.5 -68.5t-102.5 -42.5t-117.5 -21t-135 -5.5q-111 0 -215 22t-170 56z" />
<glyph unicode="&#x42e;" horiz-adv-x="1689" d="M130 0l149 1065h117l-62 -449h272q15 74 37.5 136t52 108t62.5 82t74 60.5t82 41.5t91 26t97 12.5t102 3.5q60 0 108 -4t98 -15t86 -29.5t72 -48t55.5 -71t35.5 -97t13 -127t-12 -160.5q-14 -101 -40 -181.5t-59 -137.5t-77.5 -99t-91 -67.5t-106 -41t-115 -21 t-123.5 -5.5q-46 0 -85.5 3t-80 9t-73.5 17t-65.5 27t-57 39t-45.5 53t-34.5 69t-21 86t-6.5 106t10 128h-271l-71 -518h-117zM704 397.5q-1 -61.5 3.5 -106.5t21.5 -79.5t32 -57.5t46.5 -38.5t53 -23.5t63 -12t66.5 -4.5t72 -0.5t71.5 0.5t66.5 4.5t66.5 12t60 23.5 t57 38.5t48.5 57.5t44.5 79.5t34 106.5t26.5 136.5q12 84 13.5 151t-11 114t-27 81.5t-46 55t-55.5 33t-69 18t-72.5 6.5t-78.5 1q-47 0 -72 -0.5t-67.5 -5t-67 -12.5t-59.5 -23.5t-57 -38.5t-48.5 -57.5t-44 -80t-33.5 -106.5t-26.5 -136t-11.5 -136.5z" />
<glyph unicode="&#x42f;" horiz-adv-x="1112" d="M84 0q45 51 353 390q-71 9 -113.5 29t-68 59t-28 98.5t8.5 146.5q9 64 22.5 111.5t31.5 84t46 61.5t60.5 42t79.5 26.5t99 13t123 3.5h432l-150 -1065h-119l53 383h-341l-336 -383h-153zM352.5 636.5q0.5 -36.5 6 -63.5t22 -44t34 -27.5t51.5 -15.5t64.5 -6.5t81.5 -1.5 h315l70 492h-315q-54 0 -82.5 -1t-65.5 -5.5t-56 -14.5t-42 -27t-35 -44t-23 -65t-18 -90q-8 -50 -7.5 -86.5z" />
<glyph unicode="&#x430;" horiz-adv-x="1163" d="M123 311.5q11 75.5 39.5 133t70 94.5t99 60t122 32.5t143.5 9.5h362q6 62 7 109t-5.5 83.5t-16 62t-29.5 43.5t-41.5 28t-57 16t-70 7.5t-86.5 1.5q-142 0 -334 -63l-41 88q73 32 175.5 50.5t216.5 18.5q71 0 123 -4t98.5 -15t77.5 -29.5t55.5 -48.5t37 -70t17 -96 t0 -125t-17.5 -159l-3 -26l-27 -187q-16 -124 -1.5 -173.5t68.5 -64.5l-32 -90q-81 11 -115.5 48.5t-36.5 117.5q-145 -180 -416 -180q-80 0 -141.5 9t-113 32t-82.5 60t-43.5 94t-1.5 132.5zM236 312q-11 -75 4 -123.5t58 -71t93 -30.5t128 -8q67 0 121 10.5t94.5 29t72 49 t53 66t38.5 86t27.5 101.5t19.5 120l2 3h-363q-62 0 -105.5 -4t-88.5 -18t-73.5 -38.5t-50.5 -67.5t-30 -104z" />
<glyph unicode="&#x431;" horiz-adv-x="1032" d="M131 0l149 1065h793l-30 -95h-657l-41 -288h310q63 0 108.5 -2.5t87.5 -9.5t70 -18.5t51 -30t35.5 -43.5t19 -60t5 -78t-9.5 -98q-10 -74 -25.5 -127t-42 -91.5t-59.5 -62t-84 -37.5t-109 -19t-141 -5h-430zM264 95h314q36 0 59 0.5t51 2.5t45 5.5t37.5 9.5t33 15.5 t27 23t23 31t17.5 40t15 51t11 63.5l2 10q7 50 6.5 86.5t-5 62.5t-22 43t-34.5 27t-52 14.5t-64.5 5.5t-81.5 1h-314z" />
<glyph unicode="&#x432;" horiz-adv-x="1119" d="M131 0l149 1065h456q55 0 97.5 -2t80.5 -6t66 -11.5t52 -18.5t39 -26.5t26 -35t15 -45.5t3.5 -56.5t-5.5 -68.5q-7 -50 -18 -87t-25 -63.5t-34.5 -47t-42 -34.5t-53.5 -29q23 -13 39 -23.5t31.5 -26t24.5 -34.5t15 -43.5t5.5 -57.5t-5.5 -74q-10 -69 -30 -115.5 t-52 -78.5t-85.5 -49.5t-120 -24.5t-165.5 -7h-463zM264 95h347h5h72t58.5 2.5t51.5 7t39.5 13t33.5 21.5t23 32t20 44.5t12 59.5q5 36 5.5 63t-0.5 48.5t-10.5 37t-16 26.5t-26 18t-31.5 11t-42 5.5t-48 2t-58 1.5h-14h-367zM332 582h366q35 1 55.5 1.5t46.5 2t41.5 4.5 t34.5 8.5t30 13.5t24 19.5t20.5 26t15 34.5t12.5 44t9 54q4 28 4 50t-3 39.5t-11.5 31t-19 23t-28.5 16t-36.5 11t-46.5 6.5t-54.5 2.5t-64.5 0.5h-341z" />
<glyph unicode="&#x433;" horiz-adv-x="872" d="M131 0l149 1065h676l-30 -95h-541l-136 -970h-118z" />
<glyph unicode="&#x434;" horiz-adv-x="1176" d="M45 -179l39 277h38q49 15 82 77t57 185l129 705h733l-136 -967h96l-41 -287l-98 -17l30 206h-808l-23 -163zM271 98h598l122 869h-499l-112 -600q-39 -196 -109 -269z" />
<glyph unicode="&#x435;" horiz-adv-x="1167" d="M155 365q1 69 13 154q10 71 24.5 132t33.5 110.5t41.5 91t49.5 73t56 56.5t64 42.5t70 29.5t76 19t81 10t86 3q62 0 112 -5t96 -17.5t81 -33t64 -50.5t47 -71.5t27.5 -94t8 -120t-12.5 -148.5l-7 -43h-878q-8 -69 -9.5 -123t5 -97.5t19 -74.5t36 -54.5t51.5 -37.5t69 -23 t86 -12t105 -3q33 0 68 4t61 9t61 14.5t51.5 15t48.5 16t37 12.5l44 -87q-78 -34 -188 -56t-221 -22q-65 0 -116.5 4t-101 15t-85 29.5t-66.5 47t-49.5 69t-29 94t-9.5 122.5zM304 599h749q5 51 6 94t-3 78t-11 63.5t-19.5 51t-27.5 39t-36.5 28.5t-44 20t-52 12.5t-59 6.5 t-66.5 2q-40 0 -67 -1t-62 -5.5t-60 -12.5t-54 -22t-50.5 -34.5t-44 -50t-39.5 -68t-32.5 -89.5t-26.5 -112z" />
<glyph unicode="&#x436;" horiz-adv-x="1653" d="M88 88q24 -3 47 0t48 16t58 42t77 78l281 308q-61 96 -170.5 276.5t-156.5 256.5h141l302 -486h135l68 486h117l-68 -486h135l438 486h141q-72 -79 -231 -259t-246 -274l191 -308q30 -49 55.5 -78t47 -42t44 -16t47.5 0l-30 -88q-56 -9 -100.5 0t-87 48.5t-92.5 122.5 l-191 313h-134l-68 -484h-118l68 484h-135l-280 -313q-72 -82 -126 -122.5t-100.5 -49t-99.5 0.5z" />
<glyph unicode="&#x437;" horiz-adv-x="1001" d="M58 46l68 88q54 -19 163.5 -38.5t201.5 -19.5q45 0 73 1t60.5 3.5t52 8t41 15t34 23.5t25 34t19.5 46t12 60q5 41 6.5 71.5t-5 54t-12.5 39t-25 26t-33.5 16.5t-47 9t-55 3.5l-67.5 1.5h-267l13 94h267q47 1 77 2.5t62 6.5t51.5 14.5t39 24.5t31 38.5t21 55t15.5 74.5 q3 25 4 45.5t-2 38t-8.5 31t-15 24.5t-21.5 19t-29 13.5t-35.5 9.5t-43.5 6t-50.5 3t-58.5 1q-92 0 -207.5 -19.5t-174.5 -38.5l-41 87q69 31 189.5 48t243.5 17q60 0 107 -3t88 -9.5t69.5 -17t52 -26t35.5 -37t20.5 -49t6.5 -62t-6 -76.5q-12 -81 -37.5 -134t-58 -81.5 t-85.5 -53.5q23 -12 39 -24t31 -28t24 -36t14.5 -45.5t5.5 -59t-6 -74.5q-10 -69 -29.5 -116.5t-52.5 -81t-86 -52.5t-121 -27.5t-165 -8.5q-123 0 -239 17t-178 48z" />
<glyph unicode="&#x438;" horiz-adv-x="1135" d="M131 0l149 1065h111l-125 -899l755 899h132l-149 -1065h-113l126 902l-755 -902h-131z" />
<glyph unicode="&#x439;" horiz-adv-x="1086" d="M106 0l149 1065h112l-126 -899l754 899h133l-150 -1065h-112l126 902l-755 -902h-131zM364 1219l56 88q24 -11 72.5 -24.5t112 -23.5t113.5 -10q75 0 172 19.5t144 38.5l33 -88q-55 -29 -162 -46t-207 -19q-98 3 -195 20t-139 45z" />
<glyph unicode="&#x43a;" horiz-adv-x="1119" d="M122 0l149 1065h117l-68 -486h262l439 486h147q-45 -50 -217 -240.5t-266 -292.5l191 -308q30 -49 55 -78t47 -42t44.5 -16t47.5 0l-30 -88q-56 -9 -100.5 0t-87 48.5t-92.5 122.5l-191 313h-262l-68 -484h-117z" />
<glyph unicode="&#x43b;" horiz-adv-x="1176" d="M48 -11l22 87q27 0 44 0.5t39 3t35 7.5t29.5 13.5t27 21.5t23 31.5t21 43.5t17 57t16.5 72l137 739h734l-150 -1065h-117l134 967h-498l-121 -633q-14 -74 -30.5 -127t-40.5 -92t-52.5 -63t-70 -38.5t-88 -19.5t-111.5 -5z" />
<glyph unicode="&#x43c;" horiz-adv-x="1418" d="M131 0l149 1065h179l221 -766l42 -201l98 201l436 766h179l-150 -1065h-112l129 932h-4l-525 -932h-129l-266 932h-5l-129 -932h-113z" />
<glyph unicode="&#x43d;" horiz-adv-x="1129" d="M131 0l149 1065h119l-64 -449h631l63 449h117l-149 -1065h-118l72 518h-631l-71 -518h-118z" />
<glyph unicode="&#x43e;" d="M157.5 389q0.5 66 11.5 145q14 100 40 180.5t59 138t77.5 99.5t91.5 67.5t106 40.5t114.5 20.5t124.5 5.5q52 0 95.5 -3t88.5 -11.5t80.5 -22.5t69 -36t57 -52t42 -71.5t27 -93t8 -118t-11.5 -144.5q-15 -101 -40.5 -181.5t-58.5 -137.5t-78 -99t-91.5 -67.5t-105.5 -41 t-114.5 -21t-124.5 -5.5q-52 0 -95.5 3.5t-88.5 11.5t-80.5 22t-69 36.5t-57.5 52.5t-42.5 71.5t-26.5 93t-7.5 117.5zM279 409.5q-3 -56.5 3.5 -99.5t14 -77t27 -58.5t35 -42t46 -28t50.5 -17t58 -9t60.5 -3t64.5 -0.5q47 0 71.5 0.5t67 4.5t66.5 12t60 23.5t57.5 38.5 t48.5 57.5t44.5 79.5t34 106.5t27.5 136.5q11 84 12.5 151t-11 114t-27 81.5t-46 55t-55.5 33t-69 18t-72.5 6.5t-78.5 1q-47 0 -72 -0.5t-67.5 -5t-67 -12.5t-60 -23.5t-57 -38.5t-48 -57.5t-44 -80t-34 -106.5t-26.5 -136q-10 -68 -13 -124.5z" />
<glyph unicode="&#x43f;" horiz-adv-x="1129" d="M131 0l149 1065h866l-149 -1065h-118l134 967h-630l-134 -967h-118z" />
<glyph unicode="&#x440;" horiz-adv-x="986" d="M131 0l149 1065h430q62 0 108 -2.5t88 -9.5t70 -19t51 -30.5t35 -43.5t18.5 -60t5 -78t-9.5 -99q-10 -74 -26 -126.5t-42.5 -91t-59 -62t-84 -37t-109 -18.5t-141.5 -5h-310l-54 -383h-119zM317 478h313q37 0 59.5 0.5t51 2t45.5 5t38 10t33.5 15.5t27 22.5t23 30.5 t17.5 40t15 51t11 63l2 10q6 44 7.5 77.5t-4.5 58.5t-13.5 43t-26 29.5t-35.5 18.5t-49 10.5t-59.5 4t-72.5 0.5h-314z" />
<glyph unicode="&#x441;" horiz-adv-x="1078" d="M154.5 373.5q0.5 71.5 13.5 158.5q13 99 37 178.5t55.5 137t74 100t89 69t106 42t119 21.5t133.5 6q234 0 363 -65l-69 -89q-164 60 -305 60q-39 0 -70 -1.5t-66.5 -5.5t-63 -12.5t-57 -21t-52.5 -31.5t-46.5 -44t-41.5 -59t-34.5 -75.5t-28.5 -94t-21 -115.5 q-10 -70 -11.5 -127.5t3.5 -101.5t19.5 -78.5t31.5 -58.5t44 -41t53.5 -27t64 -16t70.5 -7.5t77 -1.5q138 0 340 66l43 -88q-75 -33 -181 -53t-219 -20q-64 0 -115.5 4.5t-102 16t-87.5 31t-70 49t-53 72t-31.5 97t-11 126z" />
<glyph unicode="&#x442;" horiz-adv-x="900" d="M147 970l30 95h878l-30 -95h-381l-136 -970h-120l136 970h-377z" />
<glyph unicode="&#x443;" horiz-adv-x="1071" d="M194 1065h123l286 -813l43 73l419 740h135l-435 -733q-17 -26 -47 -74q-39 -64 -57.5 -91.5t-51 -66.5t-58 -53t-67.5 -31t-93 -21.5t-122 -4.5l21 88q101 0 149.5 12t87.5 53z" />
<glyph unicode="&#x444;" horiz-adv-x="1402" d="M107 390.5q1 64.5 12 141.5q14 99 38 177.5t54.5 134t73.5 95.5t88 64.5t105.5 38.5t118 18.5t133.5 4.5q41 0 61 -1l13 96h120l-14 -96q21 1 62 1q58 0 103.5 -2.5t92.5 -10.5t82.5 -21t68.5 -33.5t55.5 -49.5t39.5 -69t24.5 -90t6.5 -114.5t-12 -142.5 q-11 -77 -28 -141.5t-38 -115t-49.5 -90t-59 -68.5t-69.5 -50t-78 -33.5t-88 -20.5t-95.5 -10.5t-104.5 -2.5h-62l-14 -95h-120l15 95h-61q-58 0 -104 2.5t-93 10.5t-82.5 20.5t-69 33.5t-55.5 50t-39.5 68.5t-24.5 90t-6 115zM230.5 416.5q-2.5 -52.5 2.5 -93t13 -73 t25.5 -56t34 -41t44.5 -28.5t51 -17.5t59.5 -9.5t64.5 -4t70 -1q38 0 60 2l123 874q-20 1 -58 1q-61 0 -99.5 -2t-89 -11t-83 -26.5t-69 -49t-60 -78t-44.5 -114.5t-33 -157q-9 -63 -11.5 -115.5zM774 95q17 -2 57 -2q62 0 100 2t89 11t83 26t69 49t60.5 78.5t44.5 115 t34 157.5q10 78 11.5 140t-9.5 106.5t-25 77.5t-43 53.5t-55 33t-69.5 18.5t-77.5 7.5t-87 1.5q-40 0 -59 -1z" />
<glyph unicode="&#x445;" horiz-adv-x="1154" d="M81 0l511 557q-242 401 -308 508h137l166 -274q12 -19 25 -42.5t21 -39.5t19.5 -40.5t15.5 -33.5q55 69 128 145l266 285h124l-463 -501q13 -21 145.5 -238t198.5 -326h-146l-231 385v-2l-49 97q-68 -87 -85 -103l-334 -377h-141z" />
<glyph unicode="&#x446;" horiz-adv-x="1127" d="M62 0l149 1065h118l-136 -967h630l136 967h117l-136 -967h97l-42 -287l-98 -17l30 206h-865z" />
<glyph unicode="&#x447;" horiz-adv-x="993" d="M113 698l51 367h124l-52 -372q-2 -39 -4.5 -69t8.5 -53.5t20.5 -40.5t31.5 -28.5t41.5 -18.5t51 -11t59 -5t65.5 -1q121 0 191.5 16t114.5 61l74 522h119l-149 -1065h-119l58 418q-102 -48 -304 -48q-79 0 -140.5 9.5t-113 32.5t-82.5 60t-43.5 94t-1.5 132z" />
<glyph unicode="&#x448;" horiz-adv-x="1545" d="M131 0l149 1065h119l-137 -967h465l136 967h117l-136 -967h465l136 967h117l-149 -1065h-1282z" />
<glyph unicode="&#x449;" horiz-adv-x="1547" d="M58 0l149 1065h118l-136 -967h465l136 967h117l-136 -967h465l136 967h118l-136 -967h96l-41 -287l-98 -17l30 206h-1283z" />
<glyph unicode="&#x44a;" horiz-adv-x="1208" d="M193 970l29 95h327l-55 -383h310q63 0 108.5 -2.5t87.5 -9.5t70 -18.5t51 -30t35.5 -43.5t19 -60t5 -78t-9.5 -98q-10 -74 -25.5 -126.5t-42 -91.5t-59 -62.5t-84 -37.5t-109 -19t-141.5 -5h-430l136 970h-223zM413 95h314q36 0 59 0.5t51 2.5t45 5.5t37.5 9.5t33 15.5 t27 23t23 31t17.5 40t15.5 51t11.5 63.5l1 10q7 50 6.5 86.5t-5 62.5t-22 43t-34.5 27t-52 14.5t-64.5 5.5t-81.5 1h-314z" />
<glyph unicode="&#x44b;" horiz-adv-x="1389" d="M131 0l149 1065h120l-55 -383h310q63 0 108.5 -2.5t87.5 -9.5t70 -18.5t51 -30t35.5 -43.5t19 -60t5 -78t-9.5 -98q-10 -74 -25.5 -127t-42 -91.5t-59.5 -62t-84 -37.5t-109 -19t-141 -5h-430zM264 95h314q36 0 59 0.5t51 2.5t45 5.5t37.5 9.5t33 15.5t27 23t23 31 t17.5 40t15 51t11 63.5l2 10q7 50 6.5 86.5t-5 62.5t-22 43t-34.5 27t-52 14.5t-64.5 5.5t-81.5 1h-314zM1138 0l149 1065h120l-150 -1065h-119z" />
<glyph unicode="&#x44c;" horiz-adv-x="988" d="M131 0l149 1065h120l-55 -383h310q63 0 108.5 -2.5t87.5 -9.5t70 -18.5t51 -30t35.5 -43.5t19 -60t5 -78t-9.5 -98q-10 -74 -25.5 -127t-42 -91.5t-59.5 -62t-84 -37.5t-109 -19t-141 -5h-430zM264 95h314q36 0 59 0.5t51 2.5t45 5.5t37.5 9.5t33 15.5t27 23t23 31 t17.5 40t15 51t11 63.5l2 10q7 50 6.5 86.5t-5 62.5t-22 43t-34.5 27t-52 14.5t-64.5 5.5t-81.5 1h-314z" />
<glyph unicode="&#x44d;" horiz-adv-x="1078" d="M78 62l66 87q3 -1 33.5 -12.5t44.5 -16t47 -14.5t57.5 -15t58.5 -9t66 -4q81 0 138 6t109 23t86.5 46.5t64.5 77.5t49.5 114.5t33.5 159.5h-670l13 94h669q10 107 -3 181.5t-40 115.5t-81 63t-104 27.5t-130 5.5q-142 0 -334 -63l-41 88q156 69 391 69q65 0 116 -4 t101.5 -15t88 -30t70 -48t52.5 -70.5t32 -95.5t11.5 -125t-13.5 -159q-14 -100 -36.5 -179.5t-51.5 -138t-69.5 -100t-84.5 -68.5t-102.5 -42.5t-117.5 -21t-135 -5.5q-111 0 -215 22t-170 56z" />
<glyph unicode="&#x44e;" horiz-adv-x="1656" d="M130 0l149 1065h117l-62 -449h272q15 74 37.5 136t52 108t62.5 82t74 60.5t82 41.5t91 26t97 12.5t102 3.5q60 0 108 -4t98 -15t86 -29.5t72 -48t55.5 -71t35.5 -97t13 -127t-12 -160.5q-14 -101 -40 -181.5t-59 -137.5t-77.5 -99t-91 -67.5t-106 -41t-115 -21 t-123.5 -5.5q-46 0 -85.5 3t-80 9t-73.5 17t-65.5 27t-57 39t-45.5 53t-34.5 69t-21 86t-6.5 106t10 128h-271l-71 -518h-117zM704 397.5q-1 -61.5 3.5 -106.5t21.5 -79.5t32 -57.5t46.5 -38.5t53 -23.5t63 -12t66.5 -4.5t72 -0.5t71.5 0.5t66.5 4.5t66.5 12t60 23.5 t57 38.5t48.5 57.5t44.5 79.5t34 106.5t26.5 136.5q12 84 13.5 151t-11 114t-27 81.5t-46 55t-55.5 33t-69 18t-72.5 6.5t-78.5 1q-47 0 -72 -0.5t-67.5 -5t-67 -12.5t-59.5 -23.5t-57 -38.5t-48.5 -57.5t-44 -80t-33.5 -106.5t-26.5 -136t-11.5 -136.5z" />
<glyph unicode="&#x44f;" horiz-adv-x="1109" d="M62 88q36 -4 62.5 2.5t68 38t99.5 95.5l153 166q-70 9 -113 29t-68.5 59t-28 98.5t8.5 146.5q10 74 26 127t42.5 91.5t59.5 62t84 37.5t109 19t141 5h432l-149 -1065h-120l54 383h-342l-187 -212q-72 -82 -126 -122.5t-100.5 -49t-99.5 0.5zM362 660q-2 -28 0.5 -51.5 t6.5 -41t14.5 -31t20.5 -23t28.5 -16t35.5 -10.5t43.5 -6t50 -2.5t58.5 -0.5h316l69 492h-315q-54 0 -82 -1t-65.5 -5.5t-56.5 -14.5t-41.5 -27t-34.5 -44t-23 -65t-18 -90q-5 -35 -7 -63z" />
<glyph unicode="&#x450;" horiz-adv-x="1167" d="M155 365q1 69 13 154q10 71 24.5 132t33.5 110.5t41.5 91t49.5 73t56 56.5t64 42.5t70 29.5t76 19t81 10t86 3q62 0 112 -5t96 -17.5t81 -33t64 -50.5t47 -71.5t27.5 -94t8 -120t-12.5 -148.5l-7 -43h-878q-8 -69 -9.5 -123t5 -97.5t19 -74.5t36 -54.5t51.5 -37.5t69 -23 t86 -12t105 -3q33 0 68 4t61 9t61 14.5t51.5 15t48.5 16t37 12.5l44 -87q-78 -34 -188 -56t-221 -22q-65 0 -116.5 4t-101 15t-85 29.5t-66.5 47t-49.5 69t-29 94t-9.5 122.5zM304 599h749q5 51 6 94t-3 78t-11 63.5t-19.5 51t-27.5 39t-36.5 28.5t-44 20t-52 12.5t-59 6.5 t-66.5 2q-40 0 -67 -1t-62 -5.5t-60 -12.5t-54 -22t-50.5 -34.5t-44 -50t-39.5 -68t-32.5 -89.5t-26.5 -112zM657 1350h142l64 -177h-75z" />
<glyph unicode="&#x451;" horiz-adv-x="1167" d="M155 365q1 69 13 154q10 71 24.5 132t33.5 110.5t41.5 91t49.5 73t56 56.5t64 42.5t70 29.5t76 19t81 10t86 3q62 0 112 -5t96 -17.5t81 -33t64 -50.5t47 -71.5t27.5 -94t8 -120t-12.5 -148.5l-7 -43h-878q-8 -69 -9.5 -123t5 -97.5t19 -74.5t36 -54.5t51.5 -37.5t69 -23 t86 -12t105 -3q33 0 68 4t61 9t61 14.5t51.5 15t48.5 16t37 12.5l44 -87q-78 -34 -188 -56t-221 -22q-65 0 -116.5 4t-101 15t-85 29.5t-66.5 47t-49.5 69t-29 94t-9.5 122.5zM304 599h749q5 51 6 94t-3 78t-11 63.5t-19.5 51t-27.5 39t-36.5 28.5t-44 20t-52 12.5t-59 6.5 t-66.5 2q-40 0 -67 -1t-62 -5.5t-60 -12.5t-54 -22t-50.5 -34.5t-44 -50t-39.5 -68t-32.5 -89.5t-26.5 -112zM544 1200l17 120h116l-17 -120h-116zM839 1200l17 120h116l-16 -120h-117z" />
<glyph unicode="&#x452;" horiz-adv-x="1282" d="M138 970l13 95h376l17 119h119l-16 -119h382l-14 -95h-382l-41 -288h310q63 0 108.5 -2.5t87.5 -9.5t70 -18.5t51 -30t35.5 -43.5t19 -60t5 -78t-9.5 -98l-47 -342q-9 -63 -22.5 -110.5t-31.5 -84.5t-46 -61.5t-60.5 -41.5t-80 -26t-99 -12.5t-122.5 -3.5l30 95 q52 0 81.5 1t64 5.5t53 14.5t39 26.5t31.5 43t21 63t17 86.5l49 352q7 50 6.5 86.5t-5 62.5t-22 43t-34 27t-52 14.5t-65 5.5t-81.5 1h-314l-82 -587h-119l136 970h-376z" />
<glyph unicode="&#x453;" horiz-adv-x="872" d="M131 0l149 1065h676l-30 -95h-541l-136 -970h-118zM480 1143l112 177h141q-28 -28 -56.5 -58t-59.5 -62.5t-55 -56.5h-82z" />
<glyph unicode="&#x454;" horiz-adv-x="1078" d="M153.5 379.5q1.5 71.5 14.5 159.5q14 100 38 178.5t55 135.5t74 98.5t89 67.5t106 41t118.5 20.5t133.5 5.5q231 0 371 -69l-68 -88q-174 63 -314 63q-43 0 -74.5 -1.5t-69 -6t-65.5 -13t-59 -23t-54.5 -35t-47 -50t-41.5 -67.5t-33.5 -87.5t-25.5 -109.5h668l-13 -94 h-671q-8 -70 -9.5 -124t5 -97.5t19 -75t35.5 -55t51 -37.5t69.5 -23t86.5 -12t105 -3q32 0 67.5 4t61.5 9t61 14.5t51.5 15t48.5 16t37 12.5l43 -87q-78 -34 -187.5 -56t-220.5 -22q-66 0 -118 4.5t-101.5 15.5t-85 30.5t-66.5 49t-48.5 71.5t-27.5 97.5t-8.5 127z" />
<glyph unicode="&#x455;" horiz-adv-x="1034" d="M84 63q59 84 65 91q37 -16 89 -32t141.5 -30t179.5 -14q50 0 76 0.5t64.5 4.5t58.5 12t46 22.5t40 37t26.5 55.5t18.5 77q4 22 3.5 39.5t-1.5 31.5t-9 25.5t-14 19.5t-22.5 15.5t-28 12.5t-38 11t-44 10t-53.5 11q-10 1 -31 5q-66 13 -96.5 19t-81.5 17.5t-73 18.5 t-57.5 20t-49.5 24.5t-35 28.5t-27 36t-13.5 44t-6.5 54t6 65q13 93 76 160t154 98.5t200 31.5q79 0 157 -7t148.5 -22t111.5 -35l-69 -89q-57 21 -151.5 40t-184.5 19q-155 0 -233.5 -44.5t-93.5 -153.5q-5 -37 -7 -57.5t5 -40t13.5 -28t33.5 -19t48.5 -16t74.5 -17.5 q10 -2 14 -3l108 -21q52 -10 78 -15.5t72 -16.5t70 -21.5t57.5 -27t50 -36.5t33 -46.5t20.5 -60t-1 -74.5q-10 -75 -38.5 -130.5t-69 -90t-99 -55t-121 -28.5t-143.5 -8q-116 0 -247.5 24t-199.5 58z" />
<glyph unicode="&#x456;" horiz-adv-x="399" d="M131 0l149 1065h120l-150 -1065h-119z" />
<glyph unicode="&#x457;" horiz-adv-x="399" d="M131 0l149 1065h120l-150 -1065h-119zM154 1200l17 120h116l-16 -120h-117zM450 1200l16 120h116l-17 -120h-115z" />
<glyph unicode="&#x458;" horiz-adv-x="533" d="M0 -8l20 87q42 0 65 0.5t55 3t49 7t39.5 13t34.5 21.5t26.5 31t23 42.5t16 56.5t13.5 72l104 739h118l-103 -731q-11 -74 -26.5 -127t-42 -91.5t-59.5 -62t-84 -37.5t-108.5 -19t-140.5 -5z" />
<glyph unicode="&#x459;" horiz-adv-x="1852" d="M78 -11l22 87q27 0 44 0.5t39 3t35 7.5t29.5 13.5t27 21.5t23 31.5t21 43.5t17 57t16.5 72l137 739h733l-54 -383h310q55 0 97 -2t81 -7t66.5 -14.5t51.5 -22.5t38.5 -32.5t25 -44t13.5 -57t1.5 -72t-8.5 -88.5q-10 -74 -25.5 -126.5t-42 -91.5t-59 -62.5t-83.5 -37.5 t-109 -19t-142 -5h-429l134 967h-496l-121 -633q-14 -74 -30.5 -127t-40.5 -92t-52.5 -63t-70 -38.5t-88 -19.5t-111.5 -5zM1086 95h314q37 0 60 0.5t51 2.5t45 5.5t37.5 9.5t33 15.5t27 23t23 31t17.5 40t15 51t11 63.5l2 10q6 43 7.5 76.5t-4.5 59t-13.5 42.5t-26.5 29 t-36 18.5t-49.5 10t-59 4t-72.5 0.5h-314z" />
<glyph unicode="&#x45a;" horiz-adv-x="1820" d="M131 0l149 1065h119l-64 -449h631l63 449h119l-54 -383h310q62 0 108 -2.5t87.5 -9.5t69.5 -18.5t51 -30t35.5 -43.5t19 -60t5 -78t-9.5 -98q-10 -74 -25.5 -126.5t-42 -91.5t-59.5 -62.5t-84 -37.5t-109 -19t-141 -5h-430l72 518h-631l-71 -518h-118zM1012 95h313 q36 0 59 0.5t51 2.5t45.5 5.5t38 9.5t33 15.5t27 23t23.5 31t18 40t15 51t11 63.5l2 10q7 50 6.5 86.5t-5.5 62.5t-22.5 43t-34.5 27t-52 14.5t-64.5 5.5t-82.5 1h-313z" />
<glyph unicode="&#x45b;" horiz-adv-x="1296" d="M161 970l13 95h377l16 119h120l-17 -119h381l-13 -95h-381l-41 -288h310q55 0 97 -2t81 -7t66.5 -14.5t51.5 -22.5t38.5 -32.5t25 -44t13.5 -57t1.5 -72t-8.5 -88.5l-46 -342h-125l49 347q6 43 7.5 76.5t-4.5 59t-13.5 42.5t-26.5 29t-36 18.5t-49.5 10t-59.5 4t-73 0.5 h-313l-81 -587h-119l136 970h-377z" />
<glyph unicode="&#x45c;" horiz-adv-x="1119" d="M122 0l149 1065h117l-68 -486h262l439 486h147q-45 -50 -217 -240.5t-266 -292.5l191 -308q30 -49 55 -78t47 -42t44.5 -16t47.5 0l-30 -88q-56 -9 -100.5 0t-87 48.5t-92.5 122.5l-191 313h-262l-68 -484h-117zM602 1143l113 177h141q-36 -36 -92 -95t-79 -82h-83z" />
<glyph unicode="&#x45d;" horiz-adv-x="1135" d="M131 0l149 1065h111l-125 -899l755 899h132l-149 -1065h-113l126 902l-755 -902h-131zM642 1350h143l63 -177h-75z" />
<glyph unicode="&#x45e;" horiz-adv-x="1049" d="M174 1065h123l287 -813l41 73l420 740h134l-434 -733q-16 -26 -46 -73q-39 -64 -57.5 -91.5t-51 -67t-58 -53.5t-68 -31t-93.5 -21.5t-122 -4.5l22 88q100 0 148.5 12t88.5 53zM343 1219l57 88q40 -19 132 -38.5t166 -19.5t171.5 19.5t143.5 38.5l34 -88 q-29 -15 -73.5 -27.5t-95 -20t-101.5 -12t-98 -5.5q-99 3 -196.5 20t-139.5 45z" />
<glyph unicode="&#x45f;" horiz-adv-x="1027" d="M81 0l150 1065h117l-136 -967h630l136 967h119l-150 -1065h-385l-41 -287l-98 -17l43 304h-385z" />
<glyph unicode="&#x490;" horiz-adv-x="755" d="M79 0l150 1065h558l21 161l123 17l-40 -273h-557l-136 -970h-119z" />
<glyph unicode="&#x491;" horiz-adv-x="755" d="M79 0l150 1065h558l21 161l123 17l-40 -273h-557l-136 -970h-119z" />
<glyph unicode="&#x4c1;" horiz-adv-x="1610" d="M100 0q474 523 482 532q-56 90 -151.5 269t-148.5 264h147l269 -486h130l68 486h117l-68 -486h130l405 486h147q-78 -86 -222.5 -264.5t-226.5 -268.5q45 -71 158.5 -253.5t174.5 -278.5h-148l-301 484h-130l-68 -484h-117l68 484h-130l-438 -484h-147zM766 1358h72 q4 -56 39 -85t97 -29q70 0 113 28t67 86h70q-29 -87 -95.5 -136t-159.5 -49q-65 0 -110 20t-68.5 61.5t-24.5 103.5z" />
<glyph unicode="&#x4c2;" horiz-adv-x="1653" d="M88 88q24 -3 47 0t48 16t58 42t77 78l281 308q-61 96 -170.5 276.5t-156.5 256.5h141l302 -486h135l68 486h117l-68 -486h135l438 486h141q-72 -79 -231 -259t-246 -274l191 -308q30 -49 55.5 -78t47 -42t44 -16t47.5 0l-30 -88q-56 -9 -100.5 0t-87 48.5t-92.5 122.5 l-191 313h-134l-68 -484h-118l68 484h-135l-280 -313q-72 -82 -126 -122.5t-100.5 -49t-99.5 0.5zM788 1358h71q5 -56 40 -85t96 -29q71 0 114 28t67 86h70q-29 -87 -95.5 -136t-159.5 -49q-66 0 -110.5 20t-68 61.5t-24.5 103.5z" />
<glyph unicode="&#x4d0;" horiz-adv-x="1089" d="M46 0l576 1065h143l277 -1065h-123l-88 334h-483l-179 -334h-123zM394 418h415l-91 347l-34 201h-11l-91 -201zM506 1358h72q4 -56 39 -85t97 -29q70 0 113 28t67 86h70q-29 -87 -96 -136t-160 -49q-199 0 -202 185z" />
<glyph unicode="&#x4d1;" horiz-adv-x="1163" d="M123 311.5q11 75.5 39.5 133t70 94.5t99 60t122 32.5t143.5 9.5h362q6 62 7 109t-5.5 83.5t-16 62t-29.5 43.5t-41.5 28t-57 16t-70 7.5t-86.5 1.5q-142 0 -334 -63l-41 88q73 32 175.5 50.5t216.5 18.5q71 0 123 -4t98.5 -15t77.5 -29.5t55.5 -48.5t37 -70t17 -96 t0 -125t-17.5 -159l-3 -26l-27 -187q-16 -124 -1.5 -173.5t68.5 -64.5l-32 -90q-81 11 -115.5 48.5t-36.5 117.5q-145 -180 -416 -180q-80 0 -141.5 9t-113 32t-82.5 60t-43.5 94t-1.5 132.5zM236 312q-11 -75 4 -123.5t58 -71t93 -30.5t128 -8q67 0 121 10.5t94.5 29t72 49 t53 66t38.5 86t27.5 101.5t19.5 120l2 3h-363q-62 0 -105.5 -4t-88.5 -18t-73.5 -38.5t-50.5 -67.5t-30 -104zM544 1358h72q3 -37 19.5 -62.5t45.5 -38.5t71 -13q47 0 82 13t58.5 38t39.5 63h70q-29 -87 -95.5 -136t-159.5 -49q-98 0 -149.5 46.5t-53.5 138.5z" />
<glyph unicode="&#x4d2;" horiz-adv-x="1089" d="M46 0l576 1065h143l277 -1065h-123l-88 334h-483l-179 -334h-123zM394 418h415l-91 347l-34 201h-11l-91 -201zM511 1230l16 120h117l-17 -120h-116zM806 1230l17 120h116l-16 -120h-117z" />
<glyph unicode="&#x4d3;" horiz-adv-x="1163" d="M123 311.5q11 75.5 39.5 133t70 94.5t99 60t122 32.5t143.5 9.5h362q6 62 7 109t-5.5 83.5t-16 62t-29.5 43.5t-41.5 28t-57 16t-70 7.5t-86.5 1.5q-142 0 -334 -63l-41 88q73 32 175.5 50.5t216.5 18.5q71 0 123 -4t98.5 -15t77.5 -29.5t55.5 -48.5t37 -70t17 -96 t0 -125t-17.5 -159l-3 -26l-27 -187q-16 -124 -1.5 -173.5t68.5 -64.5l-32 -90q-81 11 -115.5 48.5t-36.5 117.5q-145 -180 -416 -180q-80 0 -141.5 9t-113 32t-82.5 60t-43.5 94t-1.5 132.5zM236 312q-11 -75 4 -123.5t58 -71t93 -30.5t128 -8q67 0 121 10.5t94.5 29t72 49 t53 66t38.5 86t27.5 101.5t19.5 120l2 3h-363q-62 0 -105.5 -4t-88.5 -18t-73.5 -38.5t-50.5 -67.5t-30 -104zM549 1230l16 120h117l-17 -120h-116zM844 1230l17 120h116l-16 -120h-117z" />
<glyph unicode="&#x4d4;" horiz-adv-x="1358" d="M46 0l576 1065h874l-30 -95h-660l-53 -371h536l-13 -94h-536l-56 -409h676l-30 -96h-779l46 334h-249l-179 -334h-123zM394 418h215l76 543l-1 5h-11l-91 -201z" />
<glyph unicode="&#x4d5;" horiz-adv-x="1978" d="M123 311.5q11 75.5 39.5 133t70 94.5t99 60t122 32.5t143.5 9.5h362q6 62 7 109t-5.5 83.5t-16 62t-29.5 43.5t-41.5 28t-57 16t-70 7.5t-86.5 1.5q-142 0 -334 -63l-41 88q73 32 175.5 50.5t216.5 18.5q74 0 128 -4.5t101 -16.5t78.5 -33.5t54 -54t34.5 -78.5 q75 106 186.5 146.5t268.5 40.5q61 0 111 -5t96 -17.5t81 -33t63.5 -50.5t46 -71.5t26.5 -94t8 -120t-13 -148.5l-6 -43h-877q-9 -69 -10.5 -123.5t5 -98t19 -75t35.5 -55.5t51 -38.5t69 -23.5t86.5 -12.5t105.5 -3.5q126 0 347 73q9 3 13 5l43 -88q-77 -34 -204 -59.5 t-237 -25.5q-61 0 -110.5 4t-96 13.5t-82.5 26.5t-66.5 41.5t-51.5 59.5t-33 79q-3 -3 -26 -38q-145 -180 -416 -180q-80 0 -141.5 9t-113 32t-82.5 60t-43.5 94t-1.5 132.5zM236 312q-11 -75 4 -123.5t58 -71t93 -30.5t128 -8q74 0 132 12t101 37t74 58t53 82t36 102.5 t25 125.5l7 48h-363q-62 0 -105.5 -4t-88.5 -18t-73.5 -38.5t-50.5 -67.5t-30 -104zM1078 599h750q5 51 6 94t-2.5 78t-11 63.5t-20 51t-27.5 39t-36 28.5t-44 20t-52 12.5t-59 6.5t-67 2q-40 0 -67 -1t-62 -5.5t-60 -12.5t-54 -22t-50.5 -34.5t-44.5 -50t-39.5 -68 t-32 -89.5t-27.5 -112z" />
<glyph unicode="&#x4d6;" horiz-adv-x="966" d="M131 0l149 1065h796l-29 -95h-661l-52 -371h535l-13 -94h-536l-56 -409h676l-30 -96h-779zM445 1358h71q5 -56 39.5 -85t96.5 -29q48 0 83 13t58.5 38t39.5 63h69q-28 -87 -95 -136t-160 -49q-65 0 -109.5 20t-68.5 61.5t-24 103.5z" />
<glyph unicode="&#x4d7;" horiz-adv-x="1167" d="M155 365q1 69 13 154q10 71 24.5 132t33.5 110.5t41.5 91t49.5 73t56 56.5t64 42.5t70 29.5t76 19t81 10t86 3q62 0 112 -5t96 -17.5t81 -33t64 -50.5t47 -71.5t27.5 -94t8 -120t-12.5 -148.5l-7 -43h-878q-8 -69 -9.5 -123t5 -97.5t19 -74.5t36 -54.5t51.5 -37.5t69 -23 t86 -12t105 -3q33 0 68 4t61 9t61 14.5t51.5 15t48.5 16t37 12.5l44 -87q-78 -34 -188 -56t-221 -22q-65 0 -116.5 4t-101 15t-85 29.5t-66.5 47t-49.5 69t-29 94t-9.5 122.5zM304 599h749q5 51 6 94t-3 78t-11 63.5t-19.5 51t-27.5 39t-36.5 28.5t-44 20t-52 12.5t-59 6.5 t-66.5 2q-40 0 -67 -1t-62 -5.5t-60 -12.5t-54 -22t-50.5 -34.5t-44 -50t-39.5 -68t-32.5 -89.5t-26.5 -112zM546 1358h71q5 -56 39.5 -85t96.5 -29q48 0 83 13t58.5 38t39.5 63h70q-29 -87 -96 -136t-160 -49q-65 0 -109.5 20t-68 61.5t-24.5 103.5z" />
<glyph unicode="&#x4d8;" horiz-adv-x="1167" d="M155.5 370.5q1.5 67.5 12.5 148.5l6 43h877q8 62 9.5 111.5t-1.5 90.5t-13.5 72t-25 55.5t-38.5 41.5t-51.5 29t-65.5 18.5t-79 9t-94 2.5q-20 0 -42 -1.5t-41 -4t-42.5 -7t-40.5 -8t-41 -10t-37 -10.5t-36 -11t-31 -9.5t-28.5 -9.5t-22.5 -7l-43 88q37 16 89 31t111 27 t123 19t120 7q58 0 104.5 -3.5t92 -12t80 -22.5t65.5 -36t52 -52t36 -70.5t21 -91t4.5 -113.5t-12.5 -139q-14 -101 -38.5 -182t-55 -140t-72 -102.5t-86 -70.5t-100 -43.5t-110.5 -23t-122 -6.5q-62 0 -112 5.5t-96 18t-80.5 33t-63 50.5t-46.5 71t-27.5 94t-8 120.5z M281 362q0 -47 4.5 -84t15.5 -66.5t25 -51t36 -37t45.5 -25.5t55.5 -16t64.5 -8.5t74.5 -2.5q52 0 85.5 2t77 10.5t73 24.5t62.5 44.5t56.5 70t44.5 103t36 140.5h-750q-6 -57 -6 -104z" />
<glyph unicode="&#x4d9;" horiz-adv-x="1167" d="M155.5 370.5q1.5 67.5 12.5 148.5l6 43h877q8 62 9.5 111.5t-1.5 90.5t-13.5 72t-25 55.5t-38.5 41.5t-51.5 29t-65.5 18.5t-79 9t-94 2.5q-20 0 -42 -1.5t-41 -4t-42.5 -7t-40.5 -8t-41 -10t-37 -10.5t-36 -11t-31 -9.5t-28.5 -9.5t-22.5 -7l-43 88q37 16 89 31t111 27 t123 19t120 7q58 0 104.5 -3.5t92 -12t80 -22.5t65.5 -36t52 -52t36 -70.5t21 -91t4.5 -113.5t-12.5 -139q-14 -101 -38.5 -182t-55 -140t-72 -102.5t-86 -70.5t-100 -43.5t-110.5 -23t-122 -6.5q-62 0 -112 5.5t-96 18t-80.5 33t-63 50.5t-46.5 71t-27.5 94t-8 120.5z M281 362q0 -47 4.5 -84t15.5 -66.5t25 -51t36 -37t45.5 -25.5t55.5 -16t64.5 -8.5t74.5 -2.5q52 0 85.5 2t77 10.5t73 24.5t62.5 44.5t56.5 70t44.5 103t36 140.5h-750q-6 -57 -6 -104z" />
<glyph unicode="&#x4da;" horiz-adv-x="1167" d="M155.5 370.5q1.5 67.5 12.5 148.5l6 43h877q8 62 9.5 111.5t-1.5 90.5t-13.5 72t-25 55.5t-38.5 41.5t-51.5 29t-65.5 18.5t-79 9t-94 2.5q-20 0 -42 -1.5t-41 -4t-42.5 -7t-40.5 -8t-41 -10t-37 -10.5t-36 -11t-31 -9.5t-28.5 -9.5t-22.5 -7l-43 88q37 16 89 31t111 27 t123 19t120 7q58 0 104.5 -3.5t92 -12t80 -22.5t65.5 -36t52 -52t36 -70.5t21 -91t4.5 -113.5t-12.5 -139q-14 -101 -38.5 -182t-55 -140t-72 -102.5t-86 -70.5t-100 -43.5t-110.5 -23t-122 -6.5q-62 0 -112 5.5t-96 18t-80.5 33t-63 50.5t-46.5 71t-27.5 94t-8 120.5z M281 362q0 -47 4.5 -84t15.5 -66.5t25 -51t36 -37t45.5 -25.5t55.5 -16t64.5 -8.5t74.5 -2.5q52 0 85.5 2t77 10.5t73 24.5t62.5 44.5t56.5 70t44.5 103t36 140.5h-750q-6 -57 -6 -104zM551 1230l16 120h117l-17 -120h-116zM846 1230l17 120h115l-16 -120h-116z" />
<glyph unicode="&#x4db;" horiz-adv-x="1167" d="M155.5 370.5q1.5 67.5 12.5 148.5l6 43h877q8 62 9.5 111.5t-1.5 90.5t-13.5 72t-25 55.5t-38.5 41.5t-51.5 29t-65.5 18.5t-79 9t-94 2.5q-20 0 -42 -1.5t-41 -4t-42.5 -7t-40.5 -8t-41 -10t-37 -10.5t-36 -11t-31 -9.5t-28.5 -9.5t-22.5 -7l-43 88q37 16 89 31t111 27 t123 19t120 7q58 0 104.5 -3.5t92 -12t80 -22.5t65.5 -36t52 -52t36 -70.5t21 -91t4.5 -113.5t-12.5 -139q-14 -101 -38.5 -182t-55 -140t-72 -102.5t-86 -70.5t-100 -43.5t-110.5 -23t-122 -6.5q-62 0 -112 5.5t-96 18t-80.5 33t-63 50.5t-46.5 71t-27.5 94t-8 120.5z M281 362q0 -47 4.5 -84t15.5 -66.5t25 -51t36 -37t45.5 -25.5t55.5 -16t64.5 -8.5t74.5 -2.5q52 0 85.5 2t77 10.5t73 24.5t62.5 44.5t56.5 70t44.5 103t36 140.5h-750q-6 -57 -6 -104zM551 1230l16 120h117l-17 -120h-116zM846 1230l17 120h115l-16 -120h-116z" />
<glyph unicode="&#x4dc;" horiz-adv-x="1610" d="M100 0q474 523 482 532q-56 90 -151.5 269t-148.5 264h147l269 -486h130l68 486h117l-68 -486h130l405 486h147q-78 -86 -222.5 -264.5t-226.5 -268.5q45 -71 158.5 -253.5t174.5 -278.5h-148l-301 484h-130l-68 -484h-117l68 484h-130l-438 -484h-147zM771 1230l17 120 h116l-16 -120h-117zM1067 1230l16 120h117l-17 -120h-116z" />
<glyph unicode="&#x4dd;" horiz-adv-x="1653" d="M88 88q24 -3 47 0t48 16t58 42t77 78l281 308q-61 96 -170.5 276.5t-156.5 256.5h141l302 -486h135l68 486h117l-68 -486h135l438 486h141q-72 -79 -231 -259t-246 -274l191 -308q30 -49 55.5 -78t47 -42t44 -16t47.5 0l-30 -88q-56 -9 -100.5 0t-87 48.5t-92.5 122.5 l-191 313h-134l-68 -484h-118l68 484h-135l-280 -313q-72 -82 -126 -122.5t-100.5 -49t-99.5 0.5zM793 1230l16 120h117l-17 -120h-116zM1088 1230l17 120h116l-17 -120h-116z" />
<glyph unicode="&#x4de;" horiz-adv-x="999" d="M58 46l68 88q54 -19 163.5 -38.5t201.5 -19.5q45 0 73 1t60.5 3.5t52 8t41 15t34 23.5t25 34t19.5 46t12 60q5 41 6.5 71.5t-5 54t-12.5 39t-25 26t-33.5 16.5t-47 9t-55 3.5l-67.5 1.5h-267l13 94h267q47 1 77 2.5t62 6.5t51.5 14.5t39 24.5t31 38.5t21 55t15.5 74.5 q3 25 4 45.5t-2 38t-8.5 31t-15 24.5t-21.5 19t-29 13.5t-35.5 9.5t-43.5 6t-50.5 3t-58.5 1q-92 0 -207.5 -19.5t-174.5 -38.5l-41 87q69 31 189.5 48t243.5 17q60 0 107 -3t88 -9.5t69.5 -17t52 -26t35.5 -37t20.5 -49t6.5 -62t-6 -76.5q-12 -81 -37.5 -134t-58 -81.5 t-85.5 -53.5q23 -12 39 -24t31 -28t24 -36t14.5 -45.5t5.5 -59t-6 -74.5q-10 -69 -29.5 -116.5t-52.5 -81t-86 -52.5t-121 -27.5t-165 -8.5q-123 0 -239 17t-178 48zM466 1230l17 120h116l-17 -120h-116zM761 1230l17 120h116l-17 -120h-116z" />
<glyph unicode="&#x4df;" horiz-adv-x="1001" d="M58 46l68 88q54 -19 163.5 -38.5t201.5 -19.5q45 0 73 1t60.5 3.5t52 8t41 15t34 23.5t25 34t19.5 46t12 60q5 41 6.5 71.5t-5 54t-12.5 39t-25 26t-33.5 16.5t-47 9t-55 3.5l-67.5 1.5h-267l13 94h267q47 1 77 2.5t62 6.5t51.5 14.5t39 24.5t31 38.5t21 55t15.5 74.5 q3 25 4 45.5t-2 38t-8.5 31t-15 24.5t-21.5 19t-29 13.5t-35.5 9.5t-43.5 6t-50.5 3t-58.5 1q-92 0 -207.5 -19.5t-174.5 -38.5l-41 87q69 31 189.5 48t243.5 17q60 0 107 -3t88 -9.5t69.5 -17t52 -26t35.5 -37t20.5 -49t6.5 -62t-6 -76.5q-12 -81 -37.5 -134t-58 -81.5 t-85.5 -53.5q23 -12 39 -24t31 -28t24 -36t14.5 -45.5t5.5 -59t-6 -74.5q-10 -69 -29.5 -116.5t-52.5 -81t-86 -52.5t-121 -27.5t-165 -8.5q-123 0 -239 17t-178 48zM468 1230l16 120h116l-16 -120h-116zM763 1230l17 120h116l-17 -120h-116z" />
<glyph unicode="&#x4e2;" horiz-adv-x="1135" d="M131 0l149 1065h111l-125 -899l755 899h132l-149 -1065h-113l126 902l-755 -902h-131zM513 1236l9 63h456l-9 -63h-456z" />
<glyph unicode="&#x4e3;" horiz-adv-x="1135" d="M131 0l149 1065h111l-125 -899l755 899h132l-149 -1065h-113l126 902l-755 -902h-131zM513 1236l9 63h456l-9 -63h-456z" />
<glyph unicode="&#x4e4;" horiz-adv-x="1135" d="M131 0l149 1065h111l-125 -899l755 899h132l-149 -1065h-113l126 902l-755 -902h-131zM534 1230l17 120h116l-17 -120h-116zM829 1230l17 120h116l-17 -120h-116z" />
<glyph unicode="&#x4e5;" horiz-adv-x="1135" d="M131 0l149 1065h111l-125 -899l755 899h132l-149 -1065h-113l126 902l-755 -902h-131zM534 1230l17 120h116l-17 -120h-116zM829 1230l17 120h116l-17 -120h-116z" />
<glyph unicode="&#x4e6;" d="M157.5 389q0.5 66 11.5 145q14 100 40 180.5t59 138t77.5 99.5t91.5 67.5t106 40.5t114.5 20.5t124.5 5.5q52 0 95.5 -3t88.5 -11.5t80.5 -22.5t69 -36t57 -52t42 -71.5t27 -93t8 -118t-11.5 -144.5q-15 -101 -40.5 -181.5t-58.5 -137.5t-78 -99t-91.5 -67.5t-105.5 -41 t-114.5 -21t-124.5 -5.5q-52 0 -95.5 3.5t-88.5 11.5t-80.5 22t-69 36.5t-57.5 52.5t-42.5 71.5t-26.5 93t-7.5 117.5zM279 409.5q-3 -56.5 3.5 -99.5t14 -77t27 -58.5t35 -42t46 -28t50.5 -17t58 -9t60.5 -3t64.5 -0.5q47 0 71.5 0.5t67 4.5t66.5 12t60 23.5t57.5 38.5 t48.5 57.5t44.5 79.5t34 106.5t27.5 136.5q11 84 12.5 151t-11 114t-27 81.5t-46 55t-55.5 33t-69 18t-72.5 6.5t-78.5 1q-47 0 -72 -0.5t-67.5 -5t-67 -12.5t-60 -23.5t-57 -38.5t-48 -57.5t-44 -80t-34 -106.5t-26.5 -136q-10 -68 -13 -124.5zM595 1230l17 120h116 l-16 -120h-117zM891 1230l16 120h117l-17 -120h-116z" />
<glyph unicode="&#x4e7;" d="M157.5 389q0.5 66 11.5 145q14 100 40 180.5t59 138t77.5 99.5t91.5 67.5t106 40.5t114.5 20.5t124.5 5.5q52 0 95.5 -3t88.5 -11.5t80.5 -22.5t69 -36t57 -52t42 -71.5t27 -93t8 -118t-11.5 -144.5q-15 -101 -40.5 -181.5t-58.5 -137.5t-78 -99t-91.5 -67.5t-105.5 -41 t-114.5 -21t-124.5 -5.5q-52 0 -95.5 3.5t-88.5 11.5t-80.5 22t-69 36.5t-57.5 52.5t-42.5 71.5t-26.5 93t-7.5 117.5zM279 409.5q-3 -56.5 3.5 -99.5t14 -77t27 -58.5t35 -42t46 -28t50.5 -17t58 -9t60.5 -3t64.5 -0.5q47 0 71.5 0.5t67 4.5t66.5 12t60 23.5t57.5 38.5 t48.5 57.5t44.5 79.5t34 106.5t27.5 136.5q11 84 12.5 151t-11 114t-27 81.5t-46 55t-55.5 33t-69 18t-72.5 6.5t-78.5 1q-47 0 -72 -0.5t-67.5 -5t-67 -12.5t-60 -23.5t-57 -38.5t-48 -57.5t-44 -80t-34 -106.5t-26.5 -136q-10 -68 -13 -124.5zM595 1230l17 120h116 l-16 -120h-117zM891 1230l16 120h117l-17 -120h-116z" />
<glyph unicode="&#x4e8;" d="M157.5 389q0.5 66 11.5 145q14 100 40 180.5t59 138t77.5 99.5t91.5 67.5t106 40.5t114.5 20.5t124.5 5.5q52 0 95.5 -3t88.5 -11.5t80.5 -22.5t69 -36t57 -52t42 -71.5t27 -93t8 -118t-11.5 -144.5q-15 -101 -40.5 -181.5t-58.5 -137.5t-78 -99t-91.5 -67.5t-105.5 -41 t-114.5 -21t-124.5 -5.5q-52 0 -95.5 3.5t-88.5 11.5t-80.5 22t-69 36.5t-57.5 52.5t-42.5 71.5t-26.5 93t-7.5 117.5zM278 384.5q-1 -52.5 6.5 -92t16 -71.5t28 -54t35 -38.5t45.5 -26.5t50 -16t57 -8t59 -2.5t63 -0.5t62.5 0.5t59 2.5t59.5 8t54.5 16t53 26.5t46.5 38.5 t44 54t36.5 71.5t32 92t24.5 114.5h-823q-8 -62 -9 -114.5zM297 574h822q33 287 -88 372q-64 45 -205 47q-20 1 -58 1q-46 0 -70 -0.5t-65.5 -4.5t-65.5 -11t-58.5 -21.5t-56 -35t-48.5 -52.5t-44.5 -73t-34 -97t-28.5 -125z" />
<glyph unicode="&#x4e9;" d="M157.5 389q0.5 66 11.5 145q14 100 40 180.5t59 138t77.5 99.5t91.5 67.5t106 40.5t114.5 20.5t124.5 5.5q52 0 95.5 -3t88.5 -11.5t80.5 -22.5t69 -36t57 -52t42 -71.5t27 -93t8 -118t-11.5 -144.5q-15 -101 -40.5 -181.5t-58.5 -137.5t-78 -99t-91.5 -67.5t-105.5 -41 t-114.5 -21t-124.5 -5.5q-52 0 -95.5 3.5t-88.5 11.5t-80.5 22t-69 36.5t-57.5 52.5t-42.5 71.5t-26.5 93t-7.5 117.5zM278 384.5q-1 -52.5 6.5 -92t16 -71.5t28 -54t35 -38.5t45.5 -26.5t50 -16t57 -8t59 -2.5t63 -0.5t62.5 0.5t59 2.5t59.5 8t54.5 16t53 26.5t46.5 38.5 t44 54t36.5 71.5t32 92t24.5 114.5h-823q-8 -62 -9 -114.5zM297 574h822q33 287 -88 372q-64 45 -205 47q-20 1 -58 1q-46 0 -70 -0.5t-65.5 -4.5t-65.5 -11t-58.5 -21.5t-56 -35t-48.5 -52.5t-44.5 -73t-34 -97t-28.5 -125z" />
<glyph unicode="&#x4ea;" d="M157.5 389q0.5 66 11.5 145q14 100 40 180.5t59 138t77.5 99.5t91.5 67.5t106 40.5t114.5 20.5t124.5 5.5q52 0 95.5 -3t88.5 -11.5t80.5 -22.5t69 -36t57 -52t42 -71.5t27 -93t8 -118t-11.5 -144.5q-15 -101 -40.5 -181.5t-58.5 -137.5t-78 -99t-91.5 -67.5t-105.5 -41 t-114.5 -21t-124.5 -5.5q-52 0 -95.5 3.5t-88.5 11.5t-80.5 22t-69 36.5t-57.5 52.5t-42.5 71.5t-26.5 93t-7.5 117.5zM278 384.5q-1 -52.5 6.5 -92t16 -71.5t28 -54t35 -38.5t45.5 -26.5t50 -16t57 -8t59 -2.5t63 -0.5t62.5 0.5t59 2.5t59.5 8t54.5 16t53 26.5t46.5 38.5 t44 54t36.5 71.5t32 92t24.5 114.5h-823q-8 -62 -9 -114.5zM297 574h822q33 287 -88 372q-64 45 -205 47q-20 1 -58 1q-46 0 -70 -0.5t-65.5 -4.5t-65.5 -11t-58.5 -21.5t-56 -35t-48.5 -52.5t-44.5 -73t-34 -97t-28.5 -125zM595 1230l17 120h116l-16 -120h-117zM891 1230 l16 120h117l-17 -120h-116z" />
<glyph unicode="&#x4eb;" d="M157.5 389q0.5 66 11.5 145q14 100 40 180.5t59 138t77.5 99.5t91.5 67.5t106 40.5t114.5 20.5t124.5 5.5q52 0 95.5 -3t88.5 -11.5t80.5 -22.5t69 -36t57 -52t42 -71.5t27 -93t8 -118t-11.5 -144.5q-15 -101 -40.5 -181.5t-58.5 -137.5t-78 -99t-91.5 -67.5t-105.5 -41 t-114.5 -21t-124.5 -5.5q-52 0 -95.5 3.5t-88.5 11.5t-80.5 22t-69 36.5t-57.5 52.5t-42.5 71.5t-26.5 93t-7.5 117.5zM278 384.5q-1 -52.5 6.5 -92t16 -71.5t28 -54t35 -38.5t45.5 -26.5t50 -16t57 -8t59 -2.5t63 -0.5t62.5 0.5t59 2.5t59.5 8t54.5 16t53 26.5t46.5 38.5 t44 54t36.5 71.5t32 92t24.5 114.5h-823q-8 -62 -9 -114.5zM297 574h822q33 287 -88 372q-64 45 -205 47q-20 1 -58 1q-46 0 -70 -0.5t-65.5 -4.5t-65.5 -11t-58.5 -21.5t-56 -35t-48.5 -52.5t-44.5 -73t-34 -97t-28.5 -125zM595 1230l17 120h116l-16 -120h-117zM891 1230 l16 120h117l-17 -120h-116z" />
<glyph unicode="&#x4ec;" horiz-adv-x="1078" d="M78 62l66 87q3 -1 33.5 -12.5t44.5 -16t47 -14.5t57.5 -15t58.5 -9t66 -4q81 0 138 6t109 23t86.5 46.5t64.5 77.5t49.5 114.5t33.5 159.5h-670l13 94h669q10 107 -3 181.5t-40 115.5t-81 63t-104 27.5t-130 5.5q-142 0 -334 -63l-41 88q156 69 391 69q65 0 116 -4 t101.5 -15t88 -30t70 -48t52.5 -70.5t32 -95.5t11.5 -125t-13.5 -159q-14 -100 -36.5 -179.5t-51.5 -138t-69.5 -100t-84.5 -68.5t-102.5 -42.5t-117.5 -21t-135 -5.5q-111 0 -215 22t-170 56zM506 1230l16 120h116l-16 -120h-116zM801 1230l17 120h116l-16 -120h-117z" />
<glyph unicode="&#x4ed;" horiz-adv-x="1078" d="M78 62l66 87q3 -1 33.5 -12.5t44.5 -16t47 -14.5t57.5 -15t58.5 -9t66 -4q81 0 138 6t109 23t86.5 46.5t64.5 77.5t49.5 114.5t33.5 159.5h-670l13 94h669q10 107 -3 181.5t-40 115.5t-81 63t-104 27.5t-130 5.5q-142 0 -334 -63l-41 88q156 69 391 69q65 0 116 -4 t101.5 -15t88 -30t70 -48t52.5 -70.5t32 -95.5t11.5 -125t-13.5 -159q-14 -100 -36.5 -179.5t-51.5 -138t-69.5 -100t-84.5 -68.5t-102.5 -42.5t-117.5 -21t-135 -5.5q-111 0 -215 22t-170 56zM506 1230l16 120h116l-16 -120h-116zM801 1230l17 120h116l-16 -120h-117z" />
<glyph unicode="&#x4ee;" horiz-adv-x="1071" d="M194 1065h123l286 -813l43 73l419 740h135l-435 -733q-17 -26 -47 -74q-39 -64 -57.5 -91.5t-51 -66.5t-58 -53t-67.5 -31t-93 -21.5t-122 -4.5l21 88q101 0 149.5 12t87.5 53zM480 1236l9 63h456l-9 -63h-456z" />
<glyph unicode="&#x4ef;" horiz-adv-x="1071" d="M194 1065h123l286 -813l43 73l419 740h135l-435 -733q-17 -26 -47 -74q-39 -64 -57.5 -91.5t-51 -66.5t-58 -53t-67.5 -31t-93 -21.5t-122 -4.5l21 88q101 0 149.5 12t87.5 53zM480 1236l9 63h456l-9 -63h-456z" />
<glyph unicode="&#x4f0;" horiz-adv-x="1071" d="M194 1065h123l286 -813l43 73l419 740h135l-435 -733q-17 -26 -47 -74q-39 -64 -57.5 -91.5t-51 -66.5t-58 -53t-67.5 -31t-93 -21.5t-122 -4.5l21 88q101 0 149.5 12t87.5 53zM503 1230l16 120h116l-16 -120h-116zM798 1230l17 120h116l-17 -120h-116z" />
<glyph unicode="&#x4f1;" horiz-adv-x="1071" d="M194 1065h123l286 -813l43 73l419 740h135l-435 -733q-17 -26 -47 -74q-39 -64 -57.5 -91.5t-51 -66.5t-58 -53t-67.5 -31t-93 -21.5t-122 -4.5l21 88q101 0 149.5 12t87.5 53zM503 1230l16 120h116l-16 -120h-116zM798 1230l17 120h116l-17 -120h-116z" />
<glyph unicode="&#x4f2;" horiz-adv-x="1071" d="M194 1065h123l286 -813l43 73l419 740h135l-435 -733q-17 -26 -47 -74q-39 -64 -57.5 -91.5t-51 -66.5t-58 -53t-67.5 -31t-93 -21.5t-122 -4.5l21 88q101 0 149.5 12t87.5 53zM441 1173l113 177h141q-35 -34 -171 -177h-83zM730 1173l112 177h141q-30 -29 -56 -56 t-62 -65.5t-52 -55.5h-83z" />
<glyph unicode="&#x4f3;" horiz-adv-x="1071" d="M194 1065h123l286 -813l43 73l419 740h135l-435 -733q-17 -26 -47 -74q-39 -64 -57.5 -91.5t-51 -66.5t-58 -53t-67.5 -31t-93 -21.5t-122 -4.5l21 88q101 0 149.5 12t87.5 53zM441 1173l113 177h141q-35 -34 -171 -177h-83zM730 1173l112 177h141q-30 -29 -56 -56 t-62 -65.5t-52 -55.5h-83z" />
<glyph unicode="&#x4f4;" horiz-adv-x="993" d="M113 698l51 367h124l-52 -372q-2 -39 -4.5 -69t8.5 -53.5t20.5 -40.5t31.5 -28.5t41.5 -18.5t51 -11t59 -5t65.5 -1q121 0 191.5 16t114.5 61l74 522h119l-149 -1065h-119l58 418q-102 -48 -304 -48q-79 0 -140.5 9.5t-113 32.5t-82.5 60t-43.5 94t-1.5 132zM463 1230 l17 120h115l-16 -120h-116zM758 1230l16 120h117l-17 -120h-116z" />
<glyph unicode="&#x4f5;" horiz-adv-x="993" d="M113 698l51 367h124l-52 -372q-2 -39 -4.5 -69t8.5 -53.5t20.5 -40.5t31.5 -28.5t41.5 -18.5t51 -11t59 -5t65.5 -1q121 0 191.5 16t114.5 61l74 522h119l-149 -1065h-119l58 418q-102 -48 -304 -48q-79 0 -140.5 9.5t-113 32.5t-82.5 60t-43.5 94t-1.5 132zM463 1230 l17 120h115l-16 -120h-116zM758 1230l16 120h117l-17 -120h-116z" />
<glyph unicode="&#x4f8;" horiz-adv-x="1389" d="M131 0l149 1065h120l-55 -383h310q63 0 108.5 -2.5t87.5 -9.5t70 -18.5t51 -30t35.5 -43.5t19 -60t5 -78t-9.5 -98q-10 -74 -25.5 -127t-42 -91.5t-59.5 -62t-84 -37.5t-109 -19t-141 -5h-430zM264 95h314q36 0 59 0.5t51 2.5t45 5.5t37.5 9.5t33 15.5t27 23t23 31 t17.5 40t15 51t11 63.5l2 10q7 50 6.5 86.5t-5 62.5t-22 43t-34.5 27t-52 14.5t-64.5 5.5t-81.5 1h-314zM662 1230l17 120h116l-17 -120h-116zM957 1230l17 120h116l-17 -120h-116zM1138 0l149 1065h120l-150 -1065h-119z" />
<glyph unicode="&#x4f9;" horiz-adv-x="1389" d="M131 0l149 1065h120l-55 -383h310q63 0 108.5 -2.5t87.5 -9.5t70 -18.5t51 -30t35.5 -43.5t19 -60t5 -78t-9.5 -98q-10 -74 -25.5 -127t-42 -91.5t-59.5 -62t-84 -37.5t-109 -19t-141 -5h-430zM264 95h314q36 0 59 0.5t51 2.5t45 5.5t37.5 9.5t33 15.5t27 23t23 31 t17.5 40t15 51t11 63.5l2 10q7 50 6.5 86.5t-5 62.5t-22 43t-34.5 27t-52 14.5t-64.5 5.5t-81.5 1h-314zM662 1230l17 120h116l-17 -120h-116zM957 1230l17 120h116l-17 -120h-116zM1138 0l149 1065h120l-150 -1065h-119z" />
<glyph unicode="&#x2000;" horiz-adv-x="682" />
<glyph unicode="&#x2001;" horiz-adv-x="1365" />
<glyph unicode="&#x2002;" horiz-adv-x="682" />
<glyph unicode="&#x2003;" horiz-adv-x="1365" />
<glyph unicode="&#x2004;" horiz-adv-x="455" />
<glyph unicode="&#x2005;" horiz-adv-x="341" />
<glyph unicode="&#x2006;" horiz-adv-x="227" />
<glyph unicode="&#x2007;" horiz-adv-x="227" />
<glyph unicode="&#x2008;" horiz-adv-x="170" />
<glyph unicode="&#x2009;" horiz-adv-x="273" />
<glyph unicode="&#x200a;" horiz-adv-x="75" />
<glyph unicode="&#x2010;" horiz-adv-x="671" d="M177 334l16 104h404l-15 -104h-405z" />
<glyph unicode="&#x2011;" horiz-adv-x="671" d="M177 334l16 104h404l-15 -104h-405z" />
<glyph unicode="&#x2012;" horiz-adv-x="671" d="M177 334l16 104h404l-15 -104h-405z" />
<glyph unicode="&#x2013;" horiz-adv-x="1132" d="M179 348l10 75h870l-11 -75h-869z" />
<glyph unicode="&#x2014;" horiz-adv-x="1518" d="M179 348l10 75h1258l-10 -75h-1258z" />
<glyph unicode="&#x2018;" horiz-adv-x="293" d="M179 770l15 106q12 95 42 137q44 56 94 81q2 -5 15 -24q-44 -21 -68 -62.5t-36 -116.5h76l-16 -121h-122z" />
<glyph unicode="&#x2019;" horiz-adv-x="293" d="M211 790q27 13 47 36t33.5 57.5t20.5 82.5h-73l18 124h120l-16 -107q-13 -89 -43 -141q-42 -52 -94 -77z" />
<glyph unicode="&#x201a;" horiz-adv-x="293" d="M76 -176q41 19 65 61t36 115h-73l18 125h119l-15 -110q-10 -80 -44 -138q-39 -52 -94 -78z" />
<glyph unicode="&#x201c;" horiz-adv-x="595" d="M217 770l15 106q13 98 40 137q40 53 95 79l13 -22q-84 -46 -103 -179h75l-17 -121h-118zM461 770l15 106q13 100 53 153q21 31 83 63l13 -22q-43 -21 -65.5 -61.5t-37.5 -117.5h75l-16 -121h-120z" />
<glyph unicode="&#x201d;" horiz-adv-x="596" d="M231 790q82 40 103 176h-77l18 124h121l-14 -107q-15 -98 -43 -141q-38 -51 -95 -77zM476 790q82 41 106 176h-77l17 124h120l-15 -107q-13 -89 -43 -141q-42 -50 -96 -79q-3 5 -6.5 14.5t-5.5 12.5z" />
<glyph unicode="&#x201e;" horiz-adv-x="596" d="M96 -176q41 19 66 61.5t37 114.5h-76l16 125h122l-16 -110q-11 -91 -43 -138q-35 -50 -94 -78zM342 -176q39 20 62.5 60.5t43.5 115.5h-78l16 125h120l-15 -110q-11 -82 -43 -138q-39 -49 -96 -79q-6 8 -10 26z" />
<glyph unicode="&#x2026;" horiz-adv-x="1474" d="M131 0l16 122h128l-17 -122h-127zM671 0l17 122h128l-17 -122h-128zM1213 0l17 122h128l-16 -122h-129z" />
<glyph unicode="&#x202f;" horiz-adv-x="273" />
<glyph unicode="&#x205f;" horiz-adv-x="341" />
<glyph unicode="&#x20ac;" horiz-adv-x="1189" d="M92 352l30 91h139q1 7 4 41.5t6 54.5q1 8 2.5 17t2.5 17t2 16.5t2.5 17t3.5 15.5h-154l30 93h147q23 77 55.5 136.5t74.5 99.5t88.5 67t106 42t119 20.5t134.5 5.5q231 0 371 -69l-69 -88q-173 63 -313 63q-49 0 -84.5 -2t-77.5 -8.5t-72.5 -18t-63.5 -32t-57.5 -49.5 t-47.5 -71t-40 -96h493l-30 -93h-487q-3 -15 -8 -45.5t-6 -35.5q-4 -29 -11 -98h504l-30 -91h-478q1 -70 16 -118t42 -78.5t74 -47.5t102.5 -23.5t137.5 -6.5q32 0 67 4t61.5 9t61.5 14.5t51.5 15l48 16t36.5 12.5l43 -87q-77 -34 -186.5 -56t-220.5 -22q-65 0 -115.5 4 t-99 14.5t-84.5 28.5t-66.5 46t-49.5 66t-30 90.5t-12 118.5h-163z" />
<glyph unicode="&#x2122;" horiz-adv-x="1210" d="M176 1018l15 47h438l-15 -47h-191l-68 -486h-59l68 486h-188zM617 532l75 533h90l109 -383l21 -100l49 100l218 383h90l-74 -533h-57l65 467h-2l-262 -467h-65l-133 467h-3l-65 -467h-56z" />
<glyph unicode="&#x25fc;" horiz-adv-x="1061" d="M0 0v1062h1062v-1062h-1062z" />
</font>
</defs>
</svg>
