<?xml version="1.0" standalone="no"?>
<!DOCTYPE svg PUBLIC "-//W3C//DTD SVG 1.1//EN" "http://www.w3.org/Graphics/SVG/1.1/DTD/svg11.dtd" >
<svg xmlns="http://www.w3.org/2000/svg" xmlns:xlink="http://www.w3.org/1999/xlink" version="1.1">
<metadata></metadata>
<defs>
<font id="azoft_sansbold" horiz-adv-x="1257" >
<font-face units-per-em="2048" ascent="1536" descent="-512" />
<missing-glyph horiz-adv-x="829" />
<glyph horiz-adv-x="0" />
<glyph horiz-adv-x="682" />
<glyph unicode=" "  horiz-adv-x="829" />
<glyph unicode="&#x09;" horiz-adv-x="829" />
<glyph unicode="&#xa0;" horiz-adv-x="829" />
<glyph unicode="!" horiz-adv-x="281" d="M40 0v204h196v-204h-196zM49 850v228h175v-228q-6 -49 -25 -250.5t-31 -306.5h-60z" />
<glyph unicode="&#x22;" horiz-adv-x="623" d="M114 918v160h128v-163l-33 -197h-57q-5 27 -12.5 64.5t-14 71t-11.5 64.5zM378 918v160h128v-160l-36 -200h-55z" />
<glyph unicode="#" horiz-adv-x="910" d="M40 304v79h156l66 310h-222v80h239q6 31 16 78t18 83.5t17.5 81.5t17.5 81h83l-71 -324h287q3 13 29.5 138t40.5 186h82l-69 -324h141v-80h-156l-65 -310h221v-79h-239l-68 -323h-86l70 323h-284l-68 -323h-87l70 323h-139zM279 383h285l68 310h-285z" />
<glyph unicode="$" horiz-adv-x="1034" d="M76 63q38 135 52 174q52 -23 143.5 -45.5t199.5 -28.5v282q-72 16 -119 30t-92 34t-71 43.5t-46.5 58t-28.5 79.5t-8 105q0 89 50 154.5t131 98t184 35.5v163h91v-163q107 -4 204.5 -20t154.5 -42l-55 -171q-51 18 -136 35t-168 21v-274q41 -9 67.5 -15.5t64.5 -17 t62 -20.5t55 -25.5t50.5 -32.5t40 -40.5t32.5 -50.5t19.5 -62t8.5 -75q0 -60 -12.5 -108t-38.5 -81.5t-59.5 -57t-80.5 -37t-96.5 -20t-112.5 -8.5v-158h-91v161q-111 6 -222.5 27.5t-172.5 51.5zM320 793q0 -27 0.5 -41.5t5.5 -29t9 -20t19 -13.5t27.5 -12t41.5 -13 q4 -2 6 -2l42 -10v254q-38 -4 -65.5 -11t-47 -20.5t-29 -33.5t-9.5 -48zM562 161q42 0 66 1.5t50.5 8.5t40 20t22.5 37t9 59q0 20 -2.5 35.5t-6 26.5t-13 20t-16.5 14.5t-25 11t-30.5 9t-39.5 9.5q-30 5 -55 11v-263z" />
<glyph unicode="%" horiz-adv-x="1350" d="M84 821.5q0 69.5 11.5 120t30 80t47.5 47t58 23t68 5.5t68 -5.5t57.5 -23t47 -47t30 -80t11.5 -120t-11.5 -120.5t-30 -80.5t-47 -47t-57.5 -23.5t-68 -6t-68 6t-58 23.5t-47.5 47t-30 80.5t-11.5 120.5zM212 821q0 -41 2.5 -72.5t6 -52t11 -35t13 -22t16.5 -11t18 -4 t20 -0.5q18 0 27.5 1.5t22.5 11.5t19.5 30t11.5 58.5t5 95.5t-5 95.5t-11 58t-19.5 29.5t-22.5 11.5t-28 1.5t-28 -1.5t-22.5 -11.5t-20 -29.5t-11.5 -58t-5 -95.5zM269 -40l619 1137h192l-616 -1137h-195zM834 237.5q0 69.5 11.5 120t30 80t47 47t57.5 23t68 5.5t68 -5.5 t58 -23t47.5 -47t30 -80t11.5 -120t-11.5 -120.5t-30 -80.5t-47.5 -47t-58 -23.5t-68 -6t-68 6t-57.5 23.5t-47 47t-30 80.5t-11.5 120.5zM962 237q0 -57 5 -95.5t11.5 -58.5t19.5 -30t22.5 -11.5t27.5 -1.5q13 0 20 0.5t18 4t16.5 11t13 22t11 35t6 52t2.5 72.5 q0 57 -5 95.5t-11.5 58.5t-20 29.5t-22.5 11t-28 1.5t-28 -1.5t-22.5 -11t-19.5 -29.5t-11 -58.5t-5 -95.5z" />
<glyph unicode="&#x26;" horiz-adv-x="1141" d="M109 293q0 35 8.5 66t21.5 55.5t36.5 49.5t45.5 43t57.5 40t62.5 37.5t70 37.5q-88 100 -122 151.5t-34 95.5q0 41 8.5 72t30.5 59.5t58 46.5t93 28.5t134 10.5q83 0 140.5 -15t88 -43.5t43.5 -64t13 -83.5q0 -31 -6 -58.5t-15 -49.5t-27.5 -44t-35 -38t-46 -37 t-51.5 -35t-61 -37l186 -206q43 82 63 166q24 -9 50 -23t52.5 -28.5t48.5 -23.5q-35 -123 -103 -229q84 -105 178 -171q-19 -11 -47 -28.5t-50.5 -31t-46.5 -26.5q-47 28 -140 128l-14 -13q-128 -114 -288 -114q-53 0 -87 1.5t-81 8t-76.5 19t-62.5 35t-51.5 55t-31 81.5 t-12.5 112zM330 302q0 -25 3 -45t6.5 -35t11.5 -26t14 -18.5t19 -12.5t21 -7.5t24.5 -3.5t25.5 -1t28.5 0.5t29.5 0.5q46 0 96 25.5t83 64.5l-211 264q-18 -15 -44.5 -34.5t-39 -29t-28 -25.5t-22.5 -30.5t-12 -36t-5 -50.5zM436.5 837.5q0.5 -3.5 1.5 -14t3.5 -16t7 -15 t12 -18t17.5 -17.5l71 -78q6 4 16 11q34 23 48.5 33.5t32.5 27t24 30t10.5 33t4.5 45.5q0 42 -23 61.5t-91 19.5q-78 0 -106 -17t-28 -55q0 -3 -0.5 -15t0 -15.5z" />
<glyph unicode="'" horiz-adv-x="318" d="M93 912v166h127v-166q-5 -31 -15 -95t-16 -99h-63z" />
<glyph unicode="(" horiz-adv-x="391" d="M30 384.5q0 66.5 4.5 125.5t10.5 106t19.5 92.5t24.5 77.5t32 69.5t35 60.5t42 57.5t44 53t49 55.5q8 10 13 15l43 -33q-9 -21 -27 -64.5t-23 -57t-18.5 -48t-16.5 -50t-11.5 -48t-10 -57.5t-6 -63.5t-5.5 -80t-2 -93.5t-1 -117t1 -117t2 -94t5.5 -80t6 -63t10 -57.5 t11.5 -48t16 -49.5t18.5 -48t23.5 -57.5t27 -63.5l-43 -33q-5 5 -14 15q-33 37 -49 55.5t-43.5 53t-41.5 57t-35.5 60t-32 69.5t-24 77.5t-19.5 92.5t-10.5 105.5t-4.5 125z" />
<glyph unicode=")" horiz-adv-x="391" d="M45 -293q8 22 26 64t23.5 57t18.5 48t16.5 49.5t11.5 48t10 57t6.5 63.5t5.5 80t2 94t1 117q0 118 -3.5 197.5t-8 132.5t-19 105t-26 84t-40.5 99q-5 13 -8 20t-7.5 18.5t-8.5 22.5l43 33q4 -5 12 -14q33 -37 49 -55.5t44 -53.5t42 -57.5t35.5 -60t32 -69.5t24 -77.5 t19.5 -92.5t10.5 -106.5t4.5 -126t-4.5 -125.5t-10.5 -105.5t-19.5 -92t-24 -78t-31.5 -69.5t-35 -60t-42 -57.5t-44 -53t-49 -55.5q-8 -10 -13 -14z" />
<glyph unicode="*" horiz-adv-x="575" d="M35 874l36 101q132 -48 176 -71q-9 77 -15 182h110q-2 -82 -19 -180q52 24 155 63l27 8l34 -103q-78 -26 -192 -43q56 -48 131 -136l-90 -63q-52 74 -103 158q-49 -88 -103 -155l-87 58q60 77 127 138q-119 24 -187 43z" />
<glyph unicode="+" horiz-adv-x="734" d="M2 453v159h280v268h168v-268h283v-159h-283v-274h-168v274h-280z" />
<glyph unicode="," horiz-adv-x="306" d="M70 -156q42 17 61.5 54t24.5 102h-83v204h194v-220q0 -75 -35 -123.5t-107 -77.5z" />
<glyph unicode="-" horiz-adv-x="671" d="M131 301v170h405v-170h-405z" />
<glyph unicode="." horiz-adv-x="405" d="M98 0v204h194v-204h-194z" />
<glyph unicode="/" horiz-adv-x="447" d="M0 -19l329 1116h119l-325 -1116h-123z" />
<glyph unicode="0" horiz-adv-x="1043" d="M95 533.5q0 100.5 11.5 181t31.5 138t51 99.5t65 67.5t79.5 40.5t89 20.5t98.5 5.5t98.5 -5.5t89.5 -20.5t80 -40.5t65.5 -67.5t51 -99.5t31.5 -138t12 -181t-12 -181t-31.5 -137.5t-51 -99t-65.5 -67.5t-80 -41t-89.5 -21t-98.5 -5.5t-98.5 5.5t-89 21t-79.5 41 t-65 67.5t-51 99t-31.5 137.5t-11.5 181zM317 534q0 -79 6 -139t14 -100t25 -66.5t30 -40.5t39 -21t42 -8t48 -1q31 0 47 1t42 8t39.5 21t31 41t25.5 66.5t14.5 99.5t6.5 138.5t-6.5 139t-14.5 100t-25.5 66.5t-31 41t-39.5 21t-42 8t-47 1q-32 0 -48 -1t-42 -8t-39 -21 t-30 -41t-25 -66.5t-14 -99.5t-6 -139z" />
<glyph unicode="1" horiz-adv-x="696" d="M51 0v177h204v695l-152 -39l-41 156l413 109v-921h209v-177h-633z" />
<glyph unicode="2" horiz-adv-x="895" d="M88 0v277q0 49 8 89t24 70.5t34.5 54t46.5 41.5t54 30.5t61.5 23.5t64 19t67.5 18.5t66 18.5q3 1 8 4q26 10 37.5 15.5t25.5 16t18.5 23.5t8.5 33t4 51q0 66 -35 94t-108 28q-50 0 -115 -10t-116.5 -23t-77.5 -24l-42 171q51 30 159.5 47t210.5 17q58 0 102.5 -6 t92.5 -24.5t79 -50t51.5 -87t20.5 -130.5q0 -59 -8.5 -103.5t-19.5 -77.5t-41 -59.5t-51.5 -43t-75.5 -35.5t-89 -29t-113 -31q-12 -3 -19 -5q-19 -6 -29 -9.5t-24 -10t-20.5 -12t-15 -15.5t-12 -21.5t-6 -27.5t-2.5 -36v-92h526v-179h-750z" />
<glyph unicode="3" horiz-adv-x="905" d="M55 46l45 171q42 -19 137 -38t170 -19q31 0 50 0.5t41 4t34 10.5t23.5 18.5t16 30t4.5 43.5q0 29 -2.5 52t-6 40.5t-10.5 31t-13.5 22.5t-18.5 15.5t-20.5 9.5t-25 5t-27.5 2.5t-31 0.5h-220v178h220q28 0 45.5 2t36.5 7.5t30.5 17t21 30.5t14 48t4.5 69q0 64 -39 86 t-127 22q-75 0 -170 -19.5t-137 -38.5l-45 170q51 30 161 47.5t212 17.5q99 0 164.5 -12t114 -43t70 -86t21.5 -139q0 -61 -10.5 -105.5t-32.5 -75t-47.5 -50t-63.5 -38.5q38 -19 63.5 -38t48 -49t33 -74.5t10.5 -105.5q0 -84 -21.5 -139.5t-70 -88t-115 -45.5t-164.5 -13 q-102 0 -212 17.5t-161 47.5z" />
<glyph unicode="4" horiz-adv-x="872" d="M8 219v111l425 735h232l-385 -666h239v200h219v-200h106v-180h-106v-219h-219v219h-511z" />
<glyph unicode="5" horiz-adv-x="870" d="M78 46l45 171q43 -19 137.5 -38t168.5 -19q34 0 58 4t45 15t33.5 30t19.5 49t7 72q0 53 -9 86.5t-29 51t-45 23.5t-64 6q-77 0 -122.5 -7.5t-67.5 -30.5l-124 17v589h635v-179h-411v-216q47 6 90 6q371 0 371 -346q0 -185 -87 -267t-278 -82q-102 0 -212 17.5t-161 47.5z " />
<glyph unicode="6" horiz-adv-x="951" d="M96 534q0 101 10 181t27.5 137.5t45 99.5t59 67.5t74.5 40.5t85 20.5t97 5.5q100 0 200 -16.5t152 -47.5l-45 -171q-42 19 -137 38.5t-170 19.5q-29 0 -43 -1t-36 -6t-32.5 -16t-24.5 -32t-20.5 -52t-12 -77.5t-7.5 -108.5q21 23 48 37t57 19t71 5q76 0 130.5 -8.5 t103.5 -32.5t78.5 -64.5t47 -106t17.5 -156.5q0 -93 -23 -156.5t-71.5 -101t-116.5 -54t-166 -16.5q-55 0 -97 5.5t-85 21t-74.5 41t-59 67.5t-45 99.5t-27.5 137.5t-10 181zM326 335q4 -32 9.5 -57.5t12.5 -44t16 -31.5t19.5 -21t22.5 -13t26 -6.5t29.5 -2t32.5 0.5h5 q20 0 29.5 0.5t26 2t24 4t19.5 7.5t17.5 12.5t12.5 18.5t10 26t5.5 34t2.5 44q0 40 -5.5 70t-16.5 48.5t-23 30t-31.5 17t-35 7t-40.5 1.5q-21 0 -35.5 -1t-33 -4t-30.5 -9t-25.5 -16.5t-21.5 -26t-14 -38.5t-8 -53z" />
<glyph unicode="7" horiz-adv-x="754" d="M15 886v179h720v-179l-352 -886h-212l353 886h-509z" />
<glyph unicode="8" horiz-adv-x="959" d="M108 267q0 80 16 133.5t40 81t64 52.5q-30 19 -49.5 38.5t-36.5 50t-25 75t-8 105.5q0 84 21.5 139t69 86t112.5 43t164 12h29q93 -1 155.5 -14.5t107.5 -45t65 -85.5t20 -135q0 -80 -16 -134t-39.5 -81.5t-62.5 -53.5q29 -19 49 -38t37 -49t25.5 -74.5t8.5 -105.5 q0 -84 -21.5 -139.5t-69 -88t-113.5 -45.5t-165 -13h-28q-94 2 -156.5 15.5t-107.5 46t-65.5 87.5t-20.5 137zM332 267q0 -35 8 -57t27 -32.5t40 -14t57 -3.5h33q46 0 73 6t40 22t16.5 32.5t3.5 46.5q0 49 -6 82t-15 52t-27 29t-34 12.5t-45 3.5h-44q-29 -1 -45.5 -3.5 t-34.5 -12.5t-26.5 -29t-14.5 -52t-6 -82zM335 798q0 -45 5.5 -76.5t14.5 -50t26 -29t34 -14t44 -4.5h44q34 1 54 7t37.5 23.5t25 52.5t7.5 91q0 34 -8.5 55t-27.5 32t-41.5 15t-60.5 6q-82 -2 -118 -23t-36 -85z" />
<glyph unicode="9" horiz-adv-x="950" d="M96 760q0 92 23 155.5t71.5 101t117 53.5t165.5 16q55 0 97.5 -5.5t85 -20.5t74 -40.5t59 -67.5t45 -99.5t27.5 -137.5t10 -181t-10 -181t-27.5 -137.5t-45 -99.5t-59 -67.5t-74 -41t-85 -21t-97.5 -5.5q-99 0 -199.5 17.5t-151.5 47.5l44 171q42 -19 137 -38t170 -19 h33.5t29 2.5t27.5 7.5t22.5 14.5t20.5 24.5t15.5 36.5t13 50t8 66.5t4.5 86q-20 -22 -46.5 -34.5t-56.5 -17.5t-71 -5q-67 0 -116 6t-93.5 21t-74 41.5t-51.5 67.5t-32 98.5t-10 134.5zM322 760q0 -45 4 -77.5t14 -53.5t21 -33.5t30.5 -18t36.5 -7t45 -1.5q23 0 37.5 0.5 t33.5 4t30.5 10t24 18.5t20 29t13 42.5t6.5 57.5q-3 33 -8.5 59t-12.5 44.5t-15.5 31.5t-19 21t-22.5 13t-25.5 6.5t-29 2.5t-32.5 0h-5q-20 -1 -29.5 -1t-26 -1.5t-24 -4.5t-19.5 -8t-17.5 -12.5t-12.5 -18.5t-10 -25.5t-5 -34t-2 -43.5z" />
<glyph unicode=":" horiz-adv-x="389" d="M93 0v204h194v-204h-194zM93 567v206h194v-206h-194z" />
<glyph unicode=";" horiz-adv-x="306" d="M70 -156q42 17 61.5 54t24.5 102h-83v204h194v-220q0 -75 -35 -123.5t-107 -77.5zM73 567v206h194v-206h-194z" />
<glyph unicode="&#x3c;" horiz-adv-x="865" d="M0 481v105l735 294v-95l-640 -251q71 -28 298.5 -118t341.5 -136v-101z" />
<glyph unicode="=" horiz-adv-x="993" d="M131 285v158h732v-158h-732zM131 622v160h732v-160h-732z" />
<glyph unicode="&#x3e;" horiz-adv-x="865" d="M131 179v101l637 254l-637 251v95l735 -296v-103z" />
<glyph unicode="?" horiz-adv-x="847" d="M27 1021q33 15 82.5 27.5t106 20.5t116.5 12t119 4q81 0 151 -18.5t123.5 -53.5t84.5 -91.5t31 -126.5q0 -81 -16 -134.5t-54 -90.5t-91 -58.5t-137 -40.5q-25 -7 -35 -10t-27.5 -9.5t-24 -11t-17.5 -13t-14 -17t-8 -21.5t-6 -28.5t-1 -35.5v-16h-228v23q0 66 18.5 117.5 t47.5 84.5t75.5 59t90 40.5t104.5 28.5q2 0 6 2q22 7 32 10t24.5 9t19 9t12 11t9 14t4 19t2.5 25v32q0 61 -49.5 87.5t-151.5 26.5q-91 0 -188 -18.5t-157 -38.5zM182 0v204h228v-204h-228z" />
<glyph unicode="@" horiz-adv-x="1648" d="M131 364q0 228 79 392.5t236 253t382 88.5q67 0 129 -8t122.5 -25t113 -45.5t99 -66.5t83 -90t62.5 -114.5t40 -142t14 -171.5q0 -40 -2.5 -77t-10 -80t-19.5 -79t-32 -70t-46.5 -58t-64.5 -38t-85 -14q-65 0 -96.5 29.5t-42.5 98.5q-93 -141 -331 -141 q-73 0 -129.5 13.5t-101.5 43t-69 82t-24 126.5q0 60 16.5 105.5t45.5 74.5t73 47.5t94.5 26t113.5 7.5h288q-1 48 -5.5 85.5t-13.5 66.5t-19.5 49.5t-28 35t-35.5 23t-45.5 13.5t-54.5 6.5t-67 1.5q-117 0 -268 -50l-43 70q122 56 316 56q57 0 100 -4.5t82.5 -15.5t67 -31 t50.5 -50t36.5 -72t20.5 -98.5t7 -128.5v-8t-0.5 -18t-0.5 -32.5t0.5 -59t0.5 -89.5q0 -77 10 -119.5t28 -57.5t50 -15q45 0 76.5 27t46.5 71.5t23.5 101.5t7.5 117.5t-1 119.5q-3 94 -37 175t-91 139.5t-133.5 100t-164.5 62t-182 20.5q-114 0 -209 -31t-165 -88.5 t-118.5 -138t-72.5 -181.5t-24 -218q0 -307 163 -461.5t467 -154.5q202 0 347 62.5t224 164.5l47 -74q-97 -106 -257.5 -168t-373.5 -62q-92 0 -172 12.5t-146 36.5t-120.5 59t-96 80.5t-73 100t-51 118t-29.5 134t-10 149.5zM527 271q0 -48 12.5 -82.5t32 -54.5t50.5 -32 t62.5 -15.5t73.5 -3.5q59 0 104 7.5t78.5 20.5t56 37t37 51.5t22.5 69t11 84t3 101.5h-290q-49 0 -83.5 -3t-68.5 -14t-54.5 -30.5t-33.5 -53.5t-13 -82z" />
<glyph unicode="A" horiz-adv-x="1089" d="M46 0l377 1065h242l377 -1065h-239l-93 301h-333l-92 -301h-239zM424 454h239l-84 277l-30 168h-10l-30 -168z" />
<glyph unicode="B" horiz-adv-x="1119" d="M131 0v1065h456q83 0 140.5 -4t106 -15.5t78 -30.5t50 -50t29 -72t8.5 -98q0 -50 -6 -87t-16 -63.5t-28 -47t-37.5 -34.5t-48.5 -29q37 -19 61 -36.5t45 -46.5t30 -72t9 -104q0 -57 -8.5 -98.5t-29 -73t-51 -51t-78.5 -31.5t-106.5 -16.5t-140.5 -4.5h-463zM317 177h280 h7q26 0 38 0.5t32 1t29 1.5t23.5 3.5t20 6t15 9t12.5 12.5t7.5 16.5t5.5 21.5t1 26q0 43 -3 71.5t-13.5 47.5t-19 29.5t-31.5 15.5t-39.5 6t-53.5 1h-11h-300v-269zM317 624h300q27 0 42.5 1t34 3.5t28.5 7t21 12.5t16.5 20t10.5 29.5t6.5 40t1.5 52.5q0 23 -3.5 39t-14 27 t-23 17t-36.5 9.5t-47.5 4.5t-63.5 1h-273v-264z" />
<glyph unicode="C" horiz-adv-x="1078" d="M93 532.5q0 99.5 13 178.5t36 136.5t60 100t79 69t99.5 42t116 21.5t132.5 6q233 0 373 -65l-55 -171q-51 16 -83 25.5t-101.5 21.5t-130.5 12q-34 0 -59 -1.5t-54 -6t-50 -13t-43.5 -22.5t-38 -34t-30 -48t-23.5 -64t-14 -83.5t-5 -104.5t5 -104.5t14 -83.5t23.5 -64.5 t30 -48t38 -33.5t43.5 -22t50 -12.5t54 -6t59 -1.5q142 0 332 66l54 -171q-70 -33 -173.5 -53t-215.5 -20q-74 0 -132.5 6t-116 22t-99.5 42.5t-79 68.5t-60 99.5t-36 137t-13 179z" />
<glyph unicode="D" horiz-adv-x="1142" d="M131 0v1065h382q58 0 104 -2.5t94.5 -9.5t85 -19.5t73 -33t62.5 -48.5t49 -67.5t37 -89.5t22 -114t8 -142t-7 -143t-19.5 -116t-33.5 -91t-45.5 -69.5t-59 -50.5t-70.5 -34.5t-83.5 -21t-94 -10.5t-106.5 -3h-398zM350 179h163q64 0 105.5 4.5t80 18t60 37.5t38.5 65 t23 98t6 139q0 71 -8.5 125.5t-21.5 91.5t-38 62t-47 38t-60.5 20t-66 8.5t-75.5 1.5h-159v-709z" />
<glyph unicode="E" horiz-adv-x="938" d="M131 0v1065h796l-17 -177h-560v-247h437v-178h-437v-284h577l-17 -179h-779z" />
<glyph unicode="F" horiz-adv-x="872" d="M131 0v1065h741l-16 -177h-524v-247h456v-180h-456v-461h-201z" />
<glyph unicode="G" horiz-adv-x="1114" d="M93 539q0 100 13 178.5t36 135.5t60 98.5t79 67.5t99.5 41t115.5 20.5t133 5.5q233 0 381 -69l-54 -171q-170 63 -324 63q-35 0 -59 -1.5t-53.5 -5.5t-50 -11.5t-43.5 -21t-38.5 -32.5t-30 -46.5t-23.5 -63t-14 -82.5t-5 -104q0 -82 6.5 -140.5t23.5 -101.5t40 -69 t61 -42t82.5 -21.5t108.5 -5.5q48 0 103 9t89 21v272h-240l17 178h436v-566q-67 -39 -189 -65t-241 -26q-59 0 -106 3.5t-94 12t-83.5 23t-70.5 37t-59 53t-45.5 72t-33.5 93.5t-20 117.5t-7 143.5z" />
<glyph unicode="H" horiz-adv-x="1129" d="M131 0v1065h217v-408h432v408h217v-1065h-217v476h-432v-476h-217z" />
<glyph unicode="I" horiz-adv-x="480" d="M131 0v1065h219v-1065h-219z" />
<glyph unicode="J" horiz-adv-x="533" d="M0 -8l10 171h38.5t33.5 1.5t29.5 3.5t24 6.5t20 10.5t15 15t12.5 21t8 27.5t5.5 34.5t1.5 43v739h217v-731q0 -74 -8.5 -127t-29.5 -91.5t-51 -62t-79 -37.5t-106.5 -19t-140.5 -5z" />
<glyph unicode="K" horiz-adv-x="1119" d="M131 0v1065h217v-445h98l327 445h256q-365 -476 -409 -533q72 -92 209 -271.5t200 -260.5h-256l-327 443h-98v-443h-217z" />
<glyph unicode="L" horiz-adv-x="882" d="M131 0v1065h217v-886h535l-17 -179h-735z" />
<glyph unicode="M" horiz-adv-x="1418" d="M131 0v1065h246l261 -634l70 -284l70 284l262 634h245v-1065h-212v650h-5l-245 -650h-229l-246 650h-5v-650h-212z" />
<glyph unicode="N" horiz-adv-x="1135" d="M131 0v1065h233l429 -700v700h211v-1065h-231l-430 703v-703h-212z" />
<glyph unicode="O" d="M95 533.5q0 100.5 14.5 181t39 138t63.5 99.5t82 67.5t100 40.5t111.5 20.5t123 5.5t123 -5.5t111.5 -20.5t100 -40.5t82 -67.5t64 -99.5t39.5 -138t14.5 -181t-14.5 -181t-39.5 -137.5t-64 -99t-82 -67.5t-100 -41t-111.5 -21t-123 -5.5t-123 5.5t-111.5 21t-100 41 t-82 67.5t-63.5 99t-39 137.5t-14.5 181zM317 534q0 -62 5.5 -112t13.5 -87t24.5 -65.5t30.5 -47t39 -31.5t42.5 -19t49.5 -9.5t51 -4t56 -0.5q36 0 54.5 0.5t50.5 4t49 9.5t42.5 19t39.5 31.5t30.5 47t25 65.5t14 87t5.5 111.5t-5.5 112t-14 87.5t-25.5 65.5t-31 47 t-39.5 31.5t-43 19.5t-49 9.5t-50 3.5t-53.5 0.5h-50.5t-46.5 -2.5t-45 -7.5t-40 -14t-37.5 -23.5t-31 -34t-26.5 -48t-18.5 -63.5t-13 -81.5t-3.5 -101.5z" />
<glyph unicode="P" horiz-adv-x="986" d="M131 0v1065h430q83 0 140 -5t106.5 -19t79 -37.5t50.5 -62t29.5 -91.5t8.5 -127t-8 -126.5t-29.5 -91t-51 -62t-79 -37t-106.5 -18.5t-140 -5h-211v-383h-219zM350 561h214q40 0 63 1t47 6.5t36.5 15.5t23 27.5t14.5 43.5t4 63v10q0 38 -4 64.5t-14.5 44t-23 28 t-36.5 15.5t-47 6.5t-63 1.5h-214v-327z" />
<glyph unicode="Q" horiz-adv-x="1270" d="M76 534q0 100 14.5 180.5t39.5 138t64 99.5t82 67.5t100 40.5t111.5 20.5t123 5.5t123.5 -5.5t111.5 -20.5t99.5 -40.5t82 -67.5t64 -99.5t39.5 -138t14.5 -180.5q0 -104 -15 -186.5t-44 -140.5t-67 -99.5t-89 -66.5t-104.5 -38t-119.5 -18q39 -10 98.5 -33.5t107 -39 t83.5 -15.5q44 0 93.5 22.5t92.5 58.5v-179q-85 -76 -201 -76q-46 0 -100 16t-95.5 35t-94 34.5t-95.5 15.5q-34 0 -61 -6t-59.5 -24t-71.5 -51v176q44 46 108 66q-79 6 -141 23.5t-119 56.5t-94 98.5t-59 153t-22 217.5zM299 533.5q0 -61.5 5.5 -111.5t13.5 -87t25 -65.5 t30.5 -47t39 -31.5t42.5 -19t49.5 -9.5t51 -4t55.5 -0.5q36 0 54.5 0.5t50.5 4t49 9.5t42.5 19t39.5 31.5t30.5 47t25 65.5t14.5 87t6 111.5t-6 112t-14.5 87.5t-25.5 65.5t-31 47t-39.5 31.5t-43 19.5t-49 9.5t-50 3.5t-53.5 0.5q-37 0 -56 -0.5t-51 -3.5t-49.5 -9.5 t-42.5 -19.5t-39 -31.5t-30 -47t-24.5 -65.5t-14 -87.5t-5.5 -112z" />
<glyph unicode="R" horiz-adv-x="1109" d="M131 0v1065h431q84 0 141 -5t106.5 -19t79 -37.5t50.5 -62t29.5 -91.5t8.5 -127q0 -117 -24 -185t-76.5 -102t-146.5 -46l295 -390h-251l-282 383h-142v-383h-219zM350 561h215q34 0 54.5 0.5t43 4t35 10.5t25 18.5t18 29.5t9 42t3.5 57q0 30 -2 53t-8 40.5t-12.5 29 t-20 19.5t-25 12.5t-33 7t-39 3t-48.5 0.5h-215v-327z" />
<glyph unicode="S" horiz-adv-x="1034" d="M76 63q38 135 52 174q64 -28 177 -52t244 -24q27 0 40.5 0.5t35.5 1.5t33 3t26.5 6.5t23.5 10.5t17.5 15.5t14 22t7.5 29t3 37t-2.5 36t-6 26.5t-13 20t-16.5 14.5t-25 11t-30.5 9t-39.5 9.5q-7 2 -22 5q-86 18 -125 27t-100.5 25t-87 28.5t-64 33.5t-53 43.5t-32 55.5 t-22.5 72.5t-5 91.5q0 93 54 160t140.5 98.5t195.5 31.5q123 0 241.5 -17t183.5 -47l-55 -171q-35 13 -87 25.5t-123.5 22t-134.5 9.5q-103 0 -152 -26t-49 -88q0 -27 0.5 -41.5t5.5 -29t9 -20t19 -13.5t27.5 -12t41.5 -13q4 -2 6 -2q36 -9 93 -21.5t94.5 -21t87.5 -23.5 t83 -30.5t69 -41t56.5 -56.5t34.5 -75.5t15 -99.5q0 -75 -20.5 -130.5t-56.5 -90t-91.5 -55t-117 -28.5t-142.5 -8q-116 0 -250.5 24t-207.5 58z" />
<glyph unicode="T" horiz-adv-x="900" d="M11 888l17 177h878l-17 -177h-332v-888h-218v888h-328z" />
<glyph unicode="U" horiz-adv-x="1137" d="M117 448v617h218v-615q0 -57 3.5 -95t12.5 -72.5t25 -55.5t42.5 -37t63.5 -22.5t89 -6.5t88.5 6.5t62.5 22.5t41.5 36.5t24 56t11 73t2.5 94.5v615h217v-617q0 -66 -3.5 -116t-12.5 -97t-24.5 -81t-40 -63.5t-57.5 -49t-78 -33.5t-102 -20.5t-129 -6.5q-96 0 -166 11 t-121 37t-83 61t-50.5 90t-26 117.5t-7.5 150.5z" />
<glyph unicode="V" horiz-adv-x="1086" d="M35 1065h239l223 -731l30 -168h11l29 168l224 731h239l-376 -1065h-243z" />
<glyph unicode="W" horiz-adv-x="1505" d="M71 1065h239l138 -883h10l153 883h280l171 -883h10l119 883h242l-230 -1065h-274l-177 799l-163 -799h-274z" />
<glyph unicode="X" horiz-adv-x="1154" d="M51 0q155 206 413 557q-212 299 -363 508h271l154 -274q23 -53 55 -156q34 110 54 156l155 274h270q-211 -293 -363 -508q258 -351 413 -557h-271l-204 323q-20 47 -54 157q-32 -103 -55 -157l-204 -323h-271z" />
<glyph unicode="Y" horiz-adv-x="1024" d="M22 1065h242q35 -56 100 -166t94 -158q33 -128 50 -210q47 183 54 210q17 27 62.5 100t80 125t69.5 99h231l-389 -611v-454h-220v454q-60 96 -184.5 301.5t-189.5 309.5z" />
<glyph unicode="Z" horiz-adv-x="970" d="M46 0v194l630 694h-597l17 177h805v-188l-637 -698h657l-17 -179h-858z" />
<glyph unicode="[" horiz-adv-x="410" d="M131 -309v1553h280l-17 -78h-155v-1397h172l-17 -78h-263z" />
<glyph unicode="\" horiz-adv-x="447" d="M0 1097h119l329 -1116h-123z" />
<glyph unicode="]" horiz-adv-x="419" d="M0 -309l16 162h107v1230h-123l16 161h314v-1553h-330z" />
<glyph unicode="^" horiz-adv-x="827" d="M35 829l332 417h96l330 -417h-109l-269 322l-266 -322h-114z" />
<glyph unicode="_" horiz-adv-x="1173" d="M131 -245h911v-64h-911v64z" />
<glyph unicode="`" horiz-adv-x="281" d="M5 1085h142l89 -178h-75z" />
<glyph unicode="a" horiz-adv-x="1165" d="M79 312q0 85 21 149.5t57 106t91 67.5t117.5 36.5t142.5 10.5h262q-3 41 -7 71.5t-12.5 54.5t-17.5 40t-25.5 27.5t-32 18t-42 10t-50.5 4.5t-62 1q-141 0 -323 -63l-55 171q148 69 381 69q71 0 123.5 -4t101 -15t82 -29.5t62.5 -48.5t47 -70t30.5 -96t18 -125t5.5 -159 v-26v-187q0 -79 22.5 -113.5t77.5 -41.5l-19 -173q-72 8 -116.5 26.5t-70.5 52t-38 87.5q-106 -180 -342 -180q-80 0 -142.5 9t-117.5 32t-91 60t-57 94t-21 133zM292 312q0 -39 11 -66.5t28.5 -43.5t47 -25t59 -11.5t71.5 -2.5q67 0 114 14.5t76 40t45 69.5t21.5 92.5 t5.5 119.5v4h-263q-43 0 -72 -3.5t-58.5 -15t-47 -31.5t-28 -55.5t-10.5 -85.5z" />
<glyph unicode="b" horiz-adv-x="1119" d="M131 0v1065h456q83 0 140.5 -4t106 -15.5t78 -30.5t50 -50t29 -72t8.5 -98q0 -50 -6 -87t-16 -63.5t-28 -47t-37.5 -34.5t-48.5 -29q37 -19 61 -36.5t45 -46.5t30 -72t9 -104q0 -57 -8.5 -98.5t-29 -73t-51 -51t-78.5 -31.5t-106.5 -16.5t-140.5 -4.5h-463zM317 177h280 h7q26 0 38 0.5t32 1t29 1.5t23.5 3.5t20 6t15 9t12.5 12.5t7.5 16.5t5.5 21.5t1 26q0 43 -3 71.5t-13.5 47.5t-19 29.5t-31.5 15.5t-39.5 6t-53.5 1h-11h-300v-269zM317 624h300q27 0 42.5 1t34 3.5t28.5 7t21 12.5t16.5 20t10.5 29.5t6.5 40t1.5 52.5q0 23 -3.5 39t-14 27 t-23 17t-36.5 9.5t-47.5 4.5t-63.5 1h-273v-264z" />
<glyph unicode="c" horiz-adv-x="1078" d="M93 532.5q0 99.5 13 178.5t36 136.5t60 100t79 69t99.5 42t116 21.5t132.5 6q233 0 373 -65l-55 -171q-51 16 -83 25.5t-101.5 21.5t-130.5 12q-34 0 -59 -1.5t-54 -6t-50 -13t-43.5 -22.5t-38 -34t-30 -48t-23.5 -64t-14 -83.5t-5 -104.5t5 -104.5t14 -83.5t23.5 -64.5 t30 -48t38 -33.5t43.5 -22t50 -12.5t54 -6t59 -1.5q142 0 332 66l54 -171q-70 -33 -173.5 -53t-215.5 -20q-74 0 -132.5 6t-116 22t-99.5 42.5t-79 68.5t-60 99.5t-36 137t-13 179z" />
<glyph unicode="d" horiz-adv-x="1142" d="M131 0v1065h382q58 0 104 -2.5t94.5 -9.5t85 -19.5t73 -33t62.5 -48.5t49 -67.5t37 -89.5t22 -114t8 -142t-7 -143t-19.5 -116t-33.5 -91t-45.5 -69.5t-59 -50.5t-70.5 -34.5t-83.5 -21t-94 -10.5t-106.5 -3h-398zM350 179h163q64 0 105.5 4.5t80 18t60 37.5t38.5 65 t23 98t6 139q0 71 -8.5 125.5t-21.5 91.5t-38 62t-47 38t-60.5 20t-66 8.5t-75.5 1.5h-159v-709z" />
<glyph unicode="e" horiz-adv-x="1167" d="M96 519q0 89 9.5 162t28.5 128.5t44 99t60 73.5t73 50.5t86 32.5t96.5 16.5t106.5 4.5q83 0 147.5 -9.5t122 -33t98 -64t70.5 -99.5t44.5 -142.5t14.5 -191.5v-85h-777q3 -56 10.5 -98.5t19.5 -75t31.5 -55t43 -37.5t57.5 -23.5t71 -12t88 -3.5q127 0 338 74l3 1.5t3 1 t3 1t3 0.5l54 -171q-73 -34 -196 -59.5t-233 -25.5q-75 0 -133.5 6t-114 21.5t-96 41.5t-75.5 67t-56 97.5t-33 133.5t-12 174zM320 641h551q-3 49 -10.5 87.5t-18.5 67t-28 48.5t-37 33t-48.5 20.5t-58.5 10t-70 2.5q-38 0 -63.5 -1t-56.5 -7t-51 -17t-41.5 -30.5t-34 -48 t-21.5 -70t-12 -95.5z" />
<glyph unicode="f" horiz-adv-x="872" d="M131 0v1065h741l-16 -177h-524v-247h456v-180h-456v-461h-201z" />
<glyph unicode="g" horiz-adv-x="1114" d="M93 539q0 100 13 178.5t36 135.5t60 98.5t79 67.5t99.5 41t115.5 20.5t133 5.5q233 0 381 -69l-54 -171q-170 63 -324 63q-35 0 -59 -1.5t-53.5 -5.5t-50 -11.5t-43.5 -21t-38.5 -32.5t-30 -46.5t-23.5 -63t-14 -82.5t-5 -104q0 -82 6.5 -140.5t23.5 -101.5t40 -69 t61 -42t82.5 -21.5t108.5 -5.5q48 0 103 9t89 21v272h-240l17 178h436v-566q-67 -39 -189 -65t-241 -26q-59 0 -106 3.5t-94 12t-83.5 23t-70.5 37t-59 53t-45.5 72t-33.5 93.5t-20 117.5t-7 143.5z" />
<glyph unicode="h" horiz-adv-x="1129" d="M131 0v1065h217v-408h432v408h217v-1065h-217v476h-432v-476h-217z" />
<glyph unicode="i" horiz-adv-x="480" d="M131 0v1065h219v-1065h-219z" />
<glyph unicode="j" horiz-adv-x="533" d="M0 -8l10 171h38.5t33.5 1.5t29.5 3.5t24 6.5t20 10.5t15 15t12.5 21t8 27.5t5.5 34.5t1.5 43v739h217v-731q0 -74 -8.5 -127t-29.5 -91.5t-51 -62t-79 -37.5t-106.5 -19t-140.5 -5z" />
<glyph unicode="k" horiz-adv-x="1127" d="M122 0v1065h217v-445h94l338 445h247q-17 -22 -171.5 -225t-235.5 -308l301 -358q21 -16 68 -20q22 -2 41 -2q21 0 38 2l-19 -154q-40 -6 -78 -6h-20q-48 2 -90.5 14t-88.5 48.5t-93 97.5l-237 289h-94v-443h-217z" />
<glyph unicode="l" horiz-adv-x="882" d="M131 0v1065h217v-886h535l-17 -179h-735z" />
<glyph unicode="m" horiz-adv-x="1418" d="M131 0v1065h246l261 -634l70 -284l70 284l262 634h245v-1065h-212v650h-5l-245 -650h-229l-246 650h-5v-650h-212z" />
<glyph unicode="n" horiz-adv-x="1135" d="M131 0v1065h233l429 -700v700h211v-1065h-231l-430 703v-703h-212z" />
<glyph unicode="o" d="M95 533.5q0 100.5 14.5 181t39 138t63.5 99.5t82 67.5t100 40.5t111.5 20.5t123 5.5t123 -5.5t111.5 -20.5t100 -40.5t82 -67.5t64 -99.5t39.5 -138t14.5 -181t-14.5 -181t-39.5 -137.5t-64 -99t-82 -67.5t-100 -41t-111.5 -21t-123 -5.5t-123 5.5t-111.5 21t-100 41 t-82 67.5t-63.5 99t-39 137.5t-14.5 181zM317 534q0 -62 5.5 -112t13.5 -87t24.5 -65.5t30.5 -47t39 -31.5t42.5 -19t49.5 -9.5t51 -4t56 -0.5q36 0 54.5 0.5t50.5 4t49 9.5t42.5 19t39.5 31.5t30.5 47t25 65.5t14 87t5.5 111.5t-5.5 112t-14 87.5t-25.5 65.5t-31 47 t-39.5 31.5t-43 19.5t-49 9.5t-50 3.5t-53.5 0.5h-50.5t-46.5 -2.5t-45 -7.5t-40 -14t-37.5 -23.5t-31 -34t-26.5 -48t-18.5 -63.5t-13 -81.5t-3.5 -101.5z" />
<glyph unicode="p" horiz-adv-x="986" d="M131 0v1065h430q83 0 140 -5t106.5 -19t79 -37.5t50.5 -62t29.5 -91.5t8.5 -127t-8 -126.5t-29.5 -91t-51 -62t-79 -37t-106.5 -18.5t-140 -5h-211v-383h-219zM350 561h214q40 0 63 1t47 6.5t36.5 15.5t23 27.5t14.5 43.5t4 63v10q0 38 -4 64.5t-14.5 44t-23 28 t-36.5 15.5t-47 6.5t-63 1.5h-214v-327z" />
<glyph unicode="q" horiz-adv-x="1249" d="M76 534q0 100 14.5 180.5t39.5 138t64 99.5t82 67.5t100 40.5t111.5 20.5t123 5.5t123.5 -5.5t111.5 -20.5t99.5 -40.5t82 -67.5t64 -99.5t39.5 -138t14.5 -180.5q0 -104 -15 -186.5t-44 -140.5t-67 -99.5t-89 -66.5t-104.5 -38t-119.5 -18q39 -10 98.5 -33.5t107 -39 t83.5 -15.5q44 0 93.5 22.5t92.5 58.5v-179q-85 -76 -201 -76q-46 0 -100 16t-95.5 35t-94 34.5t-95.5 15.5q-34 0 -61 -6t-59.5 -24t-71.5 -51v176q44 46 108 66q-79 6 -141 23.5t-119 56.5t-94 98.5t-59 153t-22 217.5zM299 533.5q0 -61.5 5.5 -111.5t13.5 -87t25 -65.5 t30.5 -47t39 -31.5t42.5 -19t49.5 -9.5t51 -4t55.5 -0.5q36 0 54.5 0.5t50.5 4t49 9.5t42.5 19t39.5 31.5t30.5 47t25 65.5t14.5 87t6 111.5t-6 112t-14.5 87.5t-25.5 65.5t-31 47t-39.5 31.5t-43 19.5t-49 9.5t-50 3.5t-53.5 0.5q-37 0 -56 -0.5t-51 -3.5t-49.5 -9.5 t-42.5 -19.5t-39 -31.5t-30 -47t-24.5 -65.5t-14 -87.5t-5.5 -112z" />
<glyph unicode="r" horiz-adv-x="1129" d="M131 0v1065h430q83 0 140 -5t106.5 -19t79 -37.5t50.5 -62t29.5 -91.5t8.5 -127q0 -117 -24 -185t-76 -102t-145 -45l182 -217q8 -9 20 -14.5t31.5 -7t30 -1.5t36 1.5t29.5 1.5l-19 -154q-39 -5 -76 -5h-20q-46 2 -89 15t-89.5 48.5t-95.5 95.5l-189 229h-131v-383h-219z M350 561h214q40 0 63 1t47 6.5t36.5 15.5t23 27.5t14.5 43.5t4 63v10q0 38 -4 64.5t-14.5 44t-23 28t-36.5 15.5t-47 6.5t-63 1.5h-214v-327z" />
<glyph unicode="s" horiz-adv-x="1034" d="M76 63q38 135 52 174q64 -28 177 -52t244 -24q27 0 40.5 0.5t35.5 1.5t33 3t26.5 6.5t23.5 10.5t17.5 15.5t14 22t7.5 29t3 37t-2.5 36t-6 26.5t-13 20t-16.5 14.5t-25 11t-30.5 9t-39.5 9.5q-7 2 -22 5q-86 18 -125 27t-100.5 25t-87 28.5t-64 33.5t-53 43.5t-32 55.5 t-22.5 72.5t-5 91.5q0 93 54 160t140.5 98.5t195.5 31.5q123 0 241.5 -17t183.5 -47l-55 -171q-35 13 -87 25.5t-123.5 22t-134.5 9.5q-103 0 -152 -26t-49 -88q0 -27 0.5 -41.5t5.5 -29t9 -20t19 -13.5t27.5 -12t41.5 -13q4 -2 6 -2q36 -9 93 -21.5t94.5 -21t87.5 -23.5 t83 -30.5t69 -41t56.5 -56.5t34.5 -75.5t15 -99.5q0 -75 -20.5 -130.5t-56.5 -90t-91.5 -55t-117 -28.5t-142.5 -8q-116 0 -250.5 24t-207.5 58z" />
<glyph unicode="t" horiz-adv-x="900" d="M11 888l17 177h878l-17 -177h-332v-888h-218v888h-328z" />
<glyph unicode="u" horiz-adv-x="1108" d="M117 448v617h218v-615q0 -57 3.5 -95t12.5 -72.5t25 -55.5t42.5 -37t63.5 -22.5t89 -6.5t88.5 6.5t62.5 22.5t41.5 36.5t24 56t11 73t2.5 94.5v615h217v-617q0 -66 -3.5 -116t-12.5 -97t-24.5 -81t-40 -63.5t-57.5 -49t-78 -33.5t-102 -20.5t-129 -6.5q-96 0 -166 11 t-121 37t-83 61t-50.5 90t-26 117.5t-7.5 150.5z" />
<glyph unicode="v" horiz-adv-x="1086" d="M35 1065h239l223 -731l30 -168h11l29 168l224 731h239l-376 -1065h-243z" />
<glyph unicode="w" horiz-adv-x="1505" d="M71 1065h239l138 -883h10l153 883h280l171 -883h10l119 883h242l-230 -1065h-274l-177 799l-163 -799h-274z" />
<glyph unicode="x" horiz-adv-x="1154" d="M51 0q155 206 413 557q-212 299 -363 508h271l154 -274q23 -53 55 -156q34 110 54 156l155 274h270q-211 -293 -363 -508q258 -351 413 -557h-271l-204 323q-20 47 -54 157q-32 -103 -55 -157l-204 -323h-271z" />
<glyph unicode="y" horiz-adv-x="1024" d="M22 1065h242q35 -56 100 -166t94 -158q33 -128 50 -210q47 183 54 210q17 27 62.5 100t80 125t69.5 99h231l-389 -611v-454h-220v454q-60 96 -184.5 301.5t-189.5 309.5z" />
<glyph unicode="z" horiz-adv-x="970" d="M46 0v194l630 694h-597l17 177h805v-188l-637 -698h657l-17 -179h-858z" />
<glyph unicode="{" horiz-adv-x="467" d="M3 340v89q41 5 69.5 18.5t47 36.5t28.5 61t14 83t4 112q0 135 12.5 204t41.5 100.5t89 45.5q24 7 93 7h26v-168h-8q-31 0 -42 -17t-11 -73q0 -186 -9 -247q-6 -43 -13 -66.5t-26.5 -49t-52.5 -46t-92 -47.5q80 -28 120.5 -66.5t56.5 -100.5t16 -173v-33q0 -115 7.5 -143 t45.5 -28h8v-165h-26q-79 0 -109 8q-30 9 -51 25.5t-38 46.5t-27 73q-7 37 -13 201t-10 183q-8 37 -28.5 65t-51.5 44.5t-71 19.5z" />
<glyph unicode="|" horiz-adv-x="375" d="M131 -326v1423h91v-1423h-91z" />
<glyph unicode="}" horiz-adv-x="468" d="M41 -161h8q39 0 46.5 29t7.5 148v27q0 111 16 173t56.5 100.5t120.5 66.5q-47 22 -77.5 40t-50 34.5t-30.5 38t-16.5 42t-10.5 54.5q-8 55 -8 247q0 55 -11.5 72.5t-42.5 17.5h-8v168h27q68 0 93 -7q45 -10 71 -28t43 -58.5t23 -101t6 -162.5q0 -56 2.5 -95.5t9 -75 t18 -58.5t29.5 -41t43.5 -27.5t59.5 -13.5v-89q-60 -5 -99.5 -39t-51.5 -90q-4 -19 -10 -183t-13 -201q-15 -64 -43 -97.5t-73 -47.5q-30 -8 -108 -8h-27v165z" />
<glyph unicode="~" horiz-adv-x="976" d="M96 445v109q81 81 205 81q43 0 99 -13q29 -7 143 -48.5t145 -41.5q30 0 63 11t64 29t59 42v-113q-85 -77 -201 -77q-50 0 -89 11q-17 4 -80.5 28.5t-124 43.5t-91.5 19q-25 0 -46 -3.5t-44 -12.5t-47.5 -25t-54.5 -40z" />
<glyph unicode="&#xa2;" horiz-adv-x="1078" d="M93 532q0 94 11.5 169.5t32.5 132t53.5 99t71 70t89.5 45.5t104 26t119 11v143h91v-142q208 -5 337 -65l-55 -171q-165 52 -282 57v-751q130 7 299 66l54 -171q-65 -30 -158 -49.5t-195 -21.5v-176h-91v176q-66 2 -119 10t-104 26t-89.5 45.5t-71 70t-53.5 99t-32.5 132 t-11.5 169.5zM315 532q0 -91 13 -157.5t34.5 -107t56 -65t70.5 -34t85 -12.5v751q-40 -2 -71.5 -9t-62 -22.5t-52.5 -43t-39 -67.5t-25.5 -98.5t-8.5 -134.5z" />
<glyph unicode="&#xa3;" horiz-adv-x="855" d="M45 84q80 45 128.5 123t48.5 183q0 44 -16 113h-153v76h128l-12 43q-22 79 -27.5 109t-5.5 67q0 87 42.5 155t120 106t177.5 38q134 0 221 -67t111 -189l-206 -13q-11 49 -46 79t-81 30q-51 0 -86.5 -34.5t-35.5 -84.5q0 -93 47 -239h247v-76h-234q25 -59 25 -85 q0 -93 -74 -209q44 -4 113.5 -18.5t115.5 -23.5t104.5 -3.5t105.5 34.5q5 -18 17 -88t18 -87q-48 -26 -104 -33t-110 0.5t-111 20.5t-113.5 24.5t-109.5 15t-106.5 -11.5t-97.5 -52z" />
<glyph unicode="&#xa5;" horiz-adv-x="1024" d="M22 1065h242q35 -56 100 -166t94 -158q33 -128 50 -210l54 210q17 27 62.5 100t80 125t69.5 99h231l-337 -526h228v-80h-277l-3 -5v-136h280v-71h-280v-247h-220v247h-266v71h266v136q-3 4 -3 5h-263v80h213q-53 87 -160 263.5t-161 262.5z" />
<glyph unicode="&#xa8;" horiz-adv-x="677" d="M98 964v204h182v-204h-182zM393 964v204h183v-204h-183z" />
<glyph unicode="&#xa9;" d="M95 533.5q0 100.5 14.5 181t39 138t63.5 99.5t82 67.5t100 40.5t111.5 20.5t123 5.5t123 -5.5t111.5 -20.5t100 -40.5t82 -67.5t64 -99.5t39.5 -138t14.5 -181t-14.5 -181t-39.5 -137.5t-64 -99t-82 -67.5t-100 -41t-111.5 -21t-123 -5.5t-123 5.5t-111.5 21t-100 41 t-82 67.5t-63.5 99t-39 137.5t-14.5 181zM154 533.5q0 -102.5 15 -181.5t36.5 -130.5t62.5 -87.5t73.5 -54t91.5 -27t94 -10.5t102 -1.5q65 0 100 1.5t93.5 11t91 27t74 53.5t63 87.5t37 130.5t15.5 182q0 80 -9.5 146t-23.5 114t-40 85.5t-49 62t-61.5 41.5t-66 25.5 t-74 13t-74 5t-76.5 0.5q-67 0 -102.5 -1.5t-94 -10.5t-91 -27t-73.5 -54t-62.5 -87.5t-36.5 -131t-15 -182zM330 526q0 60 8 108t22 82.5t36.5 59.5t47.5 41t60 25t70 12.5t80 3.5q139 0 242 -50l-45 -77q-108 40 -194 40q-32 0 -53.5 -1.5t-47.5 -7t-43 -15.5t-34 -27.5 t-26.5 -43.5t-15.5 -63t-6 -86q0 -54 4.5 -93t16.5 -67.5t28.5 -46t43.5 -27.5t58 -14t77 -4q64 0 162 35l29 10l47 -76q-51 -23 -119.5 -39t-133.5 -16q-54 0 -94 5t-77 18t-62 37t-44 61t-28 90.5t-9 125.5z" />
<glyph unicode="&#xab;" horiz-adv-x="771" d="M40 383l240 329h141l-193 -329l192 -330h-140q-198 274 -240 330zM350 383l236 329h147l-199 -329l199 -330h-147z" />
<glyph unicode="&#xad;" horiz-adv-x="671" d="M131 301v170h405v-170h-405z" />
<glyph unicode="&#xae;" horiz-adv-x="1054" d="M95 783q0 81 11.5 146.5t32 111.5t52 80.5t66 55t80.5 33t90.5 17t99.5 4.5t99.5 -4.5t91 -17t81 -33t66.5 -55t52 -80.5t32 -111.5t12 -146.5t-12 -146t-32 -111.5t-52 -80.5t-66.5 -55t-81 -33.5t-91 -17t-99.5 -4.5t-99.5 4.5t-90.5 17t-80.5 33.5t-66 55t-52 80.5 t-32 111.5t-11.5 146zM161 783q0 -62 7 -113t17.5 -88t30.5 -66t37 -48t47 -32t51 -19.5t57.5 -10t58 -4t60.5 -0.5q51 0 77.5 1t72 8t71 21t57.5 41.5t48.5 67.5t28.5 101.5t12 140.5q0 56 -5 103t-16.5 83t-24 64.5t-33.5 48.5t-38 34.5t-45 23.5t-47.5 14t-52 7.5 t-51.5 3t-54 0.5q-39 0 -60.5 -0.5t-58 -4t-57.5 -10t-51 -19.5t-47 -32t-37 -48t-30.5 -66.5t-17.5 -88.5t-7 -113zM330 516v522h216q62 0 98.5 -6t62.5 -24.5t35.5 -51.5t9.5 -88q0 -80 -24.5 -118.5t-81.5 -49.5q32 -40 46 -59q29 -41 50.5 -52.5t47.5 -1.5l16 -56 q-42 -25 -65 -25q-30 0 -56.5 22t-62.5 72l-71 95h-138v-179h-83zM413 765h135q24 0 38.5 0.5t30 4t23.5 10t15.5 18t10 28.5t2.5 42q0 24 -2.5 41.5t-10 28.5t-15 17.5t-24 9.5t-29.5 3.5t-39 0.5h-135v-204z" />
<glyph unicode="&#xb4;" horiz-adv-x="288" d="M51 907l88 178h141q-33 -38 -146 -178h-83z" />
<glyph unicode="&#xb8;" horiz-adv-x="396" d="M45 -315l8 57h7q24 -3 51 -3q75 0 115 24q28 24 28 53q0 15 -3.5 24.5t-14.5 19.5t-35.5 15.5t-62.5 7.5l30 101h68l-25 -80q35 -5 62.5 -14t44.5 -22t26 -29t9 -33q0 -52 -56 -89t-154 -37q-56 0 -98 5z" />
<glyph unicode="&#xbb;" horiz-adv-x="771" d="M38 53l199 330l-199 329h146q53 -72 236 -329l-236 -330h-146zM347 53l197 330q-165 276 -197 329h144q45 -60 128 -174.5t112 -154.5l-240 -330h-144z" />
<glyph unicode="&#x2c6;" horiz-adv-x="540" d="M57 907q22 27 145 178h133l151 -178h-114l-98 140l-98 -140h-119z" />
<glyph unicode="&#x2da;" horiz-adv-x="288" d="M43 999q0 65 27 87t79 22t79 -22t27 -87q0 -67 -27 -89t-79 -22t-79 22t-27 89zM96 999q0 -22 4 -35t12.5 -18.5t16 -7t20.5 -1.5t20.5 1.5t16.5 7t12.5 18.5t3.5 35q0 21 -4 33.5t-13 17.5t-16 6t-20 1q-14 0 -21 -1t-15.5 -6t-12.5 -17.5t-4 -33.5z" />
<glyph unicode="&#x2dc;" horiz-adv-x="689" d="M101 924q2 58 40 98q43 43 106 43q42 0 126 -40q52 -25 81 -25q17 0 28 3t20.5 10.5t16 20.5t10.5 33h68q-6 -66 -43.5 -103t-94.5 -37q-41 0 -124 42q-54 30 -85 30q-32 0 -57 -25q-19 -22 -20 -50h-72z" />
<glyph unicode="&#x400;" horiz-adv-x="966" d="M131 0v1065h796l-17 -177h-560v-247h437v-178h-437v-284h577l-17 -179h-779zM369 1350h142l88 -177h-75z" />
<glyph unicode="&#x401;" horiz-adv-x="938" d="M131 0v1065h796l-17 -177h-560v-247h437v-178h-437v-284h577l-17 -179h-779zM292 1200v204h183v-204h-183zM587 1200v204h183v-204h-183z" />
<glyph unicode="&#x402;" horiz-adv-x="1308" d="M28 888l17 177h878l-17 -177h-332v-206h260q84 0 141 -5t106.5 -18.5t79 -37t50.5 -62t29.5 -91t8.5 -126.5v-10q0 -55 -4.5 -98t-16 -78t-27.5 -60t-41.5 -43.5t-55 -30t-72.5 -18.5t-89 -9.5t-109 -2.5l17 177q38 0 59.5 1.5t44 6.5t33.5 15t21 27.5t13 43.5t3 63v21 q0 37 -3.5 63t-14.5 44t-23 28t-36.5 15t-47.5 6.5t-62 1.5h-264v-505h-219v888h-327z" />
<glyph unicode="&#x403;" horiz-adv-x="805" d="M131 0v1065h675l-16 -177h-458v-888h-201zM288 1143l89 177h141q-33 -37 -146 -177h-84z" />
<glyph unicode="&#x404;" horiz-adv-x="1078" d="M93 532.5q0 99.5 13 178.5t36 136.5t60 100t79 69t99.5 42t116 21.5t132.5 6q233 0 373 -65l-55 -171q-51 16 -83 25.5t-101.5 21.5t-130.5 12q-39 0 -68 -2t-61 -9t-55.5 -19t-46.5 -32.5t-38.5 -49.5t-27 -70.5t-17.5 -94.5h568v-161h-569q3 -61 13.5 -109t25 -81 t38.5 -56t47 -36.5t57 -21t63.5 -9.5t70.5 -2q142 0 332 66l54 -171q-70 -33 -173.5 -53t-215.5 -20q-74 0 -132.5 6t-116 22t-99.5 42.5t-79 68.5t-60 99.5t-36 137t-13 179z" />
<glyph unicode="&#x405;" horiz-adv-x="1034" d="M76 63q38 135 52 174q64 -28 177 -52t244 -24q27 0 40.5 0.5t35.5 1.5t33 3t26.5 6.5t23.5 10.5t17.5 15.5t14 22t7.5 29t3 37t-2.5 36t-6 26.5t-13 20t-16.5 14.5t-25 11t-30.5 9t-39.5 9.5q-7 2 -22 5q-86 18 -125 27t-100.5 25t-87 28.5t-64 33.5t-53 43.5t-32 55.5 t-22.5 72.5t-5 91.5q0 93 54 160t140.5 98.5t195.5 31.5q123 0 241.5 -17t183.5 -47l-55 -171q-35 13 -87 25.5t-123.5 22t-134.5 9.5q-103 0 -152 -26t-49 -88q0 -27 0.5 -41.5t5.5 -29t9 -20t19 -13.5t27.5 -12t41.5 -13q4 -2 6 -2q36 -9 93 -21.5t94.5 -21t87.5 -23.5 t83 -30.5t69 -41t56.5 -56.5t34.5 -75.5t15 -99.5q0 -75 -20.5 -130.5t-56.5 -90t-91.5 -55t-117 -28.5t-142.5 -8q-116 0 -250.5 24t-207.5 58z" />
<glyph unicode="&#x406;" horiz-adv-x="480" d="M131 0v1065h219v-1065h-219z" />
<glyph unicode="&#x407;" horiz-adv-x="480" d="M-5 1200v204h182v-204h-182zM131 0v1065h219v-1065h-219zM290 1200v204h183v-204h-183z" />
<glyph unicode="&#x408;" horiz-adv-x="533" d="M0 -8l10 171h38.5t33.5 1.5t29.5 3.5t24 6.5t20 10.5t15 15t12.5 21t8 27.5t5.5 34.5t1.5 43v739h217v-731q0 -74 -8.5 -127t-29.5 -91.5t-51 -62t-79 -37.5t-106.5 -19t-140.5 -5z" />
<glyph unicode="&#x409;" horiz-adv-x="1852" d="M79 -11l11 171q35 0 56 0.5t46 4t39.5 10.5t29.5 19t23 30t14.5 43t8.5 59l33 739h783v-383h260q84 0 141 -5t106.5 -18.5t79 -37t50.5 -62t29.5 -91t8.5 -126.5t-8.5 -126.5t-29.5 -91.5t-50.5 -62.5t-79 -37.5t-106.5 -19t-141 -5h-479v885h-363l-17 -551 q-3 -74 -14.5 -127t-36 -92t-57 -63t-84 -38.5t-110.5 -19.5t-143 -5zM1123 177h264q40 0 62.5 1.5t47 7t37 15.5t23 28t14.5 44t4 64v10q0 37 -4 63t-14.5 44t-23 28t-36.5 15t-47 6.5t-63 1.5h-264v-328z" />
<glyph unicode="&#x40a;" horiz-adv-x="1776" d="M131 0v1065h217v-416h481v416h219v-383h261q84 0 141 -5t106.5 -18.5t78.5 -37t50.5 -62t30 -91t8.5 -126.5t-8.5 -126.5t-30 -91.5t-51 -62.5t-78.5 -37.5t-106.5 -19t-140.5 -5h-480v484h-481v-484h-217zM1048 177h264q40 0 63 1.5t47 7t36.5 15.5t23 28t14 44t3.5 64 v10q0 32 -3 55.5t-9 40.5t-18 28.5t-24.5 18t-35 10t-43 4.5t-54.5 1h-264v-328z" />
<glyph unicode="&#x40b;" horiz-adv-x="1317" d="M32 888l16 177h878l-17 -177h-331v-206h260q83 0 140 -5t106.5 -18.5t79 -37t51 -62t29.5 -91t8 -126.5v-342h-223v347q0 37 -4 63t-14.5 44t-23 28t-36.5 15t-47 6.5t-63 1.5h-263v-505h-220v888h-326z" />
<glyph unicode="&#x40c;" horiz-adv-x="1119" d="M131 0v1065h217v-445h98l327 445h256q-365 -476 -409 -533q72 -92 209 -271.5t200 -260.5h-256l-327 443h-98v-443h-217zM445 1143l87 177h141q-33 -37 -146 -177h-82z" />
<glyph unicode="&#x40d;" horiz-adv-x="1135" d="M131 0h230l430 703v-703h213v1065h-233l-429 -700v700h-211v-1065zM453 1350h142l89 -177h-75z" />
<glyph unicode="&#x40e;" horiz-adv-x="1049" d="M25 1065h222l279 -568l15 -79l13 79l242 568h234l-332 -733q-13 -26 -36 -74q-23 -49 -34 -70.5t-31 -56t-33.5 -48t-37 -34.5t-47.5 -28t-58.5 -16.5t-75.5 -12t-95 -2.5l11 171q69 0 104 13t61 57zM173 1219l44 88q43 -19 138 -38.5t169 -19.5t169 19.5t138 38.5 l45 -88q-51 -29 -154.5 -46t-203.5 -19q-101 3 -200 20t-145 45z" />
<glyph unicode="&#x40f;" horiz-adv-x="1027" d="M81 0v1065h218v-884h431v884h217v-1065h-335v-287l-196 -17v304h-335z" />
<glyph unicode="&#x410;" horiz-adv-x="1089" d="M46 0l377 1065h242l377 -1065h-239l-93 301h-333l-92 -301h-239zM424 454h239l-84 277l-30 168h-10l-30 -168z" />
<glyph unicode="&#x411;" horiz-adv-x="1036" d="M131 0v1065h793l-17 -177h-557v-206h211q55 0 97 -2t81.5 -7t68.5 -14.5t55 -22.5t43.5 -32.5t31.5 -44t21.5 -57t11.5 -72t4 -88.5q0 -74 -8.5 -126.5t-29.5 -91.5t-50.5 -62.5t-79 -37.5t-106.5 -19t-140 -5h-430zM350 177h214q34 0 54.5 1t43 4.5t35 10.5t25 18 t18 28.5t9 41t3.5 56.5v10q0 37 -4 63t-14.5 44t-23 28t-36.5 15t-47 6.5t-63 1.5h-214v-328z" />
<glyph unicode="&#x412;" horiz-adv-x="1119" d="M131 0v1065h456q83 0 140.5 -4t106 -15.5t78 -30.5t50 -50t29 -72t8.5 -98q0 -50 -6 -87t-16 -63.5t-28 -47t-37.5 -34.5t-48.5 -29q37 -19 61 -36.5t45 -46.5t30 -72t9 -104q0 -57 -8.5 -98.5t-29 -73t-51 -51t-78.5 -31.5t-106.5 -16.5t-140.5 -4.5h-463zM317 177h280 h7q26 0 38 0.5t32 1t29 1.5t23.5 3.5t20 6t15 9t12.5 12.5t7.5 16.5t5.5 21.5t1 26q0 43 -3 71.5t-13.5 47.5t-19 29.5t-31.5 15.5t-39.5 6t-53.5 1h-11h-300v-269zM317 624h300q27 0 42.5 1t34 3.5t28.5 7t21 12.5t16.5 20t10.5 29.5t6.5 40t1.5 52.5q0 23 -3.5 39t-14 27 t-23 17t-36.5 9.5t-47.5 4.5t-63.5 1h-273v-264z" />
<glyph unicode="&#x413;" horiz-adv-x="805" d="M131 0v1065h675l-16 -177h-458v-888h-201z" />
<glyph unicode="&#x414;" horiz-adv-x="1173" d="M71 -179v360h37q47 15 72 77t31 185l30 622h733v-884h96v-370l-179 -17v206h-642v-163zM356 181h401v704h-316l-13 -435q-10 -196 -72 -269z" />
<glyph unicode="&#x415;" horiz-adv-x="966" d="M131 0v1065h796l-17 -177h-560v-247h437v-178h-437v-284h577l-17 -179h-779z" />
<glyph unicode="&#x416;" horiz-adv-x="1592" d="M83 0l408 532l-375 533h248l313 -453h20v453h217v-453h20l313 453h247l-375 -533l409 -532h-247l-345 451h-22v-451h-217v451h-24l-343 -451h-247z" />
<glyph unicode="&#x417;" horiz-adv-x="999" d="M53 46l55 171q55 -19 168 -38t205 -19h48.5t39.5 2t34 6t25.5 11t20 17t12.5 25t8 34.5t2 45.5q0 44 -6.5 72.5t-16 45t-34.5 24t-46.5 9.5t-66.5 2h-267v162h267q35 0 55.5 1.5t42.5 6.5t32.5 14.5t20.5 26t13 41t3 59.5q0 44 -9 71t-32.5 43t-57 21.5t-88.5 5.5 q-92 0 -205 -19.5t-168 -38.5l-55 170q66 31 184.5 48t240.5 17q98 0 164 -7.5t116 -25.5t77.5 -51t40.5 -80t13 -116q0 -61 -10 -105.5t-32.5 -75t-49.5 -50t-67 -38.5q41 -18 68 -37.5t50 -50t34 -74.5t11 -105q0 -69 -13.5 -116.5t-41.5 -81t-78.5 -52.5t-117.5 -27.5 t-164 -8.5q-122 0 -240.5 17t-184.5 48z" />
<glyph unicode="&#x418;" horiz-adv-x="1135" d="M131 0v1065h211v-700l429 700h233v-1065h-213v703l-430 -703h-230z" />
<glyph unicode="&#x419;" horiz-adv-x="1086" d="M106 0h231l429 703v-703h212v1065h-231l-430 -700v700h-211v-1065zM193 1219l44 88q43 -19 138 -38.5t169.5 -19.5t169.5 19.5t137 38.5l45 -88q-50 -29 -154 -46t-204 -19q-100 3 -199 20t-146 45z" />
<glyph unicode="&#x41a;" horiz-adv-x="1119" d="M131 0v1065h217v-445h98l327 445h256q-365 -476 -409 -533q72 -92 209 -271.5t200 -260.5h-256l-327 443h-98v-443h-217z" />
<glyph unicode="&#x41b;" horiz-adv-x="1176" d="M49 -11l11 171q33 0 52.5 0.5t42.5 4t36.5 10.5t27.5 19t21.5 30t13 43t7.5 59l49 739h733v-1065h-217v885h-315l-33 -551q-3 -74 -14.5 -127t-34.5 -92t-54.5 -63t-81 -38.5t-106.5 -19.5t-138 -5z" />
<glyph unicode="&#x41c;" horiz-adv-x="1418" d="M131 0v1065h246l261 -634l70 -284l70 284l262 634h245v-1065h-212v650h-5l-245 -650h-229l-246 650h-5v-650h-212z" />
<glyph unicode="&#x41d;" horiz-adv-x="1129" d="M131 0v1065h217v-408h432v408h217v-1065h-217v476h-432v-476h-217z" />
<glyph unicode="&#x41e;" d="M95 533.5q0 100.5 14.5 181t39 138t63.5 99.5t82 67.5t100 40.5t111.5 20.5t123 5.5t123 -5.5t111.5 -20.5t100 -40.5t82 -67.5t64 -99.5t39.5 -138t14.5 -181t-14.5 -181t-39.5 -137.5t-64 -99t-82 -67.5t-100 -41t-111.5 -21t-123 -5.5t-123 5.5t-111.5 21t-100 41 t-82 67.5t-63.5 99t-39 137.5t-14.5 181zM317 534q0 -62 5.5 -112t13.5 -87t24.5 -65.5t30.5 -47t39 -31.5t42.5 -19t49.5 -9.5t51 -4t56 -0.5q36 0 54.5 0.5t50.5 4t49 9.5t42.5 19t39.5 31.5t30.5 47t25 65.5t14 87t5.5 111.5t-5.5 112t-14 87.5t-25.5 65.5t-31 47 t-39.5 31.5t-43 19.5t-49 9.5t-50 3.5t-53.5 0.5h-50.5t-46.5 -2.5t-45 -7.5t-40 -14t-37.5 -23.5t-31 -34t-26.5 -48t-18.5 -63.5t-13 -81.5t-3.5 -101.5z" />
<glyph unicode="&#x41f;" horiz-adv-x="1129" d="M131 0v1065h866v-1065h-217v885h-432v-885h-217z" />
<glyph unicode="&#x420;" horiz-adv-x="986" d="M131 0v1065h430q83 0 140 -5t106.5 -19t79 -37.5t50.5 -62t29.5 -91.5t8.5 -127t-8 -126.5t-29.5 -91t-51 -62t-79 -37t-106.5 -18.5t-140 -5h-211v-383h-219zM350 561h214q40 0 63 1t47 6.5t36.5 15.5t23 27.5t14.5 43.5t4 63v10q0 38 -4 64.5t-14.5 44t-23 28 t-36.5 15.5t-47 6.5t-63 1.5h-214v-327z" />
<glyph unicode="&#x421;" horiz-adv-x="1078" d="M93 532.5q0 99.5 13 178.5t36 136.5t60 100t79 69t99.5 42t116 21.5t132.5 6q233 0 373 -65l-55 -171q-51 16 -83 25.5t-101.5 21.5t-130.5 12q-34 0 -59 -1.5t-54 -6t-50 -13t-43.5 -22.5t-38 -34t-30 -48t-23.5 -64t-14 -83.5t-5 -104.5t5 -104.5t14 -83.5t23.5 -64.5 t30 -48t38 -33.5t43.5 -22t50 -12.5t54 -6t59 -1.5q142 0 332 66l54 -171q-70 -33 -173.5 -53t-215.5 -20q-74 0 -132.5 6t-116 22t-99.5 42.5t-79 68.5t-60 99.5t-36 137t-13 179z" />
<glyph unicode="&#x422;" horiz-adv-x="900" d="M11 888l17 177h878l-17 -177h-332v-888h-218v888h-328z" />
<glyph unicode="&#x423;" horiz-adv-x="1071" d="M45 1065h222l279 -568l15 -79l13 79l242 568h234l-332 -733q-13 -26 -36 -74q-23 -49 -34 -70.5t-31 -56t-33.5 -48t-37 -34.5t-47 -28t-58.5 -16.5t-76 -12t-94 -2.5l9 171q69 0 105 13t61 57z" />
<glyph unicode="&#x424;" horiz-adv-x="1402" d="M45 532.5q0 77.5 7 142t19.5 114.5t33.5 90t45 69t56.5 49.5t66.5 33.5t77.5 21t85.5 10.5t95 2.5q41 0 61 -1v96h219v-96q20 1 61 1q53 0 95 -2.5t85.5 -10.5t77.5 -21t66.5 -33.5t56.5 -49.5t45 -69t33.5 -90t19.5 -114.5t7 -142t-7 -142t-19.5 -115t-33.5 -90 t-45 -68.5t-56.5 -50t-66.5 -33.5t-77.5 -20.5t-85.5 -10.5t-95 -2.5h-61v-95h-219v95h-61q-53 0 -95 2.5t-86 10.5t-77.5 20.5t-66 33.5t-56.5 50t-45 68.5t-33.5 90t-19.5 115t-7 142zM267 532q0 -56 4.5 -102t11.5 -80.5t20 -61.5t25.5 -45t32.5 -31t36.5 -20t42 -10.5 t45 -4.5t49.5 -1q36 0 58 1v709q-20 2 -58 2q-29 0 -49 -1t-45 -5t-42.5 -11t-37 -20t-32 -31t-25 -45t-20 -61.5t-12 -80t-4.5 -101.5zM811 177q18 -1 58 -1q30 0 49.5 1t45 4.5t42.5 10.5t36.5 20t32.5 31t25.5 45t19.5 61.5t11.5 80.5t4.5 102t-4 101.5t-11.5 80 t-20 61.5t-25.5 45t-32.5 31t-36.5 20t-42.5 11t-45.5 5t-49 1q-40 0 -58 -2v-709z" />
<glyph unicode="&#x425;" horiz-adv-x="1154" d="M51 0q155 206 413 557q-212 299 -363 508h271l154 -274q23 -53 55 -156q34 110 54 156l155 274h270q-211 -293 -363 -508q258 -351 413 -557h-271l-204 323q-20 47 -54 157q-32 -103 -55 -157l-204 -323h-271z" />
<glyph unicode="&#x426;" horiz-adv-x="1127" d="M62 0v1065h217v-884h431v884h217v-884h97v-370l-180 -17v206h-782z" />
<glyph unicode="&#x427;" horiz-adv-x="993" d="M15 698v367h224v-372q0 -39 10 -66t25.5 -42t44 -23t55.5 -10.5t71 -2.5q54 0 89.5 6t62.5 23t44 47v440h218v-1065h-218v418q-62 -48 -198 -48q-49 0 -91.5 3.5t-82.5 11.5t-73 21t-62 31.5t-50.5 44t-37.5 57t-23.5 72t-7.5 87.5z" />
<glyph unicode="&#x428;" horiz-adv-x="1545" d="M131 0v1065h217v-884h315v884h217v-884h316v884h217v-1065h-1282z" />
<glyph unicode="&#x429;" horiz-adv-x="1547" d="M58 0v1065h217v-884h315v884h218v-884h315v884h218v-884h96v-370l-180 -17v206h-1199z" />
<glyph unicode="&#x42a;" horiz-adv-x="1151" d="M57 888l16 177h426v-383h211q84 0 141 -5t106.5 -18.5t79 -37t50.5 -62t29.5 -91t8.5 -126.5t-8.5 -126.5t-29.5 -91.5t-50.5 -62.5t-79 -37.5t-106.5 -19t-141 -5h-430v888h-223zM499 177h215q39 0 62 1.5t47.5 7t36.5 15.5t22.5 28t14.5 44t4 64v10q0 32 -3.5 55.5 t-9 40.5t-18 28.5t-24.5 18t-34.5 10t-43 4.5t-54.5 1h-215v-328z" />
<glyph unicode="&#x42b;" horiz-adv-x="1458" d="M131 0v1065h219v-383h211q55 0 97 -2t81.5 -7t68.5 -14.5t55 -22.5t43.5 -32.5t31.5 -44t21.5 -57t11.5 -72t4 -88.5q0 -74 -8.5 -126.5t-29.5 -91.5t-50.5 -62.5t-79 -37.5t-106.5 -19t-140 -5h-430zM350 177h214q34 0 54.5 1t43 4.5t35 10.5t25 18t18 28.5t9 41 t3.5 56.5v10q0 37 -4 63t-14.5 44t-23 28t-36.5 15t-47 6.5t-63 1.5h-214v-328zM1105 0v1065h219v-1065h-219z" />
<glyph unicode="&#x42c;" horiz-adv-x="988" d="M131 0v1065h219v-383h211q55 0 97 -2t81.5 -7t68.5 -14.5t55 -22.5t43.5 -32.5t31.5 -44t21.5 -57t11.5 -72t4 -88.5q0 -74 -8.5 -126.5t-29.5 -91.5t-50.5 -62.5t-79 -37.5t-106.5 -19t-140 -5h-430zM350 177h214q34 0 54.5 1t43 4.5t35 10.5t25 18t18 28.5t9 41 t3.5 56.5v10q0 37 -4 63t-14.5 44t-23 28t-36.5 15t-47 6.5t-63 1.5h-214v-328z" />
<glyph unicode="&#x42d;" horiz-adv-x="1078" d="M60 51l54 171q190 -66 332 -66q41 0 70.5 2t63 9.5t57 21t47 36.5t38.5 56t25.5 81t13.5 109h-568v161h565q-5 53 -17 94.5t-27.5 70.5t-38.5 49.5t-46 32.5t-55 19t-60.5 9t-67.5 2q-61 0 -130.5 -12t-101.5 -21.5t-83 -25.5l-55 171q140 65 374 65q74 0 132 -6 t115.5 -21.5t100 -42t79.5 -69t60 -100t36 -136.5t13 -178.5t-13 -179t-36 -137t-60 -99.5t-79.5 -68.5t-100 -42.5t-115.5 -22t-132 -6q-113 0 -216 20t-174 53z" />
<glyph unicode="&#x42e;" horiz-adv-x="1689" d="M130 0v1065h217v-416h174q7 79 26.5 142t46.5 108.5t65.5 79t80 54t94.5 32.5t104 16.5t113 4.5q69 0 123.5 -5.5t111.5 -20.5t100 -40.5t82 -67.5t64 -99.5t39.5 -138t14.5 -180.5q0 -79 -9 -145t-24.5 -117.5t-39.5 -93t-52 -71.5t-65 -52.5t-74.5 -36.5t-83.5 -22 t-90 -11.5t-97 -3.5q-50 0 -92.5 3t-87.5 11t-81.5 20.5t-72.5 33t-64 48t-53 65t-41.5 84.5t-27.5 107t-13 131h-171v-484h-217zM740 534q0 -62 5.5 -112t13.5 -87t24.5 -65.5t30 -47t39 -31.5t43 -19t49.5 -9.5t51 -4t55 -0.5t54.5 0.5t51 4t49.5 9.5t42.5 19t39.5 31.5 t30.5 47t25 65.5t14 87t5.5 112q0 91 -10.5 157.5t-35.5 106.5t-48 64.5t-66.5 34t-71 11.5t-80.5 2h-49.5t-46.5 -2.5t-45 -7.5t-40 -14t-37.5 -23.5t-31 -34t-27 -48t-18.5 -63.5t-12.5 -81.5t-3.5 -101.5z" />
<glyph unicode="&#x42f;" horiz-adv-x="1112" d="M86 0l296 390q-95 12 -147 46t-76.5 102t-24.5 185q0 74 8.5 127t30 91.5t51 62t78.5 37.5t106.5 19t140.5 5h431v-1065h-219v383h-142l-282 -383h-251zM358 723q0 -33 3.5 -57t9.5 -42t18 -29.5t24.5 -18.5t35 -10.5t43 -4t54.5 -0.5h215v327h-215q-31 0 -48 -0.5 t-39 -3t-33.5 -7t-25 -12.5t-19.5 -19.5t-12.5 -29t-8.5 -40.5t-2 -53z" />
<glyph unicode="&#x430;" horiz-adv-x="1163" d="M79 312q0 85 21 149.5t57 106t91 67.5t117.5 36.5t142.5 10.5h262q-3 41 -7 71.5t-12.5 54.5t-17.5 40t-25.5 27.5t-32 18t-42 10t-50.5 4.5t-62 1q-141 0 -323 -63l-55 171q148 69 381 69q71 0 123.5 -4t101 -15t82 -29.5t62.5 -48.5t47 -70t30.5 -96t18 -125t5.5 -159 v-26v-187q0 -79 22.5 -113.5t77.5 -41.5l-19 -173q-72 8 -116.5 26.5t-70.5 52t-38 87.5q-106 -180 -342 -180q-80 0 -142.5 9t-117.5 32t-91 60t-57 94t-21 133zM292 312q0 -39 11 -66.5t28.5 -43.5t47 -25t59 -11.5t71.5 -2.5q67 0 114 14.5t76 40t45 69.5t21.5 92.5 t5.5 119.5v4h-263q-43 0 -72 -3.5t-58.5 -15t-47 -31.5t-28 -55.5t-10.5 -85.5z" />
<glyph unicode="&#x431;" horiz-adv-x="1032" d="M131 0v1065h793l-17 -177h-557v-206h211q55 0 97 -2t81.5 -7t68.5 -14.5t55 -22.5t43.5 -32.5t31.5 -44t21.5 -57t11.5 -72t4 -88.5q0 -74 -8.5 -126.5t-29.5 -91.5t-50.5 -62.5t-79 -37.5t-106.5 -19t-140 -5h-430zM350 177h214q34 0 54.5 1t43 4.5t35 10.5t25 18 t18 28.5t9 41t3.5 56.5v10q0 37 -4 63t-14.5 44t-23 28t-36.5 15t-47 6.5t-63 1.5h-214v-328z" />
<glyph unicode="&#x432;" horiz-adv-x="1119" d="M131 0v1065h456q83 0 140.5 -4t106 -15.5t78 -30.5t50 -50t29 -72t8.5 -98q0 -50 -6 -87t-16 -63.5t-28 -47t-37.5 -34.5t-48.5 -29q37 -19 61 -36.5t45 -46.5t30 -72t9 -104q0 -57 -8.5 -98.5t-29 -73t-51 -51t-78.5 -31.5t-106.5 -16.5t-140.5 -4.5h-463zM317 177h280 h7q26 0 38 0.5t32 1t29 1.5t23.5 3.5t20 6t15 9t12.5 12.5t7.5 16.5t5.5 21.5t1 26q0 43 -3 71.5t-13.5 47.5t-19 29.5t-31.5 15.5t-39.5 6t-53.5 1h-11h-300v-269zM317 624h300q27 0 42.5 1t34 3.5t28.5 7t21 12.5t16.5 20t10.5 29.5t6.5 40t1.5 52.5q0 23 -3.5 39t-14 27 t-23 17t-36.5 9.5t-47.5 4.5t-63.5 1h-273v-264z" />
<glyph unicode="&#x433;" horiz-adv-x="872" d="M131 0v1065h675l-16 -177h-458v-888h-201z" />
<glyph unicode="&#x434;" horiz-adv-x="1176" d="M71 -179v360h37q47 15 72 77t31 185l30 622h733v-884h96v-370l-179 -17v206h-642v-163zM356 181h401v704h-316l-13 -435q-10 -196 -72 -269z" />
<glyph unicode="&#x435;" horiz-adv-x="1167" d="M96 519q0 89 9.5 162t28.5 128.5t44 99t60 73.5t73 50.5t86 32.5t96.5 16.5t106.5 4.5q83 0 147.5 -9.5t122 -33t98 -64t70.5 -99.5t44.5 -142.5t14.5 -191.5v-85h-777q3 -56 10.5 -98.5t19.5 -75t31.5 -55t43 -37.5t57.5 -23.5t71 -12t88 -3.5q127 0 338 74l3 1.5t3 1 t3 1t3 0.5l54 -171q-73 -34 -196 -59.5t-233 -25.5q-75 0 -133.5 6t-114 21.5t-96 41.5t-75.5 67t-56 97.5t-33 133.5t-12 174zM320 641h551q-3 49 -10.5 87.5t-18.5 67t-28 48.5t-37 33t-48.5 20.5t-58.5 10t-70 2.5q-38 0 -63.5 -1t-56.5 -7t-51 -17t-41.5 -30.5t-34 -48 t-21.5 -70t-12 -95.5z" />
<glyph unicode="&#x436;" horiz-adv-x="1653" d="M30 154q31 -4 78 -0.5t68 20.5l302 358q-44 57 -408 533h247l338 -445h62v445h217v-445h61l339 445h247q-364 -476 -408 -533l302 -358q21 -17 67.5 -20.5t78.5 0.5l-19 -154q-50 -8 -97.5 -6t-90 14t-88.5 48.5t-93 97.5l-238 289h-61v-443h-217v443h-62l-237 -289 q-47 -61 -93 -97.5t-89 -48.5t-90.5 -14t-97.5 6z" />
<glyph unicode="&#x437;" horiz-adv-x="1001" d="M53 46l55 171q55 -19 168 -38t205 -19h48.5t39.5 2t34 6t25.5 11t20 17t12.5 25t8 34.5t2 45.5q0 44 -6.5 72.5t-16 45t-34.5 24t-46.5 9.5t-66.5 2h-267v162h267q35 0 55.5 1.5t42.5 6.5t32.5 14.5t20.5 26t13 41t3 59.5q0 44 -9 71t-32.5 43t-57 21.5t-88.5 5.5 q-92 0 -205 -19.5t-168 -38.5l-55 170q66 31 184.5 48t240.5 17q98 0 164 -7.5t116 -25.5t77.5 -51t40.5 -80t13 -116q0 -61 -10 -105.5t-32.5 -75t-49.5 -50t-67 -38.5q41 -18 68 -37.5t50 -50t34 -74.5t11 -105q0 -69 -13.5 -116.5t-41.5 -81t-78.5 -52.5t-117.5 -27.5 t-164 -8.5q-122 0 -240.5 17t-184.5 48z" />
<glyph unicode="&#x438;" horiz-adv-x="1135" d="M131 0v1065h211v-700l429 700h233v-1065h-213v703l-430 -703h-230z" />
<glyph unicode="&#x439;" horiz-adv-x="1086" d="M106 0h231l429 703v-703h212v1065h-231l-430 -700v700h-211v-1065zM193 1219l44 88q43 -19 138 -38.5t169.5 -19.5t169.5 19.5t137 38.5l45 -88q-50 -29 -154 -46t-204 -19q-100 3 -199 20t-146 45z" />
<glyph unicode="&#x43a;" horiz-adv-x="1119" d="M122 0v1065h217v-445h94l338 445h247q-17 -22 -171.5 -225t-235.5 -308l301 -358q21 -17 68 -20.5t79 0.5l-19 -154q-50 -8 -97.5 -6t-90.5 14t-89 48.5t-93 97.5l-237 289h-94v-443h-217z" />
<glyph unicode="&#x43b;" horiz-adv-x="1176" d="M49 -11l11 171q33 0 52.5 0.5t42.5 4t36.5 10.5t27.5 19t21.5 30t13 43t7.5 59l49 739h733v-1065h-217v885h-315l-33 -551q-3 -74 -14.5 -127t-34.5 -92t-54.5 -63t-81 -38.5t-106.5 -19.5t-138 -5z" />
<glyph unicode="&#x43c;" horiz-adv-x="1418" d="M131 0v1065h246l261 -634l70 -284l70 284l262 634h245v-1065h-212v650h-5l-245 -650h-229l-246 650h-5v-650h-212z" />
<glyph unicode="&#x43d;" horiz-adv-x="1129" d="M131 0v1065h217v-408h432v408h217v-1065h-217v476h-432v-476h-217z" />
<glyph unicode="&#x43e;" d="M95 533.5q0 100.5 14.5 181t39 138t63.5 99.5t82 67.5t100 40.5t111.5 20.5t123 5.5t123 -5.5t111.5 -20.5t100 -40.5t82 -67.5t64 -99.5t39.5 -138t14.5 -181t-14.5 -181t-39.5 -137.5t-64 -99t-82 -67.5t-100 -41t-111.5 -21t-123 -5.5t-123 5.5t-111.5 21t-100 41 t-82 67.5t-63.5 99t-39 137.5t-14.5 181zM317 534q0 -62 5.5 -112t13.5 -87t24.5 -65.5t30.5 -47t39 -31.5t42.5 -19t49.5 -9.5t51 -4t56 -0.5q36 0 54.5 0.5t50.5 4t49 9.5t42.5 19t39.5 31.5t30.5 47t25 65.5t14 87t5.5 111.5t-5.5 112t-14 87.5t-25.5 65.5t-31 47 t-39.5 31.5t-43 19.5t-49 9.5t-50 3.5t-53.5 0.5h-50.5t-46.5 -2.5t-45 -7.5t-40 -14t-37.5 -23.5t-31 -34t-26.5 -48t-18.5 -63.5t-13 -81.5t-3.5 -101.5z" />
<glyph unicode="&#x43f;" horiz-adv-x="1129" d="M131 0v1065h866v-1065h-217v885h-432v-885h-217z" />
<glyph unicode="&#x440;" horiz-adv-x="986" d="M131 0v1065h430q83 0 140 -5t106.5 -19t79 -37.5t50.5 -62t29.5 -91.5t8.5 -127t-8 -126.5t-29.5 -91t-51 -62t-79 -37t-106.5 -18.5t-140 -5h-211v-383h-219zM350 561h214q40 0 63 1t47 6.5t36.5 15.5t23 27.5t14.5 43.5t4 63v10q0 38 -4 64.5t-14.5 44t-23 28 t-36.5 15.5t-47 6.5t-63 1.5h-214v-327z" />
<glyph unicode="&#x441;" horiz-adv-x="1078" d="M93 532.5q0 99.5 13 178.5t36 136.5t60 100t79 69t99.5 42t116 21.5t132.5 6q233 0 373 -65l-55 -171q-51 16 -83 25.5t-101.5 21.5t-130.5 12q-34 0 -59 -1.5t-54 -6t-50 -13t-43.5 -22.5t-38 -34t-30 -48t-23.5 -64t-14 -83.5t-5 -104.5t5 -104.5t14 -83.5t23.5 -64.5 t30 -48t38 -33.5t43.5 -22t50 -12.5t54 -6t59 -1.5q142 0 332 66l54 -171q-70 -33 -173.5 -53t-215.5 -20q-74 0 -132.5 6t-116 22t-99.5 42.5t-79 68.5t-60 99.5t-36 137t-13 179z" />
<glyph unicode="&#x442;" horiz-adv-x="900" d="M11 888l17 177h878l-17 -177h-332v-888h-218v888h-328z" />
<glyph unicode="&#x443;" horiz-adv-x="1071" d="M45 1065h222l279 -568l15 -79l13 79l242 568h234l-332 -733q-13 -26 -36 -74q-23 -49 -34 -70.5t-31 -56t-33.5 -48t-37 -34.5t-47 -28t-58.5 -16.5t-76 -12t-94 -2.5l9 171q69 0 105 13t61 57z" />
<glyph unicode="&#x444;" horiz-adv-x="1402" d="M45 532.5q0 77.5 7 142t19.5 114.5t33.5 90t45 69t56.5 49.5t66.5 33.5t77.5 21t85.5 10.5t95 2.5q41 0 61 -1v96h219v-96q20 1 61 1q53 0 95 -2.5t85.5 -10.5t77.5 -21t66.5 -33.5t56.5 -49.5t45 -69t33.5 -90t19.5 -114.5t7 -142t-7 -142t-19.5 -115t-33.5 -90 t-45 -68.5t-56.5 -50t-66.5 -33.5t-77.5 -20.5t-85.5 -10.5t-95 -2.5h-61v-95h-219v95h-61q-53 0 -95 2.5t-86 10.5t-77.5 20.5t-66 33.5t-56.5 50t-45 68.5t-33.5 90t-19.5 115t-7 142zM267 532q0 -56 4.5 -102t11.5 -80.5t20 -61.5t25.5 -45t32.5 -31t36.5 -20t42 -10.5 t45 -4.5t49.5 -1q36 0 58 1v709q-20 2 -58 2q-29 0 -49 -1t-45 -5t-42.5 -11t-37 -20t-32 -31t-25 -45t-20 -61.5t-12 -80t-4.5 -101.5zM811 177q18 -1 58 -1q30 0 49.5 1t45 4.5t42.5 10.5t36.5 20t32.5 31t25.5 45t19.5 61.5t11.5 80.5t4.5 102t-4 101.5t-11.5 80 t-20 61.5t-25.5 45t-32.5 31t-36.5 20t-42.5 11t-45.5 5t-49 1q-40 0 -58 -2v-709z" />
<glyph unicode="&#x445;" horiz-adv-x="1154" d="M51 0q155 206 413 557q-212 299 -363 508h271l154 -274q23 -53 55 -156q34 110 54 156l155 274h270q-211 -293 -363 -508q258 -351 413 -557h-271l-204 323q-20 47 -54 157q-32 -103 -55 -157l-204 -323h-271z" />
<glyph unicode="&#x446;" horiz-adv-x="1127" d="M62 0v1065h217v-884h431v884h217v-884h97v-370l-180 -17v206h-782z" />
<glyph unicode="&#x447;" horiz-adv-x="993" d="M15 698v367h224v-372q0 -39 10 -66t25.5 -42t44 -23t55.5 -10.5t71 -2.5q54 0 89.5 6t62.5 23t44 47v440h218v-1065h-218v418q-62 -48 -198 -48q-49 0 -91.5 3.5t-82.5 11.5t-73 21t-62 31.5t-50.5 44t-37.5 57t-23.5 72t-7.5 87.5z" />
<glyph unicode="&#x448;" horiz-adv-x="1545" d="M131 0v1065h217v-884h315v884h217v-884h316v884h217v-1065h-1282z" />
<glyph unicode="&#x449;" horiz-adv-x="1547" d="M58 0v1065h217v-884h315v884h218v-884h315v884h218v-884h96v-370l-180 -17v206h-1199z" />
<glyph unicode="&#x44a;" horiz-adv-x="1208" d="M57 888l16 177h426v-383h211q84 0 141 -5t106.5 -18.5t79 -37t50.5 -62t29.5 -91t8.5 -126.5t-8.5 -126.5t-29.5 -91.5t-50.5 -62.5t-79 -37.5t-106.5 -19t-141 -5h-430v888h-223zM499 177h215q39 0 62 1.5t47.5 7t36.5 15.5t22.5 28t14.5 44t4 64v10q0 32 -3.5 55.5 t-9 40.5t-18 28.5t-24.5 18t-34.5 10t-43 4.5t-54.5 1h-215v-328z" />
<glyph unicode="&#x44b;" horiz-adv-x="1389" d="M131 0v1065h219v-383h211q55 0 97 -2t81.5 -7t68.5 -14.5t55 -22.5t43.5 -32.5t31.5 -44t21.5 -57t11.5 -72t4 -88.5q0 -74 -8.5 -126.5t-29.5 -91.5t-50.5 -62.5t-79 -37.5t-106.5 -19t-140 -5h-430zM350 177h214q34 0 54.5 1t43 4.5t35 10.5t25 18t18 28.5t9 41 t3.5 56.5v10q0 37 -4 63t-14.5 44t-23 28t-36.5 15t-47 6.5t-63 1.5h-214v-328zM1105 0v1065h219v-1065h-219z" />
<glyph unicode="&#x44c;" horiz-adv-x="988" d="M131 0v1065h219v-383h211q55 0 97 -2t81.5 -7t68.5 -14.5t55 -22.5t43.5 -32.5t31.5 -44t21.5 -57t11.5 -72t4 -88.5q0 -74 -8.5 -126.5t-29.5 -91.5t-50.5 -62.5t-79 -37.5t-106.5 -19t-140 -5h-430zM350 177h214q34 0 54.5 1t43 4.5t35 10.5t25 18t18 28.5t9 41 t3.5 56.5v10q0 37 -4 63t-14.5 44t-23 28t-36.5 15t-47 6.5t-63 1.5h-214v-328z" />
<glyph unicode="&#x44d;" horiz-adv-x="1078" d="M60 51l54 171q190 -66 332 -66q41 0 70.5 2t63 9.5t57 21t47 36.5t38.5 56t25.5 81t13.5 109h-568v161h565q-5 53 -17 94.5t-27.5 70.5t-38.5 49.5t-46 32.5t-55 19t-60.5 9t-67.5 2q-61 0 -130.5 -12t-101.5 -21.5t-83 -25.5l-55 171q140 65 374 65q74 0 132 -6 t115.5 -21.5t100 -42t79.5 -69t60 -100t36 -136.5t13 -178.5t-13 -179t-36 -137t-60 -99.5t-79.5 -68.5t-100 -42.5t-115.5 -22t-132 -6q-113 0 -216 20t-174 53z" />
<glyph unicode="&#x44e;" horiz-adv-x="1656" d="M130 0v1065h217v-416h174q7 79 26.5 142t46.5 108.5t65.5 79t80 54t94.5 32.5t104 16.5t113 4.5q69 0 123.5 -5.5t111.5 -20.5t100 -40.5t82 -67.5t64 -99.5t39.5 -138t14.5 -180.5q0 -79 -9 -145t-24.5 -117.5t-39.5 -93t-52 -71.5t-65 -52.5t-74.5 -36.5t-83.5 -22 t-90 -11.5t-97 -3.5q-50 0 -92.5 3t-87.5 11t-81.5 20.5t-72.5 33t-64 48t-53 65t-41.5 84.5t-27.5 107t-13 131h-171v-484h-217zM740 534q0 -62 5.5 -112t13.5 -87t24.5 -65.5t30 -47t39 -31.5t43 -19t49.5 -9.5t51 -4t55 -0.5t54.5 0.5t51 4t49.5 9.5t42.5 19t39.5 31.5 t30.5 47t25 65.5t14 87t5.5 112q0 91 -10.5 157.5t-35.5 106.5t-48 64.5t-66.5 34t-71 11.5t-80.5 2h-49.5t-46.5 -2.5t-45 -7.5t-40 -14t-37.5 -23.5t-31 -34t-27 -48t-18.5 -63.5t-12.5 -81.5t-3.5 -101.5z" />
<glyph unicode="&#x44f;" horiz-adv-x="1109" d="M62 154q3 0 28.5 -1.5t36 -1.5t30 1.5t31.5 7t19 14.5l183 217q-94 11 -146 45t-76 102t-24 185q0 74 8.5 127t29.5 91.5t50.5 62t79 37.5t106.5 19t141 5h430v-1065h-219v383h-132l-188 -229q-50 -60 -96.5 -95.5t-88.5 -48.5t-88.5 -15t-97.5 5zM369 718q0 -37 3.5 -63 t14 -43.5t22.5 -27.5t36.5 -15.5t47.5 -6.5t63 -1h214v327h-214q-40 0 -63 -1.5t-47.5 -6.5t-36.5 -15.5t-22.5 -28t-14 -44t-3.5 -64.5v-10z" />
<glyph unicode="&#x450;" horiz-adv-x="1167" d="M96 519q0 89 9.5 162t28.5 128.5t44 99t60 73.5t73 50.5t86 32.5t96.5 16.5t106.5 4.5q83 0 147.5 -9.5t122 -33t98 -64t70.5 -99.5t44.5 -142.5t14.5 -191.5v-85h-777q3 -56 10.5 -98.5t19.5 -75t31.5 -55t43 -37.5t57.5 -23.5t71 -12t88 -3.5q127 0 338 74l3 1.5t3 1 t3 1t3 0.5l54 -171q-73 -34 -196 -59.5t-233 -25.5q-75 0 -133.5 6t-114 21.5t-96 41.5t-75.5 67t-56 97.5t-33 133.5t-12 174zM320 641h551q-3 49 -10.5 87.5t-18.5 67t-28 48.5t-37 33t-48.5 20.5t-58.5 10t-70 2.5q-38 0 -63.5 -1t-56.5 -7t-51 -17t-41.5 -30.5t-34 -48 t-21.5 -70t-12 -95.5zM468 1350h143l87 -177h-74z" />
<glyph unicode="&#x451;" horiz-adv-x="1167" d="M96 519q0 89 9.5 162t28.5 128.5t44 99t60 73.5t73 50.5t86 32.5t96.5 16.5t106.5 4.5q83 0 147.5 -9.5t122 -33t98 -64t70.5 -99.5t44.5 -142.5t14.5 -191.5v-85h-777q3 -56 10.5 -98.5t19.5 -75t31.5 -55t43 -37.5t57.5 -23.5t71 -12t88 -3.5q127 0 338 74l3 1.5t3 1 t3 1t3 0.5l54 -171q-73 -34 -196 -59.5t-233 -25.5q-75 0 -133.5 6t-114 21.5t-96 41.5t-75.5 67t-56 97.5t-33 133.5t-12 174zM320 641h551q-3 49 -10.5 87.5t-18.5 67t-28 48.5t-37 33t-48.5 20.5t-58.5 10t-70 2.5q-38 0 -63.5 -1t-56.5 -7t-51 -17t-41.5 -30.5t-34 -48 t-21.5 -70t-12 -95.5zM345 1200v204h182v-204h-182zM641 1200v204h182v-204h-182z" />
<glyph unicode="&#x452;" horiz-adv-x="1282" d="M2 888v177h327v119h219v-119h331v-177h-331v-206h260q83 0 140 -5t106.5 -18.5t79 -37t51 -62t29.5 -91t8 -126.5v-342q0 -74 -8 -126.5t-29.5 -91t-51 -62t-79 -37.5t-106.5 -18.5t-140 -4.5l17 177q37 0 58.5 1.5t44 6.5t33.5 15t21 28t13.5 43.5t3.5 63.5v352 q0 37 -4 63t-14.5 44t-23 28t-36.5 15t-47 6.5t-63 1.5h-263v-505h-219v888h-327z" />
<glyph unicode="&#x453;" horiz-adv-x="872" d="M131 0v1065h675l-16 -177h-458v-888h-201zM322 1143l88 177h141q-33 -37 -146 -177h-83z" />
<glyph unicode="&#x454;" horiz-adv-x="1078" d="M93 532.5q0 99.5 13 178.5t36 136.5t60 100t79 69t99.5 42t116 21.5t132.5 6q233 0 373 -65l-55 -171q-51 16 -83 25.5t-101.5 21.5t-130.5 12q-39 0 -68 -2t-61 -9t-55.5 -19t-46.5 -32.5t-38.5 -49.5t-27 -70.5t-17.5 -94.5h568v-161h-569q3 -61 13.5 -109t25 -81 t38.5 -56t47 -36.5t57 -21t63.5 -9.5t70.5 -2q142 0 332 66l54 -171q-70 -33 -173.5 -53t-215.5 -20q-74 0 -132.5 6t-116 22t-99.5 42.5t-79 68.5t-60 99.5t-36 137t-13 179z" />
<glyph unicode="&#x455;" horiz-adv-x="1034" d="M76 63q38 135 52 174q64 -28 177 -52t244 -24q27 0 40.5 0.5t35.5 1.5t33 3t26.5 6.5t23.5 10.5t17.5 15.5t14 22t7.5 29t3 37t-2.5 36t-6 26.5t-13 20t-16.5 14.5t-25 11t-30.5 9t-39.5 9.5q-7 2 -22 5q-86 18 -125 27t-100.5 25t-87 28.5t-64 33.5t-53 43.5t-32 55.5 t-22.5 72.5t-5 91.5q0 93 54 160t140.5 98.5t195.5 31.5q123 0 241.5 -17t183.5 -47l-55 -171q-35 13 -87 25.5t-123.5 22t-134.5 9.5q-103 0 -152 -26t-49 -88q0 -27 0.5 -41.5t5.5 -29t9 -20t19 -13.5t27.5 -12t41.5 -13q4 -2 6 -2q36 -9 93 -21.5t94.5 -21t87.5 -23.5 t83 -30.5t69 -41t56.5 -56.5t34.5 -75.5t15 -99.5q0 -75 -20.5 -130.5t-56.5 -90t-91.5 -55t-117 -28.5t-142.5 -8q-116 0 -250.5 24t-207.5 58z" />
<glyph unicode="&#x456;" horiz-adv-x="480" d="M131 0v1065h219v-1065h-219z" />
<glyph unicode="&#x457;" horiz-adv-x="480" d="M-5 1200v204h182v-204h-182zM131 0v1065h219v-1065h-219zM290 1200v204h183v-204h-183z" />
<glyph unicode="&#x458;" horiz-adv-x="533" d="M0 -8l10 171h38.5t33.5 1.5t29.5 3.5t24 6.5t20 10.5t15 15t12.5 21t8 27.5t5.5 34.5t1.5 43v739h217v-731q0 -74 -8.5 -127t-29.5 -91.5t-51 -62t-79 -37.5t-106.5 -19t-140.5 -5z" />
<glyph unicode="&#x459;" horiz-adv-x="1852" d="M79 -11l11 171q35 0 56 0.5t46 4t39.5 10.5t29.5 19t23 30t14.5 43t8.5 59l33 739h783v-383h260q84 0 141 -5t106.5 -18.5t79 -37t50.5 -62t29.5 -91t8.5 -126.5t-8.5 -126.5t-29.5 -91.5t-50.5 -62.5t-79 -37.5t-106.5 -19t-141 -5h-479v885h-363l-17 -551 q-3 -74 -14.5 -127t-36 -92t-57 -63t-84 -38.5t-110.5 -19.5t-143 -5zM1123 177h264q40 0 62.5 1.5t47 7t37 15.5t23 28t14.5 44t4 64v10q0 37 -4 63t-14.5 44t-23 28t-36.5 15t-47 6.5t-63 1.5h-264v-328z" />
<glyph unicode="&#x45a;" horiz-adv-x="1820" d="M131 0v1065h217v-416h481v416h219v-383h261q84 0 141 -5t106.5 -18.5t78.5 -37t50.5 -62t30 -91t8.5 -126.5t-8.5 -126.5t-30 -91.5t-51 -62.5t-78.5 -37.5t-106.5 -19t-140.5 -5h-480v484h-481v-484h-217zM1048 177h264q40 0 63 1.5t47 7t36.5 15.5t23 28t14 44t3.5 64 v10q0 32 -3 55.5t-9 40.5t-18 28.5t-24.5 18t-35 10t-43 4.5t-54.5 1h-264v-328z" />
<glyph unicode="&#x45b;" horiz-adv-x="1296" d="M25 888v177h327v119h219v-119h331v-177h-331v-206h260q84 0 141 -5t106.5 -18.5t79 -37t50.5 -62t29.5 -91t8.5 -126.5v-342h-224v347q0 37 -3.5 63t-14.5 44t-23 28t-36.5 15t-47.5 6.5t-63 1.5h-263v-505h-219v888h-327z" />
<glyph unicode="&#x45c;" horiz-adv-x="1119" d="M122 0v1065h217v-445h94l338 445h247q-17 -22 -171.5 -225t-235.5 -308l301 -358q21 -17 68 -20.5t79 0.5l-19 -154q-50 -8 -97.5 -6t-90.5 14t-89 48.5t-93 97.5l-237 289h-94v-443h-217zM445 1143l87 177h141q-33 -37 -146 -177h-82z" />
<glyph unicode="&#x45d;" horiz-adv-x="1135" d="M131 0h230l430 703v-703h213v1065h-233l-429 -700v700h-211v-1065zM453 1350h142l89 -177h-75z" />
<glyph unicode="&#x45e;" horiz-adv-x="1049" d="M25 1065h222l279 -568l15 -79l13 79l242 568h234l-332 -733q-13 -26 -36 -74q-23 -49 -34 -70.5t-31 -56t-33.5 -48t-37 -34.5t-47.5 -28t-58.5 -16.5t-75.5 -12t-95 -2.5l11 171q69 0 104 13t61 57zM173 1219l44 88q43 -19 138 -38.5t169 -19.5t169 19.5t138 38.5 l45 -88q-51 -29 -154.5 -46t-203.5 -19q-101 3 -200 20t-145 45z" />
<glyph unicode="&#x45f;" horiz-adv-x="1027" d="M81 0v1065h218v-884h431v884h217v-1065h-335v-287l-196 -17v304h-335z" />
<glyph unicode="&#x490;" horiz-adv-x="755" d="M79 0v1065h475v161l203 17l-2 -355h-458v-888h-218z" />
<glyph unicode="&#x491;" horiz-adv-x="755" d="M79 0v1065h475v161l203 17l-2 -355h-458v-888h-218z" />
<glyph unicode="&#x4c1;" horiz-adv-x="1610" d="M83 0h247l343 451h24v-451h217v451h22l345 -451h247l-409 532l375 533h-247l-313 -453h-20v453h-217v-453h-20l-313 453h-248l375 -533zM576 1358h71q29 -114 152 -114q71 0 110 28t55 86h70q-17 -87 -77 -136t-153 -49q-198 0 -228 185z" />
<glyph unicode="&#x4c2;" horiz-adv-x="1653" d="M30 154q31 -4 78 -0.5t68 20.5l302 358q-44 57 -408 533h247l338 -445h62v445h217v-445h61l339 445h247q-364 -476 -408 -533l302 -358q21 -17 67.5 -20.5t78.5 0.5l-19 -154q-50 -8 -97.5 -6t-90 14t-88.5 48.5t-93 97.5l-238 289h-61v-443h-217v443h-62l-237 -289 q-47 -61 -93 -97.5t-89 -48.5t-90.5 -14t-97.5 6zM597 1358h71q29 -114 153 -114q71 0 110 28t55 86h69q-16 -87 -76 -136t-153 -49q-199 0 -229 185z" />
<glyph unicode="&#x4d0;" horiz-adv-x="1089" d="M46 0l377 1065h242l377 -1065h-239l-93 301h-333l-92 -301h-239zM315 1358h71q29 -114 153 -114q71 0 110 28t54 86h70q-11 -58 -41 -99.5t-78 -63.5t-110 -22q-199 0 -229 185zM424 454h239l-84 277l-30 168h-10l-30 -168z" />
<glyph unicode="&#x4d1;" horiz-adv-x="1163" d="M79 312q0 85 21 149.5t57 106t91 67.5t117.5 36.5t142.5 10.5h262q-3 41 -7 71.5t-12.5 54.5t-17.5 40t-25.5 27.5t-32 18t-42 10t-50.5 4.5t-62 1q-141 0 -323 -63l-55 171q148 69 381 69q71 0 123.5 -4t101 -15t82 -29.5t62.5 -48.5t47 -70t30.5 -96t18 -125t5.5 -159 v-26v-187q0 -79 22.5 -113.5t77.5 -41.5l-19 -173q-72 8 -116.5 26.5t-70.5 52t-38 87.5q-106 -180 -342 -180q-80 0 -142.5 9t-117.5 32t-91 60t-57 94t-21 133zM292 312q0 -39 11 -66.5t28.5 -43.5t47 -25t59 -11.5t71.5 -2.5q67 0 114 14.5t76 40t45 69.5t21.5 92.5 t5.5 119.5v4h-263q-43 0 -72 -3.5t-58.5 -15t-47 -31.5t-28 -55.5t-10.5 -85.5zM353 1358h71q29 -114 154 -114q70 0 109 28t54 86h70q-17 -87 -76.5 -136t-152.5 -49q-199 0 -229 185z" />
<glyph unicode="&#x4d2;" horiz-adv-x="1089" d="M46 0l377 1065h242l377 -1065h-239l-93 301h-333l-92 -301h-239zM305 1230v203h183v-203h-183zM424 454h239l-84 277l-30 168h-10l-30 -168zM600 1230v203h183v-203h-183z" />
<glyph unicode="&#x4d3;" horiz-adv-x="1163" d="M79 312q0 85 21 149.5t57 106t91 67.5t117.5 36.5t142.5 10.5h262q-3 41 -7 71.5t-12.5 54.5t-17.5 40t-25.5 27.5t-32 18t-42 10t-50.5 4.5t-62 1q-141 0 -323 -63l-55 171q148 69 381 69q71 0 123.5 -4t101 -15t82 -29.5t62.5 -48.5t47 -70t30.5 -96t18 -125t5.5 -159 v-26v-187q0 -79 22.5 -113.5t77.5 -41.5l-19 -173q-72 8 -116.5 26.5t-70.5 52t-38 87.5q-106 -180 -342 -180q-80 0 -142.5 9t-117.5 32t-91 60t-57 94t-21 133zM292 312q0 -39 11 -66.5t28.5 -43.5t47 -25t59 -11.5t71.5 -2.5q67 0 114 14.5t76 40t45 69.5t21.5 92.5 t5.5 119.5v4h-263q-43 0 -72 -3.5t-58.5 -15t-47 -31.5t-28 -55.5t-10.5 -85.5zM343 1230v203h183v-203h-183zM638 1230v203h183v-203h-183z" />
<glyph unicode="&#x4d4;" horiz-adv-x="1358" d="M46 0l427 1065h874l-17 -177h-461v-256h337v-161h-337v-292h478l-17 -179h-680v301h-265l-116 -301h-223zM453 451h197v426l-1 6h-11l-62 -152z" />
<glyph unicode="&#x4d5;" horiz-adv-x="1978" d="M79 312q0 83 21 146t57 103.5t91 66t117.5 35.5t142.5 10h312q-2 34 -5.5 61t-10 49t-14 39t-20 30t-24 22t-31 15.5t-37 10.5t-45 6t-52 2.5t-60.5 0.5q-141 0 -323 -63l-55 171q148 69 381 69q93 0 157 -7.5t118 -28t89.5 -57.5t58.5 -94q31 55 75.5 92.5t101 58 t116.5 28.5t135 8q83 0 147.5 -9.5t122 -33t98 -64t70 -99.5t44 -142.5t14.5 -191.5v-60h-828q2 -53 7 -94.5t16 -75t26 -58t38 -42.5t50 -29.5t64 -18t77.5 -9.5t93.5 -3q127 0 339 74q7 3 11 4l55 -171q-72 -34 -195.5 -59.5t-234.5 -25.5q-93 0 -162 9.5t-131 34 t-106 69.5t-72 111q-10 -14 -20 -38q-121 -180 -391 -180q-80 0 -142.5 9t-117.5 32t-91 60t-57 94t-21 133zM292 312q0 -39 11 -66.5t28.5 -43.5t47 -25t59 -11.5t71.5 -2.5q77 0 131.5 14.5t89 39.5t54.5 68t28 92t9 119v-2h-313q-43 0 -72 -3t-58.5 -14t-47 -30.5 t-28 -53.5t-10.5 -81zM1045 649h601q-5 82 -22.5 134t-53 80t-80 37.5t-115.5 9.5q-45 0 -74 -1t-66 -7t-60.5 -16.5t-48.5 -29.5t-40 -46.5t-26.5 -68t-14.5 -92.5z" />
<glyph unicode="&#x4d6;" horiz-adv-x="966" d="M131 0v1065h796l-17 -177h-560v-247h437v-178h-437v-284h577l-17 -179h-779zM254 1358h71q28 -114 153 -114q71 0 110 28t54 86h70q-17 -87 -76.5 -136t-152.5 -49q-199 0 -229 185z" />
<glyph unicode="&#x4d7;" horiz-adv-x="1167" d="M96 519q0 89 9.5 162t28.5 128.5t44 99t60 73.5t73 50.5t86 32.5t96.5 16.5t106.5 4.5q83 0 147.5 -9.5t122 -33t98 -64t70.5 -99.5t44.5 -142.5t14.5 -191.5v-85h-777q3 -56 10.5 -98.5t19.5 -75t31.5 -55t43 -37.5t57.5 -23.5t71 -12t88 -3.5q127 0 338 74l3 1.5t3 1 t3 1t3 0.5l54 -171q-73 -34 -196 -59.5t-233 -25.5q-75 0 -133.5 6t-114 21.5t-96 41.5t-75.5 67t-56 97.5t-33 133.5t-12 174zM320 641h551q-3 49 -10.5 87.5t-18.5 67t-28 48.5t-37 33t-48.5 20.5t-58.5 10t-70 2.5q-38 0 -63.5 -1t-56.5 -7t-51 -17t-41.5 -30.5t-34 -48 t-21.5 -70t-12 -95.5zM355 1358h71q29 -114 153 -114q71 0 110 28t55 86h69q-16 -87 -76 -136t-153 -49q-199 0 -229 185z" />
<glyph unicode="&#x4d8;" horiz-adv-x="1167" d="M96 519v84h776q-3 66 -12 113t-27 81.5t-41.5 55.5t-60 34t-78 17.5t-101.5 4.5q-127 0 -338 -74q-8 -3 -12 -4l-55 171q72 34 196 59t235 25q75 0 133 -6t113.5 -21t96 -41t75.5 -67t56 -97.5t33 -133.5t12 -174q0 -101 -13 -182t-35.5 -140t-57.5 -102.5t-75.5 -70.5 t-94 -43.5t-108 -23t-121.5 -6.5q-83 0 -147 10t-121.5 33.5t-98 63.5t-70.5 99.5t-44.5 143t-14.5 191.5zM322 424q3 -69 16 -116.5t33 -78t54 -47t72.5 -22.5t94.5 -6q39 0 64 1.5t56 7.5t51 16.5t41.5 30.5t34 48.5t22 70t11.5 95.5h-550z" />
<glyph unicode="&#x4d9;" horiz-adv-x="1167" d="M96 519v84h776q-3 66 -12 113t-27 81.5t-41.5 55.5t-60 34t-78 17.5t-101.5 4.5q-127 0 -338 -74q-8 -3 -12 -4l-55 171q72 34 196 59t235 25q75 0 133 -6t113.5 -21t96 -41t75.5 -67t56 -97.5t33 -133.5t12 -174q0 -101 -13 -182t-35.5 -140t-57.5 -102.5t-75.5 -70.5 t-94 -43.5t-108 -23t-121.5 -6.5q-83 0 -147 10t-121.5 33.5t-98 63.5t-70.5 99.5t-44.5 143t-14.5 191.5zM322 424q3 -69 16 -116.5t33 -78t54 -47t72.5 -22.5t94.5 -6q39 0 64 1.5t56 7.5t51 16.5t41.5 30.5t34 48.5t22 70t11.5 95.5h-550z" />
<glyph unicode="&#x4da;" horiz-adv-x="1167" d="M96 519v84h776q-3 66 -12 113t-27 81.5t-41.5 55.5t-60 34t-78 17.5t-101.5 4.5q-127 0 -338 -74q-8 -3 -12 -4l-55 171q72 34 196 59t235 25q75 0 133 -6t113.5 -21t96 -41t75.5 -67t56 -97.5t33 -133.5t12 -174q0 -101 -13 -182t-35.5 -140t-57.5 -102.5t-75.5 -70.5 t-94 -43.5t-108 -23t-121.5 -6.5q-83 0 -147 10t-121.5 33.5t-98 63.5t-70.5 99.5t-44.5 143t-14.5 191.5zM322 424q3 -69 16 -116.5t33 -78t54 -47t72.5 -22.5t94.5 -6q39 0 64 1.5t56 7.5t51 16.5t41.5 30.5t34 48.5t22 70t11.5 95.5h-550zM345 1230v203h182v-203h-182z M641 1230v203h182v-203h-182z" />
<glyph unicode="&#x4db;" horiz-adv-x="1167" d="M96 519v84h776q-3 66 -12 113t-27 81.5t-41.5 55.5t-60 34t-78 17.5t-101.5 4.5q-127 0 -338 -74q-8 -3 -12 -4l-55 171q72 34 196 59t235 25q75 0 133 -6t113.5 -21t96 -41t75.5 -67t56 -97.5t33 -133.5t12 -174q0 -101 -13 -182t-35.5 -140t-57.5 -102.5t-75.5 -70.5 t-94 -43.5t-108 -23t-121.5 -6.5q-83 0 -147 10t-121.5 33.5t-98 63.5t-70.5 99.5t-44.5 143t-14.5 191.5zM322 424q3 -69 16 -116.5t33 -78t54 -47t72.5 -22.5t94.5 -6q39 0 64 1.5t56 7.5t51 16.5t41.5 30.5t34 48.5t22 70t11.5 95.5h-550zM345 1230v203h182v-203h-182z M641 1230v203h182v-203h-182z" />
<glyph unicode="&#x4dc;" horiz-adv-x="1610" d="M83 0h247l343 451h24v-451h217v451h22l345 -451h247l-409 532l375 533h-247l-313 -453h-20v453h-217v-453h-20l-313 453h-248l375 -533zM565 1230v203h183v-203h-183zM861 1230v203h182v-203h-182z" />
<glyph unicode="&#x4dd;" horiz-adv-x="1653" d="M30 154q31 -4 78 -0.5t68 20.5l302 358q-44 57 -408 533h247l338 -445h62v445h217v-445h61l339 445h247q-364 -476 -408 -533l302 -358q21 -17 67.5 -20.5t78.5 0.5l-19 -154q-50 -8 -97.5 -6t-90 14t-88.5 48.5t-93 97.5l-238 289h-61v-443h-217v443h-62l-237 -289 q-47 -61 -93 -97.5t-89 -48.5t-90.5 -14t-97.5 6zM587 1230v203h183v-203h-183zM883 1230v203h182v-203h-182z" />
<glyph unicode="&#x4de;" horiz-adv-x="999" d="M53 46l55 171q55 -19 168 -38t205 -19h48.5t39.5 2t34 6t25.5 11t20 17t12.5 25t8 34.5t2 45.5q0 44 -6.5 72.5t-16 45t-34.5 24t-46.5 9.5t-66.5 2h-267v162h267q35 0 55.5 1.5t42.5 6.5t32.5 14.5t20.5 26t13 41t3 59.5q0 44 -9 71t-32.5 43t-57 21.5t-88.5 5.5 q-92 0 -205 -19.5t-168 -38.5l-55 170q66 31 184.5 48t240.5 17q98 0 164 -7.5t116 -25.5t77.5 -51t40.5 -80t13 -116q0 -61 -10 -105.5t-32.5 -75t-49.5 -50t-67 -38.5q41 -18 68 -37.5t50 -50t34 -74.5t11 -105q0 -69 -13.5 -116.5t-41.5 -81t-78.5 -52.5t-117.5 -27.5 t-164 -8.5q-122 0 -240.5 17t-184.5 48zM261 1230v203h182v-203h-182zM556 1230v203h182v-203h-182z" />
<glyph unicode="&#x4df;" horiz-adv-x="1001" d="M53 46l55 171q55 -19 168 -38t205 -19h48.5t39.5 2t34 6t25.5 11t20 17t12.5 25t8 34.5t2 45.5q0 44 -6.5 72.5t-16 45t-34.5 24t-46.5 9.5t-66.5 2h-267v162h267q35 0 55.5 1.5t42.5 6.5t32.5 14.5t20.5 26t13 41t3 59.5q0 44 -9 71t-32.5 43t-57 21.5t-88.5 5.5 q-92 0 -205 -19.5t-168 -38.5l-55 170q66 31 184.5 48t240.5 17q98 0 164 -7.5t116 -25.5t77.5 -51t40.5 -80t13 -116q0 -61 -10 -105.5t-32.5 -75t-49.5 -50t-67 -38.5q41 -18 68 -37.5t50 -50t34 -74.5t11 -105q0 -69 -13.5 -116.5t-41.5 -81t-78.5 -52.5t-117.5 -27.5 t-164 -8.5q-122 0 -240.5 17t-184.5 48zM262 1230v203h183v-203h-183zM557 1230v203h183v-203h-183z" />
<glyph unicode="&#x4e2;" horiz-adv-x="1135" d="M131 0h230l430 703v-703h213v1065h-233l-429 -700v700h-211v-1065zM340 1236v63h456v-63h-456z" />
<glyph unicode="&#x4e3;" horiz-adv-x="1135" d="M131 0h230l430 703v-703h213v1065h-233l-429 -700v700h-211v-1065zM340 1236v63h456v-63h-456z" />
<glyph unicode="&#x4e4;" horiz-adv-x="1135" d="M131 0h230l430 703v-703h213v1065h-233l-429 -700v700h-211v-1065zM329 1230v203h182v-203h-182zM624 1230v203h182v-203h-182z" />
<glyph unicode="&#x4e5;" horiz-adv-x="1135" d="M131 0h230l430 703v-703h213v1065h-233l-429 -700v700h-211v-1065zM329 1230v203h182v-203h-182zM624 1230v203h182v-203h-182z" />
<glyph unicode="&#x4e6;" d="M95 533.5q0 100.5 14.5 181t39 138t63.5 99.5t82 67.5t100 40.5t111.5 20.5t123 5.5t123 -5.5t111.5 -20.5t100 -40.5t82 -67.5t64 -99.5t39.5 -138t14.5 -181t-14.5 -181t-39.5 -137.5t-64 -99t-82 -67.5t-100 -41t-111.5 -21t-123 -5.5t-123 5.5t-111.5 21t-100 41 t-82 67.5t-63.5 99t-39 137.5t-14.5 181zM317 534q0 -62 5.5 -112t13.5 -87t24.5 -65.5t30.5 -47t39 -31.5t42.5 -19t49.5 -9.5t51 -4t56 -0.5q36 0 54.5 0.5t50.5 4t49 9.5t42.5 19t39.5 31.5t30.5 47t25 65.5t14 87t5.5 111.5t-5.5 112t-14 87.5t-25.5 65.5t-31 47 t-39.5 31.5t-43 19.5t-49 9.5t-50 3.5t-53.5 0.5h-50.5t-46.5 -2.5t-45 -7.5t-40 -14t-37.5 -23.5t-31 -34t-26.5 -48t-18.5 -63.5t-13 -81.5t-3.5 -101.5zM390 1230v203h183v-203h-183zM685 1230v203h183v-203h-183z" />
<glyph unicode="&#x4e7;" d="M95 533.5q0 100.5 14.5 181t39 138t63.5 99.5t82 67.5t100 40.5t111.5 20.5t123 5.5t123 -5.5t111.5 -20.5t100 -40.5t82 -67.5t64 -99.5t39.5 -138t14.5 -181t-14.5 -181t-39.5 -137.5t-64 -99t-82 -67.5t-100 -41t-111.5 -21t-123 -5.5t-123 5.5t-111.5 21t-100 41 t-82 67.5t-63.5 99t-39 137.5t-14.5 181zM317 534q0 -62 5.5 -112t13.5 -87t24.5 -65.5t30.5 -47t39 -31.5t42.5 -19t49.5 -9.5t51 -4t56 -0.5q36 0 54.5 0.5t50.5 4t49 9.5t42.5 19t39.5 31.5t30.5 47t25 65.5t14 87t5.5 111.5t-5.5 112t-14 87.5t-25.5 65.5t-31 47 t-39.5 31.5t-43 19.5t-49 9.5t-50 3.5t-53.5 0.5h-50.5t-46.5 -2.5t-45 -7.5t-40 -14t-37.5 -23.5t-31 -34t-26.5 -48t-18.5 -63.5t-13 -81.5t-3.5 -101.5zM390 1230v203h183v-203h-183zM685 1230v203h183v-203h-183z" />
<glyph unicode="&#x4e8;" d="M95 533.5q0 100.5 14.5 181t39 138t63.5 99.5t82 67.5t100 40.5t111.5 20.5t123 5.5t123 -5.5t111.5 -20.5t100 -40.5t82 -67.5t64 -99.5t39.5 -138t14.5 -181t-14.5 -181t-39.5 -137.5t-64 -99t-82 -67.5t-100 -41t-111.5 -21t-123 -5.5t-123 5.5t-111.5 21t-100 41 t-82 67.5t-63.5 99t-39 137.5t-14.5 181zM317 499q1 -50 5.5 -92t14.5 -74t19.5 -57.5t27 -43.5t30.5 -31t37 -21t39.5 -12.5t44.5 -6.5t45.5 -2.5t48.5 -0.5q34 0 52 0.5t49.5 3.5t48.5 9t42 17.5t38.5 28.5t30.5 42.5t26 59t16 79t8 101.5h-623zM317 574h623 q-2 70 -13 124t-25.5 89.5t-41 60t-47 36.5t-58.5 18.5t-60.5 7t-65.5 0.5q-46 0 -69.5 -0.5t-61.5 -7t-58.5 -19t-46.5 -36.5t-39.5 -59.5t-24 -89t-12.5 -124.5z" />
<glyph unicode="&#x4e9;" d="M95 533.5q0 100.5 14.5 181t39 138t63.5 99.5t82 67.5t100 40.5t111.5 20.5t123 5.5t123 -5.5t111.5 -20.5t100 -40.5t82 -67.5t64 -99.5t39.5 -138t14.5 -181t-14.5 -181t-39.5 -137.5t-64 -99t-82 -67.5t-100 -41t-111.5 -21t-123 -5.5t-123 5.5t-111.5 21t-100 41 t-82 67.5t-63.5 99t-39 137.5t-14.5 181zM317 499q1 -50 5.5 -92t14.5 -74t19.5 -57.5t27 -43.5t30.5 -31t37 -21t39.5 -12.5t44.5 -6.5t45.5 -2.5t48.5 -0.5q34 0 52 0.5t49.5 3.5t48.5 9t42 17.5t38.5 28.5t30.5 42.5t26 59t16 79t8 101.5h-623zM317 574h623 q-2 70 -13 124t-25.5 89.5t-41 60t-47 36.5t-58.5 18.5t-60.5 7t-65.5 0.5q-46 0 -69.5 -0.5t-61.5 -7t-58.5 -19t-46.5 -36.5t-39.5 -59.5t-24 -89t-12.5 -124.5z" />
<glyph unicode="&#x4ea;" d="M95 533.5q0 100.5 14.5 181t39 138t63.5 99.5t82 67.5t100 40.5t111.5 20.5t123 5.5t123 -5.5t111.5 -20.5t100 -40.5t82 -67.5t64 -99.5t39.5 -138t14.5 -181t-14.5 -181t-39.5 -137.5t-64 -99t-82 -67.5t-100 -41t-111.5 -21t-123 -5.5t-123 5.5t-111.5 21t-100 41 t-82 67.5t-63.5 99t-39 137.5t-14.5 181zM317 499q1 -50 5.5 -92t14.5 -74t19.5 -57.5t27 -43.5t30.5 -31t37 -21t39.5 -12.5t44.5 -6.5t45.5 -2.5t48.5 -0.5q34 0 52 0.5t49.5 3.5t48.5 9t42 17.5t38.5 28.5t30.5 42.5t26 59t16 79t8 101.5h-623zM317 574h623 q-2 70 -13 124t-25.5 89.5t-41 60t-47 36.5t-58.5 18.5t-60.5 7t-65.5 0.5q-46 0 -69.5 -0.5t-61.5 -7t-58.5 -19t-46.5 -36.5t-39.5 -59.5t-24 -89t-12.5 -124.5zM390 1230v203h183v-203h-183zM685 1230v203h183v-203h-183z" />
<glyph unicode="&#x4eb;" d="M95 533.5q0 100.5 14.5 181t39 138t63.5 99.5t82 67.5t100 40.5t111.5 20.5t123 5.5t123 -5.5t111.5 -20.5t100 -40.5t82 -67.5t64 -99.5t39.5 -138t14.5 -181t-14.5 -181t-39.5 -137.5t-64 -99t-82 -67.5t-100 -41t-111.5 -21t-123 -5.5t-123 5.5t-111.5 21t-100 41 t-82 67.5t-63.5 99t-39 137.5t-14.5 181zM317 499q1 -50 5.5 -92t14.5 -74t19.5 -57.5t27 -43.5t30.5 -31t37 -21t39.5 -12.5t44.5 -6.5t45.5 -2.5t48.5 -0.5q34 0 52 0.5t49.5 3.5t48.5 9t42 17.5t38.5 28.5t30.5 42.5t26 59t16 79t8 101.5h-623zM317 574h623 q-2 70 -13 124t-25.5 89.5t-41 60t-47 36.5t-58.5 18.5t-60.5 7t-65.5 0.5q-46 0 -69.5 -0.5t-61.5 -7t-58.5 -19t-46.5 -36.5t-39.5 -59.5t-24 -89t-12.5 -124.5zM390 1230v203h183v-203h-183zM685 1230v203h183v-203h-183z" />
<glyph unicode="&#x4ec;" horiz-adv-x="1078" d="M60 51l54 171q190 -66 332 -66q41 0 70.5 2t63 9.5t57 21t47 36.5t38.5 56t25.5 81t13.5 109h-568v161h565q-5 53 -17 94.5t-27.5 70.5t-38.5 49.5t-46 32.5t-55 19t-60.5 9t-67.5 2q-61 0 -130.5 -12t-101.5 -21.5t-83 -25.5l-55 171q140 65 374 65q74 0 132 -6 t115.5 -21.5t100 -42t79.5 -69t60 -100t36 -136.5t13 -178.5t-13 -179t-36 -137t-60 -99.5t-79.5 -68.5t-100 -42.5t-115.5 -22t-132 -6q-113 0 -216 20t-174 53zM301 1230v203h182v-203h-182zM595 1230v203h183v-203h-183z" />
<glyph unicode="&#x4ed;" horiz-adv-x="1078" d="M60 51l54 171q190 -66 332 -66q41 0 70.5 2t63 9.5t57 21t47 36.5t38.5 56t25.5 81t13.5 109h-568v161h565q-5 53 -17 94.5t-27.5 70.5t-38.5 49.5t-46 32.5t-55 19t-60.5 9t-67.5 2q-61 0 -130.5 -12t-101.5 -21.5t-83 -25.5l-55 171q140 65 374 65q74 0 132 -6 t115.5 -21.5t100 -42t79.5 -69t60 -100t36 -136.5t13 -178.5t-13 -179t-36 -137t-60 -99.5t-79.5 -68.5t-100 -42.5t-115.5 -22t-132 -6q-113 0 -216 20t-174 53zM301 1230v203h182v-203h-182zM595 1230v203h183v-203h-183z" />
<glyph unicode="&#x4ee;" horiz-adv-x="1071" d="M45 1065h222l279 -568l15 -79l13 79l242 568h234l-332 -733q-13 -26 -36 -74q-23 -49 -34 -70.5t-31 -56t-33.5 -48t-37 -34.5t-47 -28t-58.5 -16.5t-76 -12t-94 -2.5l9 171q69 0 105 13t61 57zM307 1236v63h456v-63h-456z" />
<glyph unicode="&#x4ef;" horiz-adv-x="1071" d="M45 1065h222l279 -568l15 -79l13 79l242 568h234l-332 -733q-13 -26 -36 -74q-23 -49 -34 -70.5t-31 -56t-33.5 -48t-37 -34.5t-47 -28t-58.5 -16.5t-76 -12t-94 -2.5l9 171q69 0 105 13t61 57zM307 1236v63h456v-63h-456z" />
<glyph unicode="&#x4f0;" horiz-adv-x="1071" d="M45 1065h222l279 -568l15 -79l13 79l242 568h234l-332 -733q-13 -26 -36 -74q-23 -49 -34 -70.5t-31 -56t-33.5 -48t-37 -34.5t-47 -28t-58.5 -16.5t-76 -12t-94 -2.5l9 171q69 0 105 13t61 57zM297 1230v203h183v-203h-183zM592 1230v203h182v-203h-182z" />
<glyph unicode="&#x4f1;" horiz-adv-x="1071" d="M45 1065h222l279 -568l15 -79l13 79l242 568h234l-332 -733q-13 -26 -36 -74q-23 -49 -34 -70.5t-31 -56t-33.5 -48t-37 -34.5t-47 -28t-58.5 -16.5t-76 -12t-94 -2.5l9 171q69 0 105 13t61 57zM297 1230v203h183v-203h-183zM592 1230v203h182v-203h-182z" />
<glyph unicode="&#x4f2;" horiz-adv-x="1071" d="M45 1065h222l279 -568l15 -79l13 79l242 568h234l-332 -733q-13 -26 -36 -74q-23 -49 -34 -70.5t-31 -56t-33.5 -48t-37 -34.5t-47 -28t-58.5 -16.5t-76 -12t-94 -2.5l9 171q69 0 105 13t61 57zM277 1173l88 177h141q-43 -49 -146 -177h-83zM565 1173l89 177h141 q-33 -37 -146 -177h-84z" />
<glyph unicode="&#x4f3;" horiz-adv-x="1071" d="M45 1065h222l279 -568l15 -79l13 79l242 568h234l-332 -733q-13 -26 -36 -74q-23 -49 -34 -70.5t-31 -56t-33.5 -48t-37 -34.5t-47 -28t-58.5 -16.5t-76 -12t-94 -2.5l9 171q69 0 105 13t61 57zM277 1173l88 177h141q-43 -49 -146 -177h-83zM565 1173l89 177h141 q-33 -37 -146 -177h-84z" />
<glyph unicode="&#x4f4;" horiz-adv-x="993" d="M15 698v367h224v-372q0 -39 10 -66t25.5 -42t44 -23t55.5 -10.5t71 -2.5q54 0 89.5 6t62.5 23t44 47v440h218v-1065h-218v418q-62 -48 -198 -48q-49 0 -91.5 3.5t-82.5 11.5t-73 21t-62 31.5t-50.5 44t-37.5 57t-23.5 72t-7.5 87.5zM257 1230v203h183v-203h-183z M552 1230v203h183v-203h-183z" />
<glyph unicode="&#x4f5;" horiz-adv-x="993" d="M15 698v367h224v-372q0 -39 10 -66t25.5 -42t44 -23t55.5 -10.5t71 -2.5q54 0 89.5 6t62.5 23t44 47v440h218v-1065h-218v418q-62 -48 -198 -48q-49 0 -91.5 3.5t-82.5 11.5t-73 21t-62 31.5t-50.5 44t-37.5 57t-23.5 72t-7.5 87.5zM257 1230v203h183v-203h-183z M552 1230v203h183v-203h-183z" />
<glyph unicode="&#x4f8;" horiz-adv-x="1389" d="M131 0v1065h219v-383h211q55 0 97 -2t81.5 -7t68.5 -14.5t55 -22.5t43.5 -32.5t31.5 -44t21.5 -57t11.5 -72t4 -88.5q0 -74 -8.5 -126.5t-29.5 -91.5t-50.5 -62.5t-79 -37.5t-106.5 -19t-140 -5h-430zM350 177h214q34 0 54.5 1t43 4.5t35 10.5t25 18t18 28.5t9 41 t3.5 56.5v10q0 37 -4 63t-14.5 44t-23 28t-36.5 15t-47 6.5t-63 1.5h-214v-328zM456 1230v203h182v-203h-182zM752 1230v203h182v-203h-182zM1105 0v1065h219v-1065h-219z" />
<glyph unicode="&#x4f9;" horiz-adv-x="1389" d="M131 0v1065h219v-383h211q55 0 97 -2t81.5 -7t68.5 -14.5t55 -22.5t43.5 -32.5t31.5 -44t21.5 -57t11.5 -72t4 -88.5q0 -74 -8.5 -126.5t-29.5 -91.5t-50.5 -62.5t-79 -37.5t-106.5 -19t-140 -5h-430zM350 177h214q34 0 54.5 1t43 4.5t35 10.5t25 18t18 28.5t9 41 t3.5 56.5v10q0 37 -4 63t-14.5 44t-23 28t-36.5 15t-47 6.5t-63 1.5h-214v-328zM456 1230v203h182v-203h-182zM752 1230v203h182v-203h-182zM1105 0v1065h219v-1065h-219z" />
<glyph unicode="&#x2000;" horiz-adv-x="716" />
<glyph unicode="&#x2001;" horiz-adv-x="1433" />
<glyph unicode="&#x2002;" horiz-adv-x="716" />
<glyph unicode="&#x2003;" horiz-adv-x="1433" />
<glyph unicode="&#x2004;" horiz-adv-x="477" />
<glyph unicode="&#x2005;" horiz-adv-x="358" />
<glyph unicode="&#x2006;" horiz-adv-x="238" />
<glyph unicode="&#x2007;" horiz-adv-x="238" />
<glyph unicode="&#x2008;" horiz-adv-x="179" />
<glyph unicode="&#x2009;" horiz-adv-x="286" />
<glyph unicode="&#x200a;" horiz-adv-x="79" />
<glyph unicode="&#x2010;" horiz-adv-x="671" d="M131 301v170h405v-170h-405z" />
<glyph unicode="&#x2011;" horiz-adv-x="671" d="M131 301v170h405v-170h-405z" />
<glyph unicode="&#x2012;" horiz-adv-x="671" d="M131 301v170h405v-170h-405z" />
<glyph unicode="&#x2013;" horiz-adv-x="1132" d="M131 348v75h869v-75h-869z" />
<glyph unicode="&#x2014;" horiz-adv-x="1518" d="M131 348v75h1257v-75h-1257z" />
<glyph unicode="&#x2018;" horiz-adv-x="293" d="M36 770v221q0 49 16 87t47 66t80 47l55 -61q-42 -17 -62 -54t-25 -102h84v-204h-195z" />
<glyph unicode="&#x2019;" horiz-adv-x="293" d="M65 730q42 17 61.5 53.5t24.5 102.5h-83v204h194v-221q0 -74 -35 -123t-108 -78z" />
<glyph unicode="&#x201a;" horiz-adv-x="293" d="M70 -156q42 17 61.5 54t24.5 102h-83v204h194v-220q0 -75 -35 -123.5t-107 -77.5z" />
<glyph unicode="&#x201c;" horiz-adv-x="595" d="M36 770v221q0 49 16 87t47 66t80 47l55 -61q-42 -17 -62 -54t-25 -102h84v-204h-195zM352 770v221q0 49 15.5 87t47 66t79.5 47l55 -61q-28 -12 -46 -32.5t-27.5 -50.5t-12.5 -73h83v-204h-194z" />
<glyph unicode="&#x201d;" horiz-adv-x="596" d="M36 831q42 17 62 54t25 102h-83v204h194v-221q0 -49 -15.5 -87.5t-47 -66t-79.5 -46.5zM352 831q41 17 61 54t25 102h-83v204h194v-221q0 -74 -35 -123t-107 -77z" />
<glyph unicode="&#x201e;" horiz-adv-x="596" d="M70 -156q42 17 61.5 54t24.5 102h-83v204h194v-220q0 -75 -35 -123.5t-107 -77.5zM365 -156q42 17 61.5 53.5t24.5 102.5h-82v204h193v-220q0 -75 -35 -123.5t-107 -77.5z" />
<glyph unicode="&#x2026;" horiz-adv-x="1474" d="M131 0v122h127v-122h-127zM671 0v122h128v-122h-128zM1213 0v122h129v-122h-129z" />
<glyph unicode="&#x202f;" horiz-adv-x="286" />
<glyph unicode="&#x205f;" horiz-adv-x="358" />
<glyph unicode="&#x20ac;" horiz-adv-x="1189" d="M43 352l17 91h138q-2 28 -2 89q0 62 2 90h-155l17 93h149q15 91 47.5 157.5t77 107.5t108.5 65t132 32.5t157 8.5q234 0 374 -65l-55 -171q-38 12 -60 18.5t-68 18t-93 17t-94 5.5q-40 0 -69.5 -2.5t-62 -9t-56.5 -20t-46 -34t-38 -53t-26 -75.5h388l-17 -93h-387 q-3 -57 -3 -90q0 -62 3 -89h404l-17 -91h-373q12 -53 34.5 -89.5t48 -57t63.5 -32t71.5 -14.5t82.5 -3q142 0 332 66l54 -171q-71 -33 -174 -53t-216 -20q-89 0 -157 9t-132 33t-108.5 65t-77 108t-47.5 159h-166z" />
<glyph unicode="&#x2122;" horiz-adv-x="1210" d="M33 986l8 79h439l-9 -79h-174v-454h-93v454h-171zM543 532v533h122l131 -350l35 -99l35 99l131 350h122v-533h-89v400h-1l-149 -400h-97l-148 400h-3v-400h-89z" />
<glyph unicode="&#x25fc;" horiz-adv-x="1061" d="M0 0v1062h1062v-1062h-1062z" />
</font>
</defs>
</svg>
