<?xml version="1.0" standalone="no"?>
<!DOCTYPE svg PUBLIC "-//W3C//DTD SVG 1.1//EN" "http://www.w3.org/Graphics/SVG/1.1/DTD/svg11.dtd" >
<svg xmlns="http://www.w3.org/2000/svg" xmlns:xlink="http://www.w3.org/1999/xlink" version="1.1">
<metadata></metadata>
<defs>
<font id="gogoiadeco" horiz-adv-x="572" >
<font-face units-per-em="2048" ascent="1536" descent="-512" />
<missing-glyph horiz-adv-x="375" />
<glyph horiz-adv-x="0" />
<glyph horiz-adv-x="0" />
<glyph unicode="&#xd;" horiz-adv-x="375" />
<glyph unicode=" "  horiz-adv-x="375" />
<glyph unicode="&#x09;" horiz-adv-x="375" />
<glyph unicode="&#xa0;" horiz-adv-x="375" />
<glyph unicode="!" horiz-adv-x="178" d="M38 52q0 20 15 34.5t36.5 14.5t36.5 -14.5t15 -34.5q0 -22 -15 -37t-36.5 -15t-36.5 15t-15 37zM56 232v796q0 14 10 23.5t23.5 9.5t23.5 -9.5t10 -23.5v-796q0 -14 -10 -24t-23.5 -10t-23.5 10t-10 24z" />
<glyph unicode="&#x22;" horiz-adv-x="325" d="M61 1020q0 17 12 29t30 12q11 0 20.5 -5.5t15 -15t5.5 -20.5l-6 -156q0 -14 -10.5 -24t-24.5 -10q-10 0 -18.5 4.5t-13 12t-4.5 17.5zM182 1020q0 17 12 29t30 12q17 0 29 -12t12 -29l-6 -156q0 -14 -10.5 -24t-24.5 -10q-15 0 -25.5 10t-10.5 24z" />
<glyph unicode="#" horiz-adv-x="639" d="M92 230q0 14 10 23.5t24 9.5h82v537h-82q-14 0 -24 9.5t-10 23.5t10 24t24 10h82v161q0 14 9.5 23.5t23.5 9.5t24 -9.5t10 -23.5v-161h114v161q0 14 10 23.5t23.5 9.5t23.5 -9.5t10 -23.5v-161h82q14 0 23.5 -10t9.5 -24t-9.5 -23.5t-23.5 -9.5h-82v-537h82 q14 0 23.5 -9.5t9.5 -23.5t-9.5 -23.5t-23.5 -9.5h-82v-164q0 -14 -10 -23.5t-23.5 -9.5t-23.5 9.5t-10 23.5v164h-114v-164q0 -14 -10 -23.5t-24 -9.5t-23.5 9.5t-9.5 23.5v164h-82q-14 0 -24 9.5t-10 23.5zM275 263h114v537h-114v-537z" />
<glyph unicode="$" horiz-adv-x="496" d="M53 211q0 14 10 23.5t23.5 9.5t23.5 -9.5t10 -23.5q0 -48 30.5 -82t78.5 -41v494q-78 28 -123 84.5t-45 123.5v46q0 71 48.5 123.5t119.5 58.5v58q0 13 8 20t19 7q7 0 13 -2.5t10 -9t4 -15.5v-59q44 -8 79 -33.5t55 -64.5t20 -83q0 -14 -10 -23.5t-24 -9.5t-23.5 9.5 t-9.5 23.5q0 40 -24.5 71.5t-62.5 41.5v-316q73 -28 117 -86t44 -126v-210q0 -46 -21 -86.5t-57.5 -67t-82.5 -34.5v-59q0 -13 -8 -20.5t-19 -7.5t-19 7.5t-8 20.5v57q-75 7 -125.5 61t-50.5 129zM127 790q0 -42 27.5 -77.5t74.5 -57.5v297q-44 -7 -73 -39.5t-29 -76.5v-46z M283 91q42 11 68 44.5t26 75.5v210q0 41 -25.5 79t-68.5 61v-470z" />
<glyph unicode="%" horiz-adv-x="458" d="M17 23q-5 -16 3.5 -27t23.5 -11q19 0 26 19l373 1034q5 16 -4 27t-22 11q-18 0 -25 -18zM58 953q0 29 14 54t39 39.5t54 14.5q44 0 76 -31.5t32 -76t-32 -76t-76 -31.5q-29 0 -54 14.5t-39 39t-14 53.5zM115 953q0 -13 7 -24.5t18.5 -18t24.5 -6.5q21 0 35.5 14.5 t14.5 35t-14.5 35t-35 14.5t-35.5 -14.5t-15 -35.5zM188 107.5q0 44.5 31.5 76t76 31.5t76 -31.5t31.5 -76t-31.5 -76t-76 -31.5t-76 31.5t-31.5 76zM246 107.5q0 -20.5 14.5 -35t35 -14.5t35.5 14.5t15 35t-15 35.5t-35.5 15t-35 -15t-14.5 -35.5z" />
<glyph unicode="&#x26;" horiz-adv-x="918" d="M61 346q0 136 90 238t223 119l-14 20l-1 3q-38 56 -38 124q0 94 66.5 160t159.5 66t159.5 -66.5t66.5 -159.5t-66.5 -159t-159.5 -66q-13 0 -39 3l209 -296v136q0 17 9 25.5t21 8.5q8 0 15 -3.5t11.5 -11.5t4.5 -19v-170q0 -20 -5 -46l139 -199q6 -8 6 -20q0 -13 -10 -23 t-24 -10q-16 0 -26 15l-112 161q-45 -83 -133 -137t-192 -54q-98 0 -181 48.5t-131 131.5t-48 181zM127 346q0 -122 86.5 -208t207.5 -86q92 0 174 50.5t109 129.5l-284 407q-80 0 -147.5 -39.5t-106.5 -107t-39 -146.5zM388 850q0 -66 46.5 -112.5t112.5 -46.5t112.5 46.5 t46.5 112.5q0 49 -26.5 89t-70.5 59q19 -21 19 -54q0 -30 -15 -54.5t-41.5 -39t-60.5 -14.5q-13 0 -23.5 10.5t-10.5 24t10.5 23.5t23.5 10q15 0 26 6t17.5 18t6.5 28q0 29 -19 41t-51 3q-42 -13 -72.5 -55t-30.5 -95z" />
<glyph unicode="'" horiz-adv-x="204" d="M61 1020q0 17 12 29t30 12q11 0 20.5 -5.5t15 -15t5.5 -20.5l-6 -156q0 -14 -10.5 -24t-24.5 -10q-10 0 -18.5 4.5t-13 12t-4.5 17.5z" />
<glyph unicode="(" horiz-adv-x="334" d="M98 117v827q0 76 55.5 130t132.5 54q14 0 24 -10t10 -23.5t-10 -23.5t-24 -10q-50 0 -85.5 -34t-35.5 -83v-827q0 -49 35.5 -83t85.5 -34q14 0 24 -9.5t10 -23.5t-10 -24t-24 -10q-77 0 -132.5 54t-55.5 130z" />
<glyph unicode=")" horiz-adv-x="334" d="M15 -33q0 14 10 23.5t24 9.5q50 0 85 34t35 83v827q0 49 -35 83t-85 34q-14 0 -24 10t-10 23q0 10 4.5 17.5t12.5 12t17 4.5q77 0 132 -54t55 -130v-827q0 -76 -55 -130t-132 -54q-14 0 -24 10t-10 24z" />
<glyph unicode="*" horiz-adv-x="375" d="M47 1003q3 13 14.5 18t23.5 2l73 -24v77q0 13 8.5 21.5t21.5 8.5t21.5 -8.5t8.5 -21.5v-77l73 24q12 3 23 -2t15 -18q4 -11 -1.5 -22.5t-18.5 -14.5l-73 -23l46 -62q7 -9 5 -22t-12 -21q-9 -7 -22 -5t-20 13l-45 62l-45 -62q-7 -11 -20 -13t-22 5q-10 8 -12 21t5 22 l45 62l-72 23q-13 3 -19 14.5t-1 22.5z" />
<glyph unicode="+" horiz-adv-x="626" d="M45 379q0 14 10 23.5t23 9.5h202v198q0 14 10 24t24 10t23.5 -10t9.5 -24v-198h201q14 0 24 -9.5t10 -23.5t-10 -23.5t-24 -9.5h-201v-205q0 -14 -9.5 -24t-23.5 -10t-24 10t-10 24v205h-202q-13 0 -23 9.5t-10 23.5z" />
<glyph unicode="," horiz-adv-x="269" d="M75 50q0 23 15 37t39 14q23 0 36.5 -13.5t13.5 -35.5q0 -9 -7 -29l-31 -98q-7 -23 -29 -23q-14 0 -23.5 10.5t-4.5 26.5l16 70q-25 13 -25 41z" />
<glyph unicode="-" horiz-adv-x="428" d="M0 379q0 14 9.5 23.5t23.5 9.5h363q14 0 23.5 -9.5t9.5 -23.5t-9.5 -23.5t-23.5 -9.5h-363q-14 0 -23.5 9.5t-9.5 23.5z" />
<glyph unicode="." horiz-adv-x="178" d="M38 52q0 20 15 34.5t36.5 14.5t36.5 -14.5t15 -34.5q0 -22 -15 -37t-36.5 -15t-36.5 15t-15 37z" />
<glyph unicode="/" horiz-adv-x="525" d="M75 27q-4 -15 5.5 -28.5t26.5 -13.5q24 0 31 22l323 1028q5 17 -5.5 29t-26.5 12q-22 0 -29 -23z" />
<glyph unicode="0" horiz-adv-x="490" d="M58 168v724q0 50 25 92.5t68.5 67t94.5 24.5q77 0 132.5 -54t55.5 -130v-724q0 -76 -55.5 -129.5t-133 -53.5t-132.5 53.5t-55 129.5zM124 168q0 -49 35.5 -82.5t86 -33.5t86 33.5t35.5 82.5v724q0 32 -9.5 57t-26 38t-37.5 13q-26 0 -41 -12.5t-15 -34.5 q0 -25 13.5 -38.5t36.5 -13.5q13 0 23 -10.5t10 -24t-10 -23.5t-23 -10q-52 0 -84.5 31t-32.5 77q0 41 26 59q-32 -14 -52.5 -43.5t-20.5 -64.5v-724z" />
<glyph unicode="1" horiz-adv-x="313" d="M61 926.5q0 14.5 9 23.5l99 106q12 11 25 11t23 -9t10 -24v-1001q0 -14 -9.5 -23.5t-23.5 -9.5t-23.5 9.5t-9.5 23.5v917l-43 -45q-8 -9 -23 -9t-24 8q-10 8 -10 22.5z" />
<glyph unicode="2" horiz-adv-x="484" d="M62 44l236 700q11 35 -1.5 60t-40.5 25q-30 0 -44 -29q-5 -13 -17.5 -17.5t-26.5 1.5q-12 4 -16.5 16.5t0.5 25.5q15 32 43 50.5t61 18.5q19 0 35 -6t28 -16.5t18 -25.5q10 36 10 71q0 37 -19.5 64t-62.5 27q-40 0 -68 -26t-29 -65q0 -13 -9.5 -22t-23.5 -9t-24 9.5 t-10 23.5q0 65 49 110.5t116 45.5q64 0 106 -43.5t42 -114.5q0 -42 -12 -78l-263 -773h227q15 0 24 -9.5t9 -24.5q0 -13 -9.5 -23t-23.5 -10h-272q-17 0 -27 14t-5 30z" />
<glyph unicode="3" horiz-adv-x="496" d="M53 176q0 14 10 23.5t23.5 9.5t23.5 -9.5t10 -23.5q0 -52 37 -88t92 -36q78 0 110 43q-17 -11 -36 -11q-47 0 -77.5 32t-30.5 84q0 13 10 23t23.5 10t23.5 -10t10 -23q0 -23 14 -36.5t39 -13.5q42 0 42 54v228q0 56 -35.5 90t-92.5 34h-81q-14 0 -23.5 10t-9.5 24 t9.5 23.5t23.5 9.5h81q54 0 87.5 32t33.5 84v153q0 49 -35.5 83t-85.5 34q-25 0 -47.5 -9t-39 -24.5t-26 -37.5t-9.5 -46q0 -13 -9.5 -23t-23.5 -10t-23.5 10t-9.5 23q0 77 54.5 130.5t133.5 53.5q77 0 132.5 -54t55.5 -130v-153q0 -31 -13.5 -61.5t-39 -54t-57.5 -32.5 q49 -15 83 -61.5t34 -97.5v-256q0 -79 -57.5 -135t-137.5 -56q-82 0 -139 56t-57 135z" />
<glyph unicode="4" horiz-adv-x="549" d="M75 699v329q0 14 10 23.5t24 9.5q9 0 17 -4.5t12.5 -12t4.5 -16.5v-329q0 -22 16 -38t38 -16h30q-22 21 -27 49t5.5 53.5t40 43t72.5 17.5q13 0 23.5 -10t10.5 -23.5t-10.5 -23.5t-23.5 -10q-23 0 -36 -15t-13 -33t13 -33t36 -15h67v383q0 14 9.5 23.5t23.5 9.5 t23.5 -9.5t9.5 -23.5v-995q0 -5 -1.5 -10t-4.5 -9.5t-7 -7.5t-9 -4.5t-11 -1.5q-14 0 -23.5 9.5t-9.5 23.5v546h-188q-50 0 -86 35t-36 85z" />
<glyph unicode="5" horiz-adv-x="586" d="M98 201q0 14 9.5 24t24.5 10q14 0 23.5 -10t9.5 -24q0 -55 40 -94.5t95 -39.5q57 0 97 39.5t40 94.5v357q0 55 -39 94t-94.5 39t-95 -39t-39.5 -94q0 -14 -9.5 -24.5t-23.5 -10.5t-23.5 10.5t-9.5 24.5v470q0 14 9.5 23.5t23.5 9.5h204q47 0 80.5 -34t33.5 -81 q0 -48 -33.5 -82t-80.5 -34q-14 0 -24 10t-10 23.5t10 23.5t24 10q20 0 34 14t14 35q0 19 -14 33.5t-34 14.5h-171v-297q53 61 143 61q77 0 134 -59.5t57 -140.5v-357q0 -84 -59 -142.5t-143.5 -58.5t-143.5 58.5t-59 142.5z" />
<glyph unicode="6" d="M98 168v724q0 76 55.5 130t132.5 54q79 0 133.5 -53.5t54.5 -130.5q0 -13 -9.5 -23t-23.5 -10t-23.5 10t-9.5 23q0 49 -35.5 83t-86.5 34q-50 0 -85.5 -34t-35.5 -83v-193q47 59 121 59q78 0 133 -54t55 -130v-406q0 -76 -55 -129.5t-132.5 -53.5t-133 53.5t-55.5 129.5z M165 168q0 -49 35.5 -82.5t86 -33.5t86 33.5t35.5 82.5v406q0 35 -20.5 64.5t-52.5 43.5q25 -17 25 -59q0 -46 -32 -77t-84 -31q-13 0 -23 10t-10 23.5t10 23.5t23 10q12 0 21 3.5t15.5 10.5t10 17t3.5 22q0 22 -15 34.5t-41 12.5q-32 0 -52.5 -29.5t-20.5 -78.5v-406z" />
<glyph unicode="7" horiz-adv-x="566" d="M75 947.5q0 46.5 34 80t80 33.5h275q20 0 29 -12t4 -32l-234 -994q-6 -23 -30 -23q-17 0 -28 11t-7 28l225 955h-234q-19 0 -32.5 -13.5t-13.5 -33t13.5 -33t32.5 -13.5q14 0 24 -10.5t10 -24t-10 -23.5t-24 -10q-46 0 -80 34t-34 80.5z" />
<glyph unicode="8" horiz-adv-x="587" d="M98 176q0 -79 57.5 -135t138 -56t138.5 56t58 135v256q0 51 -34 97.5t-83 61.5q48 14 78.5 57t30.5 91v153q0 50 -25.5 92.5t-69 67t-93.5 24.5q-78 0 -133 -54t-55 -130v-153q0 -31 13 -61.5t38.5 -54t57.5 -32.5q-49 -15 -83 -61.5t-34 -97.5v-256zM165 176v256 q0 56 35.5 90t93 34t93.5 -34t36 -90v-256q0 -51 -38 -87.5t-91 -36.5t-91 36.5t-38 87.5zM172 739v153q0 35 21 64.5t53 43.5q-26 -18 -26 -59q0 -46 32.5 -77t84.5 -31q13 0 23 10t10 23.5t-10 24t-23 10.5q-23 0 -37 13.5t-14 38.5q0 22 15.5 34.5t41.5 12.5 q32 0 52 -29.5t20 -78.5v-153q0 -52 -33.5 -84t-88 -32t-88 32t-33.5 84z" />
<glyph unicode="9" d="M98 168q0 -76 55 -129.5t133 -53.5t133 53.5t55 129.5v724q0 76 -55 130t-132.5 54t-133 -54t-55.5 -130v-406q0 -76 55.5 -129.5t132.5 -53.5t122 66v-201q0 -49 -35.5 -82.5t-86.5 -33.5q-25 0 -47.5 9t-38.5 24.5t-25.5 37t-9.5 45.5q0 14 -9.5 23.5t-23.5 9.5 t-24 -9.5t-10 -23.5zM165 486v406q0 49 20.5 78.5t52.5 29.5q26 0 41 -12.5t15 -34.5q0 -25 -13.5 -38.5t-36.5 -13.5q-13 0 -23 -10.5t-10 -24t10 -23.5t23 -10q52 0 84 31t32 77q0 42 -25 59q16 -6 29.5 -17.5t23 -25.5t15 -30.5t5.5 -34.5v-406q0 -49 -37 -82.5 t-84.5 -33.5t-84.5 33.5t-37 82.5z" />
<glyph unicode=":" horiz-adv-x="178" d="M38 52q0 20 15 34.5t36.5 14.5t36.5 -14.5t15 -34.5q0 -22 -15 -37t-36.5 -15t-36.5 15t-15 37zM38 532q0 21 15 35.5t36.5 14.5t36.5 -14.5t15 -35.5q0 -22 -15 -37t-36.5 -15t-36.5 15t-15 37z" />
<glyph unicode=";" horiz-adv-x="181" d="M38 50q0 23 14.5 37t38.5 14q23 0 36.5 -13t13.5 -36q0 -11 -6 -29l-32 -98q-7 -23 -29 -23q-15 0 -24 10.5t-5 26.5l17 70q-24 13 -24 41zM38 532q0 21 15 35.5t36.5 14.5t36.5 -14.5t15 -35.5q0 -22 -15 -37t-36.5 -15t-36.5 15t-15 37z" />
<glyph unicode="&#x3c;" horiz-adv-x="310" d="M20 364q-10 15 0 33l198 344q11 17 28 17q11 0 21 -7.5t13 -18.5t-4 -25l-189 -328l189 -329q11 -18 -0.5 -34t-29.5 -16q-17 0 -28 17z" />
<glyph unicode="=" horiz-adv-x="751" d="M165 283.5q0 13.5 9.5 23.5t23.5 10h363q14 0 23.5 -10t9.5 -23.5t-9.5 -23.5t-23.5 -10h-363q-14 0 -23.5 10t-9.5 23.5zM165 474q0 14 9.5 24t23.5 10h363q14 0 23.5 -10t9.5 -24t-9.5 -23.5t-23.5 -9.5h-363q-14 0 -23.5 9.5t-9.5 23.5z" />
<glyph unicode="&#x3e;" horiz-adv-x="310" d="M35 50l189 329l-189 328q-11 19 0.5 35t29.5 16q17 0 27 -17l199 -344q10 -18 0 -33l-199 -347q-10 -17 -27 -17q-18 0 -29.5 16t-0.5 34z" />
<glyph unicode="?" horiz-adv-x="558" d="M61 861q0 88 63 151.5t152 63.5t152 -63.5t63 -151.5q0 -54 -24.5 -100.5t-67 -76.5t-94.5 -37v-415q0 -14 -10 -24t-23.5 -10t-23.5 10t-10 24v447q0 14 10 24t24 10h4q62 0 105 43t43 104.5t-43 105t-105 43.5t-105.5 -43.5t-43.5 -104.5q0 -14 -9.5 -24t-23.5 -10 t-23.5 10t-9.5 24zM220 52q0 20 15 34.5t36.5 14.5t36.5 -14.5t15 -34.5q0 -14 -7 -26t-18.5 -19t-26 -7t-26 7t-18.5 19t-7 26z" />
<glyph unicode="@" horiz-adv-x="860" d="M75 411v239q0 96 48 176.5t130 127t178 46.5t177.5 -46.5t129 -127t47.5 -176.5v-293q0 -44 -33 -77t-78 -33q-20 0 -38.5 8t-32.5 21.5t-23 31.5q-28 -36 -67 -58.5t-82 -22.5q-78 0 -133 54t-55 130v239q0 38 15 72t40 58t60 38.5t73 14.5q77 0 132.5 -53.5 t55.5 -129.5v-293q0 -22 16 -38.5t39 -16.5t39.5 16.5t16.5 38.5v293q0 123 -87.5 209.5t-212 86.5t-212.5 -86.5t-88 -209.5v-239q0 -123 88 -209.5t213 -86.5q74 0 140 35q17 9 30 0.5t13 -24.5t-17 -25q-77 -40 -166 -40q-96 0 -178 46.5t-130 127t-48 176.5zM309 411 q0 -53 33.5 -85t88 -32t87.5 32t33 85v239q0 49 -20.5 80.5t-51.5 31.5q-26 0 -41 -12.5t-15 -33.5q0 -25 13.5 -39.5t36.5 -14.5q13 0 23 -9.5t10 -23.5t-10 -23.5t-23 -9.5q-34 0 -61 14t-41.5 38.5t-14.5 54.5q0 41 26 59q-33 -14 -53 -44t-20 -68v-239z" />
<glyph unicode="A" horiz-adv-x="557" d="M98 33v852q0 79 54.5 135t126.5 56t126.5 -56t54.5 -135v-852q0 -14 -10.5 -23.5t-24 -9.5t-23.5 9.5t-10 23.5v366h-227v-366q0 -14 -9.5 -23.5t-23.5 -9.5t-24 9.5t-10 23.5zM165 465h227v57h-227v-57zM165 588h227v297q0 35 -15 63.5t-41 44.5t-57 16q-48 0 -81 -35.5 t-33 -88.5v-297z" />
<glyph unicode="B" horiz-adv-x="610" d="M98 33v993q0 9 4.5 17t12.5 13t17 5h109q34 0 65.5 -14t54.5 -38t36.5 -57t13.5 -68q0 -91 -73 -134q36 -13 67.5 -33t57 -46t46.5 -58t35 -68.5t21.5 -77t7.5 -84.5q0 -105 -41.5 -193.5t-112 -139t-154.5 -50.5h-135q-13 0 -22.5 10t-9.5 23zM165 67h100 q40 0 76.5 15.5t66.5 44.5t52 67.5t34 87t12 101.5q0 134 -70.5 227.5t-170.5 93.5h-100v-637zM165 771h76q43 0 73 33.5t30 79.5q0 45 -30.5 77.5t-72.5 32.5h-76v-223z" />
<glyph unicode="C" horiz-adv-x="549" d="M98 168v724q0 76 55.5 130t132.5 54q79 0 133.5 -53.5t54.5 -130.5q0 -13 -9.5 -23t-23.5 -10t-23.5 10t-9.5 23q0 49 -35.5 83t-86.5 34q-50 0 -85.5 -34t-35.5 -83v-724q0 -49 35.5 -82.5t85.5 -33.5q51 0 86.5 33.5t35.5 82.5q0 14 9.5 23.5t23.5 9.5t23.5 -9.5 t9.5 -23.5q0 -76 -54.5 -129.5t-133.5 -53.5q-77 0 -132.5 53.5t-55.5 129.5z" />
<glyph unicode="D" horiz-adv-x="571" d="M98 33v478q0 13 10 23t24 10t23.5 -10t9.5 -23v-444h117q25 0 48 9.5t39.5 26.5t26.5 40t10 48v679q0 34 -16.5 62.5t-45.5 45t-62 16.5h-117v-271q0 -9 -4.5 -16.5t-12 -12t-16.5 -4.5q-14 0 -24 9.5t-10 23.5v305q0 14 10 23.5t24 9.5h150q78 0 134.5 -55t56.5 -136 v-679q0 -81 -56.5 -136t-134.5 -55h-150q-14 0 -24 9.5t-10 23.5z" />
<glyph unicode="E" horiz-adv-x="445" d="M98 120v821q0 50 36 85t86 35h109q13 0 23 -9.5t10 -23.5t-10 -24t-23 -10h-109q-22 0 -38.5 -15.5t-16.5 -37.5v-623h164q13 0 23 -9.5t10 -23.5t-10 -23.5t-23 -9.5h-164v-132q0 -22 16.5 -37.5t38.5 -15.5h109q13 0 23 -10t10 -24q0 -7 -2.5 -13t-7 -10.5t-11 -7 t-12.5 -2.5h-109q-50 0 -86 35t-36 85z" />
<glyph unicode="F" horiz-adv-x="515" d="M98 33v908q0 50 36 85t86 35h209q14 0 23.5 -9.5t9.5 -23.5t-9.5 -24t-23.5 -10h-209q-22 0 -38.5 -15.5t-16.5 -37.5v-235h192q14 0 24 -9.5t10 -23.5t-10 -24t-24 -10h-192v-69h192q14 0 24 -10t10 -23.5t-10 -23.5t-24 -10h-192v-470q0 -14 -9.5 -23.5t-23.5 -9.5 t-24 9.5t-10 23.5z" />
<glyph unicode="G" d="M98 168v724q0 76 55.5 130t132.5 54q79 0 133.5 -53.5t54.5 -130.5q0 -13 -9.5 -23t-23.5 -10t-23.5 10t-9.5 23q0 49 -35.5 83t-86.5 34q-50 0 -85.5 -34t-35.5 -83v-724q0 -49 35.5 -82.5t85.5 -33.5q51 0 86.5 33.5t35.5 82.5v273h-93q-14 0 -23.5 9.5t-9.5 23.5 t9.5 24t23.5 10h126q14 0 23.5 -10t9.5 -24v-306q0 -76 -54.5 -129.5t-133.5 -53.5q-77 0 -132.5 53.5t-55.5 129.5z" />
<glyph unicode="H" horiz-adv-x="557" d="M98 33v995q0 14 10 23.5t24 9.5t23.5 -9.5t9.5 -23.5v-366h227v366q0 14 10 23.5t23.5 9.5t24 -9.5t10.5 -23.5v-995q0 -14 -10.5 -23.5t-24 -9.5t-23.5 9.5t-10 23.5v440h-227v-440q0 -14 -9.5 -23.5t-23.5 -9.5t-24 9.5t-10 23.5zM165 539h227v57h-227v-57z" />
<glyph unicode="I" horiz-adv-x="408" d="M84 33q0 14 9.5 24t23.5 10q24 0 39 16.5t15 36.5v821q0 13 -6.5 25t-19 20t-28.5 8q-9 0 -17 4.5t-12 12.5t-4 17q0 14 9.5 23.5t23.5 9.5q54 0 87 -46q33 46 88 46q14 0 24 -9.5t10 -23.5t-10 -24t-24 -10q-23 0 -38.5 -16.5t-15.5 -36.5v-821q0 -20 15.5 -36.5 t38.5 -16.5q14 0 24 -10t10 -24t-10 -23.5t-24 -9.5q-55 0 -88 45q-32 -45 -87 -45q-14 0 -23.5 9.5t-9.5 23.5z" />
<glyph unicode="J" horiz-adv-x="489" d="M15 168q0 14 10 23.5t24 9.5t23.5 -9.5t9.5 -23.5q0 -19 6 -37t17 -32t26 -25t33.5 -16.5t38.5 -5.5q50 0 85.5 33.5t35.5 82.5v761q-17 -15 -49 -15q-29 0 -54 15.5t-40.5 41.5t-15.5 57q0 7 2.5 13t7 10.5t11 7t12.5 2.5q14 0 24 -9.5t10 -23.5q0 -20 14 -34t33 -14 q7 0 14 2.5t12.5 7t9.5 10.5t6.5 13t2.5 15q0 14 10 23.5t23.5 9.5t23.5 -9.5t10 -23.5v-860q0 -76 -55.5 -129.5t-132.5 -53.5q-78 0 -133 53.5t-55 129.5z" />
<glyph unicode="K" horiz-adv-x="554" d="M98 33v995q0 14 10 23.5t24 9.5t23.5 -9.5t9.5 -23.5v-392h107q25 0 44 20t19 47v182q0 14 10 23.5t23.5 9.5t23.5 -9.5t10 -23.5v-182q0 -43 -33 -78q51 -7 80.5 -41t29.5 -82v-469q0 -14 -10 -23.5t-23.5 -9.5t-23.5 9.5t-10 23.5v469q0 28 -20 48t-48 20h-179v-537 q0 -14 -9.5 -23.5t-23.5 -9.5t-24 9.5t-10 23.5z" />
<glyph unicode="L" horiz-adv-x="467" d="M98 120v908q0 14 10 23.5t24 9.5t23.5 -9.5t9.5 -23.5v-908q0 -22 16.5 -37.5t38.5 -15.5h185q14 0 23.5 -10t9.5 -24t-9.5 -23.5t-23.5 -9.5h-185q-50 0 -86 35t-36 85z" />
<glyph unicode="M" horiz-adv-x="575" d="M98 33q0 -14 10 -23.5t24 -9.5t23.5 9.5t9.5 23.5v593l95 -152q8 -12 27.5 -12t27.5 12l96 152v-593q0 -14 9.5 -23.5t23.5 -9.5t23.5 9.5t9.5 23.5v995q0 14 -9.5 23.5t-23.5 9.5q-20 0 -29 -17l-127 -244l-127 244q-9 17 -29 17q-14 0 -24 -9.5t-10 -23.5v-995z M165 750v142l95 -179q7 -14 28 -14t27 14l96 179v-142l-123 -194z" />
<glyph unicode="N" d="M98 33v995q0 14 10 23.5t24 9.5q24 0 32 -23l244 -786v776q0 14 9.5 23.5t23.5 9.5t23.5 -9.5t9.5 -23.5v-995q0 -14 -9.5 -23.5t-23.5 -9.5q-24 0 -32 23l-244 787v-777q0 -14 -9.5 -23.5t-23.5 -9.5t-24 9.5t-10 23.5z" />
<glyph unicode="O" d="M98 168q0 -76 55.5 -129.5t133 -53.5t132.5 53.5t55 129.5v724q0 76 -55 130t-132.5 54t-133 -54t-55.5 -130v-724zM165 168v724q0 49 35.5 83t86 34t86 -34t35.5 -83v-724q0 -49 -35.5 -82.5t-86 -33.5t-86 33.5t-35.5 82.5z" />
<glyph unicode="P" horiz-adv-x="575" d="M98 33v995q0 14 10 23.5t24 9.5h203q71 0 122 -52.5t51 -125t-51 -125t-122 -52.5h-170v-673q0 -14 -9.5 -23.5t-23.5 -9.5t-24 9.5t-10 23.5zM165 773h170q29 0 53 15t38.5 40.5t14.5 55t-14.5 55t-38.5 40.5t-53 15h-170v-221z" />
<glyph unicode="Q" horiz-adv-x="583" d="M98 184v708q0 76 55.5 130t133 54t132.5 -54t55 -130v-708q0 -66 -41.5 -115.5t-105.5 -64.5q2 -8 7 -14.5t11 -11t14 -7.5t17 -3q20 0 35 15t15 35q0 13 10 23.5t24 10.5q9 0 16.5 -5t12 -12.5t4.5 -16.5q0 -47 -34.5 -81.5t-82.5 -34.5q-43 0 -76.5 28.5t-39.5 70.5 q-68 9 -115 61.5t-47 121.5zM165 184q0 -49 35.5 -83t85.5 -34q55 0 88.5 27.5t33.5 73.5q0 29 -14 47t-36.5 18t-36 -13.5t-13.5 -35.5q0 -9 -4.5 -16.5t-12 -12.5t-16.5 -5q-14 0 -24 10t-10 24q0 25 8.5 47t22.5 37t34 23.5t43 8.5q38 0 59 -22v614q0 49 -35.5 83t-86 34 t-86 -34t-35.5 -83v-708z" />
<glyph unicode="R" horiz-adv-x="606" d="M98 33v995q0 14 10 23.5t24 9.5h203q71 0 122 -52.5t51 -124.5q0 -93 -79 -143q79 -46 79 -138v-570q0 -14 -10 -23.5t-24 -9.5t-23.5 9.5t-9.5 23.5v549h-276v-549q0 -14 -9.5 -23.5t-23.5 -9.5t-24 9.5t-10 23.5zM165 649h266q-13 26 -38 41.5t-58 15.5h-170v-57z M165 773h170q29 0 53 15t38.5 40.5t14.5 55t-14.5 55t-38.5 40.5t-53 15h-170v-221z" />
<glyph unicode="S" horiz-adv-x="496" d="M53 176q0 14 10 23.5t23.5 9.5t23.5 -9.5t10 -23.5q0 -52 37 -88t92 -36q53 0 90.5 36.5t37.5 87.5v256q0 50 -38 94.5t-95 61.5q-84 26 -133.5 84t-49.5 128v92q0 50 25 92.5t68.5 67t94.5 24.5q78 0 133 -53.5t55 -130.5q0 -13 -10 -23t-24 -10t-23.5 10t-9.5 23 q0 49 -35 83t-86 34q-33 0 -61 -15.5t-44.5 -42.5t-16.5 -59v-92q0 -49 37.5 -89.5t98.5 -58.5q81 -26 131 -86.5t50 -133.5v-256q0 -79 -57.5 -135t-137.5 -56q-82 0 -139 56t-57 135z" />
<glyph unicode="T" horiz-adv-x="457" d="M38 1028q0 14 9.5 23.5t23.5 9.5h315q14 0 24 -9.5t10 -23.5t-10 -24t-24 -10h-124v-961q0 -14 -9.5 -23.5t-23.5 -9.5t-24 9.5t-10 23.5v961h-124q-14 0 -23.5 10t-9.5 24z" />
<glyph unicode="U" horiz-adv-x="557" d="M98 176v852q0 14 10 23.5t24 9.5t23.5 -9.5t9.5 -23.5v-588h227v588q0 14 10 23.5t23.5 9.5t24 -9.5t10.5 -23.5v-852q0 -86 -50 -138.5t-131 -52.5t-131 52.5t-50 138.5zM165 176q0 -55 31.5 -89.5t82.5 -34.5t82 34t31 90v74h-227v-74zM165 317h227v56h-227v-56z" />
<glyph unicode="V" horiz-adv-x="539" d="M84 332v696q0 14 9.5 23.5t23.5 9.5t23.5 -9.5t9.5 -23.5v-696l120 -229l119 229v696q0 14 10 23.5t23.5 9.5t23.5 -9.5t10 -23.5v-696q0 -17 -6 -27l-152 -288q-10 -17 -28 -17q-19 0 -29 17l-151 288q-6 10 -6 27z" />
<glyph unicode="W" horiz-adv-x="604" d="M98 33v995q0 14 10 23.5t24 9.5t23.5 -9.5t9.5 -23.5v-690l97 167q10 16 32.5 15t29.5 -20l116 -292v820q0 9 4 16.5t12 12t17 4.5q14 0 23.5 -9.5t9.5 -23.5v-995q0 -14 -9.5 -23.5t-23.5 -9.5q-11 0 -19.5 7t-12.5 16l-101 256l-179 -262q-13 -17 -29 -17 q-14 0 -24 9.5t-10 23.5zM165 141l144 212l-24 61l-120 -206v-67z" />
<glyph unicode="X" horiz-adv-x="525" d="M55 44l172 501l-162 472q-6 18 5 31t28 13q23 0 31 -23l134 -389l134 389q8 23 31 23q17 0 28 -13t5 -31l-163 -472l173 -501q7 -20 -4 -32t-27 -12q-11 0 -20 6t-12 17l-76 221l-77 -221q-2 -5 -5.5 -9.5t-7.5 -7.5t-9 -4.5t-10 -1.5q-17 0 -27.5 12t-4.5 32l104 305 l-32 94l-145 -420q-3 -11 -12 -17t-19 -6q-17 0 -27.5 12t-4.5 32z" />
<glyph unicode="Y" horiz-adv-x="490" d="M49 1017q-6 18 5 31t28 13q23 0 30 -23l135 -389l133 389q8 23 31 23q17 0 28 -13t5 -31l-164 -475v-509q0 -14 -9.5 -23.5t-23.5 -9.5t-23.5 9.5t-9.5 23.5v509z" />
<glyph unicode="Z" horiz-adv-x="516" d="M53 947q0 31 15.5 57t41.5 41.5t56 15.5h275q17 0 28.5 -13t4.5 -31l-147 -429h49q14 0 23.5 -9.5t9.5 -23.5t-9.5 -23.5t-23.5 -9.5h-73l-11 -34h49q14 0 23.5 -10t9.5 -24t-9.5 -23.5t-23.5 -9.5h-71l-123 -354h298q14 0 24 -10t10 -24t-10 -23.5t-24 -9.5h-345 q-17 0 -27.5 12t-4.5 32l130 377h-49q-9 0 -17 4.5t-12.5 12t-4.5 16.5q0 14 10 24t24 10h72l12 34h-49q-14 0 -24 9.5t-10 23.5t10 23.5t24 9.5h72l140 406h-230q-19 0 -32.5 -13.5t-13.5 -33t13.5 -33t32.5 -13.5q14 0 24 -10.5t10 -24t-10 -23.5t-24 -10q-46 0 -79.5 34 t-33.5 80z" />
<glyph unicode="[" horiz-adv-x="341" d="M98 -32v1125q0 14 10 24.5t24 10.5h162q14 0 23.5 -10t9.5 -23.5t-9.5 -23.5t-23.5 -10h-129v-1061h129q14 0 23.5 -9.5t9.5 -23.5t-9.5 -24t-23.5 -10h-162q-14 0 -24 10.5t-10 24.5z" />
<glyph unicode="\" horiz-adv-x="525" d="M75 1035l324 -1028q7 -22 30 -22q17 0 27 13.5t5 28.5l-325 1026q-7 23 -29 23q-16 0 -26.5 -12t-5.5 -29z" />
<glyph unicode="]" horiz-adv-x="341" d="M15 -33q0 14 10 23.5t24 9.5h129v1061h-129q-14 0 -24 10t-10 23q0 10 4.5 17.5t12.5 12t17 4.5h162q14 0 23.5 -10.5t9.5 -24.5v-1125q0 -14 -9.5 -24.5t-23.5 -10.5h-162q-14 0 -24 10t-10 24z" />
<glyph unicode="_" horiz-adv-x="739" d="M0 -45q0 -13 9 -21.5t21 -8.5h679q8 0 15 4t11 10.5t4 15.5q0 13 -8.5 21.5t-21.5 8.5h-679q-12 0 -21 -8.5t-9 -21.5z" />
<glyph unicode="a" horiz-adv-x="557" d="M98 33v852q0 79 54.5 135t126.5 56t126.5 -56t54.5 -135v-852q0 -14 -10.5 -23.5t-24 -9.5t-23.5 9.5t-10 23.5v366h-227v-366q0 -14 -9.5 -23.5t-23.5 -9.5t-24 9.5t-10 23.5zM165 465h227v57h-227v-57zM165 588h227v297q0 35 -15 63.5t-41 44.5t-57 16q-48 0 -81 -35.5 t-33 -88.5v-297z" />
<glyph unicode="b" horiz-adv-x="610" d="M98 33v993q0 9 4.5 17t12.5 13t17 5h109q34 0 65.5 -14t54.5 -38t36.5 -57t13.5 -68q0 -91 -73 -134q36 -13 67.5 -33t57 -46t46.5 -58t35 -68.5t21.5 -77t7.5 -84.5q0 -105 -41.5 -193.5t-112 -139t-154.5 -50.5h-135q-13 0 -22.5 10t-9.5 23zM165 67h100 q40 0 76.5 15.5t66.5 44.5t52 67.5t34 87t12 101.5q0 134 -70.5 227.5t-170.5 93.5h-100v-637zM165 771h76q43 0 73 33.5t30 79.5q0 45 -30.5 77.5t-72.5 32.5h-76v-223z" />
<glyph unicode="c" horiz-adv-x="549" d="M98 168v724q0 76 55.5 130t132.5 54q79 0 133.5 -53.5t54.5 -130.5q0 -13 -9.5 -23t-23.5 -10t-23.5 10t-9.5 23q0 49 -35.5 83t-86.5 34q-50 0 -85.5 -34t-35.5 -83v-724q0 -49 35.5 -82.5t85.5 -33.5q51 0 86.5 33.5t35.5 82.5q0 14 9.5 23.5t23.5 9.5t23.5 -9.5 t9.5 -23.5q0 -76 -54.5 -129.5t-133.5 -53.5q-77 0 -132.5 53.5t-55.5 129.5z" />
<glyph unicode="d" horiz-adv-x="571" d="M98 33v478q0 13 10 23t24 10t23.5 -10t9.5 -23v-444h117q25 0 48 9.5t39.5 26.5t26.5 40t10 48v679q0 34 -16.5 62.5t-45.5 45t-62 16.5h-117v-271q0 -9 -4.5 -16.5t-12 -12t-16.5 -4.5q-14 0 -24 9.5t-10 23.5v305q0 14 10 23.5t24 9.5h150q78 0 134.5 -55t56.5 -136 v-679q0 -81 -56.5 -136t-134.5 -55h-150q-14 0 -24 9.5t-10 23.5z" />
<glyph unicode="e" horiz-adv-x="445" d="M98 120v821q0 50 36 85t86 35h109q13 0 23 -9.5t10 -23.5t-10 -24t-23 -10h-109q-22 0 -38.5 -15.5t-16.5 -37.5v-623h164q13 0 23 -9.5t10 -23.5t-10 -23.5t-23 -9.5h-164v-132q0 -22 16.5 -37.5t38.5 -15.5h109q13 0 23 -10t10 -24q0 -7 -2.5 -13t-7 -10.5t-11 -7 t-12.5 -2.5h-109q-50 0 -86 35t-36 85z" />
<glyph unicode="f" horiz-adv-x="515" d="M98 33v908q0 50 36 85t86 35h209q14 0 23.5 -9.5t9.5 -23.5t-9.5 -24t-23.5 -10h-209q-22 0 -38.5 -15.5t-16.5 -37.5v-235h192q14 0 24 -9.5t10 -23.5t-10 -24t-24 -10h-192v-69h192q14 0 24 -10t10 -23.5t-10 -23.5t-24 -10h-192v-470q0 -14 -9.5 -23.5t-23.5 -9.5 t-24 9.5t-10 23.5z" />
<glyph unicode="g" d="M98 168v724q0 76 55.5 130t132.5 54q79 0 133.5 -53.5t54.5 -130.5q0 -13 -9.5 -23t-23.5 -10t-23.5 10t-9.5 23q0 49 -35.5 83t-86.5 34q-50 0 -85.5 -34t-35.5 -83v-724q0 -49 35.5 -82.5t85.5 -33.5q51 0 86.5 33.5t35.5 82.5v273h-93q-14 0 -23.5 9.5t-9.5 23.5 t9.5 24t23.5 10h126q14 0 23.5 -10t9.5 -24v-306q0 -76 -54.5 -129.5t-133.5 -53.5q-77 0 -132.5 53.5t-55.5 129.5z" />
<glyph unicode="h" horiz-adv-x="557" d="M98 33v995q0 14 10 23.5t24 9.5t23.5 -9.5t9.5 -23.5v-366h227v366q0 14 10 23.5t23.5 9.5t24 -9.5t10.5 -23.5v-995q0 -14 -10.5 -23.5t-24 -9.5t-23.5 9.5t-10 23.5v440h-227v-440q0 -14 -9.5 -23.5t-23.5 -9.5t-24 9.5t-10 23.5zM165 539h227v57h-227v-57z" />
<glyph unicode="i" horiz-adv-x="408" d="M84 33q0 14 9.5 24t23.5 10q24 0 39 16.5t15 36.5v821q0 13 -6.5 25t-19 20t-28.5 8q-9 0 -17 4.5t-12 12.5t-4 17q0 14 9.5 23.5t23.5 9.5q54 0 87 -46q33 46 88 46q14 0 24 -9.5t10 -23.5t-10 -24t-24 -10q-23 0 -38.5 -16.5t-15.5 -36.5v-821q0 -20 15.5 -36.5 t38.5 -16.5q14 0 24 -10t10 -24t-10 -23.5t-24 -9.5q-55 0 -88 45q-32 -45 -87 -45q-14 0 -23.5 9.5t-9.5 23.5z" />
<glyph unicode="j" horiz-adv-x="489" d="M15 168q0 14 10 23.5t24 9.5t23.5 -9.5t9.5 -23.5q0 -19 6 -37t17 -32t26 -25t33.5 -16.5t38.5 -5.5q50 0 85.5 33.5t35.5 82.5v761q-17 -15 -49 -15q-29 0 -54 15.5t-40.5 41.5t-15.5 57q0 7 2.5 13t7 10.5t11 7t12.5 2.5q14 0 24 -9.5t10 -23.5q0 -20 14 -34t33 -14 q7 0 14 2.5t12.5 7t9.5 10.5t6.5 13t2.5 15q0 14 10 23.5t23.5 9.5t23.5 -9.5t10 -23.5v-860q0 -76 -55.5 -129.5t-132.5 -53.5q-78 0 -133 53.5t-55 129.5z" />
<glyph unicode="k" horiz-adv-x="554" d="M98 33v995q0 14 10 23.5t24 9.5t23.5 -9.5t9.5 -23.5v-392h107q25 0 44 20t19 47v182q0 14 10 23.5t23.5 9.5t23.5 -9.5t10 -23.5v-182q0 -43 -33 -78q51 -7 80.5 -41t29.5 -82v-469q0 -14 -10 -23.5t-23.5 -9.5t-23.5 9.5t-10 23.5v469q0 28 -20 48t-48 20h-179v-537 q0 -14 -9.5 -23.5t-23.5 -9.5t-24 9.5t-10 23.5z" />
<glyph unicode="l" horiz-adv-x="467" d="M98 120v908q0 14 10 23.5t24 9.5t23.5 -9.5t9.5 -23.5v-908q0 -22 16.5 -37.5t38.5 -15.5h185q14 0 23.5 -10t9.5 -24t-9.5 -23.5t-23.5 -9.5h-185q-50 0 -86 35t-36 85z" />
<glyph unicode="m" horiz-adv-x="575" d="M98 33q0 -14 10 -23.5t24 -9.5t23.5 9.5t9.5 23.5v593l95 -152q8 -12 27.5 -12t27.5 12l96 152v-593q0 -14 9.5 -23.5t23.5 -9.5t23.5 9.5t9.5 23.5v995q0 14 -9.5 23.5t-23.5 9.5q-20 0 -29 -17l-127 -244l-127 244q-9 17 -29 17q-14 0 -24 -9.5t-10 -23.5v-995z M165 750v142l95 -179q7 -14 28 -14t27 14l96 179v-142l-123 -194z" />
<glyph unicode="n" d="M98 33v995q0 14 10 23.5t24 9.5q24 0 32 -23l244 -786v776q0 14 9.5 23.5t23.5 9.5t23.5 -9.5t9.5 -23.5v-995q0 -14 -9.5 -23.5t-23.5 -9.5q-24 0 -32 23l-244 787v-777q0 -14 -9.5 -23.5t-23.5 -9.5t-24 9.5t-10 23.5z" />
<glyph unicode="o" d="M98 168q0 -76 55.5 -129.5t133 -53.5t132.5 53.5t55 129.5v724q0 76 -55 130t-132.5 54t-133 -54t-55.5 -130v-724zM165 168v724q0 49 35.5 83t86 34t86 -34t35.5 -83v-724q0 -49 -35.5 -82.5t-86 -33.5t-86 33.5t-35.5 82.5z" />
<glyph unicode="p" horiz-adv-x="575" d="M98 33v995q0 14 10 23.5t24 9.5h203q71 0 122 -52.5t51 -125t-51 -125t-122 -52.5h-170v-673q0 -14 -9.5 -23.5t-23.5 -9.5t-24 9.5t-10 23.5zM165 773h170q29 0 53 15t38.5 40.5t14.5 55t-14.5 55t-38.5 40.5t-53 15h-170v-221z" />
<glyph unicode="q" horiz-adv-x="583" d="M98 184v708q0 76 55.5 130t133 54t132.5 -54t55 -130v-708q0 -66 -41.5 -115.5t-105.5 -64.5q2 -8 7 -14.5t11 -11t14 -7.5t17 -3q20 0 35 15t15 35q0 13 10 23.5t24 10.5q9 0 16.5 -5t12 -12.5t4.5 -16.5q0 -47 -34.5 -81.5t-82.5 -34.5q-43 0 -76.5 28.5t-39.5 70.5 q-68 9 -115 61.5t-47 121.5zM165 184q0 -49 35.5 -83t85.5 -34q55 0 88.5 27.5t33.5 73.5q0 29 -14 47t-36.5 18t-36 -13.5t-13.5 -35.5q0 -9 -4.5 -16.5t-12 -12.5t-16.5 -5q-14 0 -24 10t-10 24q0 25 8.5 47t22.5 37t34 23.5t43 8.5q38 0 59 -22v614q0 49 -35.5 83t-86 34 t-86 -34t-35.5 -83v-708z" />
<glyph unicode="r" horiz-adv-x="606" d="M98 33v995q0 14 10 23.5t24 9.5h203q71 0 122 -52.5t51 -124.5q0 -93 -79 -143q79 -46 79 -138v-570q0 -14 -10 -23.5t-24 -9.5t-23.5 9.5t-9.5 23.5v549h-276v-549q0 -14 -9.5 -23.5t-23.5 -9.5t-24 9.5t-10 23.5zM165 649h266q-13 26 -38 41.5t-58 15.5h-170v-57z M165 773h170q29 0 53 15t38.5 40.5t14.5 55t-14.5 55t-38.5 40.5t-53 15h-170v-221z" />
<glyph unicode="s" horiz-adv-x="496" d="M53 176q0 14 10 23.5t23.5 9.5t23.5 -9.5t10 -23.5q0 -52 37 -88t92 -36q53 0 90.5 36.5t37.5 87.5v256q0 50 -38 94.5t-95 61.5q-84 26 -133.5 84t-49.5 128v92q0 50 25 92.5t68.5 67t94.5 24.5q78 0 133 -53.5t55 -130.5q0 -13 -10 -23t-24 -10t-23.5 10t-9.5 23 q0 49 -35 83t-86 34q-33 0 -61 -15.5t-44.5 -42.5t-16.5 -59v-92q0 -49 37.5 -89.5t98.5 -58.5q81 -26 131 -86.5t50 -133.5v-256q0 -79 -57.5 -135t-137.5 -56q-82 0 -139 56t-57 135z" />
<glyph unicode="t" horiz-adv-x="457" d="M38 1028q0 14 9.5 23.5t23.5 9.5h315q14 0 24 -9.5t10 -23.5t-10 -24t-24 -10h-124v-961q0 -14 -9.5 -23.5t-23.5 -9.5t-24 9.5t-10 23.5v961h-124q-14 0 -23.5 10t-9.5 24z" />
<glyph unicode="u" horiz-adv-x="557" d="M98 176v852q0 14 10 23.5t24 9.5t23.5 -9.5t9.5 -23.5v-588h227v588q0 14 10 23.5t23.5 9.5t24 -9.5t10.5 -23.5v-852q0 -86 -50 -138.5t-131 -52.5t-131 52.5t-50 138.5zM165 176q0 -55 31.5 -89.5t82.5 -34.5t82 34t31 90v74h-227v-74zM165 317h227v56h-227v-56z" />
<glyph unicode="v" horiz-adv-x="539" d="M84 332v696q0 14 9.5 23.5t23.5 9.5t23.5 -9.5t9.5 -23.5v-696l120 -229l119 229v696q0 14 10 23.5t23.5 9.5t23.5 -9.5t10 -23.5v-696q0 -17 -6 -27l-152 -288q-10 -17 -28 -17q-19 0 -29 17l-151 288q-6 10 -6 27z" />
<glyph unicode="w" horiz-adv-x="604" d="M98 33v995q0 14 10 23.5t24 9.5t23.5 -9.5t9.5 -23.5v-690l97 167q10 16 32.5 15t29.5 -20l116 -292v820q0 9 4 16.5t12 12t17 4.5q14 0 23.5 -9.5t9.5 -23.5v-995q0 -14 -9.5 -23.5t-23.5 -9.5q-11 0 -19.5 7t-12.5 16l-101 256l-179 -262q-13 -17 -29 -17 q-14 0 -24 9.5t-10 23.5zM165 141l144 212l-24 61l-120 -206v-67z" />
<glyph unicode="x" horiz-adv-x="525" d="M55 44l172 501l-162 472q-6 18 5 31t28 13q23 0 31 -23l134 -389l134 389q8 23 31 23q17 0 28 -13t5 -31l-163 -472l173 -501q7 -20 -4 -32t-27 -12q-11 0 -20 6t-12 17l-76 221l-77 -221q-2 -5 -5.5 -9.5t-7.5 -7.5t-9 -4.5t-10 -1.5q-17 0 -27.5 12t-4.5 32l104 305 l-32 94l-145 -420q-3 -11 -12 -17t-19 -6q-17 0 -27.5 12t-4.5 32z" />
<glyph unicode="y" horiz-adv-x="490" d="M49 1017q-6 18 5 31t28 13q23 0 30 -23l135 -389l133 389q8 23 31 23q17 0 28 -13t5 -31l-164 -475v-509q0 -14 -9.5 -23.5t-23.5 -9.5t-23.5 9.5t-9.5 23.5v509z" />
<glyph unicode="z" horiz-adv-x="516" d="M53 947q0 31 15.5 57t41.5 41.5t56 15.5h275q17 0 28.5 -13t4.5 -31l-147 -429h49q14 0 23.5 -9.5t9.5 -23.5t-9.5 -23.5t-23.5 -9.5h-73l-11 -34h49q14 0 23.5 -10t9.5 -24t-9.5 -23.5t-23.5 -9.5h-71l-123 -354h298q14 0 24 -10t10 -24t-10 -23.5t-24 -9.5h-345 q-17 0 -27.5 12t-4.5 32l130 377h-49q-9 0 -17 4.5t-12.5 12t-4.5 16.5q0 14 10 24t24 10h72l12 34h-49q-14 0 -24 9.5t-10 23.5t10 23.5t24 9.5h72l140 406h-230q-19 0 -32.5 -13.5t-13.5 -33t13.5 -33t32.5 -13.5q14 0 24 -10.5t10 -24t-10 -23.5t-24 -10q-46 0 -79.5 34 t-33.5 80z" />
<glyph unicode="{" horiz-adv-x="405" d="M15 530.5q0 13.5 10 23.5t24 10q50 0 85 34t35 83v263q0 76 55.5 130t132.5 54q14 0 24 -10t10 -23.5t-10 -23.5t-24 -10q-50 0 -85.5 -34t-35.5 -83v-263q0 -103 -104 -150q104 -48 104 -151v-263q0 -49 35.5 -83t85.5 -34q14 0 24 -9.5t10 -23.5t-10 -24t-24 -10 q-50 0 -93.5 24.5t-69 67t-25.5 92.5v263q0 49 -35 83t-85 34q-14 0 -24 10t-10 23.5z" />
<glyph unicode="}" horiz-adv-x="405" d="M15 -33q0 14 10 23.5t24 9.5q50 0 85 34t35 83v263q0 102 106 151q-106 48 -106 150v263q0 49 -35 83t-85 34q-14 0 -24 10t-10 23q0 10 4.5 17.5t12.5 12t17 4.5q77 0 132 -54t55 -130v-263q0 -49 35.5 -83t85.5 -34q14 0 24 -10t10 -23.5t-10 -23.5t-24 -10 q-50 0 -85.5 -34t-35.5 -83v-263q0 -76 -55 -130t-132 -54q-14 0 -24 10t-10 24z" />
<glyph unicode="&#xa2;" horiz-adv-x="519" d="M75 217v406q0 70 47.5 121t117.5 60v72q0 13 8 20.5t18.5 7.5t19 -7.5t8.5 -20.5v-73q33 -5 62 -21t50 -39.5t33 -54.5t12 -65q0 -5 -1.5 -10.5t-4.5 -9.5t-7 -7t-9 -4.5t-11 -1.5q-14 0 -23.5 9.5t-9.5 23.5q0 41 -25.5 72t-65.5 41v-633q26 6 47 22.5t32.5 40.5 t11.5 51q0 14 9.5 23.5t23.5 9.5q9 0 17 -4.5t12 -12t4 -16.5q0 -68 -45 -119.5t-112 -61.5v-72q0 -9 -4.5 -15.5t-10.5 -9.5t-13 -3t-12.5 3t-9.5 9.5t-4 15.5v71q-70 9 -117.5 60.5t-47.5 121.5zM143 217q0 -43 27.5 -74.5t69.5 -39.5v633q-42 -8 -69.5 -39t-27.5 -74 v-406z" />
<glyph unicode="&#xa3;" horiz-adv-x="496" d="M0 573q0 11 8 19t19 8h57q-23 144 -23 247t51.5 166t136 63t136.5 -50.5t52 -133.5q0 -13 -10 -23t-24 -10t-23.5 10t-9.5 23q0 53 -33.5 85t-87.5 32q-36 0 -63.5 -20t-43 -57t-15.5 -85q0 -103 23 -247h129q11 0 19 -8t8 -19t-8 -19.5t-19 -8.5h-118q2 -12 8 -43 t8.5 -45t6.5 -40t6 -42.5t3.5 -37.5t1.5 -40q0 -114 -60 -230h276q14 0 23.5 -10t9.5 -24t-9.5 -23.5t-23.5 -9.5h-326q-14 0 -23.5 9.5t-9.5 23.5t10 25l22 40q45 89 45 199q0 16 -1 33t-3 35t-4.5 33t-6 36.5t-6 35t-7.5 38t-7 37.5h-67q-11 0 -19 8.5t-8 19.5z" />
<glyph unicode="&#xa5;" horiz-adv-x="490" d="M49 1017q-6 18 5 31t28 13q23 0 30 -23l135 -389l133 389q8 23 31 23q17 0 28 -13t5 -31l-149 -429h119q11 0 19 -8t8 -19t-8 -19t-19 -8h-134v-83h134q11 0 19 -8t8 -19q0 -7 -3.5 -13.5t-10 -10t-13.5 -3.5h-134v-364q0 -14 -9.5 -23.5t-23.5 -9.5t-23.5 9.5t-9.5 23.5 v364h-137q-11 0 -19 8t-8 19t8 19t19 8h137v83h-137q-11 0 -19 8t-8 19t8 19t19 8h121z" />
<glyph unicode="&#xad;" horiz-adv-x="428" d="M0 379q0 14 9.5 23.5t23.5 9.5h363q14 0 23.5 -9.5t9.5 -23.5t-9.5 -23.5t-23.5 -9.5h-363q-14 0 -23.5 9.5t-9.5 23.5z" />
<glyph unicode="&#x401;" horiz-adv-x="445" d="M98 120v821q0 50 36 85t86 35h109q13 0 23 -9.5t10 -23.5t-10 -24t-23 -10h-109q-22 0 -38.5 -15.5t-16.5 -37.5v-623h164q13 0 23 -9.5t10 -23.5t-10 -23.5t-23 -9.5h-164v-132q0 -22 16.5 -37.5t38.5 -15.5h109q13 0 23 -10t10 -24q0 -7 -2.5 -13t-7 -10.5t-11 -7 t-12.5 -2.5h-109q-50 0 -86 35t-36 85zM112 1206.5q0 21.5 15 36.5t36.5 15t36.5 -15t15 -36.5t-15 -36.5t-36.5 -15t-36.5 15t-15 36.5zM263 1206q0 14 7 26t19 19t26 7q22 0 37 -15t15 -37q0 -14 -7 -25.5t-19 -18.5t-26 -7q-21 0 -36.5 15t-15.5 36z" />
<glyph unicode="&#x410;" horiz-adv-x="557" d="M98 33v852q0 79 54.5 135t126.5 56t126.5 -56t54.5 -135v-852q0 -14 -10.5 -23.5t-24 -9.5t-23.5 9.5t-10 23.5v366h-227v-366q0 -14 -9.5 -23.5t-23.5 -9.5t-24 9.5t-10 23.5zM165 465h227v57h-227v-57zM165 588h227v297q0 35 -15 63.5t-41 44.5t-57 16q-48 0 -81 -35.5 t-33 -88.5v-297z" />
<glyph unicode="&#x411;" horiz-adv-x="580" d="M98 33v993q0 9 4.5 17t12.5 13t17 5h259q14 0 23.5 -9.5t9.5 -23.5t-9.5 -24t-23.5 -10h-226v-227h55q83 0 154 -50.5t112.5 -139t41.5 -194t-41.5 -194t-112.5 -139t-154 -50.5h-90q-13 0 -22.5 10t-9.5 23zM165 67h55q101 0 171 91t70 225t-70 225.5t-171 91.5h-55 v-633z" />
<glyph unicode="&#x412;" horiz-adv-x="610" d="M98 33v993q0 9 4.5 17t12.5 13t17 5h109q34 0 65.5 -14t54.5 -38t36.5 -57t13.5 -68q0 -91 -73 -134q36 -13 67.5 -33t57 -46t46.5 -58t35 -68.5t21.5 -77t7.5 -84.5q0 -105 -41.5 -193.5t-112 -139t-154.5 -50.5h-135q-13 0 -22.5 10t-9.5 23zM165 67h100 q40 0 76.5 15.5t66.5 44.5t52 67.5t34 87t12 101.5q0 134 -70.5 227.5t-170.5 93.5h-100v-637zM165 771h76q43 0 73 33.5t30 79.5q0 45 -30.5 77.5t-72.5 32.5h-76v-223z" />
<glyph unicode="&#x413;" horiz-adv-x="518" d="M98 33v993q0 9 4.5 17t12.5 13t17 5h300q14 0 23.5 -9.5t9.5 -23.5t-9.5 -24t-23.5 -10h-267v-961q0 -14 -9.5 -23.5t-23.5 -9.5t-24 9.5t-10 23.5z" />
<glyph unicode="&#x414;" horiz-adv-x="603" d="M15 33q0 14 10 24t24 10h49l320 927h-182q-9 0 -18 -4t-15 -10t-10 -14.5t-4 -18.5q0 -13 6.5 -23.5t17 -16.5t23.5 -6q14 0 24 -10.5t10 -24t-10 -23.5t-24 -10q-46 0 -79.5 34t-33.5 80q0 31 15 57t41.5 41.5t56.5 15.5h228q15 0 25.5 -11.5t9.5 -26.5v-956h48 q14 0 23.5 -10t9.5 -24v-195q0 -8 -4 -15t-11 -11t-15 -4q-13 0 -22 8.5t-9 21.5v162h-444v-162q0 -13 -8.5 -21.5t-21.5 -8.5t-21.5 8.5t-8.5 21.5v195zM169 67h263v788z" />
<glyph unicode="&#x415;" horiz-adv-x="445" d="M98 120v821q0 50 36 85t86 35h109q13 0 23 -9.5t10 -23.5t-10 -24t-23 -10h-109q-22 0 -38.5 -15.5t-16.5 -37.5v-623h164q13 0 23 -9.5t10 -23.5t-10 -23.5t-23 -9.5h-164v-132q0 -22 16.5 -37.5t38.5 -15.5h109q13 0 23 -10t10 -24q0 -7 -2.5 -13t-7 -10.5t-11 -7 t-12.5 -2.5h-109q-50 0 -86 35t-36 85z" />
<glyph unicode="&#x416;" horiz-adv-x="754" d="M75 33v469q0 48 30 82t81 41q-33 35 -33 78v273q0 14 10 23.5t23.5 9.5t23.5 -9.5t10 -23.5v-273q0 -27 19 -47t44 -20h61v392q0 9 4.5 16.5t12 12t16.5 4.5q14 0 24 -9.5t10 -23.5v-392h60q26 0 45 20t19 47v273q0 14 9.5 23.5t23.5 9.5t24 -9.5t10 -23.5v-273 q0 -43 -34 -78q52 -7 81.5 -41t29.5 -82v-469q0 -9 -4.5 -16.5t-12.5 -12t-17 -4.5q-14 0 -23.5 9.5t-9.5 23.5v469q0 28 -20 48t-48 20h-133v-537q0 -14 -10 -23.5t-23.5 -9.5t-23.5 9.5t-10 23.5v537h-133q-28 0 -48 -20t-20 -48v-469q0 -14 -10 -23.5t-24 -9.5t-24 9.5 t-10 23.5z" />
<glyph unicode="&#x417;" horiz-adv-x="489" d="M53 176q0 14 10 23.5t23.5 9.5t23.5 -9.5t10 -23.5q0 -53 34 -88.5t87 -35.5t87 36t34 88v406q0 56 -32 90t-89 34h-80q-14 0 -24 9.5t-10 23.5t10 24t24 10h80q55 0 88 32t33 87q0 49 -35.5 83t-85.5 34q-51 0 -86 -34t-35 -83q0 -13 -10 -23t-23.5 -10t-23.5 10t-10 23 q0 77 55 130.5t133 53.5t133 -54t55 -130q0 -52 -31 -95t-78 -56q48 -15 78.5 -61.5t30.5 -97.5v-406q0 -80 -54 -135.5t-134 -55.5q-81 0 -134.5 55.5t-53.5 135.5z" />
<glyph unicode="&#x418;" d="M98 33v995q0 14 10 23.5t24 9.5t23.5 -9.5t9.5 -23.5v-776l244 786q8 23 32 23q14 0 23.5 -9.5t9.5 -23.5v-995q0 -14 -9.5 -23.5t-23.5 -9.5t-23.5 9.5t-9.5 23.5v777l-244 -787q-8 -23 -32 -23q-14 0 -24 9.5t-10 23.5z" />
<glyph unicode="&#x419;" d="M98 33v995q0 14 10 23.5t24 9.5t23.5 -9.5t9.5 -23.5v-776l244 786q8 23 32 23q14 0 23.5 -9.5t9.5 -23.5v-995q0 -14 -9.5 -23.5t-23.5 -9.5t-23.5 9.5t-9.5 23.5v777l-244 -787q-8 -23 -32 -23q-14 0 -24 9.5t-10 23.5zM175 1244q0 16 8.5 25.5t23 9.5t23 -9.5 t8.5 -25.5t6 -28t17.5 -18.5t26.5 -6.5q23 0 36.5 14.5t13.5 38.5q0 11 4 19t11 12t17 4q15 0 23.5 -9.5t8.5 -25.5q0 -24 -8.5 -44t-23 -34t-36 -21.5t-46.5 -7.5q-51 0 -82 29t-31 78z" />
<glyph unicode="&#x41a;" horiz-adv-x="554" d="M98 33v995q0 14 10 23.5t24 9.5t23.5 -9.5t9.5 -23.5v-392h107q25 0 44 20t19 47v182q0 14 10 23.5t23.5 9.5t23.5 -9.5t10 -23.5v-182q0 -43 -33 -78q51 -7 80.5 -41t29.5 -82v-469q0 -14 -10 -23.5t-23.5 -9.5t-23.5 9.5t-10 23.5v469q0 28 -20 48t-48 20h-179v-537 q0 -14 -9.5 -23.5t-23.5 -9.5t-24 9.5t-10 23.5z" />
<glyph unicode="&#x41b;" horiz-adv-x="523" d="M18 45l328 949h-182q-20 0 -33.5 -13.5t-13.5 -33t13.5 -33t33.5 -13.5q9 0 16.5 -5t12 -12.5t4.5 -16.5q0 -14 -10 -24t-23 -10q-47 0 -80.5 34t-33.5 80q0 31 15.5 57t41.5 41.5t57 15.5h227q15 0 25 -10t10 -28v-990q0 -14 -10 -23.5t-24 -9.5t-23.5 9.5t-9.5 23.5 v822l-277 -831q-8 -24 -32 -24q-17 0 -27.5 13t-4.5 32z" />
<glyph unicode="&#x41c;" horiz-adv-x="575" d="M98 33q0 -14 10 -23.5t24 -9.5t23.5 9.5t9.5 23.5v593l95 -152q8 -12 27.5 -12t27.5 12l96 152v-593q0 -14 9.5 -23.5t23.5 -9.5t23.5 9.5t9.5 23.5v995q0 14 -9.5 23.5t-23.5 9.5q-20 0 -29 -17l-127 -244l-127 244q-9 17 -29 17q-14 0 -24 -9.5t-10 -23.5v-995z M165 750v142l95 -179q7 -14 28 -14t27 14l96 179v-142l-123 -194z" />
<glyph unicode="&#x41d;" horiz-adv-x="557" d="M98 33v995q0 14 10 23.5t24 9.5t23.5 -9.5t9.5 -23.5v-366h227v366q0 14 10 23.5t23.5 9.5t24 -9.5t10.5 -23.5v-995q0 -14 -10.5 -23.5t-24 -9.5t-23.5 9.5t-10 23.5v440h-227v-440q0 -14 -9.5 -23.5t-23.5 -9.5t-24 9.5t-10 23.5zM165 539h227v57h-227v-57z" />
<glyph unicode="&#x41e;" d="M98 168q0 -76 55.5 -129.5t133 -53.5t132.5 53.5t55 129.5v724q0 76 -55 130t-132.5 54t-133 -54t-55.5 -130v-724zM165 168v724q0 49 35.5 83t86 34t86 -34t35.5 -83v-724q0 -49 -35.5 -82.5t-86 -33.5t-86 33.5t-35.5 82.5z" />
<glyph unicode="&#x41f;" horiz-adv-x="557" d="M98 33v995q0 14 10 23.5t24 9.5h294q13 0 23.5 -9.5t10.5 -23.5v-995q0 -14 -10.5 -23.5t-24 -9.5t-23.5 9.5t-10 23.5v839h-227v-839q0 -14 -9.5 -23.5t-23.5 -9.5t-24 9.5t-10 23.5zM165 938h227v56h-227v-56z" />
<glyph unicode="&#x420;" horiz-adv-x="575" d="M98 33v995q0 14 10 23.5t24 9.5h203q71 0 122 -52.5t51 -125t-51 -125t-122 -52.5h-170v-673q0 -14 -9.5 -23.5t-23.5 -9.5t-24 9.5t-10 23.5zM165 773h170q29 0 53 15t38.5 40.5t14.5 55t-14.5 55t-38.5 40.5t-53 15h-170v-221z" />
<glyph unicode="&#x421;" horiz-adv-x="549" d="M98 168v724q0 76 55.5 130t132.5 54q79 0 133.5 -53.5t54.5 -130.5q0 -13 -9.5 -23t-23.5 -10t-23.5 10t-9.5 23q0 49 -35.5 83t-86.5 34q-50 0 -85.5 -34t-35.5 -83v-724q0 -49 35.5 -82.5t85.5 -33.5q51 0 86.5 33.5t35.5 82.5q0 14 9.5 23.5t23.5 9.5t23.5 -9.5 t9.5 -23.5q0 -76 -54.5 -129.5t-133.5 -53.5q-77 0 -132.5 53.5t-55.5 129.5z" />
<glyph unicode="&#x422;" horiz-adv-x="457" d="M38 1028q0 14 9.5 23.5t23.5 9.5h315q14 0 24 -9.5t10 -23.5t-10 -24t-24 -10h-124v-961q0 -14 -9.5 -23.5t-23.5 -9.5t-24 9.5t-10 23.5v961h-124q-14 0 -23.5 10t-9.5 24z" />
<glyph unicode="&#x423;" horiz-adv-x="525" d="M38 1017q-5 19 6.5 31t28.5 12q23 -3 30 -25l76 -264l77 264q7 22 30 25q17 0 28.5 -12t6.5 -31l-106 -367l41 -145l153 530q7 22 31 25q16 0 28 -12t6 -31l-286 -993q-6 -24 -29 -24q-17 0 -29 12t-7 30l98 343z" />
<glyph unicode="&#x424;" horiz-adv-x="687" d="M98 184v694q0 76 55.5 129.5t132.5 53.5h25v42q0 14 9.5 24t23.5 10t23.5 -10t9.5 -24v-42h25q50 0 93.5 -24.5t69 -67t25.5 -91.5v-694q0 -76 -55.5 -130t-132.5 -54h-25v-42q0 -14 -9.5 -23.5t-23.5 -9.5t-23.5 9.5t-9.5 23.5v42h-25q-77 0 -132.5 54t-55.5 130z M165 184q0 -49 35.5 -83t85.5 -34h25v927h-25q-50 0 -85.5 -34t-35.5 -82v-694zM377 67h25q50 0 85.5 34t35.5 83v694q0 48 -35.5 82t-85.5 34h-25v-927z" />
<glyph unicode="&#x425;" horiz-adv-x="525" d="M55 44l172 501l-162 472q-6 18 5 31t28 13q23 0 31 -23l134 -389l134 389q8 23 31 23q17 0 28 -13t5 -31l-163 -472l173 -501q7 -20 -4 -32t-27 -12q-11 0 -20 6t-12 17l-76 221l-77 -221q-2 -5 -5.5 -9.5t-7.5 -7.5t-9 -4.5t-10 -1.5q-17 0 -27.5 12t-4.5 32l104 305 l-32 94l-145 -420q-3 -11 -12 -17t-19 -6q-17 0 -27.5 12t-4.5 32z" />
<glyph unicode="&#x426;" horiz-adv-x="563" d="M98 33v995q0 14 10 23.5t24 9.5t23.5 -9.5t9.5 -23.5v-961h227v961q0 14 10 23.5t23.5 9.5t24 -9.5t10.5 -23.5v-961h48q14 0 23.5 -10t9.5 -24v-195q0 -13 -9 -21.5t-21.5 -8.5t-21.5 8.5t-9 21.5v162h-348q-14 0 -24 9.5t-10 23.5z" />
<glyph unicode="&#x427;" horiz-adv-x="549" d="M75 596v432q0 14 10 23.5t24 9.5q9 0 17 -4.5t12.5 -12t4.5 -16.5v-432q0 -49 35 -83t85 -34q71 0 122 44v505q0 14 9.5 23.5t23.5 9.5t23.5 -9.5t9.5 -23.5v-995q0 -5 -1.5 -10t-4.5 -9.5t-7 -7.5t-9 -4.5t-11 -1.5q-14 0 -23.5 9.5t-9.5 23.5v420q-57 -41 -122 -41 q-78 0 -133 54t-55 130z" />
<glyph unicode="&#x428;" horiz-adv-x="700" d="M98 33v995q0 14 10 23.5t24 9.5t23.5 -9.5t9.5 -23.5v-961h152v961q0 14 9.5 23.5t23.5 9.5t23.5 -9.5t9.5 -23.5v-961h152v961q0 7 2.5 13t7 10.5t11 7t12.5 2.5q14 0 24 -9.5t10 -23.5v-995q0 -14 -10 -23.5t-24 -9.5h-436q-14 0 -24 9.5t-10 23.5z" />
<glyph unicode="&#x429;" horiz-adv-x="700" d="M98 33v995q0 14 10 23.5t24 9.5t23.5 -9.5t9.5 -23.5v-961h152v961q0 14 9.5 23.5t23.5 9.5t23.5 -9.5t9.5 -23.5v-961h152v961q0 7 2.5 13t7 10.5t11 7t12.5 2.5q14 0 24 -9.5t10 -23.5v-961h48q14 0 24 -10t10 -24v-195q0 -13 -9 -21.5t-21.5 -8.5t-21.5 8.5t-9 21.5 v162h-491q-14 0 -24 9.5t-10 23.5z" />
<glyph unicode="&#x42a;" horiz-adv-x="695" d="M0 1028q0 14 9.5 23.5t23.5 9.5h184q16 0 24.5 -10.5t8.5 -22.5v-261h100q63 0 119.5 -30t98 -81t66 -122t24.5 -151q0 -105 -41.5 -193.5t-112 -139t-154.5 -50.5h-135q-13 0 -22 10t-9 23v961h-151q-14 0 -23.5 10t-9.5 24zM250 67h100q101 0 171 91t70 225t-70 225.5 t-171 91.5h-100v-633z" />
<glyph unicode="&#x42b;" horiz-adv-x="943" d="M98 33v995q0 13 10 23t24 10q15 0 24 -10.5t9 -22.5v-261h100q62 0 119 -30t98.5 -81t66 -122t24.5 -151q0 -105 -41.5 -193.5t-112 -139t-154.5 -50.5h-135q-13 0 -22.5 10t-9.5 23zM165 67h100q40 0 76.5 15.5t66.5 44.5t52 67.5t34 87t12 101.5q0 134 -70 225.5 t-171 91.5h-100v-633zM619 33q0 14 9.5 24t23.5 10q24 0 39 16.5t15 36.5v821q0 20 -15 36.5t-39 16.5q-14 0 -23.5 10t-9.5 24q0 7 2.5 13t7 10.5t10.5 7t13 2.5q54 0 87 -46q33 46 88 46q14 0 24 -9.5t10 -23.5t-10 -24t-24 -10q-23 0 -38.5 -16.5t-15.5 -36.5v-821 q0 -13 6.5 -25t19 -20t28.5 -8q14 0 24 -10t10 -24t-10 -23.5t-24 -9.5q-55 0 -88 45q-32 -45 -87 -45q-14 0 -23.5 9.5t-9.5 23.5z" />
<glyph unicode="&#x42c;" horiz-adv-x="610" d="M98 33v995q0 13 10 23t24 10q15 0 24 -10.5t9 -22.5v-261h100q62 0 119 -30t98.5 -81t66 -122t24.5 -151q0 -105 -41.5 -193.5t-112 -139t-154.5 -50.5h-135q-13 0 -22.5 10t-9.5 23zM165 67h100q40 0 76.5 15.5t66.5 44.5t52 67.5t34 87t12 101.5q0 134 -70 225.5 t-171 91.5h-100v-633z" />
<glyph unicode="&#x42d;" horiz-adv-x="549" d="M75 168q0 14 10 23.5t24 9.5q9 0 17 -4.5t12.5 -12t4.5 -16.5q0 -32 15.5 -58.5t43.5 -42t61 -15.5q51 0 86.5 33.5t35.5 82.5v261h-193q-13 0 -23 10t-10 23.5t10 23.5t23 10h193v69h-193q-13 0 -23 10t-10 24t10 23.5t23 9.5h193v260q0 49 -35.5 83t-86.5 34 q-50 0 -85 -34t-35 -83q0 -13 -10 -23t-24 -10t-24 10t-10 23q0 77 55 130.5t133 53.5t133 -54t55 -130v-724q0 -76 -55 -129.5t-133 -53.5t-133 53.5t-55 129.5z" />
<glyph unicode="&#x42e;" horiz-adv-x="748" d="M98 33v995q0 14 10 23.5t24 9.5t23.5 -9.5t9.5 -23.5v-403h110v267q0 76 55 130t132.5 54t132.5 -54t55 -130v-724q0 -76 -55 -129.5t-132.5 -53.5t-132.5 53.5t-55 129.5v267h-110v-402q0 -14 -9.5 -23.5t-23.5 -9.5t-24 9.5t-10 23.5zM165 502h110v56h-110v-56z M341 168q0 -49 35.5 -82.5t86 -33.5t85.5 33.5t35 82.5v724q0 49 -35 83t-85.5 34t-86 -34t-35.5 -83v-724z" />
<glyph unicode="&#x42f;" horiz-adv-x="606" d="M98 33v570q0 91 80 138q-80 51 -80 143q0 72 51.5 124.5t122.5 52.5h202q14 0 24 -9.5t10 -23.5v-995q0 -14 -10 -23.5t-24 -9.5t-23.5 9.5t-9.5 23.5v549h-276v-549q0 -14 -9.5 -23.5t-23.5 -9.5t-24 9.5t-10 23.5zM165 883.5q0 -45.5 31.5 -78t75.5 -32.5h169v221h-169 q-44 0 -75.5 -32.5t-31.5 -78zM176 649h265v57h-169q-33 0 -58 -15.5t-38 -41.5z" />
<glyph unicode="&#x430;" horiz-adv-x="557" d="M98 33v852q0 79 54.5 135t126.5 56t126.5 -56t54.5 -135v-852q0 -14 -10.5 -23.5t-24 -9.5t-23.5 9.5t-10 23.5v366h-227v-366q0 -14 -9.5 -23.5t-23.5 -9.5t-24 9.5t-10 23.5zM165 465h227v57h-227v-57zM165 588h227v297q0 35 -15 63.5t-41 44.5t-57 16q-48 0 -81 -35.5 t-33 -88.5v-297z" />
<glyph unicode="&#x431;" horiz-adv-x="580" d="M98 33v993q0 9 4.5 17t12.5 13t17 5h259q14 0 23.5 -9.5t9.5 -23.5t-9.5 -24t-23.5 -10h-226v-227h55q83 0 154 -50.5t112.5 -139t41.5 -194t-41.5 -194t-112.5 -139t-154 -50.5h-90q-13 0 -22.5 10t-9.5 23zM165 67h55q101 0 171 91t70 225t-70 225.5t-171 91.5h-55 v-633z" />
<glyph unicode="&#x432;" horiz-adv-x="610" d="M98 33v993q0 9 4.5 17t12.5 13t17 5h109q34 0 65.5 -14t54.5 -38t36.5 -57t13.5 -68q0 -91 -73 -134q36 -13 67.5 -33t57 -46t46.5 -58t35 -68.5t21.5 -77t7.5 -84.5q0 -105 -41.5 -193.5t-112 -139t-154.5 -50.5h-135q-13 0 -22.5 10t-9.5 23zM165 67h100 q40 0 76.5 15.5t66.5 44.5t52 67.5t34 87t12 101.5q0 134 -70.5 227.5t-170.5 93.5h-100v-637zM165 771h76q43 0 73 33.5t30 79.5q0 45 -30.5 77.5t-72.5 32.5h-76v-223z" />
<glyph unicode="&#x433;" horiz-adv-x="518" d="M98 33v993q0 9 4.5 17t12.5 13t17 5h300q14 0 23.5 -9.5t9.5 -23.5t-9.5 -24t-23.5 -10h-267v-961q0 -14 -9.5 -23.5t-23.5 -9.5t-24 9.5t-10 23.5z" />
<glyph unicode="&#x434;" horiz-adv-x="603" d="M15 33q0 14 10 24t24 10h49l320 927h-182q-9 0 -18 -4t-15 -10t-10 -14.5t-4 -18.5q0 -13 6.5 -23.5t17 -16.5t23.5 -6q14 0 24 -10.5t10 -24t-10 -23.5t-24 -10q-46 0 -79.5 34t-33.5 80q0 31 15 57t41.5 41.5t56.5 15.5h228q15 0 25.5 -11.5t9.5 -26.5v-956h48 q14 0 23.5 -10t9.5 -24v-195q0 -8 -4 -15t-11 -11t-15 -4q-13 0 -22 8.5t-9 21.5v162h-444v-162q0 -13 -8.5 -21.5t-21.5 -8.5t-21.5 8.5t-8.5 21.5v195zM169 67h263v788z" />
<glyph unicode="&#x435;" horiz-adv-x="445" d="M98 120v821q0 50 36 85t86 35h109q13 0 23 -9.5t10 -23.5t-10 -24t-23 -10h-109q-22 0 -38.5 -15.5t-16.5 -37.5v-623h164q13 0 23 -9.5t10 -23.5t-10 -23.5t-23 -9.5h-164v-132q0 -22 16.5 -37.5t38.5 -15.5h109q13 0 23 -10t10 -24q0 -7 -2.5 -13t-7 -10.5t-11 -7 t-12.5 -2.5h-109q-50 0 -86 35t-36 85z" />
<glyph unicode="&#x436;" horiz-adv-x="754" d="M75 33v469q0 48 30 82t81 41q-33 35 -33 78v273q0 14 10 23.5t23.5 9.5t23.5 -9.5t10 -23.5v-273q0 -27 19 -47t44 -20h61v392q0 9 4.5 16.5t12 12t16.5 4.5q14 0 24 -9.5t10 -23.5v-392h60q26 0 45 20t19 47v273q0 14 9.5 23.5t23.5 9.5t24 -9.5t10 -23.5v-273 q0 -43 -34 -78q52 -7 81.5 -41t29.5 -82v-469q0 -9 -4.5 -16.5t-12.5 -12t-17 -4.5q-14 0 -23.5 9.5t-9.5 23.5v469q0 28 -20 48t-48 20h-133v-537q0 -14 -10 -23.5t-23.5 -9.5t-23.5 9.5t-10 23.5v537h-133q-28 0 -48 -20t-20 -48v-469q0 -14 -10 -23.5t-24 -9.5t-24 9.5 t-10 23.5z" />
<glyph unicode="&#x437;" horiz-adv-x="489" d="M53 176q0 14 10 23.5t23.5 9.5t23.5 -9.5t10 -23.5q0 -53 34 -88.5t87 -35.5t87 36t34 88v406q0 56 -32 90t-89 34h-80q-14 0 -24 9.5t-10 23.5t10 24t24 10h80q55 0 88 32t33 87q0 49 -35.5 83t-85.5 34q-51 0 -86 -34t-35 -83q0 -13 -10 -23t-23.5 -10t-23.5 10t-10 23 q0 77 55 130.5t133 53.5t133 -54t55 -130q0 -52 -31 -95t-78 -56q48 -15 78.5 -61.5t30.5 -97.5v-406q0 -80 -54 -135.5t-134 -55.5q-81 0 -134.5 55.5t-53.5 135.5z" />
<glyph unicode="&#x438;" d="M98 33v995q0 14 10 23.5t24 9.5t23.5 -9.5t9.5 -23.5v-776l244 786q8 23 32 23q14 0 23.5 -9.5t9.5 -23.5v-995q0 -14 -9.5 -23.5t-23.5 -9.5t-23.5 9.5t-9.5 23.5v777l-244 -787q-8 -23 -32 -23q-14 0 -24 9.5t-10 23.5z" />
<glyph unicode="&#x439;" d="M98 33v995q0 14 10 23.5t24 9.5t23.5 -9.5t9.5 -23.5v-776l244 786q8 23 32 23q14 0 23.5 -9.5t9.5 -23.5v-995q0 -14 -9.5 -23.5t-23.5 -9.5t-23.5 9.5t-9.5 23.5v777l-244 -787q-8 -23 -32 -23q-14 0 -24 9.5t-10 23.5zM175 1244q0 16 8.5 25.5t23 9.5t23 -9.5 t8.5 -25.5t6 -28t17.5 -18.5t26.5 -6.5q23 0 36.5 14.5t13.5 38.5q0 11 4 19t11 12t17 4q15 0 23.5 -9.5t8.5 -25.5q0 -24 -8.5 -44t-23 -34t-36 -21.5t-46.5 -7.5q-51 0 -82 29t-31 78z" />
<glyph unicode="&#x43a;" horiz-adv-x="554" d="M98 33v995q0 14 10 23.5t24 9.5t23.5 -9.5t9.5 -23.5v-392h107q25 0 44 20t19 47v182q0 14 10 23.5t23.5 9.5t23.5 -9.5t10 -23.5v-182q0 -43 -33 -78q51 -7 80.5 -41t29.5 -82v-469q0 -14 -10 -23.5t-23.5 -9.5t-23.5 9.5t-10 23.5v469q0 28 -20 48t-48 20h-179v-537 q0 -14 -9.5 -23.5t-23.5 -9.5t-24 9.5t-10 23.5z" />
<glyph unicode="&#x43b;" horiz-adv-x="523" d="M18 45l328 949h-182q-20 0 -33.5 -13.5t-13.5 -33t13.5 -33t33.5 -13.5q9 0 16.5 -5t12 -12.5t4.5 -16.5q0 -14 -10 -24t-23 -10q-47 0 -80.5 34t-33.5 80q0 31 15.5 57t41.5 41.5t57 15.5h227q15 0 25 -10t10 -28v-990q0 -14 -10 -23.5t-24 -9.5t-23.5 9.5t-9.5 23.5 v822l-277 -831q-8 -24 -32 -24q-17 0 -27.5 13t-4.5 32z" />
<glyph unicode="&#x43c;" horiz-adv-x="575" d="M98 33q0 -14 10 -23.5t24 -9.5t23.5 9.5t9.5 23.5v593l95 -152q8 -12 27.5 -12t27.5 12l96 152v-593q0 -14 9.5 -23.5t23.5 -9.5t23.5 9.5t9.5 23.5v995q0 14 -9.5 23.5t-23.5 9.5q-20 0 -29 -17l-127 -244l-127 244q-9 17 -29 17q-14 0 -24 -9.5t-10 -23.5v-995z M165 750v142l95 -179q7 -14 28 -14t27 14l96 179v-142l-123 -194z" />
<glyph unicode="&#x43d;" horiz-adv-x="557" d="M98 33v995q0 14 10 23.5t24 9.5t23.5 -9.5t9.5 -23.5v-366h227v366q0 14 10 23.5t23.5 9.5t24 -9.5t10.5 -23.5v-995q0 -14 -10.5 -23.5t-24 -9.5t-23.5 9.5t-10 23.5v440h-227v-440q0 -14 -9.5 -23.5t-23.5 -9.5t-24 9.5t-10 23.5zM165 539h227v57h-227v-57z" />
<glyph unicode="&#x43e;" d="M98 168q0 -76 55.5 -129.5t133 -53.5t132.5 53.5t55 129.5v724q0 76 -55 130t-132.5 54t-133 -54t-55.5 -130v-724zM165 168v724q0 49 35.5 83t86 34t86 -34t35.5 -83v-724q0 -49 -35.5 -82.5t-86 -33.5t-86 33.5t-35.5 82.5z" />
<glyph unicode="&#x43f;" horiz-adv-x="557" d="M98 33v995q0 14 10 23.5t24 9.5h294q13 0 23.5 -9.5t10.5 -23.5v-995q0 -14 -10.5 -23.5t-24 -9.5t-23.5 9.5t-10 23.5v839h-227v-839q0 -14 -9.5 -23.5t-23.5 -9.5t-24 9.5t-10 23.5zM165 938h227v56h-227v-56z" />
<glyph unicode="&#x440;" horiz-adv-x="575" d="M98 33v995q0 14 10 23.5t24 9.5h203q71 0 122 -52.5t51 -125t-51 -125t-122 -52.5h-170v-673q0 -14 -9.5 -23.5t-23.5 -9.5t-24 9.5t-10 23.5zM165 773h170q29 0 53 15t38.5 40.5t14.5 55t-14.5 55t-38.5 40.5t-53 15h-170v-221z" />
<glyph unicode="&#x441;" horiz-adv-x="549" d="M98 168v724q0 76 55.5 130t132.5 54q79 0 133.5 -53.5t54.5 -130.5q0 -13 -9.5 -23t-23.5 -10t-23.5 10t-9.5 23q0 49 -35.5 83t-86.5 34q-50 0 -85.5 -34t-35.5 -83v-724q0 -49 35.5 -82.5t85.5 -33.5q51 0 86.5 33.5t35.5 82.5q0 14 9.5 23.5t23.5 9.5t23.5 -9.5 t9.5 -23.5q0 -76 -54.5 -129.5t-133.5 -53.5q-77 0 -132.5 53.5t-55.5 129.5z" />
<glyph unicode="&#x442;" horiz-adv-x="457" d="M38 1028q0 14 9.5 23.5t23.5 9.5h315q14 0 24 -9.5t10 -23.5t-10 -24t-24 -10h-124v-961q0 -14 -9.5 -23.5t-23.5 -9.5t-24 9.5t-10 23.5v961h-124q-14 0 -23.5 10t-9.5 24z" />
<glyph unicode="&#x443;" horiz-adv-x="525" d="M38 1017q-5 19 6.5 31t28.5 12q23 -3 30 -25l76 -264l77 264q7 22 30 25q17 0 28.5 -12t6.5 -31l-106 -367l41 -145l153 530q7 22 31 25q16 0 28 -12t6 -31l-286 -993q-6 -24 -29 -24q-17 0 -29 12t-7 30l98 343z" />
<glyph unicode="&#x444;" horiz-adv-x="687" d="M98 184v694q0 76 55.5 129.5t132.5 53.5h25v42q0 14 9.5 24t23.5 10t23.5 -10t9.5 -24v-42h25q50 0 93.5 -24.5t69 -67t25.5 -91.5v-694q0 -76 -55.5 -130t-132.5 -54h-25v-42q0 -14 -9.5 -23.5t-23.5 -9.5t-23.5 9.5t-9.5 23.5v42h-25q-77 0 -132.5 54t-55.5 130z M165 184q0 -49 35.5 -83t85.5 -34h25v927h-25q-50 0 -85.5 -34t-35.5 -82v-694zM377 67h25q50 0 85.5 34t35.5 83v694q0 48 -35.5 82t-85.5 34h-25v-927z" />
<glyph unicode="&#x445;" horiz-adv-x="525" d="M55 44l172 501l-162 472q-6 18 5 31t28 13q23 0 31 -23l134 -389l134 389q8 23 31 23q17 0 28 -13t5 -31l-163 -472l173 -501q7 -20 -4 -32t-27 -12q-11 0 -20 6t-12 17l-76 221l-77 -221q-2 -5 -5.5 -9.5t-7.5 -7.5t-9 -4.5t-10 -1.5q-17 0 -27.5 12t-4.5 32l104 305 l-32 94l-145 -420q-3 -11 -12 -17t-19 -6q-17 0 -27.5 12t-4.5 32z" />
<glyph unicode="&#x446;" horiz-adv-x="563" d="M98 33v995q0 14 10 23.5t24 9.5t23.5 -9.5t9.5 -23.5v-961h227v961q0 14 10 23.5t23.5 9.5t24 -9.5t10.5 -23.5v-961h48q14 0 23.5 -10t9.5 -24v-195q0 -13 -9 -21.5t-21.5 -8.5t-21.5 8.5t-9 21.5v162h-348q-14 0 -24 9.5t-10 23.5z" />
<glyph unicode="&#x447;" horiz-adv-x="549" d="M75 596v432q0 14 10 23.5t24 9.5q9 0 17 -4.5t12.5 -12t4.5 -16.5v-432q0 -49 35 -83t85 -34q71 0 122 44v505q0 14 9.5 23.5t23.5 9.5t23.5 -9.5t9.5 -23.5v-995q0 -5 -1.5 -10t-4.5 -9.5t-7 -7.5t-9 -4.5t-11 -1.5q-14 0 -23.5 9.5t-9.5 23.5v420q-57 -41 -122 -41 q-78 0 -133 54t-55 130z" />
<glyph unicode="&#x448;" horiz-adv-x="700" d="M98 33v995q0 14 10 23.5t24 9.5t23.5 -9.5t9.5 -23.5v-961h152v961q0 14 9.5 23.5t23.5 9.5t23.5 -9.5t9.5 -23.5v-961h152v961q0 7 2.5 13t7 10.5t11 7t12.5 2.5q14 0 24 -9.5t10 -23.5v-995q0 -14 -10 -23.5t-24 -9.5h-436q-14 0 -24 9.5t-10 23.5z" />
<glyph unicode="&#x449;" horiz-adv-x="700" d="M98 33v995q0 14 10 23.5t24 9.5t23.5 -9.5t9.5 -23.5v-961h152v961q0 14 9.5 23.5t23.5 9.5t23.5 -9.5t9.5 -23.5v-961h152v961q0 7 2.5 13t7 10.5t11 7t12.5 2.5q14 0 24 -9.5t10 -23.5v-961h48q14 0 24 -10t10 -24v-195q0 -13 -9 -21.5t-21.5 -8.5t-21.5 8.5t-9 21.5 v162h-491q-14 0 -24 9.5t-10 23.5z" />
<glyph unicode="&#x44a;" horiz-adv-x="695" d="M0 1028q0 14 9.5 23.5t23.5 9.5h184q16 0 24.5 -10.5t8.5 -22.5v-261h100q63 0 119.5 -30t98 -81t66 -122t24.5 -151q0 -105 -41.5 -193.5t-112 -139t-154.5 -50.5h-135q-13 0 -22 10t-9 23v961h-151q-14 0 -23.5 10t-9.5 24zM250 67h100q101 0 171 91t70 225t-70 225.5 t-171 91.5h-100v-633z" />
<glyph unicode="&#x44b;" horiz-adv-x="943" d="M98 33v995q0 13 10 23t24 10q15 0 24 -10.5t9 -22.5v-261h100q62 0 119 -30t98.5 -81t66 -122t24.5 -151q0 -105 -41.5 -193.5t-112 -139t-154.5 -50.5h-135q-13 0 -22.5 10t-9.5 23zM165 67h100q40 0 76.5 15.5t66.5 44.5t52 67.5t34 87t12 101.5q0 134 -70 225.5 t-171 91.5h-100v-633zM619 33q0 14 9.5 24t23.5 10q24 0 39 16.5t15 36.5v821q0 20 -15 36.5t-39 16.5q-14 0 -23.5 10t-9.5 24q0 7 2.5 13t7 10.5t10.5 7t13 2.5q54 0 87 -46q33 46 88 46q14 0 24 -9.5t10 -23.5t-10 -24t-24 -10q-23 0 -38.5 -16.5t-15.5 -36.5v-821 q0 -13 6.5 -25t19 -20t28.5 -8q14 0 24 -10t10 -24t-10 -23.5t-24 -9.5q-55 0 -88 45q-32 -45 -87 -45q-14 0 -23.5 9.5t-9.5 23.5z" />
<glyph unicode="&#x44c;" horiz-adv-x="610" d="M98 33v995q0 13 10 23t24 10q15 0 24 -10.5t9 -22.5v-261h100q62 0 119 -30t98.5 -81t66 -122t24.5 -151q0 -105 -41.5 -193.5t-112 -139t-154.5 -50.5h-135q-13 0 -22.5 10t-9.5 23zM165 67h100q40 0 76.5 15.5t66.5 44.5t52 67.5t34 87t12 101.5q0 134 -70 225.5 t-171 91.5h-100v-633z" />
<glyph unicode="&#x44d;" horiz-adv-x="549" d="M75 168q0 14 10 23.5t24 9.5q9 0 17 -4.5t12.5 -12t4.5 -16.5q0 -32 15.5 -58.5t43.5 -42t61 -15.5q51 0 86.5 33.5t35.5 82.5v261h-193q-13 0 -23 10t-10 23.5t10 23.5t23 10h193v69h-193q-13 0 -23 10t-10 24t10 23.5t23 9.5h193v260q0 49 -35.5 83t-86.5 34 q-50 0 -85 -34t-35 -83q0 -13 -10 -23t-24 -10t-24 10t-10 23q0 77 55 130.5t133 53.5t133 -54t55 -130v-724q0 -76 -55 -129.5t-133 -53.5t-133 53.5t-55 129.5z" />
<glyph unicode="&#x44e;" horiz-adv-x="748" d="M98 33v995q0 14 10 23.5t24 9.5t23.5 -9.5t9.5 -23.5v-403h110v267q0 76 55 130t132.5 54t132.5 -54t55 -130v-724q0 -76 -55 -129.5t-132.5 -53.5t-132.5 53.5t-55 129.5v267h-110v-402q0 -14 -9.5 -23.5t-23.5 -9.5t-24 9.5t-10 23.5zM165 502h110v56h-110v-56z M341 168q0 -49 35.5 -82.5t86 -33.5t85.5 33.5t35 82.5v724q0 49 -35 83t-85.5 34t-86 -34t-35.5 -83v-724z" />
<glyph unicode="&#x44f;" horiz-adv-x="606" d="M98 33v570q0 91 80 138q-80 51 -80 143q0 72 51.5 124.5t122.5 52.5h202q14 0 24 -9.5t10 -23.5v-995q0 -14 -10 -23.5t-24 -9.5t-23.5 9.5t-9.5 23.5v549h-276v-549q0 -14 -9.5 -23.5t-23.5 -9.5t-24 9.5t-10 23.5zM165 883.5q0 -45.5 31.5 -78t75.5 -32.5h169v221h-169 q-44 0 -75.5 -32.5t-31.5 -78zM176 649h265v57h-169q-33 0 -58 -15.5t-38 -41.5z" />
<glyph unicode="&#x451;" horiz-adv-x="445" d="M98 120v821q0 50 36 85t86 35h109q13 0 23 -9.5t10 -23.5t-10 -24t-23 -10h-109q-22 0 -38.5 -15.5t-16.5 -37.5v-623h164q13 0 23 -9.5t10 -23.5t-10 -23.5t-23 -9.5h-164v-132q0 -22 16.5 -37.5t38.5 -15.5h109q13 0 23 -10t10 -24q0 -7 -2.5 -13t-7 -10.5t-11 -7 t-12.5 -2.5h-109q-50 0 -86 35t-36 85zM112 1206.5q0 21.5 15 36.5t36.5 15t36.5 -15t15 -36.5t-15 -36.5t-36.5 -15t-36.5 15t-15 36.5zM263 1206q0 14 7 26t19 19t26 7q22 0 37 -15t15 -37q0 -14 -7 -25.5t-19 -18.5t-26 -7q-21 0 -36.5 15t-15.5 36z" />
<glyph unicode="&#x2000;" horiz-adv-x="682" />
<glyph unicode="&#x2001;" horiz-adv-x="1365" />
<glyph unicode="&#x2002;" horiz-adv-x="682" />
<glyph unicode="&#x2003;" horiz-adv-x="1365" />
<glyph unicode="&#x2004;" horiz-adv-x="455" />
<glyph unicode="&#x2005;" horiz-adv-x="341" />
<glyph unicode="&#x2006;" horiz-adv-x="227" />
<glyph unicode="&#x2007;" horiz-adv-x="227" />
<glyph unicode="&#x2008;" horiz-adv-x="170" />
<glyph unicode="&#x2009;" horiz-adv-x="273" />
<glyph unicode="&#x200a;" horiz-adv-x="75" />
<glyph unicode="&#x2010;" horiz-adv-x="428" d="M0 379q0 14 9.5 23.5t23.5 9.5h363q14 0 23.5 -9.5t9.5 -23.5t-9.5 -23.5t-23.5 -9.5h-363q-14 0 -23.5 9.5t-9.5 23.5z" />
<glyph unicode="&#x2011;" horiz-adv-x="428" d="M0 379q0 14 9.5 23.5t23.5 9.5h363q14 0 23.5 -9.5t9.5 -23.5t-9.5 -23.5t-23.5 -9.5h-363q-14 0 -23.5 9.5t-9.5 23.5z" />
<glyph unicode="&#x2012;" horiz-adv-x="428" d="M0 379q0 14 9.5 23.5t23.5 9.5h363q14 0 23.5 -9.5t9.5 -23.5t-9.5 -23.5t-23.5 -9.5h-363q-14 0 -23.5 9.5t-9.5 23.5z" />
<glyph unicode="&#x2013;" horiz-adv-x="535" d="M0 379q0 14 9.5 23.5t23.5 9.5h470q14 0 23.5 -9.5t9.5 -23.5t-9.5 -23.5t-23.5 -9.5h-470q-14 0 -23.5 9.5t-9.5 23.5z" />
<glyph unicode="&#x2014;" horiz-adv-x="646" d="M0 379q0 14 9.5 23.5t23.5 9.5h580q14 0 24 -9.5t10 -23.5t-10 -23.5t-24 -9.5h-580q-14 0 -23.5 9.5t-9.5 23.5z" />
<glyph unicode="&#x2018;" horiz-adv-x="133" d="M15 911q0 9 6 29l32 98q7 23 29 23q15 0 24 -11t5 -27l-17 -70q24 -13 24 -41q0 -15 -6.5 -26.5t-18.5 -18t-28 -6.5q-11 0 -20.5 3.5t-16 10t-10 16t-3.5 20.5z" />
<glyph unicode="&#x2019;" horiz-adv-x="133" d="M15 1009q0 23 14.5 37.5t38.5 14.5q23 0 36.5 -13.5t13.5 -36.5q0 -11 -6 -29l-31 -98q-7 -23 -29 -23q-15 0 -24 10.5t-5 26.5l16 71q-24 12 -24 40z" />
<glyph unicode="&#x201a;" horiz-adv-x="133" d="M15 50q0 23 14.5 37t38.5 14q23 0 36.5 -13.5t13.5 -35.5q0 -11 -6 -29l-31 -98q-7 -23 -29 -23q-15 0 -24 10.5t-5 26.5l16 70q-24 13 -24 41z" />
<glyph unicode="&#x201c;" horiz-adv-x="269" d="M15 911q0 9 6 29l32 98q7 23 29 23q15 0 24 -11t5 -27l-17 -70q24 -13 24 -41q0 -15 -6.5 -26.5t-18.5 -18t-28 -6.5q-11 0 -20.5 3.5t-16 10t-10 16t-3.5 20.5zM152 911q0 11 6 29l31 98q7 23 29 23q15 0 24 -11t5 -27l-17 -70q25 -13 25 -41q0 -15 -7 -26.5t-19 -18 t-28 -6.5q-15 0 -26 6t-17 17.5t-6 26.5z" />
<glyph unicode="&#x201d;" horiz-adv-x="269" d="M15 1009q0 23 14.5 37.5t38.5 14.5q23 0 36.5 -13.5t13.5 -36.5q0 -11 -6 -29l-31 -98q-7 -23 -29 -23q-15 0 -24 10.5t-5 26.5l16 71q-24 12 -24 40zM152 1009q0 23 14.5 37.5t37.5 14.5t37 -13.5t14 -36.5q0 -11 -6 -29l-32 -98q-7 -23 -29 -23q-15 0 -24 10.5t-5 26.5 l17 71q-24 12 -24 40z" />
<glyph unicode="&#x201e;" horiz-adv-x="269" d="M15 50q0 23 14.5 37t38.5 14q23 0 36.5 -13.5t13.5 -35.5q0 -11 -6 -29l-31 -98q-7 -23 -29 -23q-15 0 -24 10.5t-5 26.5l16 70q-24 13 -24 41zM152 50q0 23 14 37t38 14q15 0 26.5 -6t18 -17t6.5 -26q0 -11 -6 -29l-32 -98q-7 -23 -29 -23q-15 0 -24 10.5t-5 26.5l17 70 q-24 13 -24 41z" />
<glyph unicode="&#x2026;" d="M38 52q0 20 15 34.5t36.5 14.5t36.5 -14.5t15 -34.5q0 -22 -15 -37t-36.5 -15t-36.5 15t-15 37zM235 52q0 20 15 34.5t36 14.5q15 0 26.5 -6.5t18.5 -18t7 -24.5q0 -22 -15 -37t-37 -15q-10 0 -19.5 4t-16.5 11t-11 16.5t-4 20.5zM432 52q0 20 15 34.5t36 14.5 q11 0 20.5 -3.5t16.5 -10.5t11 -16t4 -19q0 -22 -15 -37t-36.5 -15t-36.5 15t-15 37z" />
<glyph unicode="&#x202f;" horiz-adv-x="273" />
<glyph unicode="&#x205f;" horiz-adv-x="341" />
<glyph unicode="&#x20ac;" horiz-adv-x="564" d="M0 462.5q0 11.5 8 19.5t19 8h87v81h-87q-11 0 -19 8.5t-8 19.5t8 19t19 8h87v266q0 76 55.5 130t132.5 54q78 0 133 -53.5t55 -130.5q0 -13 -10 -23t-24 -10t-23.5 10t-9.5 23q0 49 -35 83t-86 34q-50 0 -85.5 -34t-35.5 -83v-266h168q11 0 19 -8t8 -19t-8 -19.5 t-19 -8.5h-168v-81h168q11 0 19 -8t8 -19.5t-8 -19.5t-19 -8h-168v-267q0 -49 35.5 -82.5t85.5 -33.5q51 0 86 33.5t35 82.5q0 14 9.5 23.5t23.5 9.5t24 -9.5t10 -23.5q0 -76 -55 -129.5t-133 -53.5q-77 0 -132.5 53.5t-55.5 129.5v267h-87q-11 0 -19 8t-8 19.5z" />
<glyph unicode="&#x25fc;" horiz-adv-x="1060" d="M0 0v1061h1061v-1061h-1061z" />
</font>
</defs>
</svg>
